G04 EAGLE Gerber RS-274X export*
G75*
%MOMM*%
%FSLAX34Y34*%
%LPD*%
%INTop Copper*%
%IPPOS*%
%AMOC8*
5,1,8,0,0,1.08239X$1,22.5*%
G01*
G04 Define Apertures*
%ADD10R,2.032000X0.660400*%
%ADD11C,1.879600*%
%ADD12R,1.879600X1.879600*%
%ADD13R,1.200000X0.800000*%
%ADD14R,1.600200X1.168400*%
%ADD15R,1.168400X1.600200*%
%ADD16R,1.100000X1.000000*%
%ADD17P,1.31965X8X22.5*%
%ADD18P,1.31965X8X202.5*%
%ADD19R,1.270000X0.635000*%
%ADD20R,1.300000X1.500000*%
%ADD21C,0.254000*%
%ADD22C,0.705600*%
%ADD23C,0.200000*%
%ADD24C,0.152400*%
G36*
X632745Y4651D02*
X632981Y4810D01*
X635000Y4810D01*
X635131Y4819D01*
X646775Y6352D01*
X647027Y6419D01*
X657878Y10914D01*
X658104Y11044D01*
X667421Y18194D01*
X667606Y18379D01*
X674756Y27696D01*
X674886Y27922D01*
X679381Y38773D01*
X679448Y39025D01*
X680981Y50669D01*
X680990Y50800D01*
X680990Y52820D01*
X681155Y53069D01*
X681228Y53445D01*
X681228Y403755D01*
X681149Y404145D01*
X680990Y404381D01*
X680990Y406400D01*
X680981Y406531D01*
X679448Y418175D01*
X679381Y418427D01*
X674886Y429278D01*
X674756Y429504D01*
X667606Y438821D01*
X667421Y439006D01*
X658104Y446156D01*
X657878Y446286D01*
X647027Y450781D01*
X646775Y450848D01*
X635131Y452381D01*
X635000Y452390D01*
X632980Y452390D01*
X632731Y452555D01*
X632355Y452628D01*
X53445Y452628D01*
X53055Y452549D01*
X52819Y452390D01*
X50800Y452390D01*
X50669Y452381D01*
X39025Y450848D01*
X38773Y450781D01*
X27922Y446286D01*
X27696Y446156D01*
X18379Y439006D01*
X18194Y438821D01*
X11044Y429504D01*
X10914Y429278D01*
X6419Y418427D01*
X6352Y418175D01*
X4819Y406531D01*
X4810Y406400D01*
X4810Y404380D01*
X4645Y404131D01*
X4572Y403755D01*
X4572Y53445D01*
X4651Y53055D01*
X4810Y52819D01*
X4810Y50800D01*
X4819Y50669D01*
X6352Y39025D01*
X6419Y38773D01*
X10914Y27922D01*
X11044Y27696D01*
X18194Y18379D01*
X18379Y18194D01*
X27696Y11044D01*
X27922Y10914D01*
X38773Y6419D01*
X39025Y6352D01*
X50669Y4819D01*
X50800Y4810D01*
X52820Y4810D01*
X53069Y4645D01*
X53445Y4572D01*
X632355Y4572D01*
X632745Y4651D01*
G37*
%LPC*%
G36*
X630958Y386080D02*
X623490Y389174D01*
X617774Y394890D01*
X614680Y402358D01*
X614680Y410442D01*
X617774Y417910D01*
X623490Y423626D01*
X630958Y426720D01*
X639042Y426720D01*
X646510Y423626D01*
X652226Y417910D01*
X655320Y410442D01*
X655320Y402358D01*
X652226Y394890D01*
X646510Y389174D01*
X639042Y386080D01*
X630958Y386080D01*
G37*
G36*
X46758Y386080D02*
X39290Y389174D01*
X33574Y394890D01*
X30480Y402358D01*
X30480Y410442D01*
X33574Y417910D01*
X39290Y423626D01*
X46758Y426720D01*
X54842Y426720D01*
X62310Y423626D01*
X68026Y417910D01*
X71120Y410442D01*
X71120Y402358D01*
X68026Y394890D01*
X62310Y389174D01*
X54842Y386080D01*
X46758Y386080D01*
G37*
G36*
X290943Y22606D02*
X275336Y38213D01*
X275336Y39467D01*
X275257Y39857D01*
X275032Y40186D01*
X274719Y40391D01*
X271943Y41541D01*
X268871Y44613D01*
X267208Y48627D01*
X267208Y52973D01*
X268871Y56987D01*
X271943Y60059D01*
X275957Y61722D01*
X280303Y61722D01*
X284317Y60059D01*
X287389Y56987D01*
X289052Y52973D01*
X289052Y48627D01*
X287389Y44613D01*
X284317Y41541D01*
X282584Y40823D01*
X282254Y40601D01*
X282037Y40267D01*
X281967Y39875D01*
X282055Y39487D01*
X282259Y39192D01*
X292964Y28487D01*
X293296Y28267D01*
X293672Y28194D01*
X442928Y28194D01*
X443319Y28273D01*
X443636Y28487D01*
X474433Y59284D01*
X474653Y59616D01*
X474726Y59992D01*
X474726Y72025D01*
X474647Y72415D01*
X474422Y72743D01*
X474087Y72958D01*
X473726Y73025D01*
X471047Y73025D01*
X470607Y73465D01*
X470275Y73684D01*
X469884Y73757D01*
X469495Y73672D01*
X469193Y73465D01*
X468753Y73025D01*
X455807Y73025D01*
X455719Y73113D01*
X455387Y73333D01*
X455012Y73406D01*
X433372Y73406D01*
X432982Y73327D01*
X432664Y73113D01*
X422726Y63175D01*
X422507Y62843D01*
X422434Y62452D01*
X422519Y62063D01*
X422749Y61739D01*
X423088Y61530D01*
X423434Y61468D01*
X430800Y61468D01*
X430800Y50530D01*
X419862Y50530D01*
X419862Y57896D01*
X419783Y58287D01*
X419558Y58615D01*
X419223Y58829D01*
X418830Y58896D01*
X418443Y58804D01*
X418155Y58604D01*
X416761Y57210D01*
X416541Y56878D01*
X416468Y56487D01*
X416544Y56120D01*
X417322Y54243D01*
X417322Y49897D01*
X415659Y45883D01*
X412587Y42811D01*
X408573Y41148D01*
X404227Y41148D01*
X400213Y42811D01*
X398730Y44294D01*
X398399Y44513D01*
X398007Y44586D01*
X397619Y44501D01*
X397316Y44294D01*
X386075Y33052D01*
X347722Y33052D01*
X336058Y44716D01*
X336058Y104076D01*
X335979Y104467D01*
X335765Y104784D01*
X334162Y106387D01*
X333830Y106607D01*
X333454Y106680D01*
X327044Y106680D01*
X322580Y111144D01*
X322580Y117456D01*
X327113Y121989D01*
X327333Y122321D01*
X327406Y122697D01*
X327406Y198435D01*
X327327Y198825D01*
X327113Y199142D01*
X325148Y201107D01*
X325148Y205293D01*
X327113Y207258D01*
X327333Y207590D01*
X327406Y207965D01*
X327406Y242457D01*
X367143Y282194D01*
X384826Y282194D01*
X385216Y282273D01*
X385544Y282498D01*
X385759Y282834D01*
X385826Y283194D01*
X385826Y283206D01*
X386719Y284099D01*
X389906Y284099D01*
X390296Y284178D01*
X390624Y284403D01*
X390839Y284739D01*
X390906Y285099D01*
X390906Y309976D01*
X390827Y310366D01*
X390602Y310694D01*
X390267Y310909D01*
X389906Y310976D01*
X383369Y310976D01*
X382247Y312098D01*
X381915Y312317D01*
X381524Y312390D01*
X381135Y312305D01*
X380811Y312075D01*
X380602Y311736D01*
X380552Y311460D01*
X379052Y309960D01*
X373500Y309960D01*
X373500Y325040D01*
X379052Y325040D01*
X380555Y323538D01*
X380619Y323219D01*
X380844Y322891D01*
X381180Y322677D01*
X381572Y322610D01*
X381959Y322702D01*
X382247Y322902D01*
X383369Y324024D01*
X385706Y324024D01*
X386096Y324103D01*
X386424Y324328D01*
X386639Y324664D01*
X386706Y325024D01*
X386706Y335376D01*
X386627Y335766D01*
X386402Y336094D01*
X386067Y336309D01*
X385706Y336376D01*
X383369Y336376D01*
X382247Y337498D01*
X381915Y337717D01*
X381524Y337790D01*
X381135Y337705D01*
X380811Y337475D01*
X380602Y337136D01*
X380552Y336860D01*
X379052Y335360D01*
X373500Y335360D01*
X373500Y350440D01*
X379052Y350440D01*
X380555Y348938D01*
X380619Y348619D01*
X380844Y348291D01*
X381180Y348077D01*
X381572Y348010D01*
X381959Y348102D01*
X382247Y348302D01*
X383369Y349424D01*
X389906Y349424D01*
X390296Y349503D01*
X390624Y349728D01*
X390839Y350064D01*
X390906Y350424D01*
X390906Y392128D01*
X390827Y392519D01*
X390613Y392836D01*
X385216Y398233D01*
X384884Y398453D01*
X384508Y398526D01*
X378825Y398526D01*
X378435Y398447D01*
X378107Y398222D01*
X377892Y397887D01*
X377825Y397526D01*
X377825Y394847D01*
X377385Y394407D01*
X377166Y394075D01*
X377093Y393684D01*
X377178Y393295D01*
X377385Y392993D01*
X377825Y392553D01*
X377825Y379607D01*
X376932Y378714D01*
X359668Y378714D01*
X358983Y379399D01*
X358651Y379619D01*
X358260Y379692D01*
X357871Y379606D01*
X357569Y379399D01*
X348245Y370075D01*
X348025Y369744D01*
X347952Y369368D01*
X347952Y366207D01*
X344993Y363248D01*
X340807Y363248D01*
X338572Y365483D01*
X338241Y365703D01*
X337865Y365776D01*
X319223Y365776D01*
X318833Y365697D01*
X318516Y365483D01*
X314992Y361959D01*
X314792Y361919D01*
X314475Y361705D01*
X307617Y354847D01*
X307397Y354516D01*
X307324Y354140D01*
X307324Y349424D01*
X307403Y349034D01*
X307628Y348706D01*
X307964Y348491D01*
X308241Y348440D01*
X309149Y347531D01*
X309149Y338269D01*
X308137Y337257D01*
X307918Y336925D01*
X307845Y336534D01*
X307930Y336145D01*
X308137Y335843D01*
X309149Y334831D01*
X309149Y325569D01*
X308137Y324557D01*
X307918Y324225D01*
X307845Y323834D01*
X307930Y323445D01*
X308137Y323143D01*
X309149Y322131D01*
X309149Y312869D01*
X308137Y311857D01*
X307918Y311525D01*
X307845Y311134D01*
X307930Y310745D01*
X308137Y310443D01*
X309149Y309431D01*
X309149Y300169D01*
X308239Y299259D01*
X307934Y299197D01*
X307606Y298972D01*
X307391Y298637D01*
X307324Y298276D01*
X307324Y293560D01*
X307403Y293170D01*
X307617Y292853D01*
X320024Y280446D01*
X320024Y265655D01*
X305846Y251476D01*
X300974Y251476D01*
X300584Y251397D01*
X300256Y251172D01*
X300041Y250837D01*
X299974Y250476D01*
X299974Y250194D01*
X299081Y249301D01*
X285119Y249301D01*
X284226Y250194D01*
X284226Y250476D01*
X284147Y250866D01*
X283922Y251194D01*
X283587Y251409D01*
X283226Y251476D01*
X278355Y251476D01*
X270931Y258899D01*
X270599Y259119D01*
X270208Y259192D01*
X269819Y259107D01*
X269495Y258877D01*
X269286Y258538D01*
X269224Y258192D01*
X269224Y255460D01*
X269303Y255070D01*
X269517Y254753D01*
X280153Y244117D01*
X280484Y243897D01*
X280860Y243824D01*
X283226Y243824D01*
X283616Y243903D01*
X283944Y244128D01*
X284159Y244464D01*
X284226Y244824D01*
X284226Y245106D01*
X285119Y245999D01*
X299081Y245999D01*
X299974Y245106D01*
X299974Y237494D01*
X299081Y236601D01*
X285119Y236601D01*
X284226Y237494D01*
X284226Y237776D01*
X284147Y238166D01*
X283922Y238494D01*
X283587Y238709D01*
X283226Y238776D01*
X278355Y238776D01*
X264581Y252549D01*
X264249Y252769D01*
X263858Y252842D01*
X263469Y252757D01*
X263145Y252527D01*
X262936Y252188D01*
X262874Y251842D01*
X262874Y249110D01*
X262953Y248720D01*
X263167Y248403D01*
X280153Y231417D01*
X280484Y231197D01*
X280860Y231124D01*
X283226Y231124D01*
X283616Y231203D01*
X283944Y231428D01*
X284159Y231764D01*
X284226Y232124D01*
X284226Y232406D01*
X285119Y233299D01*
X299081Y233299D01*
X299974Y232406D01*
X299974Y224794D01*
X299081Y223901D01*
X285119Y223901D01*
X284226Y224794D01*
X284226Y225076D01*
X284147Y225466D01*
X283922Y225794D01*
X283587Y226009D01*
X283226Y226076D01*
X278355Y226076D01*
X258231Y246199D01*
X257899Y246419D01*
X257508Y246492D01*
X257119Y246407D01*
X256795Y246177D01*
X256586Y245838D01*
X256524Y245492D01*
X256524Y242760D01*
X256603Y242370D01*
X256817Y242053D01*
X280153Y218717D01*
X280484Y218497D01*
X280860Y218424D01*
X283226Y218424D01*
X283616Y218503D01*
X283944Y218728D01*
X284159Y219064D01*
X284226Y219424D01*
X284226Y219706D01*
X285119Y220599D01*
X299081Y220599D01*
X299974Y219706D01*
X299974Y212094D01*
X299081Y211201D01*
X285119Y211201D01*
X284226Y212094D01*
X284226Y212376D01*
X284147Y212766D01*
X283922Y213094D01*
X283587Y213309D01*
X283226Y213376D01*
X278355Y213376D01*
X251881Y239849D01*
X251549Y240069D01*
X251158Y240142D01*
X250769Y240057D01*
X250445Y239827D01*
X250236Y239488D01*
X250174Y239142D01*
X250174Y236410D01*
X250253Y236020D01*
X250467Y235703D01*
X280153Y206017D01*
X280484Y205797D01*
X280860Y205724D01*
X283226Y205724D01*
X283616Y205803D01*
X283944Y206028D01*
X284159Y206364D01*
X284226Y206724D01*
X284226Y207006D01*
X285119Y207899D01*
X299081Y207899D01*
X299974Y207006D01*
X299974Y199394D01*
X299081Y198501D01*
X285119Y198501D01*
X284226Y199394D01*
X284226Y199676D01*
X284147Y200066D01*
X283922Y200394D01*
X283587Y200609D01*
X283226Y200676D01*
X278355Y200676D01*
X245126Y233905D01*
X245126Y271590D01*
X245047Y271980D01*
X244833Y272297D01*
X240547Y276583D01*
X240216Y276803D01*
X239840Y276876D01*
X233918Y276876D01*
X233528Y276797D01*
X233200Y276572D01*
X232985Y276237D01*
X232918Y275876D01*
X232918Y275467D01*
X232025Y274574D01*
X210443Y274574D01*
X209550Y275467D01*
X209550Y275876D01*
X209471Y276266D01*
X209246Y276594D01*
X208911Y276809D01*
X208550Y276876D01*
X193693Y276876D01*
X193303Y276797D01*
X192975Y276572D01*
X192760Y276237D01*
X192693Y275844D01*
X192785Y275457D01*
X192986Y275169D01*
X195552Y272603D01*
X195552Y268417D01*
X192593Y265458D01*
X188407Y265458D01*
X186994Y266872D01*
X186662Y267092D01*
X186164Y267157D01*
X172327Y265442D01*
X171950Y265315D01*
X171652Y265051D01*
X171480Y264692D01*
X171450Y264449D01*
X171450Y263830D01*
X171529Y263440D01*
X171754Y263112D01*
X172090Y262897D01*
X172450Y262830D01*
X195346Y262830D01*
X195736Y262909D01*
X196053Y263123D01*
X202155Y269224D01*
X208550Y269224D01*
X208940Y269303D01*
X209268Y269528D01*
X209483Y269864D01*
X209550Y270224D01*
X209550Y270633D01*
X210443Y271526D01*
X232025Y271526D01*
X232918Y270633D01*
X232918Y262767D01*
X232025Y261874D01*
X210443Y261874D01*
X209550Y262767D01*
X209550Y263176D01*
X209471Y263566D01*
X209246Y263894D01*
X208911Y264109D01*
X208550Y264176D01*
X204660Y264176D01*
X204270Y264097D01*
X203953Y263883D01*
X198301Y258231D01*
X198081Y257899D01*
X198008Y257508D01*
X198093Y257119D01*
X198323Y256795D01*
X198662Y256586D01*
X199008Y256524D01*
X208550Y256524D01*
X208940Y256603D01*
X209268Y256828D01*
X209483Y257164D01*
X209550Y257524D01*
X209550Y257933D01*
X210443Y258826D01*
X232025Y258826D01*
X232918Y257933D01*
X232918Y250067D01*
X232025Y249174D01*
X210443Y249174D01*
X209550Y250067D01*
X209550Y250476D01*
X209471Y250866D01*
X209246Y251194D01*
X208911Y251409D01*
X208550Y251476D01*
X195535Y251476D01*
X195145Y251397D01*
X194828Y251183D01*
X192593Y248948D01*
X188407Y248948D01*
X185448Y251907D01*
X185448Y256102D01*
X185650Y256407D01*
X185723Y256798D01*
X185638Y257187D01*
X185407Y257511D01*
X185069Y257720D01*
X184723Y257782D01*
X173466Y257782D01*
X173076Y257703D01*
X172748Y257478D01*
X172533Y257143D01*
X172466Y256782D01*
X172466Y255000D01*
X147066Y255000D01*
X147066Y256782D01*
X146987Y257172D01*
X146762Y257500D01*
X146427Y257715D01*
X146066Y257782D01*
X127152Y257782D01*
X126762Y257703D01*
X126433Y257478D01*
X126219Y257143D01*
X126152Y256750D01*
X126228Y256399D01*
X126238Y256375D01*
X126238Y255000D01*
X102342Y255000D01*
X102283Y255291D01*
X102058Y255619D01*
X101723Y255833D01*
X101330Y255900D01*
X100834Y255750D01*
X100294Y255415D01*
X100005Y255142D01*
X99845Y254777D01*
X99822Y254565D01*
X99822Y251827D01*
X98159Y247813D01*
X95087Y244741D01*
X91073Y243078D01*
X86727Y243078D01*
X82713Y244741D01*
X79641Y247813D01*
X77978Y251827D01*
X77978Y256173D01*
X79641Y260187D01*
X82713Y263259D01*
X86727Y264922D01*
X91073Y264922D01*
X95087Y263259D01*
X97695Y260652D01*
X98026Y260432D01*
X98418Y260359D01*
X98929Y260509D01*
X101710Y262236D01*
X101889Y262378D01*
X107457Y267946D01*
X107677Y268278D01*
X107750Y268669D01*
X107664Y269058D01*
X107457Y269360D01*
X104179Y272638D01*
X102362Y277025D01*
X102362Y278400D01*
X126238Y278400D01*
X126238Y277025D01*
X124421Y272638D01*
X121143Y269360D01*
X120923Y269028D01*
X120850Y268637D01*
X120936Y268248D01*
X121143Y267946D01*
X122160Y266929D01*
X125966Y263123D01*
X126298Y262903D01*
X126673Y262830D01*
X134237Y262830D01*
X134627Y262909D01*
X134955Y263134D01*
X135170Y263470D01*
X135237Y263862D01*
X135145Y264249D01*
X134944Y264537D01*
X134648Y264833D01*
X134648Y269019D01*
X137607Y271978D01*
X141793Y271978D01*
X142231Y271540D01*
X142563Y271320D01*
X142954Y271247D01*
X143343Y271332D01*
X143645Y271540D01*
X147275Y275169D01*
X147495Y275501D01*
X147568Y275892D01*
X147482Y276281D01*
X147252Y276605D01*
X146913Y276814D01*
X146568Y276876D01*
X130474Y276876D01*
X127945Y279405D01*
X127613Y279625D01*
X127222Y279698D01*
X126833Y279612D01*
X126738Y279545D01*
X126738Y280400D01*
X101862Y280400D01*
X101862Y279541D01*
X101723Y279631D01*
X101330Y279697D01*
X100943Y279606D01*
X100655Y279405D01*
X100115Y278865D01*
X99895Y278533D01*
X99822Y278158D01*
X99822Y277227D01*
X98159Y273213D01*
X95087Y270141D01*
X91073Y268478D01*
X86727Y268478D01*
X82713Y270141D01*
X79641Y273213D01*
X77978Y277227D01*
X77978Y281573D01*
X79641Y285587D01*
X82713Y288659D01*
X86727Y290322D01*
X91073Y290322D01*
X95087Y288659D01*
X98221Y285525D01*
X98553Y285305D01*
X98944Y285232D01*
X99333Y285317D01*
X99636Y285525D01*
X107457Y293346D01*
X107677Y293678D01*
X107750Y294069D01*
X107664Y294458D01*
X107457Y294760D01*
X104179Y298038D01*
X102362Y302425D01*
X102362Y303800D01*
X126238Y303800D01*
X126238Y302425D01*
X124421Y298038D01*
X121143Y294760D01*
X120923Y294428D01*
X120850Y294037D01*
X120936Y293648D01*
X121143Y293346D01*
X122160Y292329D01*
X132272Y282217D01*
X132604Y281997D01*
X132979Y281924D01*
X147082Y281924D01*
X147472Y282003D01*
X147800Y282228D01*
X148015Y282564D01*
X148082Y282924D01*
X148082Y283333D01*
X148975Y284226D01*
X170557Y284226D01*
X171450Y283333D01*
X171450Y279034D01*
X171529Y278644D01*
X171754Y278315D01*
X172090Y278101D01*
X172482Y278034D01*
X172869Y278126D01*
X173157Y278327D01*
X176755Y281924D01*
X182636Y281924D01*
X183026Y282003D01*
X183354Y282228D01*
X183568Y282564D01*
X183635Y282956D01*
X183544Y283343D01*
X183343Y283631D01*
X177691Y289283D01*
X177359Y289503D01*
X176984Y289576D01*
X172450Y289576D01*
X172060Y289497D01*
X171732Y289272D01*
X171517Y288937D01*
X171450Y288576D01*
X171450Y288167D01*
X170557Y287274D01*
X148975Y287274D01*
X148082Y288167D01*
X148082Y288576D01*
X148003Y288966D01*
X147778Y289294D01*
X147443Y289509D01*
X147082Y289576D01*
X144735Y289576D01*
X144345Y289497D01*
X144028Y289283D01*
X141793Y287048D01*
X137607Y287048D01*
X134648Y290007D01*
X134648Y294193D01*
X137607Y297152D01*
X141793Y297152D01*
X144028Y294917D01*
X144360Y294697D01*
X144735Y294624D01*
X146568Y294624D01*
X146958Y294703D01*
X147286Y294928D01*
X147500Y295264D01*
X147567Y295656D01*
X147476Y296043D01*
X147275Y296331D01*
X129447Y314159D01*
X129115Y314379D01*
X128740Y314452D01*
X123945Y314452D01*
X123555Y314373D01*
X123227Y314148D01*
X123012Y313813D01*
X122946Y313420D01*
X123037Y313033D01*
X123238Y312745D01*
X124421Y311562D01*
X126238Y307175D01*
X126238Y305800D01*
X101862Y305800D01*
X101862Y304941D01*
X101723Y305031D01*
X101330Y305097D01*
X100943Y305006D01*
X100655Y304805D01*
X100115Y304265D01*
X99895Y303933D01*
X99822Y303558D01*
X99822Y302627D01*
X98159Y298613D01*
X95087Y295541D01*
X91073Y293878D01*
X86727Y293878D01*
X82713Y295541D01*
X79641Y298613D01*
X77978Y302627D01*
X77978Y306973D01*
X79641Y310987D01*
X82713Y314059D01*
X86727Y315722D01*
X91073Y315722D01*
X95087Y314059D01*
X98221Y310925D01*
X98553Y310705D01*
X98944Y310632D01*
X99333Y310717D01*
X99636Y310925D01*
X107457Y318746D01*
X107677Y319078D01*
X107750Y319469D01*
X107664Y319858D01*
X107457Y320160D01*
X104179Y323438D01*
X102362Y327825D01*
X102362Y329200D01*
X126238Y329200D01*
X126238Y327825D01*
X124421Y323438D01*
X122190Y321207D01*
X121970Y320875D01*
X121897Y320484D01*
X121983Y320095D01*
X122213Y319771D01*
X122552Y319562D01*
X122897Y319500D01*
X131245Y319500D01*
X132941Y317804D01*
X133273Y317584D01*
X133664Y317511D01*
X134053Y317597D01*
X134377Y317827D01*
X134586Y318165D01*
X134648Y318511D01*
X134648Y319367D01*
X137607Y322326D01*
X141590Y322326D01*
X141980Y322405D01*
X142309Y322630D01*
X142523Y322966D01*
X142590Y323358D01*
X142498Y323745D01*
X142297Y324033D01*
X126247Y340083D01*
X125916Y340303D01*
X125540Y340376D01*
X123421Y340376D01*
X123031Y340297D01*
X122703Y340072D01*
X122488Y339737D01*
X122422Y339344D01*
X122513Y338957D01*
X122714Y338669D01*
X124421Y336962D01*
X126238Y332575D01*
X126238Y331200D01*
X102362Y331200D01*
X102362Y332575D01*
X104179Y336962D01*
X105886Y338669D01*
X106106Y339001D01*
X106179Y339392D01*
X106093Y339781D01*
X105863Y340105D01*
X105524Y340314D01*
X105179Y340376D01*
X103060Y340376D01*
X102670Y340297D01*
X102353Y340083D01*
X98777Y336508D01*
X98557Y336176D01*
X98485Y335785D01*
X98561Y335418D01*
X99822Y332373D01*
X99822Y328027D01*
X98159Y324013D01*
X95087Y320941D01*
X91073Y319278D01*
X86727Y319278D01*
X82713Y320941D01*
X79641Y324013D01*
X77978Y328027D01*
X77978Y332373D01*
X79641Y336387D01*
X82713Y339459D01*
X86727Y341122D01*
X91073Y341122D01*
X94118Y339861D01*
X94509Y339784D01*
X94898Y339867D01*
X95208Y340077D01*
X100555Y345424D01*
X128046Y345424D01*
X132941Y340529D01*
X133273Y340309D01*
X133664Y340236D01*
X134053Y340321D01*
X134377Y340551D01*
X134586Y340890D01*
X134648Y341236D01*
X134648Y344993D01*
X137607Y347952D01*
X141793Y347952D01*
X144752Y344993D01*
X144752Y341832D01*
X144831Y341442D01*
X145045Y341125D01*
X150851Y335319D01*
X151182Y335099D01*
X151558Y335026D01*
X170557Y335026D01*
X171450Y334133D01*
X171450Y333724D01*
X171529Y333334D01*
X171754Y333006D01*
X172090Y332791D01*
X172450Y332724D01*
X178846Y332724D01*
X185173Y326397D01*
X185504Y326177D01*
X185880Y326104D01*
X208550Y326104D01*
X208940Y326183D01*
X209268Y326408D01*
X209483Y326744D01*
X209550Y327104D01*
X209550Y334133D01*
X210443Y335026D01*
X217408Y335026D01*
X217799Y335105D01*
X218127Y335330D01*
X218341Y335666D01*
X218408Y336058D01*
X218316Y336445D01*
X218116Y336733D01*
X206066Y348783D01*
X205734Y349003D01*
X205358Y349076D01*
X192869Y349076D01*
X191747Y350198D01*
X191415Y350417D01*
X191024Y350490D01*
X190635Y350405D01*
X190311Y350175D01*
X190102Y349836D01*
X190052Y349560D01*
X188552Y348060D01*
X183000Y348060D01*
X183000Y363140D01*
X188552Y363140D01*
X190055Y361638D01*
X190119Y361319D01*
X190344Y360991D01*
X190680Y360777D01*
X191072Y360710D01*
X191459Y360802D01*
X191747Y361002D01*
X192869Y362124D01*
X205131Y362124D01*
X206024Y361231D01*
X206024Y357142D01*
X206103Y356752D01*
X206317Y356434D01*
X220527Y342224D01*
X220859Y342005D01*
X221250Y341932D01*
X221639Y342017D01*
X221941Y342224D01*
X282282Y402565D01*
X282502Y402897D01*
X282575Y403273D01*
X282575Y407793D01*
X283468Y408686D01*
X300732Y408686D01*
X301625Y407793D01*
X301625Y405114D01*
X301704Y404724D01*
X301929Y404396D01*
X302265Y404181D01*
X302625Y404114D01*
X319675Y404114D01*
X320065Y404193D01*
X320393Y404418D01*
X320608Y404754D01*
X320675Y405114D01*
X320675Y407793D01*
X321568Y408686D01*
X338832Y408686D01*
X339725Y407793D01*
X339725Y405114D01*
X339804Y404724D01*
X340029Y404396D01*
X340365Y404181D01*
X340725Y404114D01*
X357775Y404114D01*
X358165Y404193D01*
X358493Y404418D01*
X358708Y404754D01*
X358775Y405114D01*
X358775Y407793D01*
X359668Y408686D01*
X376932Y408686D01*
X377825Y407793D01*
X377825Y405114D01*
X377904Y404724D01*
X378129Y404396D01*
X378465Y404181D01*
X378825Y404114D01*
X387237Y404114D01*
X396494Y394857D01*
X396494Y352060D01*
X396573Y351670D01*
X396798Y351341D01*
X397134Y351127D01*
X397526Y351060D01*
X397913Y351152D01*
X398201Y351352D01*
X417943Y371094D01*
X489528Y371094D01*
X489919Y371173D01*
X490236Y371387D01*
X490602Y371753D01*
X490821Y372085D01*
X490894Y372476D01*
X490809Y372865D01*
X490579Y373189D01*
X490240Y373398D01*
X489894Y373460D01*
X487800Y373460D01*
X487800Y388540D01*
X493352Y388540D01*
X494855Y387038D01*
X494919Y386719D01*
X495144Y386391D01*
X495480Y386177D01*
X495872Y386110D01*
X496259Y386202D01*
X496547Y386402D01*
X497669Y387524D01*
X509931Y387524D01*
X510824Y386631D01*
X510824Y382542D01*
X510903Y382152D01*
X511117Y381834D01*
X528828Y364123D01*
X528828Y361426D01*
X528907Y361036D01*
X529132Y360708D01*
X529468Y360493D01*
X529828Y360426D01*
X536825Y360426D01*
X537718Y359533D01*
X537718Y352504D01*
X537797Y352114D01*
X538022Y351786D01*
X538358Y351571D01*
X538718Y351504D01*
X549758Y351504D01*
X555545Y345717D01*
X555876Y345497D01*
X556252Y345424D01*
X562379Y345424D01*
X562769Y345503D01*
X563097Y345728D01*
X563312Y346064D01*
X563378Y346456D01*
X563287Y346843D01*
X563086Y347131D01*
X561379Y348838D01*
X559562Y353225D01*
X559562Y354600D01*
X583438Y354600D01*
X583438Y353846D01*
X583517Y353456D01*
X583742Y353128D01*
X584078Y352914D01*
X584470Y352847D01*
X584857Y352939D01*
X585145Y353139D01*
X585685Y353679D01*
X585905Y354011D01*
X585978Y354386D01*
X585978Y357773D01*
X587641Y361787D01*
X590713Y364859D01*
X594727Y366522D01*
X599073Y366522D01*
X603087Y364859D01*
X606159Y361787D01*
X607822Y357773D01*
X607822Y353427D01*
X606159Y349413D01*
X603087Y346341D01*
X599073Y344678D01*
X594727Y344678D01*
X590713Y346341D01*
X588806Y348248D01*
X588475Y348467D01*
X588083Y348540D01*
X587695Y348455D01*
X587392Y348248D01*
X579571Y340426D01*
X579351Y340094D01*
X579278Y339703D01*
X579364Y339314D01*
X579571Y339012D01*
X581621Y336962D01*
X583438Y332575D01*
X583438Y331200D01*
X559562Y331200D01*
X559562Y332575D01*
X561379Y336962D01*
X563086Y338669D01*
X563306Y339001D01*
X563379Y339392D01*
X563293Y339781D01*
X563063Y340105D01*
X562724Y340314D01*
X562379Y340376D01*
X553747Y340376D01*
X552859Y341263D01*
X552527Y341483D01*
X552136Y341556D01*
X551747Y341471D01*
X551423Y341241D01*
X551214Y340902D01*
X551157Y340587D01*
X548193Y337622D01*
X544007Y337622D01*
X541772Y339857D01*
X541441Y340077D01*
X541065Y340150D01*
X538718Y340150D01*
X538328Y340071D01*
X538000Y339846D01*
X537785Y339511D01*
X537718Y339150D01*
X537718Y338967D01*
X536825Y338074D01*
X515243Y338074D01*
X514350Y338967D01*
X514350Y339376D01*
X514271Y339766D01*
X514046Y340094D01*
X513711Y340309D01*
X513350Y340376D01*
X508816Y340376D01*
X508426Y340297D01*
X508109Y340083D01*
X492037Y324011D01*
X491817Y323679D01*
X491744Y323304D01*
X491744Y323075D01*
X490401Y321731D01*
X490181Y321399D01*
X490108Y321008D01*
X490193Y320619D01*
X490423Y320295D01*
X490762Y320086D01*
X491108Y320024D01*
X494484Y320024D01*
X494874Y320103D01*
X495191Y320317D01*
X500978Y326104D01*
X513350Y326104D01*
X513740Y326183D01*
X514068Y326408D01*
X514283Y326744D01*
X514350Y327104D01*
X514350Y334133D01*
X515243Y335026D01*
X536825Y335026D01*
X537718Y334133D01*
X537718Y330882D01*
X537797Y330492D01*
X538022Y330164D01*
X538358Y329949D01*
X538718Y329882D01*
X546206Y329882D01*
X555771Y320317D01*
X556102Y320097D01*
X556478Y320024D01*
X562379Y320024D01*
X562769Y320103D01*
X563097Y320328D01*
X563312Y320664D01*
X563378Y321056D01*
X563287Y321443D01*
X563086Y321731D01*
X561379Y323438D01*
X559562Y327825D01*
X559562Y329200D01*
X583438Y329200D01*
X583438Y328446D01*
X583517Y328056D01*
X583742Y327728D01*
X584078Y327514D01*
X584470Y327447D01*
X584857Y327539D01*
X585145Y327739D01*
X585685Y328279D01*
X585905Y328611D01*
X585978Y328986D01*
X585978Y332373D01*
X587641Y336387D01*
X590713Y339459D01*
X594727Y341122D01*
X599073Y341122D01*
X603087Y339459D01*
X606159Y336387D01*
X607822Y332373D01*
X607822Y328027D01*
X606159Y324013D01*
X603087Y320941D01*
X599073Y319278D01*
X594727Y319278D01*
X590713Y320941D01*
X588806Y322848D01*
X588475Y323067D01*
X588083Y323140D01*
X587695Y323055D01*
X587392Y322848D01*
X579571Y315026D01*
X579351Y314694D01*
X579278Y314303D01*
X579364Y313914D01*
X579571Y313612D01*
X581621Y311562D01*
X583438Y307175D01*
X583438Y305800D01*
X559562Y305800D01*
X559562Y307175D01*
X561379Y311562D01*
X563086Y313269D01*
X563306Y313601D01*
X563379Y313992D01*
X563293Y314381D01*
X563063Y314705D01*
X562724Y314914D01*
X562379Y314976D01*
X553973Y314976D01*
X552859Y316089D01*
X552527Y316309D01*
X552136Y316382D01*
X551747Y316297D01*
X551423Y316067D01*
X551214Y315728D01*
X551157Y315413D01*
X549557Y313812D01*
X549337Y313480D01*
X549264Y313089D01*
X549349Y312700D01*
X549557Y312398D01*
X557855Y304099D01*
X558187Y303879D01*
X558578Y303807D01*
X558967Y303892D01*
X559062Y303960D01*
X559062Y303800D01*
X583438Y303800D01*
X583438Y303046D01*
X583517Y302656D01*
X583742Y302328D01*
X584078Y302114D01*
X584470Y302047D01*
X584857Y302139D01*
X585145Y302339D01*
X585685Y302879D01*
X585905Y303211D01*
X585978Y303586D01*
X585978Y306973D01*
X587641Y310987D01*
X590713Y314059D01*
X594727Y315722D01*
X599073Y315722D01*
X603087Y314059D01*
X606159Y310987D01*
X607822Y306973D01*
X607822Y302627D01*
X606159Y298613D01*
X603087Y295541D01*
X599073Y293878D01*
X594727Y293878D01*
X590713Y295541D01*
X588806Y297448D01*
X588475Y297667D01*
X588083Y297740D01*
X587695Y297655D01*
X587392Y297448D01*
X579571Y289626D01*
X579351Y289294D01*
X579278Y288903D01*
X579364Y288514D01*
X579571Y288212D01*
X581621Y286162D01*
X583438Y281775D01*
X583438Y280400D01*
X559562Y280400D01*
X559562Y281775D01*
X561379Y286162D01*
X564309Y289092D01*
X564529Y289424D01*
X564602Y289815D01*
X564516Y290204D01*
X564309Y290506D01*
X552142Y302673D01*
X551811Y302893D01*
X551419Y302966D01*
X551031Y302880D01*
X550706Y302650D01*
X550497Y302311D01*
X550441Y301996D01*
X547476Y299031D01*
X543291Y299031D01*
X541056Y301266D01*
X540724Y301486D01*
X540349Y301559D01*
X538718Y301559D01*
X538328Y301480D01*
X538000Y301255D01*
X537810Y300959D01*
X536825Y299974D01*
X515243Y299974D01*
X514350Y300867D01*
X514350Y301276D01*
X514271Y301666D01*
X514046Y301994D01*
X513711Y302209D01*
X513350Y302276D01*
X509460Y302276D01*
X509070Y302197D01*
X508753Y301983D01*
X502426Y295656D01*
X485410Y295656D01*
X485020Y295577D01*
X484691Y295352D01*
X484477Y295017D01*
X484410Y294624D01*
X484502Y294237D01*
X484702Y293949D01*
X493906Y284745D01*
X494238Y284525D01*
X494614Y284452D01*
X497466Y284452D01*
X499431Y282487D01*
X499763Y282267D01*
X500138Y282194D01*
X513350Y282194D01*
X513740Y282273D01*
X514068Y282498D01*
X514283Y282834D01*
X514350Y283194D01*
X514350Y283333D01*
X515243Y284226D01*
X535290Y284226D01*
X535680Y284305D01*
X536009Y284530D01*
X536223Y284866D01*
X536290Y285258D01*
X536198Y285645D01*
X535997Y285933D01*
X534949Y286981D01*
X534618Y287201D01*
X534242Y287274D01*
X515243Y287274D01*
X514350Y288167D01*
X514350Y296033D01*
X515243Y296926D01*
X536825Y296926D01*
X537718Y296033D01*
X537718Y291766D01*
X537797Y291376D01*
X538011Y291059D01*
X559553Y269517D01*
X559884Y269297D01*
X560260Y269224D01*
X562379Y269224D01*
X562769Y269303D01*
X563097Y269528D01*
X563312Y269864D01*
X563378Y270256D01*
X563287Y270643D01*
X563086Y270931D01*
X561379Y272638D01*
X559562Y277025D01*
X559562Y278400D01*
X583438Y278400D01*
X583438Y277025D01*
X581621Y272638D01*
X579914Y270931D01*
X579694Y270599D01*
X579621Y270208D01*
X579707Y269819D01*
X579937Y269495D01*
X580276Y269286D01*
X580621Y269224D01*
X582740Y269224D01*
X583130Y269303D01*
X583447Y269517D01*
X587023Y273092D01*
X587243Y273424D01*
X587316Y273815D01*
X587240Y274182D01*
X585978Y277227D01*
X585978Y281573D01*
X587641Y285587D01*
X590713Y288659D01*
X594727Y290322D01*
X599073Y290322D01*
X603087Y288659D01*
X606159Y285587D01*
X607822Y281573D01*
X607822Y277227D01*
X606159Y273213D01*
X603087Y270141D01*
X599073Y268478D01*
X594727Y268478D01*
X591682Y269740D01*
X591291Y269816D01*
X590902Y269733D01*
X590592Y269523D01*
X585246Y264176D01*
X557755Y264176D01*
X539425Y282505D01*
X539093Y282725D01*
X538702Y282798D01*
X538313Y282713D01*
X537989Y282483D01*
X537780Y282144D01*
X537718Y281798D01*
X537718Y275467D01*
X536825Y274574D01*
X515243Y274574D01*
X514350Y275467D01*
X514350Y275606D01*
X514271Y275996D01*
X514046Y276324D01*
X513711Y276539D01*
X513350Y276606D01*
X500138Y276606D01*
X499748Y276527D01*
X499431Y276313D01*
X497466Y274348D01*
X493280Y274348D01*
X490321Y277307D01*
X490321Y280013D01*
X490242Y280404D01*
X490028Y280721D01*
X481736Y289013D01*
X481404Y289233D01*
X481028Y289306D01*
X477250Y289306D01*
X476860Y289227D01*
X476532Y289002D01*
X476317Y288667D01*
X476250Y288306D01*
X476250Y288167D01*
X475357Y287274D01*
X453775Y287274D01*
X452882Y288167D01*
X452882Y291823D01*
X452803Y292213D01*
X452578Y292541D01*
X452243Y292756D01*
X451850Y292823D01*
X451463Y292731D01*
X451175Y292530D01*
X447317Y288672D01*
X447097Y288340D01*
X447024Y287965D01*
X447024Y227555D01*
X407446Y187976D01*
X402574Y187976D01*
X402184Y187897D01*
X401856Y187672D01*
X401641Y187337D01*
X401574Y186976D01*
X401574Y186694D01*
X400681Y185801D01*
X386719Y185801D01*
X385826Y186694D01*
X385826Y194306D01*
X386719Y195199D01*
X400681Y195199D01*
X401574Y194306D01*
X401574Y194024D01*
X401653Y193634D01*
X401878Y193306D01*
X402214Y193091D01*
X402574Y193024D01*
X404940Y193024D01*
X405330Y193103D01*
X405647Y193317D01*
X441683Y229353D01*
X441903Y229684D01*
X441976Y230060D01*
X441976Y290470D01*
X452326Y300820D01*
X452600Y301008D01*
X452815Y301344D01*
X452882Y301704D01*
X452882Y308733D01*
X453775Y309626D01*
X475357Y309626D01*
X476250Y308733D01*
X476250Y308324D01*
X476329Y307934D01*
X476554Y307606D01*
X476890Y307391D01*
X477250Y307324D01*
X501197Y307324D01*
X501587Y307403D01*
X501904Y307617D01*
X505501Y311214D01*
X505721Y311546D01*
X505794Y311937D01*
X505709Y312326D01*
X505501Y312628D01*
X502948Y315181D01*
X502948Y318521D01*
X502869Y318911D01*
X502644Y319239D01*
X502309Y319454D01*
X501916Y319521D01*
X501529Y319429D01*
X501241Y319228D01*
X496989Y314976D01*
X477250Y314976D01*
X476860Y314897D01*
X476532Y314672D01*
X476317Y314337D01*
X476250Y313976D01*
X476250Y313567D01*
X475357Y312674D01*
X453775Y312674D01*
X452882Y313567D01*
X452882Y313976D01*
X452803Y314366D01*
X452578Y314694D01*
X452243Y314909D01*
X451882Y314976D01*
X448411Y314976D01*
X448021Y314897D01*
X447735Y314713D01*
X434680Y302749D01*
X434446Y302427D01*
X434356Y302012D01*
X434356Y227587D01*
X407446Y200676D01*
X402574Y200676D01*
X402184Y200597D01*
X401856Y200372D01*
X401641Y200037D01*
X401574Y199676D01*
X401574Y199394D01*
X400681Y198501D01*
X386719Y198501D01*
X385826Y199394D01*
X385826Y207006D01*
X386719Y207899D01*
X400681Y207899D01*
X401574Y207006D01*
X401574Y206724D01*
X401653Y206334D01*
X401878Y206006D01*
X402214Y205791D01*
X402574Y205724D01*
X404940Y205724D01*
X405330Y205803D01*
X405647Y206017D01*
X429015Y229385D01*
X429235Y229716D01*
X429308Y230092D01*
X429308Y232824D01*
X429229Y233214D01*
X429004Y233543D01*
X428669Y233757D01*
X428276Y233824D01*
X427889Y233732D01*
X427601Y233531D01*
X407446Y213376D01*
X402574Y213376D01*
X402184Y213297D01*
X401856Y213072D01*
X401641Y212737D01*
X401574Y212376D01*
X401574Y212094D01*
X400681Y211201D01*
X386719Y211201D01*
X385826Y212094D01*
X385826Y219706D01*
X386719Y220599D01*
X400681Y220599D01*
X401574Y219706D01*
X401574Y219424D01*
X401653Y219034D01*
X401878Y218706D01*
X402214Y218491D01*
X402574Y218424D01*
X404940Y218424D01*
X405330Y218503D01*
X405647Y218717D01*
X422633Y235703D01*
X422853Y236034D01*
X422926Y236410D01*
X422926Y239142D01*
X422847Y239532D01*
X422622Y239861D01*
X422287Y240075D01*
X421894Y240142D01*
X421507Y240050D01*
X421219Y239849D01*
X407446Y226076D01*
X402574Y226076D01*
X402184Y225997D01*
X401856Y225772D01*
X401641Y225437D01*
X401574Y225076D01*
X401574Y224794D01*
X400681Y223901D01*
X386719Y223901D01*
X385826Y224794D01*
X385826Y232406D01*
X386719Y233299D01*
X400681Y233299D01*
X401574Y232406D01*
X401574Y232124D01*
X401653Y231734D01*
X401878Y231406D01*
X402214Y231191D01*
X402574Y231124D01*
X404940Y231124D01*
X405330Y231203D01*
X405647Y231417D01*
X416315Y242085D01*
X416535Y242416D01*
X416608Y242792D01*
X416608Y245524D01*
X416529Y245914D01*
X416304Y246243D01*
X415969Y246457D01*
X415576Y246524D01*
X415189Y246432D01*
X414901Y246231D01*
X407446Y238776D01*
X402574Y238776D01*
X402184Y238697D01*
X401856Y238472D01*
X401641Y238137D01*
X401574Y237776D01*
X401574Y237494D01*
X400681Y236601D01*
X386719Y236601D01*
X385826Y237494D01*
X385826Y245106D01*
X386719Y245999D01*
X400681Y245999D01*
X401574Y245106D01*
X401574Y244824D01*
X401653Y244434D01*
X401878Y244106D01*
X402214Y243891D01*
X402574Y243824D01*
X404940Y243824D01*
X405330Y243903D01*
X405647Y244117D01*
X409933Y248403D01*
X410153Y248734D01*
X410226Y249110D01*
X410226Y337865D01*
X410147Y338255D01*
X409933Y338572D01*
X407698Y340807D01*
X407698Y344993D01*
X410657Y347952D01*
X414843Y347952D01*
X417802Y344993D01*
X417802Y340807D01*
X415567Y338572D01*
X415347Y338241D01*
X415274Y337865D01*
X415274Y331088D01*
X415353Y330698D01*
X415578Y330369D01*
X415914Y330155D01*
X416306Y330088D01*
X416693Y330180D01*
X416981Y330381D01*
X417317Y330716D01*
X417334Y330734D01*
X441700Y356320D01*
X441784Y356454D01*
X442685Y357354D01*
X442702Y357372D01*
X443418Y358124D01*
X444457Y358124D01*
X444481Y358124D01*
X445739Y358155D01*
X445910Y358124D01*
X451882Y358124D01*
X452272Y358203D01*
X452600Y358428D01*
X452815Y358764D01*
X452882Y359124D01*
X452882Y359533D01*
X453775Y360426D01*
X475357Y360426D01*
X476250Y359533D01*
X476250Y359124D01*
X476329Y358734D01*
X476554Y358406D01*
X476890Y358191D01*
X477250Y358124D01*
X502965Y358124D01*
X503355Y358203D01*
X503672Y358417D01*
X505907Y360652D01*
X510093Y360652D01*
X512643Y358102D01*
X512975Y357882D01*
X513366Y357809D01*
X513755Y357894D01*
X514079Y358125D01*
X514288Y358463D01*
X514350Y358809D01*
X514350Y359533D01*
X515243Y360426D01*
X522208Y360426D01*
X522599Y360505D01*
X522927Y360730D01*
X523141Y361066D01*
X523208Y361458D01*
X523116Y361845D01*
X522916Y362133D01*
X510866Y374183D01*
X510534Y374403D01*
X510158Y374476D01*
X501642Y374476D01*
X501252Y374397D01*
X500934Y374183D01*
X492257Y365506D01*
X420672Y365506D01*
X420282Y365427D01*
X419964Y365213D01*
X396817Y342066D01*
X396597Y341734D01*
X396524Y341358D01*
X396524Y337269D01*
X395631Y336376D01*
X393294Y336376D01*
X392904Y336297D01*
X392576Y336072D01*
X392361Y335737D01*
X392294Y335376D01*
X392294Y325024D01*
X392373Y324634D01*
X392598Y324306D01*
X392934Y324091D01*
X393294Y324024D01*
X395631Y324024D01*
X396524Y323131D01*
X396524Y311579D01*
X396494Y311425D01*
X396494Y285099D01*
X396573Y284709D01*
X396798Y284381D01*
X397134Y284166D01*
X397494Y284099D01*
X400681Y284099D01*
X401574Y283206D01*
X401574Y275594D01*
X400681Y274701D01*
X386719Y274701D01*
X385826Y275594D01*
X385826Y275606D01*
X385747Y275996D01*
X385522Y276324D01*
X385187Y276539D01*
X384826Y276606D01*
X369872Y276606D01*
X369482Y276527D01*
X369164Y276313D01*
X333287Y240436D01*
X333067Y240104D01*
X332994Y239728D01*
X332994Y207965D01*
X333073Y207575D01*
X333287Y207258D01*
X335252Y205293D01*
X335252Y201107D01*
X333287Y199142D01*
X333067Y198811D01*
X332994Y198435D01*
X332994Y122697D01*
X333073Y122306D01*
X333287Y121989D01*
X337820Y117456D01*
X337820Y111046D01*
X337899Y110656D01*
X338113Y110338D01*
X338669Y109782D01*
X339001Y109563D01*
X339392Y109490D01*
X339781Y109575D01*
X340105Y109805D01*
X340314Y110144D01*
X340376Y110490D01*
X340376Y222288D01*
X378823Y260735D01*
X378896Y260847D01*
X379836Y261749D01*
X379851Y261763D01*
X380763Y262676D01*
X380885Y262756D01*
X385519Y267205D01*
X385745Y267533D01*
X385826Y267927D01*
X385826Y270506D01*
X386719Y271399D01*
X400681Y271399D01*
X401574Y270506D01*
X401574Y262894D01*
X400681Y262001D01*
X387789Y262001D01*
X387399Y261922D01*
X387097Y261722D01*
X385741Y260420D01*
X385514Y260093D01*
X385433Y259703D01*
X385511Y259313D01*
X385735Y258984D01*
X386069Y258768D01*
X386433Y258699D01*
X400681Y258699D01*
X401574Y257806D01*
X401574Y250194D01*
X400681Y249301D01*
X386719Y249301D01*
X385826Y250194D01*
X385826Y250476D01*
X385747Y250866D01*
X385522Y251194D01*
X385187Y251409D01*
X384826Y251476D01*
X382460Y251476D01*
X382070Y251397D01*
X381753Y251183D01*
X371117Y240547D01*
X370897Y240216D01*
X370824Y239840D01*
X370824Y125955D01*
X363480Y118611D01*
X363260Y118279D01*
X363187Y117887D01*
X363220Y117738D01*
X363220Y111144D01*
X358553Y106477D01*
X358406Y106376D01*
X358191Y106041D01*
X358124Y105680D01*
X358124Y63515D01*
X358203Y63125D01*
X358428Y62796D01*
X358741Y62591D01*
X361787Y61329D01*
X364859Y58257D01*
X366522Y54243D01*
X366522Y51756D01*
X366601Y51366D01*
X366826Y51038D01*
X367162Y50823D01*
X367554Y50757D01*
X367941Y50848D01*
X368229Y51049D01*
X369234Y52054D01*
X369555Y52054D01*
X369945Y52133D01*
X370274Y52358D01*
X370479Y52671D01*
X371741Y55717D01*
X374813Y58789D01*
X377859Y60051D01*
X378189Y60273D01*
X378406Y60607D01*
X378476Y60975D01*
X378476Y105680D01*
X378397Y106070D01*
X378172Y106398D01*
X378043Y106481D01*
X373380Y111144D01*
X373380Y117456D01*
X377844Y121920D01*
X384156Y121920D01*
X388620Y117456D01*
X388620Y111144D01*
X383953Y106477D01*
X383806Y106376D01*
X383591Y106041D01*
X383524Y105680D01*
X383524Y60975D01*
X383603Y60585D01*
X383828Y60256D01*
X384141Y60051D01*
X387187Y58789D01*
X390259Y55717D01*
X391922Y51703D01*
X391922Y49216D01*
X392001Y48826D01*
X392226Y48498D01*
X392562Y48283D01*
X392954Y48217D01*
X393341Y48308D01*
X393629Y48509D01*
X395185Y50065D01*
X395405Y50397D01*
X395478Y50772D01*
X395478Y54243D01*
X397141Y58257D01*
X400213Y61329D01*
X402989Y62479D01*
X403319Y62701D01*
X403536Y63035D01*
X403606Y63403D01*
X403606Y105904D01*
X403527Y106294D01*
X403313Y106611D01*
X398780Y111144D01*
X398780Y117456D01*
X403244Y121920D01*
X409556Y121920D01*
X414020Y117456D01*
X414020Y111144D01*
X409487Y106611D01*
X409267Y106279D01*
X409194Y105904D01*
X409194Y63403D01*
X409273Y63013D01*
X409498Y62684D01*
X409811Y62479D01*
X412246Y61470D01*
X412637Y61394D01*
X413026Y61477D01*
X413336Y61687D01*
X430643Y78994D01*
X453914Y78994D01*
X454304Y79073D01*
X454632Y79298D01*
X454847Y79634D01*
X454914Y79994D01*
X454914Y91182D01*
X455807Y92075D01*
X468753Y92075D01*
X469193Y91635D01*
X469525Y91416D01*
X469916Y91343D01*
X470305Y91428D01*
X470607Y91635D01*
X471047Y92075D01*
X483993Y92075D01*
X484886Y91182D01*
X484886Y86344D01*
X484965Y85954D01*
X485190Y85626D01*
X485526Y85411D01*
X485886Y85344D01*
X601678Y85344D01*
X602069Y85423D01*
X602386Y85637D01*
X612311Y95562D01*
X612531Y95894D01*
X612604Y96285D01*
X612528Y96652D01*
X611378Y99427D01*
X611378Y103773D01*
X613041Y107787D01*
X616113Y110859D01*
X620127Y112522D01*
X624473Y112522D01*
X627248Y111372D01*
X627639Y111296D01*
X628028Y111379D01*
X628338Y111589D01*
X637711Y120962D01*
X637931Y121294D01*
X638004Y121685D01*
X637928Y122052D01*
X636778Y124827D01*
X636778Y129173D01*
X638441Y133187D01*
X641513Y136259D01*
X644289Y137409D01*
X644619Y137631D01*
X644836Y137965D01*
X644906Y138333D01*
X644906Y141067D01*
X644827Y141457D01*
X644602Y141786D01*
X644289Y141991D01*
X641513Y143141D01*
X638441Y146213D01*
X636778Y150227D01*
X636778Y154573D01*
X638441Y158587D01*
X641513Y161659D01*
X644289Y162809D01*
X644619Y163031D01*
X644836Y163365D01*
X644906Y163733D01*
X644906Y166467D01*
X644827Y166857D01*
X644602Y167186D01*
X644289Y167391D01*
X641513Y168541D01*
X638441Y171613D01*
X636778Y175627D01*
X636778Y179973D01*
X638441Y183987D01*
X641513Y187059D01*
X644289Y188209D01*
X644619Y188431D01*
X644836Y188765D01*
X644906Y189133D01*
X644906Y191867D01*
X644827Y192257D01*
X644602Y192586D01*
X644289Y192791D01*
X641513Y193941D01*
X638441Y197013D01*
X636778Y201027D01*
X636778Y205373D01*
X638441Y209387D01*
X641513Y212459D01*
X644144Y213549D01*
X644474Y213771D01*
X644691Y214105D01*
X644761Y214497D01*
X644673Y214885D01*
X644469Y215180D01*
X619506Y240143D01*
X619506Y242667D01*
X619427Y243057D01*
X619202Y243386D01*
X618889Y243591D01*
X616113Y244741D01*
X613041Y247813D01*
X611378Y251827D01*
X611378Y256173D01*
X613041Y260187D01*
X616113Y263259D01*
X620127Y264922D01*
X624473Y264922D01*
X627248Y263772D01*
X627639Y263696D01*
X628028Y263779D01*
X628338Y263989D01*
X637711Y273362D01*
X637931Y273694D01*
X638004Y274085D01*
X637928Y274452D01*
X636778Y277227D01*
X636778Y281573D01*
X638441Y285587D01*
X641513Y288659D01*
X644289Y289809D01*
X644619Y290031D01*
X644836Y290365D01*
X644906Y290733D01*
X644906Y293467D01*
X644827Y293857D01*
X644602Y294186D01*
X644289Y294391D01*
X641513Y295541D01*
X638441Y298613D01*
X636778Y302627D01*
X636778Y306973D01*
X638441Y310987D01*
X641513Y314059D01*
X644289Y315209D01*
X644619Y315431D01*
X644836Y315765D01*
X644906Y316133D01*
X644906Y318867D01*
X644827Y319257D01*
X644602Y319586D01*
X644289Y319791D01*
X641513Y320941D01*
X638441Y324013D01*
X636778Y328027D01*
X636778Y332373D01*
X638441Y336387D01*
X641513Y339459D01*
X644289Y340609D01*
X644619Y340831D01*
X644836Y341165D01*
X644906Y341533D01*
X644906Y344267D01*
X644827Y344657D01*
X644602Y344986D01*
X644289Y345191D01*
X641513Y346341D01*
X638441Y349413D01*
X636778Y353427D01*
X636778Y357773D01*
X638441Y361787D01*
X641513Y364859D01*
X645527Y366522D01*
X649873Y366522D01*
X653887Y364859D01*
X656959Y361787D01*
X658622Y357773D01*
X658622Y353427D01*
X656959Y349413D01*
X653887Y346341D01*
X651111Y345191D01*
X650781Y344969D01*
X650564Y344635D01*
X650494Y344267D01*
X650494Y341533D01*
X650573Y341143D01*
X650798Y340814D01*
X651111Y340609D01*
X653887Y339459D01*
X656959Y336387D01*
X658622Y332373D01*
X658622Y328027D01*
X656959Y324013D01*
X653887Y320941D01*
X651111Y319791D01*
X650781Y319569D01*
X650564Y319235D01*
X650494Y318867D01*
X650494Y316133D01*
X650573Y315743D01*
X650798Y315414D01*
X651111Y315209D01*
X653887Y314059D01*
X656959Y310987D01*
X658622Y306973D01*
X658622Y302627D01*
X656959Y298613D01*
X653887Y295541D01*
X651111Y294391D01*
X650781Y294169D01*
X650564Y293835D01*
X650494Y293467D01*
X650494Y290733D01*
X650573Y290343D01*
X650798Y290014D01*
X651111Y289809D01*
X653887Y288659D01*
X656959Y285587D01*
X658622Y281573D01*
X658622Y277227D01*
X656959Y273213D01*
X653887Y270141D01*
X649873Y268478D01*
X645527Y268478D01*
X642752Y269628D01*
X642361Y269704D01*
X641972Y269621D01*
X641662Y269411D01*
X632289Y260038D01*
X632069Y259706D01*
X631996Y259315D01*
X632072Y258948D01*
X633222Y256173D01*
X633222Y251827D01*
X631559Y247813D01*
X628487Y244741D01*
X625856Y243651D01*
X625526Y243429D01*
X625309Y243095D01*
X625239Y242703D01*
X625327Y242315D01*
X625531Y242020D01*
X650494Y217057D01*
X650494Y214533D01*
X650573Y214143D01*
X650798Y213814D01*
X651111Y213609D01*
X653887Y212459D01*
X656959Y209387D01*
X658622Y205373D01*
X658622Y201027D01*
X656959Y197013D01*
X653887Y193941D01*
X651111Y192791D01*
X650781Y192569D01*
X650564Y192235D01*
X650494Y191867D01*
X650494Y189133D01*
X650573Y188743D01*
X650798Y188414D01*
X651111Y188209D01*
X653887Y187059D01*
X656959Y183987D01*
X658622Y179973D01*
X658622Y175627D01*
X656959Y171613D01*
X653887Y168541D01*
X651111Y167391D01*
X650781Y167169D01*
X650564Y166835D01*
X650494Y166467D01*
X650494Y163733D01*
X650573Y163343D01*
X650798Y163014D01*
X651111Y162809D01*
X653887Y161659D01*
X656959Y158587D01*
X658622Y154573D01*
X658622Y150227D01*
X656959Y146213D01*
X653887Y143141D01*
X651111Y141991D01*
X650781Y141769D01*
X650564Y141435D01*
X650494Y141067D01*
X650494Y138333D01*
X650573Y137943D01*
X650798Y137614D01*
X651111Y137409D01*
X653887Y136259D01*
X656959Y133187D01*
X658622Y129173D01*
X658622Y124827D01*
X656959Y120813D01*
X653887Y117741D01*
X649873Y116078D01*
X645527Y116078D01*
X642752Y117228D01*
X642361Y117304D01*
X641972Y117221D01*
X641662Y117011D01*
X632289Y107638D01*
X632069Y107306D01*
X631996Y106915D01*
X632072Y106548D01*
X633222Y103773D01*
X633222Y99427D01*
X631559Y95413D01*
X628487Y92341D01*
X624473Y90678D01*
X620127Y90678D01*
X617352Y91828D01*
X616961Y91904D01*
X616572Y91821D01*
X616262Y91611D01*
X604407Y79756D01*
X485886Y79756D01*
X485496Y79677D01*
X485168Y79452D01*
X484953Y79117D01*
X484886Y78756D01*
X484886Y73918D01*
X483993Y73025D01*
X481314Y73025D01*
X480924Y72946D01*
X480596Y72721D01*
X480381Y72386D01*
X480314Y72025D01*
X480314Y57263D01*
X445657Y22606D01*
X290943Y22606D01*
G37*
G36*
X478760Y382000D02*
X478760Y387052D01*
X480248Y388540D01*
X485800Y388540D01*
X485800Y382000D01*
X478760Y382000D01*
G37*
G36*
X480248Y373460D02*
X478760Y374948D01*
X478760Y380000D01*
X485800Y380000D01*
X485800Y373460D01*
X480248Y373460D01*
G37*
G36*
X89900Y356600D02*
X89900Y367538D01*
X91275Y367538D01*
X95662Y365721D01*
X99021Y362362D01*
X100838Y357975D01*
X100838Y356600D01*
X89900Y356600D01*
G37*
G36*
X76962Y356600D02*
X76962Y357975D01*
X78779Y362362D01*
X82138Y365721D01*
X86525Y367538D01*
X87900Y367538D01*
X87900Y356600D01*
X76962Y356600D01*
G37*
G36*
X559562Y356600D02*
X559562Y357975D01*
X561379Y362362D01*
X564738Y365721D01*
X569125Y367538D01*
X570500Y367538D01*
X570500Y356600D01*
X559562Y356600D01*
G37*
G36*
X572500Y356600D02*
X572500Y367538D01*
X573875Y367538D01*
X578262Y365721D01*
X581621Y362362D01*
X583438Y357975D01*
X583438Y356600D01*
X572500Y356600D01*
G37*
G36*
X35927Y90678D02*
X31913Y92341D01*
X28841Y95413D01*
X27178Y99427D01*
X27178Y103773D01*
X28841Y107787D01*
X31913Y110859D01*
X34689Y112009D01*
X35019Y112231D01*
X35236Y112565D01*
X35306Y112933D01*
X35306Y115667D01*
X35227Y116057D01*
X35002Y116386D01*
X34689Y116591D01*
X31913Y117741D01*
X28841Y120813D01*
X27178Y124827D01*
X27178Y129173D01*
X28841Y133187D01*
X31913Y136259D01*
X34689Y137409D01*
X35019Y137631D01*
X35236Y137965D01*
X35306Y138333D01*
X35306Y141067D01*
X35227Y141457D01*
X35002Y141786D01*
X34689Y141991D01*
X31913Y143141D01*
X28841Y146213D01*
X27178Y150227D01*
X27178Y154573D01*
X28841Y158587D01*
X31913Y161659D01*
X34689Y162809D01*
X35019Y163031D01*
X35236Y163365D01*
X35306Y163733D01*
X35306Y166467D01*
X35227Y166857D01*
X35002Y167186D01*
X34689Y167391D01*
X31913Y168541D01*
X28841Y171613D01*
X27178Y175627D01*
X27178Y179973D01*
X28841Y183987D01*
X31913Y187059D01*
X35927Y188722D01*
X40273Y188722D01*
X43048Y187572D01*
X43439Y187496D01*
X43828Y187579D01*
X44138Y187789D01*
X53511Y197162D01*
X53731Y197494D01*
X53804Y197885D01*
X53728Y198252D01*
X52578Y201027D01*
X52578Y205373D01*
X54241Y209387D01*
X57313Y212459D01*
X60089Y213609D01*
X60419Y213831D01*
X60636Y214165D01*
X60706Y214533D01*
X60706Y227028D01*
X60627Y227419D01*
X60413Y227736D01*
X44138Y244011D01*
X43806Y244231D01*
X43415Y244304D01*
X43048Y244228D01*
X40273Y243078D01*
X35927Y243078D01*
X31913Y244741D01*
X28841Y247813D01*
X27178Y251827D01*
X27178Y256173D01*
X28841Y260187D01*
X31913Y263259D01*
X34689Y264409D01*
X35019Y264631D01*
X35236Y264965D01*
X35306Y265333D01*
X35306Y268067D01*
X35227Y268457D01*
X35002Y268786D01*
X34689Y268991D01*
X31913Y270141D01*
X28841Y273213D01*
X27178Y277227D01*
X27178Y281573D01*
X28841Y285587D01*
X31913Y288659D01*
X34689Y289809D01*
X35019Y290031D01*
X35236Y290365D01*
X35306Y290733D01*
X35306Y293467D01*
X35227Y293857D01*
X35002Y294186D01*
X34689Y294391D01*
X31913Y295541D01*
X28841Y298613D01*
X27178Y302627D01*
X27178Y306973D01*
X28841Y310987D01*
X31913Y314059D01*
X34689Y315209D01*
X35019Y315431D01*
X35236Y315765D01*
X35306Y316133D01*
X35306Y318867D01*
X35227Y319257D01*
X35002Y319586D01*
X34689Y319791D01*
X31913Y320941D01*
X28841Y324013D01*
X27178Y328027D01*
X27178Y332373D01*
X28841Y336387D01*
X31913Y339459D01*
X35927Y341122D01*
X40273Y341122D01*
X43048Y339972D01*
X43439Y339896D01*
X43828Y339979D01*
X44138Y340189D01*
X53511Y349562D01*
X53731Y349894D01*
X53804Y350285D01*
X53728Y350652D01*
X52578Y353427D01*
X52578Y357773D01*
X54241Y361787D01*
X57313Y364859D01*
X61327Y366522D01*
X65673Y366522D01*
X69687Y364859D01*
X72759Y361787D01*
X74422Y357773D01*
X74422Y353427D01*
X72759Y349413D01*
X69687Y346341D01*
X65673Y344678D01*
X61327Y344678D01*
X58552Y345828D01*
X58161Y345904D01*
X57772Y345821D01*
X57462Y345611D01*
X48089Y336238D01*
X47869Y335906D01*
X47796Y335515D01*
X47872Y335148D01*
X49022Y332373D01*
X49022Y328027D01*
X47359Y324013D01*
X44287Y320941D01*
X41511Y319791D01*
X41181Y319569D01*
X40964Y319235D01*
X40894Y318867D01*
X40894Y316133D01*
X40973Y315743D01*
X41198Y315414D01*
X41511Y315209D01*
X44287Y314059D01*
X47359Y310987D01*
X49022Y306973D01*
X49022Y302627D01*
X47359Y298613D01*
X44287Y295541D01*
X41511Y294391D01*
X41181Y294169D01*
X40964Y293835D01*
X40894Y293467D01*
X40894Y290733D01*
X40973Y290343D01*
X41198Y290014D01*
X41511Y289809D01*
X44287Y288659D01*
X47359Y285587D01*
X49022Y281573D01*
X49022Y277227D01*
X47359Y273213D01*
X44287Y270141D01*
X41511Y268991D01*
X41181Y268769D01*
X40964Y268435D01*
X40894Y268067D01*
X40894Y265333D01*
X40973Y264943D01*
X41198Y264614D01*
X41511Y264409D01*
X44287Y263259D01*
X47359Y260187D01*
X49022Y256173D01*
X49022Y251827D01*
X47872Y249052D01*
X47796Y248661D01*
X47879Y248272D01*
X48089Y247962D01*
X66294Y229757D01*
X66294Y214533D01*
X66373Y214143D01*
X66598Y213814D01*
X66911Y213609D01*
X69687Y212459D01*
X72759Y209387D01*
X74422Y205373D01*
X74422Y201027D01*
X72759Y197013D01*
X69687Y193941D01*
X65673Y192278D01*
X61327Y192278D01*
X58552Y193428D01*
X58161Y193504D01*
X57772Y193421D01*
X57462Y193211D01*
X48089Y183838D01*
X47869Y183506D01*
X47796Y183115D01*
X47872Y182748D01*
X49022Y179973D01*
X49022Y175627D01*
X47359Y171613D01*
X44287Y168541D01*
X41511Y167391D01*
X41181Y167169D01*
X40964Y166835D01*
X40894Y166467D01*
X40894Y163733D01*
X40973Y163343D01*
X41198Y163014D01*
X41511Y162809D01*
X44287Y161659D01*
X47359Y158587D01*
X49022Y154573D01*
X49022Y150227D01*
X47359Y146213D01*
X44287Y143141D01*
X41511Y141991D01*
X41181Y141769D01*
X40964Y141435D01*
X40894Y141067D01*
X40894Y138333D01*
X40973Y137943D01*
X41198Y137614D01*
X41511Y137409D01*
X44287Y136259D01*
X47359Y133187D01*
X49022Y129173D01*
X49022Y124827D01*
X47359Y120813D01*
X44287Y117741D01*
X41511Y116591D01*
X41181Y116369D01*
X40964Y116035D01*
X40894Y115667D01*
X40894Y112933D01*
X40973Y112543D01*
X41198Y112214D01*
X41511Y112009D01*
X44287Y110859D01*
X47359Y107787D01*
X49022Y103773D01*
X49022Y99427D01*
X47359Y95413D01*
X44287Y92341D01*
X40273Y90678D01*
X35927Y90678D01*
G37*
G36*
X620127Y344678D02*
X616113Y346341D01*
X613041Y349413D01*
X611378Y353427D01*
X611378Y357773D01*
X613041Y361787D01*
X616113Y364859D01*
X620127Y366522D01*
X624473Y366522D01*
X628487Y364859D01*
X631559Y361787D01*
X633222Y357773D01*
X633222Y353427D01*
X631559Y349413D01*
X628487Y346341D01*
X624473Y344678D01*
X620127Y344678D01*
G37*
G36*
X173960Y356600D02*
X173960Y361652D01*
X175448Y363140D01*
X181000Y363140D01*
X181000Y356600D01*
X173960Y356600D01*
G37*
G36*
X86525Y343662D02*
X82138Y345479D01*
X78779Y348838D01*
X76962Y353225D01*
X76962Y354600D01*
X87900Y354600D01*
X87900Y343662D01*
X86525Y343662D01*
G37*
G36*
X89900Y343662D02*
X89900Y354600D01*
X100838Y354600D01*
X100838Y353225D01*
X99021Y348838D01*
X95662Y345479D01*
X91275Y343662D01*
X89900Y343662D01*
G37*
G36*
X175448Y348060D02*
X173960Y349548D01*
X173960Y354600D01*
X181000Y354600D01*
X181000Y348060D01*
X175448Y348060D01*
G37*
G36*
X364460Y343900D02*
X364460Y348952D01*
X365948Y350440D01*
X371500Y350440D01*
X371500Y343900D01*
X364460Y343900D01*
G37*
G36*
X321675Y343900D02*
X321675Y349440D01*
X327727Y349440D01*
X329215Y347952D01*
X329215Y343900D01*
X321675Y343900D01*
G37*
G36*
X312135Y343900D02*
X312135Y347952D01*
X313623Y349440D01*
X319675Y349440D01*
X319675Y343900D01*
X312135Y343900D01*
G37*
G36*
X365948Y335360D02*
X364460Y336848D01*
X364460Y341900D01*
X371500Y341900D01*
X371500Y335360D01*
X365948Y335360D01*
G37*
G36*
X312135Y331200D02*
X312135Y335252D01*
X312726Y335843D01*
X312946Y336175D01*
X313019Y336566D01*
X312933Y336955D01*
X312726Y337257D01*
X312135Y337848D01*
X312135Y341900D01*
X329215Y341900D01*
X329215Y337848D01*
X328624Y337257D01*
X328404Y336925D01*
X328331Y336534D01*
X328417Y336145D01*
X328624Y335843D01*
X329215Y335252D01*
X329215Y331200D01*
X312135Y331200D01*
G37*
G36*
X620127Y319278D02*
X616113Y320941D01*
X613041Y324013D01*
X611378Y328027D01*
X611378Y332373D01*
X613041Y336387D01*
X616113Y339459D01*
X620127Y341122D01*
X624473Y341122D01*
X628487Y339459D01*
X631559Y336387D01*
X633222Y332373D01*
X633222Y328027D01*
X631559Y324013D01*
X628487Y320941D01*
X624473Y319278D01*
X620127Y319278D01*
G37*
G36*
X61327Y319278D02*
X57313Y320941D01*
X54241Y324013D01*
X52578Y328027D01*
X52578Y332373D01*
X54241Y336387D01*
X57313Y339459D01*
X61327Y341122D01*
X65673Y341122D01*
X69687Y339459D01*
X72759Y336387D01*
X74422Y332373D01*
X74422Y328027D01*
X72759Y324013D01*
X69687Y320941D01*
X65673Y319278D01*
X61327Y319278D01*
G37*
G36*
X312135Y318500D02*
X312135Y322552D01*
X312726Y323143D01*
X312946Y323475D01*
X313019Y323866D01*
X312933Y324255D01*
X312726Y324557D01*
X312135Y325148D01*
X312135Y329200D01*
X329215Y329200D01*
X329215Y325148D01*
X328624Y324557D01*
X328404Y324225D01*
X328331Y323834D01*
X328417Y323445D01*
X328624Y323143D01*
X329215Y322552D01*
X329215Y318500D01*
X312135Y318500D01*
G37*
G36*
X364460Y318500D02*
X364460Y323552D01*
X365948Y325040D01*
X371500Y325040D01*
X371500Y318500D01*
X364460Y318500D01*
G37*
G36*
X312135Y305800D02*
X312135Y309852D01*
X312726Y310443D01*
X312946Y310775D01*
X313019Y311166D01*
X312933Y311555D01*
X312726Y311857D01*
X312135Y312448D01*
X312135Y316500D01*
X329215Y316500D01*
X329215Y312448D01*
X328624Y311857D01*
X328404Y311525D01*
X328331Y311134D01*
X328417Y310745D01*
X328624Y310443D01*
X329215Y309852D01*
X329215Y305800D01*
X312135Y305800D01*
G37*
G36*
X365948Y309960D02*
X364460Y311448D01*
X364460Y316500D01*
X371500Y316500D01*
X371500Y309960D01*
X365948Y309960D01*
G37*
G36*
X61327Y293878D02*
X57313Y295541D01*
X54241Y298613D01*
X52578Y302627D01*
X52578Y306973D01*
X54241Y310987D01*
X57313Y314059D01*
X61327Y315722D01*
X65673Y315722D01*
X69687Y314059D01*
X72759Y310987D01*
X74422Y306973D01*
X74422Y302627D01*
X72759Y298613D01*
X69687Y295541D01*
X65673Y293878D01*
X61327Y293878D01*
G37*
G36*
X620127Y293878D02*
X616113Y295541D01*
X613041Y298613D01*
X611378Y302627D01*
X611378Y306973D01*
X613041Y310987D01*
X616113Y314059D01*
X620127Y315722D01*
X624473Y315722D01*
X628487Y314059D01*
X631559Y310987D01*
X633222Y306973D01*
X633222Y302627D01*
X631559Y298613D01*
X628487Y295541D01*
X624473Y293878D01*
X620127Y293878D01*
G37*
G36*
X321675Y298260D02*
X321675Y303800D01*
X329215Y303800D01*
X329215Y299748D01*
X327727Y298260D01*
X321675Y298260D01*
G37*
G36*
X313623Y298260D02*
X312135Y299748D01*
X312135Y303800D01*
X319675Y303800D01*
X319675Y298260D01*
X313623Y298260D01*
G37*
G36*
X620127Y268478D02*
X616113Y270141D01*
X613041Y273213D01*
X611378Y277227D01*
X611378Y281573D01*
X613041Y285587D01*
X616113Y288659D01*
X620127Y290322D01*
X624473Y290322D01*
X628487Y288659D01*
X631559Y285587D01*
X633222Y281573D01*
X633222Y277227D01*
X631559Y273213D01*
X628487Y270141D01*
X624473Y268478D01*
X620127Y268478D01*
G37*
G36*
X61327Y268478D02*
X57313Y270141D01*
X54241Y273213D01*
X52578Y277227D01*
X52578Y281573D01*
X54241Y285587D01*
X57313Y288659D01*
X61327Y290322D01*
X65673Y290322D01*
X69687Y288659D01*
X72759Y285587D01*
X74422Y281573D01*
X74422Y277227D01*
X72759Y273213D01*
X69687Y270141D01*
X65673Y268478D01*
X61327Y268478D01*
G37*
G36*
X465566Y280400D02*
X465566Y285242D01*
X475778Y285242D01*
X477266Y283754D01*
X477266Y280400D01*
X465566Y280400D01*
G37*
G36*
X451866Y280400D02*
X451866Y283754D01*
X453354Y285242D01*
X463566Y285242D01*
X463566Y280400D01*
X451866Y280400D01*
G37*
G36*
X453354Y273558D02*
X451866Y275046D01*
X451866Y278400D01*
X463566Y278400D01*
X463566Y273558D01*
X453354Y273558D01*
G37*
G36*
X465566Y273558D02*
X465566Y278400D01*
X477266Y278400D01*
X477266Y275046D01*
X475778Y273558D01*
X465566Y273558D01*
G37*
G36*
X584962Y255000D02*
X584962Y256375D01*
X586779Y260762D01*
X590138Y264121D01*
X594525Y265938D01*
X595900Y265938D01*
X595900Y255000D01*
X584962Y255000D01*
G37*
G36*
X597900Y255000D02*
X597900Y265938D01*
X599275Y265938D01*
X603662Y264121D01*
X607021Y260762D01*
X608838Y256375D01*
X608838Y255000D01*
X597900Y255000D01*
G37*
G36*
X61327Y243078D02*
X57313Y244741D01*
X54241Y247813D01*
X52578Y251827D01*
X52578Y256173D01*
X54241Y260187D01*
X57313Y263259D01*
X61327Y264922D01*
X65673Y264922D01*
X69687Y263259D01*
X72759Y260187D01*
X74422Y256173D01*
X74422Y251827D01*
X72759Y247813D01*
X69687Y244741D01*
X65673Y243078D01*
X61327Y243078D01*
G37*
G36*
X476760Y255000D02*
X476760Y262552D01*
X478248Y264040D01*
X484800Y264040D01*
X484800Y255000D01*
X476760Y255000D01*
G37*
G36*
X557755Y111776D02*
X539425Y130105D01*
X539093Y130325D01*
X538702Y130398D01*
X538313Y130313D01*
X537989Y130083D01*
X537780Y129744D01*
X537718Y129398D01*
X537718Y123067D01*
X536825Y122174D01*
X515243Y122174D01*
X514350Y123067D01*
X514350Y123206D01*
X514271Y123596D01*
X514046Y123924D01*
X513711Y124139D01*
X513350Y124206D01*
X500138Y124206D01*
X499748Y124127D01*
X499431Y123913D01*
X497466Y121948D01*
X493280Y121948D01*
X490321Y124907D01*
X490321Y127613D01*
X490242Y128004D01*
X490028Y128321D01*
X481736Y136613D01*
X481404Y136833D01*
X481028Y136906D01*
X477250Y136906D01*
X476860Y136827D01*
X476532Y136602D01*
X476317Y136267D01*
X476250Y135906D01*
X476250Y135767D01*
X475357Y134874D01*
X453775Y134874D01*
X452882Y135767D01*
X452882Y142796D01*
X452803Y143186D01*
X452578Y143514D01*
X452243Y143729D01*
X451882Y143796D01*
X427180Y143796D01*
X426790Y143717D01*
X426473Y143503D01*
X420146Y137176D01*
X402574Y137176D01*
X402184Y137097D01*
X401856Y136872D01*
X401641Y136537D01*
X401574Y136176D01*
X401574Y135894D01*
X400681Y135001D01*
X386719Y135001D01*
X385826Y135894D01*
X385826Y143506D01*
X386719Y144399D01*
X400681Y144399D01*
X401574Y143506D01*
X401574Y143224D01*
X401653Y142834D01*
X401878Y142506D01*
X402214Y142291D01*
X402574Y142224D01*
X417640Y142224D01*
X418030Y142303D01*
X418347Y142517D01*
X424675Y148844D01*
X451882Y148844D01*
X452272Y148923D01*
X452600Y149148D01*
X452815Y149484D01*
X452882Y149844D01*
X452882Y156333D01*
X453775Y157226D01*
X475357Y157226D01*
X475907Y156677D01*
X476239Y156457D01*
X476630Y156384D01*
X477018Y156469D01*
X477321Y156677D01*
X481513Y160869D01*
X481733Y161201D01*
X481806Y161592D01*
X481721Y161981D01*
X481490Y162305D01*
X481152Y162514D01*
X480806Y162576D01*
X477250Y162576D01*
X476860Y162497D01*
X476532Y162272D01*
X476317Y161937D01*
X476250Y161576D01*
X476250Y161167D01*
X475357Y160274D01*
X453775Y160274D01*
X452882Y161167D01*
X452882Y161576D01*
X452803Y161966D01*
X452578Y162294D01*
X452243Y162509D01*
X451882Y162576D01*
X416750Y162576D01*
X416360Y162497D01*
X416043Y162283D01*
X403636Y149876D01*
X402574Y149876D01*
X402184Y149797D01*
X401856Y149572D01*
X401641Y149237D01*
X401574Y148876D01*
X401574Y148594D01*
X400681Y147701D01*
X386719Y147701D01*
X385826Y148594D01*
X385826Y156206D01*
X386719Y157099D01*
X400681Y157099D01*
X401493Y156287D01*
X401825Y156067D01*
X402216Y155994D01*
X402605Y156080D01*
X402908Y156287D01*
X413569Y166949D01*
X413789Y167281D01*
X413862Y167672D01*
X413777Y168061D01*
X413547Y168385D01*
X413208Y168594D01*
X412862Y168656D01*
X408597Y168656D01*
X408207Y168577D01*
X407890Y168363D01*
X401867Y162340D01*
X401647Y162009D01*
X401574Y161633D01*
X401574Y161294D01*
X400681Y160401D01*
X386719Y160401D01*
X385826Y161294D01*
X385826Y168906D01*
X386719Y169799D01*
X400681Y169799D01*
X400727Y169753D01*
X401059Y169534D01*
X401450Y169461D01*
X401839Y169546D01*
X402141Y169753D01*
X405956Y173569D01*
X406176Y173901D01*
X406249Y174292D01*
X406164Y174681D01*
X405934Y175005D01*
X405595Y175214D01*
X405249Y175276D01*
X402574Y175276D01*
X402184Y175197D01*
X401856Y174972D01*
X401641Y174637D01*
X401574Y174276D01*
X401574Y173994D01*
X400681Y173101D01*
X386719Y173101D01*
X385826Y173994D01*
X385826Y181606D01*
X386719Y182499D01*
X400681Y182499D01*
X401574Y181606D01*
X401574Y181324D01*
X401653Y180934D01*
X401878Y180606D01*
X402214Y180391D01*
X402574Y180324D01*
X417640Y180324D01*
X418030Y180403D01*
X418347Y180617D01*
X443455Y205724D01*
X451882Y205724D01*
X452272Y205803D01*
X452600Y206028D01*
X452815Y206364D01*
X452882Y206724D01*
X452882Y207133D01*
X453775Y208026D01*
X475357Y208026D01*
X476250Y207133D01*
X476250Y206724D01*
X476329Y206334D01*
X476554Y206006D01*
X476890Y205791D01*
X477250Y205724D01*
X502965Y205724D01*
X503355Y205803D01*
X503672Y206017D01*
X505907Y208252D01*
X510093Y208252D01*
X512643Y205702D01*
X512975Y205482D01*
X513366Y205409D01*
X513755Y205494D01*
X514079Y205725D01*
X514288Y206063D01*
X514350Y206409D01*
X514350Y207133D01*
X515243Y208026D01*
X522208Y208026D01*
X522599Y208105D01*
X522927Y208330D01*
X523141Y208666D01*
X523208Y209058D01*
X523116Y209445D01*
X522916Y209733D01*
X510866Y221783D01*
X510534Y222003D01*
X510158Y222076D01*
X497669Y222076D01*
X496547Y223198D01*
X496215Y223417D01*
X495824Y223490D01*
X495435Y223405D01*
X495111Y223175D01*
X494902Y222836D01*
X494852Y222560D01*
X493352Y221060D01*
X487800Y221060D01*
X487800Y236140D01*
X493352Y236140D01*
X494855Y234638D01*
X494919Y234319D01*
X495144Y233991D01*
X495480Y233777D01*
X495872Y233710D01*
X496259Y233802D01*
X496547Y234002D01*
X497669Y235124D01*
X501006Y235124D01*
X501396Y235203D01*
X501724Y235428D01*
X501939Y235764D01*
X502006Y236124D01*
X502006Y237385D01*
X501927Y237775D01*
X501702Y238104D01*
X501367Y238318D01*
X501006Y238385D01*
X461844Y238385D01*
X461454Y238306D01*
X461137Y238092D01*
X459293Y236248D01*
X455107Y236248D01*
X452148Y239207D01*
X452148Y243393D01*
X455107Y246352D01*
X459293Y246352D01*
X461378Y244266D01*
X461710Y244046D01*
X462086Y243973D01*
X475820Y243973D01*
X476210Y244052D01*
X476539Y244278D01*
X476753Y244613D01*
X476820Y245005D01*
X476760Y245259D01*
X476760Y253000D01*
X486800Y253000D01*
X486800Y264040D01*
X493352Y264040D01*
X494855Y262538D01*
X494919Y262219D01*
X495144Y261891D01*
X495480Y261677D01*
X495872Y261610D01*
X496259Y261702D01*
X496547Y261902D01*
X497669Y263024D01*
X511931Y263024D01*
X512824Y262131D01*
X512824Y245869D01*
X511931Y244976D01*
X508594Y244976D01*
X508204Y244897D01*
X507876Y244672D01*
X507661Y244337D01*
X507594Y243976D01*
X507594Y236124D01*
X507673Y235734D01*
X507898Y235406D01*
X508234Y235191D01*
X508594Y235124D01*
X509931Y235124D01*
X510824Y234231D01*
X510824Y230142D01*
X510903Y229752D01*
X511117Y229434D01*
X528828Y211723D01*
X528828Y209026D01*
X528907Y208636D01*
X529132Y208308D01*
X529468Y208093D01*
X529828Y208026D01*
X536825Y208026D01*
X537718Y207133D01*
X537718Y200104D01*
X537797Y199714D01*
X538022Y199386D01*
X538358Y199171D01*
X538718Y199104D01*
X549758Y199104D01*
X555545Y193317D01*
X555876Y193097D01*
X556252Y193024D01*
X562379Y193024D01*
X562769Y193103D01*
X563097Y193328D01*
X563312Y193664D01*
X563378Y194056D01*
X563287Y194443D01*
X563086Y194731D01*
X561379Y196438D01*
X559562Y200825D01*
X559562Y202200D01*
X583438Y202200D01*
X583438Y201446D01*
X583517Y201056D01*
X583742Y200728D01*
X584078Y200514D01*
X584470Y200447D01*
X584857Y200539D01*
X585145Y200739D01*
X585685Y201279D01*
X585905Y201611D01*
X585978Y201986D01*
X585978Y205373D01*
X587641Y209387D01*
X590713Y212459D01*
X594727Y214122D01*
X599073Y214122D01*
X603087Y212459D01*
X606159Y209387D01*
X607822Y205373D01*
X607822Y201027D01*
X606159Y197013D01*
X603087Y193941D01*
X599073Y192278D01*
X594727Y192278D01*
X590713Y193941D01*
X588806Y195848D01*
X588475Y196067D01*
X588083Y196140D01*
X587695Y196055D01*
X587392Y195848D01*
X579571Y188026D01*
X579351Y187694D01*
X579278Y187303D01*
X579364Y186914D01*
X579571Y186612D01*
X581621Y184562D01*
X583438Y180175D01*
X583438Y178800D01*
X559562Y178800D01*
X559562Y180175D01*
X561379Y184562D01*
X563086Y186269D01*
X563306Y186601D01*
X563379Y186992D01*
X563293Y187381D01*
X563063Y187705D01*
X562724Y187914D01*
X562379Y187976D01*
X553747Y187976D01*
X552859Y188863D01*
X552527Y189083D01*
X552136Y189156D01*
X551747Y189071D01*
X551423Y188841D01*
X551214Y188502D01*
X551157Y188187D01*
X548193Y185222D01*
X544007Y185222D01*
X541772Y187457D01*
X541441Y187677D01*
X541065Y187750D01*
X538718Y187750D01*
X538328Y187671D01*
X538000Y187446D01*
X537785Y187111D01*
X537718Y186750D01*
X537718Y186567D01*
X536825Y185674D01*
X515243Y185674D01*
X514350Y186567D01*
X514350Y186976D01*
X514271Y187366D01*
X514046Y187694D01*
X513711Y187909D01*
X513350Y187976D01*
X509460Y187976D01*
X509070Y187897D01*
X508753Y187683D01*
X490401Y169331D01*
X490181Y168999D01*
X490108Y168608D01*
X490193Y168219D01*
X490423Y167895D01*
X490762Y167686D01*
X491108Y167624D01*
X494484Y167624D01*
X494874Y167703D01*
X495191Y167917D01*
X500978Y173704D01*
X513350Y173704D01*
X513740Y173783D01*
X514068Y174008D01*
X514283Y174344D01*
X514350Y174704D01*
X514350Y181733D01*
X515243Y182626D01*
X536825Y182626D01*
X537718Y181733D01*
X537718Y181324D01*
X537797Y180934D01*
X538022Y180606D01*
X538358Y180391D01*
X538718Y180324D01*
X555326Y180324D01*
X557855Y177795D01*
X558187Y177575D01*
X558578Y177502D01*
X558967Y177588D01*
X559062Y177655D01*
X559062Y176800D01*
X583938Y176800D01*
X583938Y177659D01*
X584078Y177569D01*
X584470Y177503D01*
X584857Y177594D01*
X585145Y177795D01*
X585685Y178335D01*
X585905Y178667D01*
X585978Y179042D01*
X585978Y179973D01*
X587641Y183987D01*
X590713Y187059D01*
X594727Y188722D01*
X599073Y188722D01*
X603087Y187059D01*
X606159Y183987D01*
X607822Y179973D01*
X607822Y175627D01*
X606159Y171613D01*
X603087Y168541D01*
X599073Y166878D01*
X594727Y166878D01*
X590713Y168541D01*
X587579Y171675D01*
X587247Y171895D01*
X586856Y171968D01*
X586467Y171883D01*
X586164Y171675D01*
X578343Y163854D01*
X578123Y163522D01*
X578050Y163131D01*
X578136Y162742D01*
X578343Y162440D01*
X581621Y159162D01*
X583438Y154775D01*
X583438Y153400D01*
X559562Y153400D01*
X559562Y154775D01*
X561379Y159162D01*
X564657Y162440D01*
X564877Y162772D01*
X564950Y163163D01*
X564864Y163552D01*
X564657Y163854D01*
X553528Y174983D01*
X553196Y175203D01*
X552821Y175276D01*
X539232Y175276D01*
X538842Y175197D01*
X538514Y174972D01*
X538300Y174637D01*
X538233Y174244D01*
X538324Y173857D01*
X538525Y173569D01*
X542268Y169827D01*
X542599Y169607D01*
X542991Y169534D01*
X543379Y169619D01*
X543682Y169827D01*
X544007Y170152D01*
X548193Y170152D01*
X551152Y167193D01*
X551152Y163007D01*
X549904Y161760D01*
X549685Y161428D01*
X549612Y161037D01*
X549697Y160648D01*
X549904Y160346D01*
X557855Y152395D01*
X558187Y152175D01*
X558578Y152102D01*
X558967Y152188D01*
X559062Y152255D01*
X559062Y151400D01*
X583938Y151400D01*
X583938Y152259D01*
X584078Y152169D01*
X584470Y152103D01*
X584857Y152194D01*
X585145Y152395D01*
X585685Y152935D01*
X585905Y153267D01*
X585978Y153642D01*
X585978Y154573D01*
X587641Y158587D01*
X590713Y161659D01*
X594727Y163322D01*
X599073Y163322D01*
X603087Y161659D01*
X606159Y158587D01*
X607822Y154573D01*
X607822Y150227D01*
X606159Y146213D01*
X603087Y143141D01*
X599073Y141478D01*
X594727Y141478D01*
X590713Y143141D01*
X587579Y146275D01*
X587247Y146495D01*
X586856Y146568D01*
X586467Y146483D01*
X586164Y146275D01*
X578343Y138454D01*
X578123Y138122D01*
X578050Y137731D01*
X578136Y137342D01*
X578343Y137040D01*
X581621Y133762D01*
X583438Y129375D01*
X583438Y128000D01*
X559562Y128000D01*
X559562Y129375D01*
X561379Y133762D01*
X564657Y137040D01*
X564877Y137372D01*
X564950Y137763D01*
X564864Y138152D01*
X564657Y138454D01*
X552142Y150969D01*
X551811Y151188D01*
X551419Y151261D01*
X551031Y151176D01*
X550706Y150946D01*
X550497Y150607D01*
X550435Y150262D01*
X550435Y149591D01*
X547476Y146631D01*
X543291Y146631D01*
X541056Y148866D01*
X540724Y149086D01*
X540349Y149159D01*
X538718Y149159D01*
X538328Y149080D01*
X538000Y148855D01*
X537810Y148559D01*
X536825Y147574D01*
X515243Y147574D01*
X514350Y148467D01*
X514350Y148876D01*
X514271Y149266D01*
X514046Y149594D01*
X513711Y149809D01*
X513350Y149876D01*
X483416Y149876D01*
X483026Y149797D01*
X482709Y149583D01*
X477327Y144201D01*
X477107Y143869D01*
X477035Y143478D01*
X477120Y143089D01*
X477350Y142765D01*
X477689Y142556D01*
X478034Y142494D01*
X483757Y142494D01*
X493906Y132345D01*
X494238Y132125D01*
X494614Y132052D01*
X497466Y132052D01*
X499431Y130087D01*
X499763Y129867D01*
X500138Y129794D01*
X513350Y129794D01*
X513740Y129873D01*
X514068Y130098D01*
X514283Y130434D01*
X514350Y130794D01*
X514350Y130933D01*
X515243Y131826D01*
X535290Y131826D01*
X535680Y131905D01*
X536009Y132130D01*
X536223Y132466D01*
X536290Y132858D01*
X536198Y133245D01*
X535997Y133533D01*
X534949Y134581D01*
X534618Y134801D01*
X534242Y134874D01*
X515243Y134874D01*
X514350Y135767D01*
X514350Y143633D01*
X515243Y144526D01*
X536825Y144526D01*
X537718Y143633D01*
X537718Y139366D01*
X537797Y138976D01*
X538011Y138659D01*
X559553Y117117D01*
X559884Y116897D01*
X560260Y116824D01*
X562379Y116824D01*
X562769Y116903D01*
X563097Y117128D01*
X563312Y117464D01*
X563378Y117856D01*
X563287Y118243D01*
X563086Y118531D01*
X561379Y120238D01*
X559562Y124625D01*
X559562Y126000D01*
X583438Y126000D01*
X583438Y124625D01*
X581621Y120238D01*
X579914Y118531D01*
X579694Y118199D01*
X579621Y117808D01*
X579707Y117419D01*
X579937Y117095D01*
X580276Y116886D01*
X580621Y116824D01*
X582740Y116824D01*
X583130Y116903D01*
X583447Y117117D01*
X587023Y120692D01*
X587243Y121024D01*
X587316Y121415D01*
X587240Y121782D01*
X585978Y124827D01*
X585978Y129173D01*
X587641Y133187D01*
X590713Y136259D01*
X594727Y137922D01*
X599073Y137922D01*
X603087Y136259D01*
X606159Y133187D01*
X607822Y129173D01*
X607822Y124827D01*
X606159Y120813D01*
X603087Y117741D01*
X599073Y116078D01*
X594727Y116078D01*
X591682Y117340D01*
X591291Y117416D01*
X590902Y117333D01*
X590592Y117123D01*
X585246Y111776D01*
X557755Y111776D01*
G37*
G36*
X111925Y242062D02*
X107538Y243879D01*
X104179Y247238D01*
X102362Y251625D01*
X102362Y253000D01*
X113300Y253000D01*
X113300Y242062D01*
X111925Y242062D01*
G37*
G36*
X115300Y242062D02*
X115300Y253000D01*
X126238Y253000D01*
X126238Y251625D01*
X124421Y247238D01*
X121062Y243879D01*
X116675Y242062D01*
X115300Y242062D01*
G37*
G36*
X148554Y248158D02*
X147066Y249646D01*
X147066Y253000D01*
X158766Y253000D01*
X158766Y248158D01*
X148554Y248158D01*
G37*
G36*
X160766Y248158D02*
X160766Y253000D01*
X172466Y253000D01*
X172466Y249646D01*
X170978Y248158D01*
X160766Y248158D01*
G37*
G36*
X597900Y242062D02*
X597900Y253000D01*
X608838Y253000D01*
X608838Y251625D01*
X607021Y247238D01*
X603662Y243879D01*
X599275Y242062D01*
X597900Y242062D01*
G37*
G36*
X594525Y242062D02*
X590138Y243879D01*
X586779Y247238D01*
X584962Y251625D01*
X584962Y253000D01*
X595900Y253000D01*
X595900Y242062D01*
X594525Y242062D01*
G37*
G36*
X296041Y39878D02*
X295148Y40771D01*
X295148Y57356D01*
X295069Y57747D01*
X294855Y58064D01*
X254406Y98513D01*
X254074Y98733D01*
X253698Y98806D01*
X233918Y98806D01*
X233528Y98727D01*
X233200Y98502D01*
X232985Y98167D01*
X232918Y97806D01*
X232918Y97667D01*
X232025Y96774D01*
X210443Y96774D01*
X209550Y97667D01*
X209550Y97806D01*
X209471Y98196D01*
X209246Y98524D01*
X208911Y98739D01*
X208550Y98806D01*
X195265Y98806D01*
X194875Y98727D01*
X194558Y98513D01*
X192593Y96548D01*
X188407Y96548D01*
X185448Y99507D01*
X185448Y103702D01*
X185650Y104007D01*
X185723Y104398D01*
X185638Y104787D01*
X185407Y105111D01*
X185069Y105320D01*
X184723Y105382D01*
X173466Y105382D01*
X173076Y105303D01*
X172748Y105078D01*
X172533Y104743D01*
X172466Y104382D01*
X172466Y102600D01*
X147066Y102600D01*
X147066Y104382D01*
X146987Y104772D01*
X146762Y105100D01*
X146427Y105315D01*
X146066Y105382D01*
X127152Y105382D01*
X126762Y105303D01*
X126433Y105078D01*
X126219Y104743D01*
X126152Y104350D01*
X126228Y103999D01*
X126238Y103975D01*
X126238Y102600D01*
X101862Y102600D01*
X101862Y101741D01*
X101723Y101831D01*
X101330Y101897D01*
X100943Y101806D01*
X100655Y101605D01*
X100115Y101065D01*
X99895Y100733D01*
X99822Y100358D01*
X99822Y99427D01*
X98159Y95413D01*
X95087Y92341D01*
X91073Y90678D01*
X86727Y90678D01*
X82713Y92341D01*
X79641Y95413D01*
X77978Y99427D01*
X77978Y103773D01*
X79641Y107787D01*
X82713Y110859D01*
X86727Y112522D01*
X91073Y112522D01*
X95087Y110859D01*
X98221Y107725D01*
X98553Y107505D01*
X98944Y107432D01*
X99333Y107517D01*
X99636Y107725D01*
X107457Y115546D01*
X107677Y115878D01*
X107750Y116269D01*
X107664Y116658D01*
X107457Y116960D01*
X104179Y120238D01*
X102362Y124625D01*
X102362Y126000D01*
X126238Y126000D01*
X126238Y124625D01*
X124421Y120238D01*
X121143Y116960D01*
X120923Y116628D01*
X120850Y116237D01*
X120936Y115848D01*
X121143Y115546D01*
X122160Y114529D01*
X125966Y110723D01*
X126298Y110503D01*
X126673Y110430D01*
X134237Y110430D01*
X134627Y110509D01*
X134955Y110734D01*
X135170Y111070D01*
X135237Y111462D01*
X135145Y111849D01*
X134944Y112137D01*
X134648Y112433D01*
X134648Y116619D01*
X137607Y119578D01*
X141793Y119578D01*
X142231Y119140D01*
X142563Y118920D01*
X142954Y118847D01*
X143343Y118932D01*
X143645Y119140D01*
X147275Y122769D01*
X147495Y123101D01*
X147568Y123492D01*
X147482Y123881D01*
X147252Y124205D01*
X146913Y124414D01*
X146568Y124476D01*
X130474Y124476D01*
X127945Y127005D01*
X127613Y127225D01*
X127222Y127298D01*
X126833Y127212D01*
X126738Y127145D01*
X126738Y128000D01*
X101862Y128000D01*
X101862Y127141D01*
X101723Y127231D01*
X101330Y127297D01*
X100943Y127206D01*
X100655Y127005D01*
X100115Y126465D01*
X99895Y126133D01*
X99822Y125758D01*
X99822Y124827D01*
X98159Y120813D01*
X95087Y117741D01*
X91073Y116078D01*
X86727Y116078D01*
X82713Y117741D01*
X79641Y120813D01*
X77978Y124827D01*
X77978Y129173D01*
X79641Y133187D01*
X82713Y136259D01*
X86727Y137922D01*
X91073Y137922D01*
X95087Y136259D01*
X98221Y133125D01*
X98553Y132905D01*
X98944Y132832D01*
X99333Y132917D01*
X99636Y133125D01*
X107457Y140946D01*
X107677Y141278D01*
X107750Y141669D01*
X107664Y142058D01*
X107457Y142360D01*
X104179Y145638D01*
X102362Y150025D01*
X102362Y151400D01*
X126238Y151400D01*
X126238Y150025D01*
X124421Y145638D01*
X121143Y142360D01*
X120923Y142028D01*
X120850Y141637D01*
X120936Y141248D01*
X121143Y140946D01*
X122160Y139929D01*
X132272Y129817D01*
X132604Y129597D01*
X132979Y129524D01*
X147082Y129524D01*
X147472Y129603D01*
X147800Y129828D01*
X148015Y130164D01*
X148082Y130524D01*
X148082Y130933D01*
X148975Y131826D01*
X170557Y131826D01*
X171450Y130933D01*
X171450Y126634D01*
X171529Y126244D01*
X171754Y125915D01*
X172090Y125701D01*
X172482Y125634D01*
X172869Y125726D01*
X173157Y125927D01*
X176755Y129524D01*
X181992Y129524D01*
X182382Y129603D01*
X182711Y129828D01*
X182925Y130164D01*
X182992Y130556D01*
X182900Y130943D01*
X182699Y131231D01*
X177047Y136883D01*
X176716Y137103D01*
X176340Y137176D01*
X172450Y137176D01*
X172060Y137097D01*
X171732Y136872D01*
X171517Y136537D01*
X171450Y136176D01*
X171450Y135767D01*
X170557Y134874D01*
X148975Y134874D01*
X148082Y135767D01*
X148082Y136176D01*
X148003Y136566D01*
X147778Y136894D01*
X147443Y137109D01*
X147082Y137176D01*
X144735Y137176D01*
X144345Y137097D01*
X144028Y136883D01*
X141793Y134648D01*
X137607Y134648D01*
X134648Y137607D01*
X134648Y141793D01*
X137607Y144752D01*
X141793Y144752D01*
X144028Y142517D01*
X144360Y142297D01*
X144735Y142224D01*
X146568Y142224D01*
X146958Y142303D01*
X147286Y142528D01*
X147500Y142864D01*
X147567Y143256D01*
X147476Y143643D01*
X147275Y143931D01*
X129447Y161759D01*
X129115Y161979D01*
X128740Y162052D01*
X123945Y162052D01*
X123555Y161973D01*
X123227Y161748D01*
X123012Y161413D01*
X122946Y161020D01*
X123037Y160633D01*
X123238Y160345D01*
X124421Y159162D01*
X126238Y154775D01*
X126238Y153400D01*
X101862Y153400D01*
X101862Y152541D01*
X101723Y152631D01*
X101330Y152697D01*
X100943Y152606D01*
X100655Y152405D01*
X100115Y151865D01*
X99895Y151533D01*
X99822Y151158D01*
X99822Y150227D01*
X98159Y146213D01*
X95087Y143141D01*
X91073Y141478D01*
X86727Y141478D01*
X82713Y143141D01*
X79641Y146213D01*
X77978Y150227D01*
X77978Y154573D01*
X79641Y158587D01*
X82713Y161659D01*
X86727Y163322D01*
X91073Y163322D01*
X95087Y161659D01*
X98221Y158525D01*
X98553Y158305D01*
X98944Y158232D01*
X99333Y158317D01*
X99636Y158525D01*
X107457Y166346D01*
X107677Y166678D01*
X107750Y167069D01*
X107664Y167458D01*
X107457Y167760D01*
X104179Y171038D01*
X102362Y175425D01*
X102362Y176800D01*
X126238Y176800D01*
X126238Y175425D01*
X124421Y171038D01*
X122190Y168807D01*
X121970Y168475D01*
X121897Y168084D01*
X121983Y167695D01*
X122213Y167371D01*
X122552Y167162D01*
X122897Y167100D01*
X131245Y167100D01*
X132941Y165404D01*
X133273Y165184D01*
X133664Y165111D01*
X134053Y165197D01*
X134377Y165427D01*
X134586Y165765D01*
X134648Y166111D01*
X134648Y167193D01*
X137607Y170152D01*
X141364Y170152D01*
X141754Y170231D01*
X142083Y170456D01*
X142297Y170792D01*
X142364Y171184D01*
X142272Y171571D01*
X142071Y171859D01*
X126247Y187683D01*
X125916Y187903D01*
X125540Y187976D01*
X123421Y187976D01*
X123031Y187897D01*
X122703Y187672D01*
X122488Y187337D01*
X122422Y186944D01*
X122513Y186557D01*
X122714Y186269D01*
X124421Y184562D01*
X126238Y180175D01*
X126238Y178800D01*
X102362Y178800D01*
X102362Y180175D01*
X104179Y184562D01*
X105886Y186269D01*
X106106Y186601D01*
X106179Y186992D01*
X106093Y187381D01*
X105863Y187705D01*
X105524Y187914D01*
X105179Y187976D01*
X103060Y187976D01*
X102670Y187897D01*
X102353Y187683D01*
X98777Y184108D01*
X98557Y183776D01*
X98485Y183385D01*
X98561Y183018D01*
X99822Y179973D01*
X99822Y175627D01*
X98159Y171613D01*
X95087Y168541D01*
X91073Y166878D01*
X86727Y166878D01*
X82713Y168541D01*
X79641Y171613D01*
X77978Y175627D01*
X77978Y179973D01*
X79641Y183987D01*
X82713Y187059D01*
X86727Y188722D01*
X91073Y188722D01*
X94118Y187461D01*
X94509Y187384D01*
X94898Y187467D01*
X95208Y187677D01*
X100555Y193024D01*
X128046Y193024D01*
X132941Y188129D01*
X133273Y187909D01*
X133664Y187836D01*
X134053Y187921D01*
X134377Y188151D01*
X134586Y188490D01*
X134648Y188836D01*
X134648Y192593D01*
X137607Y195552D01*
X141793Y195552D01*
X144752Y192593D01*
X144752Y189432D01*
X144831Y189042D01*
X145045Y188725D01*
X150851Y182919D01*
X151182Y182699D01*
X151558Y182626D01*
X170557Y182626D01*
X171450Y181733D01*
X171450Y181324D01*
X171529Y180934D01*
X171754Y180606D01*
X172090Y180391D01*
X172450Y180324D01*
X204889Y180324D01*
X207843Y177370D01*
X208175Y177150D01*
X208566Y177077D01*
X208955Y177163D01*
X209279Y177393D01*
X209488Y177731D01*
X209550Y178077D01*
X209550Y181733D01*
X210443Y182626D01*
X224806Y182626D01*
X225196Y182705D01*
X225524Y182930D01*
X225739Y183266D01*
X225806Y183626D01*
X225806Y198435D01*
X225727Y198825D01*
X225513Y199142D01*
X224542Y200113D01*
X224211Y200333D01*
X223835Y200406D01*
X207024Y200406D01*
X206634Y200327D01*
X206306Y200102D01*
X206091Y199767D01*
X206024Y199406D01*
X206024Y197569D01*
X205131Y196676D01*
X192869Y196676D01*
X191747Y197798D01*
X191415Y198017D01*
X191024Y198090D01*
X190635Y198005D01*
X190311Y197775D01*
X190102Y197436D01*
X190052Y197160D01*
X188552Y195660D01*
X183000Y195660D01*
X183000Y210740D01*
X188552Y210740D01*
X190055Y209238D01*
X190119Y208919D01*
X190344Y208591D01*
X190680Y208377D01*
X191072Y208310D01*
X191459Y208402D01*
X191747Y208602D01*
X192869Y209724D01*
X195206Y209724D01*
X195596Y209803D01*
X195924Y210028D01*
X196139Y210364D01*
X196206Y210724D01*
X196206Y218576D01*
X196127Y218966D01*
X195902Y219294D01*
X195567Y219509D01*
X195206Y219576D01*
X192869Y219576D01*
X191747Y220698D01*
X191415Y220917D01*
X191024Y220990D01*
X190635Y220905D01*
X190311Y220675D01*
X190102Y220336D01*
X190052Y220060D01*
X188552Y218560D01*
X182000Y218560D01*
X182000Y238640D01*
X188552Y238640D01*
X190055Y237138D01*
X190119Y236819D01*
X190344Y236491D01*
X190680Y236277D01*
X191072Y236210D01*
X191459Y236302D01*
X191747Y236502D01*
X192869Y237624D01*
X207131Y237624D01*
X208024Y236731D01*
X208024Y220469D01*
X207131Y219576D01*
X202794Y219576D01*
X202404Y219497D01*
X202076Y219272D01*
X201861Y218937D01*
X201794Y218576D01*
X201794Y210724D01*
X201873Y210334D01*
X202098Y210006D01*
X202434Y209791D01*
X202794Y209724D01*
X205131Y209724D01*
X206024Y208831D01*
X206024Y206994D01*
X206103Y206604D01*
X206328Y206276D01*
X206664Y206061D01*
X207024Y205994D01*
X223835Y205994D01*
X224225Y206073D01*
X224542Y206287D01*
X226507Y208252D01*
X230693Y208252D01*
X233652Y205293D01*
X233652Y201107D01*
X231687Y199142D01*
X231467Y198811D01*
X231394Y198435D01*
X231394Y183626D01*
X231473Y183236D01*
X231698Y182908D01*
X231824Y182827D01*
X232918Y181733D01*
X232918Y178077D01*
X232997Y177687D01*
X233222Y177359D01*
X233558Y177144D01*
X233950Y177078D01*
X234337Y177169D01*
X234625Y177370D01*
X250279Y193024D01*
X283226Y193024D01*
X283616Y193103D01*
X283944Y193328D01*
X284159Y193664D01*
X284226Y194024D01*
X284226Y194306D01*
X285119Y195199D01*
X299081Y195199D01*
X299974Y194306D01*
X299974Y186694D01*
X299081Y185801D01*
X285119Y185801D01*
X284226Y186694D01*
X284226Y186976D01*
X284147Y187366D01*
X283922Y187694D01*
X283587Y187909D01*
X283226Y187976D01*
X252784Y187976D01*
X252394Y187897D01*
X252077Y187683D01*
X233725Y169331D01*
X233505Y168999D01*
X233433Y168608D01*
X233518Y168219D01*
X233748Y167895D01*
X234087Y167686D01*
X234432Y167624D01*
X239840Y167624D01*
X240230Y167703D01*
X240547Y167917D01*
X252955Y180324D01*
X283226Y180324D01*
X283616Y180403D01*
X283944Y180628D01*
X284159Y180964D01*
X284226Y181324D01*
X284226Y181606D01*
X285119Y182499D01*
X299081Y182499D01*
X299974Y181606D01*
X299974Y173994D01*
X299081Y173101D01*
X285119Y173101D01*
X284226Y173994D01*
X284226Y174276D01*
X284147Y174666D01*
X283922Y174994D01*
X283587Y175209D01*
X283226Y175276D01*
X255460Y175276D01*
X255070Y175197D01*
X254753Y174983D01*
X242346Y162576D01*
X233918Y162576D01*
X233528Y162497D01*
X233200Y162272D01*
X232985Y161937D01*
X232918Y161576D01*
X232918Y161167D01*
X232025Y160274D01*
X210443Y160274D01*
X209550Y161167D01*
X209550Y161576D01*
X209471Y161966D01*
X209246Y162294D01*
X208911Y162509D01*
X208550Y162576D01*
X204016Y162576D01*
X203626Y162497D01*
X203309Y162283D01*
X197657Y156631D01*
X197564Y156490D01*
X197530Y156496D01*
X195963Y156496D01*
X195573Y156417D01*
X195245Y156192D01*
X195030Y155857D01*
X194963Y155464D01*
X195055Y155077D01*
X195256Y154789D01*
X195558Y154486D01*
X195631Y154128D01*
X195856Y153799D01*
X196192Y153585D01*
X196584Y153518D01*
X196971Y153610D01*
X197259Y153811D01*
X198237Y154789D01*
X198331Y154930D01*
X198364Y154924D01*
X208550Y154924D01*
X208940Y155003D01*
X209268Y155228D01*
X209483Y155564D01*
X209550Y155924D01*
X209550Y156333D01*
X210443Y157226D01*
X232025Y157226D01*
X232918Y156333D01*
X232918Y148467D01*
X232025Y147574D01*
X210443Y147574D01*
X209550Y148467D01*
X209550Y148876D01*
X209471Y149266D01*
X209246Y149594D01*
X208911Y149809D01*
X208550Y149876D01*
X200878Y149876D01*
X200488Y149797D01*
X200171Y149583D01*
X194563Y143975D01*
X194343Y143643D01*
X194270Y143252D01*
X194355Y142863D01*
X194586Y142539D01*
X194924Y142330D01*
X195270Y142268D01*
X208550Y142268D01*
X208940Y142347D01*
X209268Y142572D01*
X209483Y142908D01*
X209550Y143268D01*
X209550Y143633D01*
X210443Y144526D01*
X232025Y144526D01*
X232918Y143633D01*
X232918Y139977D01*
X232997Y139587D01*
X233222Y139259D01*
X233558Y139044D01*
X233950Y138978D01*
X234337Y139069D01*
X234625Y139270D01*
X262979Y167624D01*
X283226Y167624D01*
X283616Y167703D01*
X283944Y167928D01*
X284159Y168264D01*
X284226Y168624D01*
X284226Y168906D01*
X285119Y169799D01*
X299081Y169799D01*
X299974Y168906D01*
X299974Y161294D01*
X299081Y160401D01*
X285119Y160401D01*
X284226Y161294D01*
X284226Y161576D01*
X284147Y161966D01*
X283922Y162294D01*
X283587Y162509D01*
X283226Y162576D01*
X265484Y162576D01*
X265094Y162497D01*
X264777Y162283D01*
X233725Y131231D01*
X233505Y130899D01*
X233433Y130508D01*
X233518Y130119D01*
X233748Y129795D01*
X234087Y129586D01*
X234432Y129524D01*
X239840Y129524D01*
X240230Y129603D01*
X240547Y129817D01*
X265655Y154924D01*
X283226Y154924D01*
X283616Y155003D01*
X283944Y155228D01*
X284159Y155564D01*
X284226Y155924D01*
X284226Y156206D01*
X285119Y157099D01*
X299081Y157099D01*
X299974Y156206D01*
X299974Y148594D01*
X299081Y147701D01*
X285119Y147701D01*
X284226Y148594D01*
X284226Y148876D01*
X284147Y149266D01*
X283922Y149594D01*
X283587Y149809D01*
X283226Y149876D01*
X268160Y149876D01*
X267770Y149797D01*
X267453Y149583D01*
X242346Y124476D01*
X233918Y124476D01*
X233528Y124397D01*
X233200Y124172D01*
X232985Y123837D01*
X232918Y123476D01*
X232918Y123067D01*
X232025Y122174D01*
X210443Y122174D01*
X209550Y123067D01*
X209550Y123476D01*
X209471Y123866D01*
X209246Y124194D01*
X208911Y124409D01*
X208550Y124476D01*
X193693Y124476D01*
X193303Y124397D01*
X192975Y124172D01*
X192760Y123837D01*
X192693Y123444D01*
X192785Y123057D01*
X192986Y122769D01*
X195552Y120203D01*
X195552Y116017D01*
X192593Y113058D01*
X188407Y113058D01*
X186994Y114472D01*
X186662Y114692D01*
X186164Y114757D01*
X172327Y113042D01*
X171950Y112915D01*
X171652Y112651D01*
X171480Y112292D01*
X171450Y112049D01*
X171450Y111430D01*
X171529Y111040D01*
X171754Y110712D01*
X172090Y110497D01*
X172450Y110430D01*
X201566Y110430D01*
X201883Y110482D01*
X208868Y112821D01*
X209212Y113020D01*
X209452Y113337D01*
X209550Y113769D01*
X209550Y118233D01*
X210443Y119126D01*
X232025Y119126D01*
X232918Y118233D01*
X232918Y110367D01*
X232025Y109474D01*
X214934Y109474D01*
X214617Y109422D01*
X211487Y108374D01*
X211142Y108175D01*
X210902Y107858D01*
X210806Y107472D01*
X210867Y107078D01*
X211077Y106740D01*
X211402Y106511D01*
X211804Y106426D01*
X232025Y106426D01*
X232918Y105533D01*
X232918Y105394D01*
X232997Y105004D01*
X233222Y104676D01*
X233558Y104461D01*
X233918Y104394D01*
X256427Y104394D01*
X298806Y62015D01*
X299138Y61795D01*
X299514Y61722D01*
X316099Y61722D01*
X316992Y60829D01*
X316992Y40771D01*
X316099Y39878D01*
X296041Y39878D01*
G37*
G36*
X171960Y229600D02*
X171960Y237152D01*
X173448Y238640D01*
X180000Y238640D01*
X180000Y229600D01*
X171960Y229600D01*
G37*
G36*
X478760Y229600D02*
X478760Y234652D01*
X480248Y236140D01*
X485800Y236140D01*
X485800Y229600D01*
X478760Y229600D01*
G37*
G36*
X480248Y221060D02*
X478760Y222548D01*
X478760Y227600D01*
X485800Y227600D01*
X485800Y221060D01*
X480248Y221060D01*
G37*
G36*
X173448Y218560D02*
X171960Y220048D01*
X171960Y227600D01*
X180000Y227600D01*
X180000Y218560D01*
X173448Y218560D01*
G37*
G36*
X572500Y204200D02*
X572500Y215138D01*
X573875Y215138D01*
X578262Y213321D01*
X581621Y209962D01*
X583438Y205575D01*
X583438Y204200D01*
X572500Y204200D01*
G37*
G36*
X559562Y204200D02*
X559562Y205575D01*
X561379Y209962D01*
X564738Y213321D01*
X569125Y215138D01*
X570500Y215138D01*
X570500Y204200D01*
X559562Y204200D01*
G37*
G36*
X76962Y204200D02*
X76962Y205575D01*
X78779Y209962D01*
X82138Y213321D01*
X86525Y215138D01*
X87900Y215138D01*
X87900Y204200D01*
X76962Y204200D01*
G37*
G36*
X89900Y204200D02*
X89900Y215138D01*
X91275Y215138D01*
X95662Y213321D01*
X99021Y209962D01*
X100838Y205575D01*
X100838Y204200D01*
X89900Y204200D01*
G37*
G36*
X620127Y192278D02*
X616113Y193941D01*
X613041Y197013D01*
X611378Y201027D01*
X611378Y205373D01*
X613041Y209387D01*
X616113Y212459D01*
X620127Y214122D01*
X624473Y214122D01*
X628487Y212459D01*
X631559Y209387D01*
X633222Y205373D01*
X633222Y201027D01*
X631559Y197013D01*
X628487Y193941D01*
X624473Y192278D01*
X620127Y192278D01*
G37*
G36*
X173960Y204200D02*
X173960Y209252D01*
X175448Y210740D01*
X181000Y210740D01*
X181000Y204200D01*
X173960Y204200D01*
G37*
G36*
X175448Y195660D02*
X173960Y197148D01*
X173960Y202200D01*
X181000Y202200D01*
X181000Y195660D01*
X175448Y195660D01*
G37*
G36*
X89900Y191262D02*
X89900Y202200D01*
X100838Y202200D01*
X100838Y200825D01*
X99021Y196438D01*
X95662Y193079D01*
X91275Y191262D01*
X89900Y191262D01*
G37*
G36*
X86525Y191262D02*
X82138Y193079D01*
X78779Y196438D01*
X76962Y200825D01*
X76962Y202200D01*
X87900Y202200D01*
X87900Y191262D01*
X86525Y191262D01*
G37*
G36*
X61327Y166878D02*
X57313Y168541D01*
X54241Y171613D01*
X52578Y175627D01*
X52578Y179973D01*
X54241Y183987D01*
X57313Y187059D01*
X61327Y188722D01*
X65673Y188722D01*
X69687Y187059D01*
X72759Y183987D01*
X74422Y179973D01*
X74422Y175627D01*
X72759Y171613D01*
X69687Y168541D01*
X65673Y166878D01*
X61327Y166878D01*
G37*
G36*
X620127Y166878D02*
X616113Y168541D01*
X613041Y171613D01*
X611378Y175627D01*
X611378Y179973D01*
X613041Y183987D01*
X616113Y187059D01*
X620127Y188722D01*
X624473Y188722D01*
X628487Y187059D01*
X631559Y183987D01*
X633222Y179973D01*
X633222Y175627D01*
X631559Y171613D01*
X628487Y168541D01*
X624473Y166878D01*
X620127Y166878D01*
G37*
G36*
X620127Y141478D02*
X616113Y143141D01*
X613041Y146213D01*
X611378Y150227D01*
X611378Y154573D01*
X613041Y158587D01*
X616113Y161659D01*
X620127Y163322D01*
X624473Y163322D01*
X628487Y161659D01*
X631559Y158587D01*
X633222Y154573D01*
X633222Y150227D01*
X631559Y146213D01*
X628487Y143141D01*
X624473Y141478D01*
X620127Y141478D01*
G37*
G36*
X61327Y141478D02*
X57313Y143141D01*
X54241Y146213D01*
X52578Y150227D01*
X52578Y154573D01*
X54241Y158587D01*
X57313Y161659D01*
X61327Y163322D01*
X65673Y163322D01*
X69687Y161659D01*
X72759Y158587D01*
X74422Y154573D01*
X74422Y150227D01*
X72759Y146213D01*
X69687Y143141D01*
X65673Y141478D01*
X61327Y141478D01*
G37*
G36*
X283210Y140700D02*
X283210Y143927D01*
X284698Y145415D01*
X291100Y145415D01*
X291100Y140700D01*
X283210Y140700D01*
G37*
G36*
X293100Y140700D02*
X293100Y145415D01*
X299502Y145415D01*
X300990Y143927D01*
X300990Y140700D01*
X293100Y140700D01*
G37*
G36*
X293100Y133985D02*
X293100Y138700D01*
X300990Y138700D01*
X300990Y135473D01*
X299502Y133985D01*
X293100Y133985D01*
G37*
G36*
X284698Y133985D02*
X283210Y135473D01*
X283210Y138700D01*
X291100Y138700D01*
X291100Y133985D01*
X284698Y133985D01*
G37*
G36*
X61327Y116078D02*
X57313Y117741D01*
X54241Y120813D01*
X52578Y124827D01*
X52578Y129173D01*
X54241Y133187D01*
X57313Y136259D01*
X61327Y137922D01*
X65673Y137922D01*
X69687Y136259D01*
X72759Y133187D01*
X74422Y129173D01*
X74422Y124827D01*
X72759Y120813D01*
X69687Y117741D01*
X65673Y116078D01*
X61327Y116078D01*
G37*
G36*
X620127Y116078D02*
X616113Y117741D01*
X613041Y120813D01*
X611378Y124827D01*
X611378Y129173D01*
X613041Y133187D01*
X616113Y136259D01*
X620127Y137922D01*
X624473Y137922D01*
X628487Y136259D01*
X631559Y133187D01*
X633222Y129173D01*
X633222Y124827D01*
X631559Y120813D01*
X628487Y117741D01*
X624473Y116078D01*
X620127Y116078D01*
G37*
G36*
X451866Y128000D02*
X451866Y131354D01*
X453354Y132842D01*
X463566Y132842D01*
X463566Y128000D01*
X451866Y128000D01*
G37*
G36*
X465566Y128000D02*
X465566Y132842D01*
X475778Y132842D01*
X477266Y131354D01*
X477266Y128000D01*
X465566Y128000D01*
G37*
G36*
X453354Y121158D02*
X451866Y122646D01*
X451866Y126000D01*
X463566Y126000D01*
X463566Y121158D01*
X453354Y121158D01*
G37*
G36*
X465566Y121158D02*
X465566Y126000D01*
X477266Y126000D01*
X477266Y122646D01*
X475778Y121158D01*
X465566Y121158D01*
G37*
G36*
X597900Y102600D02*
X597900Y113538D01*
X599275Y113538D01*
X603662Y111721D01*
X607021Y108362D01*
X608838Y103975D01*
X608838Y102600D01*
X597900Y102600D01*
G37*
G36*
X584962Y102600D02*
X584962Y103975D01*
X586779Y108362D01*
X590138Y111721D01*
X594525Y113538D01*
X595900Y113538D01*
X595900Y102600D01*
X584962Y102600D01*
G37*
G36*
X61327Y90678D02*
X57313Y92341D01*
X54241Y95413D01*
X52578Y99427D01*
X52578Y103773D01*
X54241Y107787D01*
X57313Y110859D01*
X61327Y112522D01*
X65673Y112522D01*
X69687Y110859D01*
X72759Y107787D01*
X74422Y103773D01*
X74422Y99427D01*
X72759Y95413D01*
X69687Y92341D01*
X65673Y90678D01*
X61327Y90678D01*
G37*
G36*
X111925Y89662D02*
X107538Y91479D01*
X104179Y94838D01*
X102362Y99225D01*
X102362Y100600D01*
X113300Y100600D01*
X113300Y89662D01*
X111925Y89662D01*
G37*
G36*
X597900Y89662D02*
X597900Y100600D01*
X608838Y100600D01*
X608838Y99225D01*
X607021Y94838D01*
X603662Y91479D01*
X599275Y89662D01*
X597900Y89662D01*
G37*
G36*
X594525Y89662D02*
X590138Y91479D01*
X586779Y94838D01*
X584962Y99225D01*
X584962Y100600D01*
X595900Y100600D01*
X595900Y89662D01*
X594525Y89662D01*
G37*
G36*
X160766Y95758D02*
X160766Y100600D01*
X172466Y100600D01*
X172466Y97246D01*
X170978Y95758D01*
X160766Y95758D01*
G37*
G36*
X148554Y95758D02*
X147066Y97246D01*
X147066Y100600D01*
X158766Y100600D01*
X158766Y95758D01*
X148554Y95758D01*
G37*
G36*
X115300Y89662D02*
X115300Y100600D01*
X126238Y100600D01*
X126238Y99225D01*
X124421Y94838D01*
X121062Y91479D01*
X116675Y89662D01*
X115300Y89662D01*
G37*
G36*
X46758Y30480D02*
X39290Y33574D01*
X33574Y39290D01*
X30480Y46758D01*
X30480Y54842D01*
X33574Y62310D01*
X39290Y68026D01*
X46758Y71120D01*
X54842Y71120D01*
X62310Y68026D01*
X68026Y62310D01*
X71120Y54842D01*
X71120Y46758D01*
X68026Y39290D01*
X62310Y33574D01*
X54842Y30480D01*
X46758Y30480D01*
G37*
G36*
X630958Y30480D02*
X623490Y33574D01*
X617774Y39290D01*
X614680Y46758D01*
X614680Y54842D01*
X617774Y62310D01*
X623490Y68026D01*
X630958Y71120D01*
X639042Y71120D01*
X646510Y68026D01*
X652226Y62310D01*
X655320Y54842D01*
X655320Y46758D01*
X652226Y39290D01*
X646510Y33574D01*
X639042Y30480D01*
X630958Y30480D01*
G37*
G36*
X432800Y50530D02*
X432800Y61468D01*
X442250Y61468D01*
X443738Y59980D01*
X443738Y50530D01*
X432800Y50530D01*
G37*
G36*
X432800Y37592D02*
X432800Y48530D01*
X443738Y48530D01*
X443738Y39080D01*
X442250Y37592D01*
X432800Y37592D01*
G37*
G36*
X421350Y37592D02*
X419862Y39080D01*
X419862Y48530D01*
X430800Y48530D01*
X430800Y37592D01*
X421350Y37592D01*
G37*
%LPD*%
G36*
X293491Y320103D02*
X293819Y320328D01*
X294034Y320664D01*
X294101Y321024D01*
X294101Y322131D01*
X295113Y323143D01*
X295332Y323475D01*
X295405Y323866D01*
X295320Y324255D01*
X295113Y324557D01*
X294101Y325569D01*
X294101Y326097D01*
X294022Y326487D01*
X293797Y326816D01*
X293462Y327030D01*
X293189Y327093D01*
X290705Y327312D01*
X290309Y327268D01*
X289910Y327023D01*
X288095Y325208D01*
X283910Y325208D01*
X280950Y328168D01*
X280950Y332353D01*
X283910Y335312D01*
X288095Y335312D01*
X290801Y332606D01*
X291133Y332386D01*
X291421Y332317D01*
X293013Y332176D01*
X293409Y332221D01*
X293755Y332417D01*
X293999Y332732D01*
X294101Y333173D01*
X294101Y334831D01*
X295113Y335843D01*
X295332Y336175D01*
X295405Y336566D01*
X295320Y336955D01*
X295113Y337257D01*
X294101Y338269D01*
X294101Y347531D01*
X294994Y348424D01*
X301276Y348424D01*
X301666Y348503D01*
X301994Y348728D01*
X302209Y349064D01*
X302276Y349424D01*
X302276Y356646D01*
X312715Y367085D01*
X312915Y367125D01*
X313232Y367339D01*
X316717Y370824D01*
X337865Y370824D01*
X338255Y370903D01*
X338572Y371117D01*
X340807Y373352D01*
X343968Y373352D01*
X344358Y373431D01*
X344675Y373645D01*
X358482Y387452D01*
X358702Y387783D01*
X358775Y388159D01*
X358775Y392553D01*
X359215Y392993D01*
X359434Y393325D01*
X359507Y393716D01*
X359422Y394105D01*
X359215Y394407D01*
X358775Y394847D01*
X358775Y397526D01*
X358696Y397916D01*
X358471Y398244D01*
X358136Y398459D01*
X357775Y398526D01*
X340725Y398526D01*
X340335Y398447D01*
X340007Y398222D01*
X339792Y397887D01*
X339725Y397526D01*
X339725Y394847D01*
X339285Y394407D01*
X339066Y394075D01*
X338993Y393684D01*
X339078Y393295D01*
X339285Y392993D01*
X339725Y392553D01*
X339725Y379607D01*
X338832Y378714D01*
X321568Y378714D01*
X320675Y379607D01*
X320675Y382556D01*
X320596Y382946D01*
X320371Y383274D01*
X320036Y383489D01*
X319675Y383556D01*
X311340Y383556D01*
X310950Y383477D01*
X310633Y383263D01*
X277073Y349703D01*
X276853Y349372D01*
X276780Y348996D01*
X276780Y321024D01*
X276859Y320634D01*
X277084Y320306D01*
X277420Y320091D01*
X277780Y320024D01*
X293101Y320024D01*
X293491Y320103D01*
G37*
G36*
X267359Y308615D02*
X267683Y308845D01*
X267892Y309184D01*
X267954Y309530D01*
X267954Y315968D01*
X267954Y315968D01*
X267954Y365503D01*
X282282Y379832D01*
X282502Y380163D01*
X282575Y380539D01*
X282575Y392541D01*
X282496Y392932D01*
X282271Y393260D01*
X281936Y393474D01*
X281543Y393541D01*
X281156Y393449D01*
X280868Y393249D01*
X224352Y336733D01*
X224133Y336401D01*
X224060Y336010D01*
X224145Y335621D01*
X224375Y335297D01*
X224714Y335088D01*
X225060Y335026D01*
X232025Y335026D01*
X232918Y334133D01*
X232918Y327129D01*
X232997Y326739D01*
X233222Y326411D01*
X233558Y326197D01*
X233936Y326130D01*
X246047Y326348D01*
X246164Y326374D01*
X247483Y326374D01*
X247501Y326374D01*
X248674Y326395D01*
X266247Y308823D01*
X266579Y308603D01*
X266970Y308530D01*
X267359Y308615D01*
G37*
G36*
X423075Y309756D02*
X423363Y309957D01*
X439510Y326104D01*
X451882Y326104D01*
X452272Y326183D01*
X452600Y326408D01*
X452815Y326744D01*
X452882Y327104D01*
X452882Y334133D01*
X453775Y335026D01*
X475357Y335026D01*
X476250Y334133D01*
X476250Y333994D01*
X476329Y333604D01*
X476554Y333276D01*
X476890Y333061D01*
X477250Y332994D01*
X477609Y332994D01*
X477999Y333073D01*
X478316Y333287D01*
X480507Y335478D01*
X484693Y335478D01*
X487652Y332519D01*
X487652Y329179D01*
X487731Y328789D01*
X487956Y328461D01*
X488292Y328246D01*
X488684Y328180D01*
X489071Y328271D01*
X489359Y328472D01*
X499556Y338669D01*
X499776Y339001D01*
X499849Y339392D01*
X499763Y339781D01*
X499533Y340105D01*
X499195Y340314D01*
X498849Y340376D01*
X477250Y340376D01*
X476860Y340297D01*
X476532Y340072D01*
X476317Y339737D01*
X476250Y339376D01*
X476250Y338967D01*
X475357Y338074D01*
X453775Y338074D01*
X452882Y338967D01*
X452882Y346833D01*
X453775Y347726D01*
X475357Y347726D01*
X476250Y346833D01*
X476250Y346424D01*
X476329Y346034D01*
X476554Y345706D01*
X476890Y345491D01*
X477250Y345424D01*
X500554Y345424D01*
X500944Y345503D01*
X501261Y345717D01*
X505293Y349748D01*
X505513Y350080D01*
X505586Y350472D01*
X505500Y350860D01*
X505293Y351163D01*
X503672Y352783D01*
X503341Y353003D01*
X502965Y353076D01*
X477250Y353076D01*
X476860Y352997D01*
X476532Y352772D01*
X476317Y352437D01*
X476250Y352076D01*
X476250Y351667D01*
X475357Y350774D01*
X453775Y350774D01*
X452882Y351667D01*
X452882Y352076D01*
X452803Y352466D01*
X452578Y352794D01*
X452243Y353009D01*
X451882Y353076D01*
X446010Y353076D01*
X445620Y352997D01*
X445286Y352766D01*
X421932Y328242D01*
X421720Y327905D01*
X421656Y327552D01*
X421656Y310664D01*
X421735Y310274D01*
X421960Y309946D01*
X422296Y309732D01*
X422688Y309665D01*
X423075Y309756D01*
G37*
G36*
X257231Y280643D02*
X257555Y280873D01*
X257764Y281212D01*
X257826Y281558D01*
X257826Y303340D01*
X257747Y303730D01*
X257533Y304047D01*
X246897Y314683D01*
X246566Y314903D01*
X246190Y314976D01*
X233918Y314976D01*
X233528Y314897D01*
X233200Y314672D01*
X232985Y314337D01*
X232918Y313976D01*
X232918Y313567D01*
X232025Y312674D01*
X210443Y312674D01*
X209550Y313567D01*
X209550Y313976D01*
X209471Y314366D01*
X209246Y314694D01*
X208911Y314909D01*
X208550Y314976D01*
X204660Y314976D01*
X204270Y314897D01*
X203953Y314683D01*
X198301Y309031D01*
X198081Y308699D01*
X198051Y308538D01*
X197989Y308625D01*
X197650Y308834D01*
X197304Y308896D01*
X196189Y308896D01*
X195799Y308817D01*
X195471Y308592D01*
X195256Y308257D01*
X195189Y307864D01*
X195281Y307477D01*
X195482Y307189D01*
X195558Y307112D01*
X195631Y306754D01*
X195856Y306425D01*
X196192Y306211D01*
X196584Y306144D01*
X196971Y306236D01*
X197259Y306437D01*
X198011Y307189D01*
X198231Y307521D01*
X198261Y307682D01*
X198323Y307595D01*
X198662Y307386D01*
X199008Y307324D01*
X208550Y307324D01*
X208940Y307403D01*
X209268Y307628D01*
X209483Y307964D01*
X209550Y308324D01*
X209550Y308733D01*
X210443Y309626D01*
X232025Y309626D01*
X232918Y308733D01*
X232918Y300867D01*
X232025Y299974D01*
X210443Y299974D01*
X209550Y300867D01*
X209550Y301276D01*
X209471Y301666D01*
X209246Y301994D01*
X208911Y302209D01*
X208550Y302276D01*
X200652Y302276D01*
X200262Y302197D01*
X199945Y301983D01*
X194789Y296827D01*
X194569Y296495D01*
X194496Y296104D01*
X194581Y295715D01*
X194812Y295391D01*
X195150Y295182D01*
X195496Y295120D01*
X208550Y295120D01*
X208940Y295199D01*
X209268Y295424D01*
X209483Y295760D01*
X209530Y296013D01*
X210443Y296926D01*
X232025Y296926D01*
X232918Y296033D01*
X232918Y289544D01*
X232997Y289154D01*
X233222Y288826D01*
X233558Y288611D01*
X233918Y288544D01*
X247616Y288544D01*
X253943Y282217D01*
X254275Y281997D01*
X254650Y281924D01*
X255046Y281924D01*
X256119Y280851D01*
X256451Y280631D01*
X256842Y280558D01*
X257231Y280643D01*
G37*
G36*
X283616Y256603D02*
X283944Y256828D01*
X284159Y257164D01*
X284226Y257524D01*
X284226Y257806D01*
X285119Y258699D01*
X299081Y258699D01*
X299974Y257806D01*
X299974Y257524D01*
X300053Y257134D01*
X300278Y256806D01*
X300614Y256591D01*
X300974Y256524D01*
X303340Y256524D01*
X303730Y256603D01*
X304047Y256817D01*
X314683Y267453D01*
X314903Y267784D01*
X314976Y268160D01*
X314976Y277940D01*
X314897Y278330D01*
X314683Y278647D01*
X302276Y291055D01*
X302276Y298276D01*
X302197Y298666D01*
X301972Y298994D01*
X301637Y299209D01*
X301276Y299276D01*
X294994Y299276D01*
X294101Y300169D01*
X294101Y309431D01*
X295113Y310443D01*
X295332Y310775D01*
X295405Y311166D01*
X295320Y311555D01*
X295113Y311857D01*
X294101Y312869D01*
X294101Y313976D01*
X294022Y314366D01*
X293797Y314694D01*
X293462Y314909D01*
X293101Y314976D01*
X277780Y314976D01*
X277390Y314897D01*
X277062Y314672D01*
X276847Y314337D01*
X276780Y313976D01*
X276780Y273304D01*
X276859Y272914D01*
X277073Y272597D01*
X280153Y269517D01*
X280484Y269297D01*
X280860Y269224D01*
X283226Y269224D01*
X283616Y269303D01*
X283944Y269528D01*
X284159Y269864D01*
X284226Y270224D01*
X284226Y270506D01*
X285119Y271399D01*
X299081Y271399D01*
X299974Y270506D01*
X299974Y262894D01*
X299081Y262001D01*
X285119Y262001D01*
X284226Y262894D01*
X284226Y263176D01*
X284147Y263566D01*
X283922Y263894D01*
X283587Y264109D01*
X283226Y264176D01*
X278355Y264176D01*
X274709Y267821D01*
X274377Y268041D01*
X273986Y268114D01*
X273597Y268029D01*
X273273Y267799D01*
X273064Y267460D01*
X273002Y267114D01*
X273002Y264382D01*
X273081Y263992D01*
X273295Y263675D01*
X280153Y256817D01*
X280484Y256597D01*
X280860Y256524D01*
X283226Y256524D01*
X283616Y256603D01*
G37*
%LPC*%
G36*
X285119Y274701D02*
X284226Y275594D01*
X284226Y283206D01*
X285119Y284099D01*
X299081Y284099D01*
X299974Y283206D01*
X299974Y275594D01*
X299081Y274701D01*
X285119Y274701D01*
G37*
%LPD*%
G36*
X347367Y59370D02*
X347655Y59571D01*
X349413Y61329D01*
X352459Y62591D01*
X352789Y62813D01*
X353006Y63147D01*
X353076Y63515D01*
X353076Y105680D01*
X352997Y106070D01*
X352772Y106398D01*
X352643Y106481D01*
X347980Y111144D01*
X347980Y117456D01*
X352444Y121920D01*
X359044Y121920D01*
X359219Y121887D01*
X359608Y121973D01*
X359911Y122180D01*
X365483Y127753D01*
X365703Y128084D01*
X365776Y128460D01*
X365776Y238135D01*
X365697Y238525D01*
X365472Y238854D01*
X365137Y239068D01*
X364744Y239135D01*
X364357Y239043D01*
X364069Y238842D01*
X345717Y220490D01*
X345497Y220159D01*
X345424Y219783D01*
X345424Y77660D01*
X345503Y77270D01*
X345717Y76953D01*
X345948Y76722D01*
X345948Y60278D01*
X346027Y59888D01*
X346252Y59560D01*
X346588Y59346D01*
X346980Y59279D01*
X347367Y59370D01*
G37*
G36*
X452272Y173783D02*
X452600Y174008D01*
X452815Y174344D01*
X452882Y174704D01*
X452882Y181733D01*
X453775Y182626D01*
X475357Y182626D01*
X476250Y181733D01*
X476250Y181324D01*
X476329Y180934D01*
X476554Y180606D01*
X476890Y180391D01*
X477250Y180324D01*
X477565Y180324D01*
X477955Y180403D01*
X478272Y180617D01*
X480507Y182852D01*
X484693Y182852D01*
X487652Y179893D01*
X487652Y176136D01*
X487731Y175746D01*
X487956Y175417D01*
X488292Y175203D01*
X488684Y175136D01*
X489071Y175228D01*
X489359Y175429D01*
X500199Y186269D01*
X500419Y186601D01*
X500492Y186992D01*
X500407Y187381D01*
X500177Y187705D01*
X499838Y187914D01*
X499492Y187976D01*
X477250Y187976D01*
X476860Y187897D01*
X476532Y187672D01*
X476317Y187337D01*
X476250Y186976D01*
X476250Y186567D01*
X475357Y185674D01*
X453775Y185674D01*
X452882Y186567D01*
X452882Y194433D01*
X453775Y195326D01*
X475357Y195326D01*
X476250Y194433D01*
X476250Y194024D01*
X476329Y193634D01*
X476554Y193306D01*
X476890Y193091D01*
X477250Y193024D01*
X501197Y193024D01*
X501587Y193103D01*
X501904Y193317D01*
X505614Y197027D01*
X505834Y197359D01*
X505907Y197750D01*
X505822Y198139D01*
X505614Y198441D01*
X503672Y200383D01*
X503341Y200603D01*
X502965Y200676D01*
X477250Y200676D01*
X476860Y200597D01*
X476532Y200372D01*
X476317Y200037D01*
X476250Y199676D01*
X476250Y199267D01*
X475357Y198374D01*
X453775Y198374D01*
X452882Y199267D01*
X452882Y199676D01*
X452803Y200066D01*
X452578Y200394D01*
X452243Y200609D01*
X451882Y200676D01*
X445960Y200676D01*
X445570Y200597D01*
X445253Y200383D01*
X420281Y175411D01*
X420061Y175079D01*
X419988Y174688D01*
X420073Y174299D01*
X420303Y173975D01*
X420642Y173766D01*
X420988Y173704D01*
X451882Y173704D01*
X452272Y173783D01*
G37*
G36*
X195407Y161623D02*
X195724Y161837D01*
X201511Y167624D01*
X208036Y167624D01*
X208426Y167703D01*
X208754Y167928D01*
X208968Y168264D01*
X209035Y168656D01*
X208944Y169043D01*
X208743Y169331D01*
X203091Y174983D01*
X202759Y175203D01*
X202384Y175276D01*
X172450Y175276D01*
X172060Y175197D01*
X171732Y174972D01*
X171517Y174637D01*
X171450Y174276D01*
X171450Y173867D01*
X170557Y172974D01*
X150510Y172974D01*
X150120Y172895D01*
X149791Y172670D01*
X149577Y172335D01*
X149510Y171942D01*
X149602Y171555D01*
X149803Y171267D01*
X150851Y170219D01*
X151182Y169999D01*
X151558Y169926D01*
X170557Y169926D01*
X171450Y169033D01*
X171450Y162544D01*
X171529Y162154D01*
X171754Y161826D01*
X172090Y161611D01*
X172450Y161544D01*
X195017Y161544D01*
X195407Y161623D01*
G37*
D10*
X159766Y177800D03*
X221234Y177800D03*
X159766Y165100D03*
X159766Y152400D03*
X221234Y165100D03*
X221234Y152400D03*
X159766Y139700D03*
X221234Y139700D03*
X159766Y127000D03*
X159766Y114300D03*
X221234Y127000D03*
X221234Y114300D03*
X159766Y101600D03*
X221234Y101600D03*
X464566Y203200D03*
X526034Y203200D03*
X464566Y190500D03*
X464566Y177800D03*
X526034Y190500D03*
X526034Y177800D03*
X464566Y165100D03*
X526034Y165100D03*
X464566Y152400D03*
X464566Y139700D03*
X526034Y152400D03*
X526034Y139700D03*
X464566Y127000D03*
X526034Y127000D03*
D11*
X571500Y127000D03*
X596900Y127000D03*
X622300Y127000D03*
X647700Y127000D03*
D12*
X306070Y50800D03*
D11*
X278130Y50800D03*
X571500Y152400D03*
X596900Y152400D03*
X622300Y152400D03*
X647700Y152400D03*
X571500Y177800D03*
X596900Y177800D03*
X622300Y177800D03*
X647700Y177800D03*
X571500Y203200D03*
X596900Y203200D03*
X622300Y203200D03*
X647700Y203200D03*
X571500Y279400D03*
X596900Y279400D03*
X622300Y279400D03*
X647700Y279400D03*
X571500Y304800D03*
X596900Y304800D03*
X622300Y304800D03*
X647700Y304800D03*
X571500Y330200D03*
X596900Y330200D03*
X622300Y330200D03*
X647700Y330200D03*
X571500Y355600D03*
X596900Y355600D03*
X622300Y355600D03*
X647700Y355600D03*
D12*
X431800Y49530D03*
D11*
X406400Y52070D03*
X381000Y49530D03*
X355600Y52070D03*
D13*
X301625Y304800D03*
X301625Y317500D03*
X320675Y304800D03*
X320675Y317500D03*
X320675Y330200D03*
X320675Y342900D03*
X301625Y330200D03*
X301625Y342900D03*
D14*
X330200Y386080D03*
X330200Y401320D03*
X368300Y386080D03*
X368300Y401320D03*
X292100Y386080D03*
X292100Y401320D03*
D15*
X477520Y82550D03*
X462280Y82550D03*
D16*
X199000Y355600D03*
X182000Y355600D03*
X199000Y203200D03*
X182000Y203200D03*
X503800Y228600D03*
X486800Y228600D03*
D17*
X381000Y114300D03*
X406400Y114300D03*
D18*
X355600Y114300D03*
X330200Y114300D03*
D19*
X292100Y279400D03*
X292100Y266700D03*
X292100Y254000D03*
X292100Y241300D03*
X292100Y228600D03*
X292100Y215900D03*
X292100Y203200D03*
X292100Y190500D03*
X292100Y177800D03*
X292100Y165100D03*
X292100Y152400D03*
X292100Y139700D03*
X393700Y139700D03*
X393700Y152400D03*
X393700Y165100D03*
X393700Y177800D03*
X393700Y190500D03*
X393700Y203200D03*
X393700Y215900D03*
X393700Y228600D03*
X393700Y241300D03*
X393700Y254000D03*
X393700Y266700D03*
X393700Y279400D03*
D10*
X159766Y330200D03*
X221234Y330200D03*
X159766Y317500D03*
X159766Y304800D03*
X221234Y317500D03*
X221234Y304800D03*
X159766Y292100D03*
X221234Y292100D03*
X159766Y279400D03*
X159766Y266700D03*
X221234Y279400D03*
X221234Y266700D03*
X159766Y254000D03*
X221234Y254000D03*
X464566Y355600D03*
X526034Y355600D03*
X464566Y342900D03*
X464566Y330200D03*
X526034Y342900D03*
X526034Y330200D03*
X464566Y317500D03*
X526034Y317500D03*
X464566Y304800D03*
X464566Y292100D03*
X526034Y304800D03*
X526034Y292100D03*
X464566Y279400D03*
X526034Y279400D03*
D11*
X114300Y330200D03*
X88900Y330200D03*
X63500Y330200D03*
X38100Y330200D03*
X114300Y304800D03*
X88900Y304800D03*
X63500Y304800D03*
X38100Y304800D03*
X114300Y279400D03*
X88900Y279400D03*
X63500Y279400D03*
X38100Y279400D03*
X114300Y254000D03*
X88900Y254000D03*
X63500Y254000D03*
X38100Y254000D03*
X114300Y177800D03*
X88900Y177800D03*
X63500Y177800D03*
X38100Y177800D03*
X114300Y152400D03*
X88900Y152400D03*
X63500Y152400D03*
X38100Y152400D03*
X114300Y127000D03*
X88900Y127000D03*
X63500Y127000D03*
X38100Y127000D03*
X114300Y101600D03*
X88900Y101600D03*
X63500Y101600D03*
X38100Y101600D03*
D16*
X503800Y381000D03*
X486800Y381000D03*
X389500Y317500D03*
X372500Y317500D03*
X389500Y342900D03*
X372500Y342900D03*
D20*
X504800Y254000D03*
X485800Y254000D03*
X200000Y228600D03*
X181000Y228600D03*
D11*
X63500Y355600D03*
X88900Y355600D03*
X63500Y203200D03*
X88900Y203200D03*
X622300Y101600D03*
X596900Y101600D03*
X622300Y254000D03*
X596900Y254000D03*
D21*
X320675Y330200D02*
X320675Y342900D01*
X320675Y330200D02*
X320675Y317500D01*
X320675Y304800D01*
X520700Y266700D02*
X533400Y254000D01*
X596900Y254000D01*
X571500Y228600D01*
X571500Y203200D01*
D22*
X431800Y127000D03*
D23*
X464566Y127000D01*
D22*
X469900Y228600D03*
D21*
X486800Y228600D01*
D22*
X469900Y254000D03*
D21*
X485800Y254000D01*
X159766Y101600D02*
X114300Y101600D01*
D22*
X165100Y203200D03*
D21*
X182000Y203200D01*
X181000Y228600D02*
X159766Y250834D01*
D23*
X159766Y254000D01*
D22*
X355600Y317500D03*
D23*
X372500Y317500D01*
D21*
X355600Y317500D02*
X320675Y317500D01*
X372500Y317500D02*
X372500Y342900D01*
X469900Y279400D02*
X469900Y254000D01*
D23*
X469900Y279400D02*
X464566Y279400D01*
D22*
X419100Y152400D03*
X444500Y190500D03*
D21*
X571500Y355600D02*
X533400Y393700D01*
X495300Y393700D01*
X486800Y385200D01*
D23*
X486800Y381000D01*
X182000Y227600D02*
X181000Y228600D01*
D21*
X182000Y227600D02*
X182000Y203200D01*
D23*
X279400Y139700D02*
X292100Y139700D01*
D22*
X279400Y139700D03*
X203200Y190500D03*
D21*
X190500Y190500D01*
X182000Y199000D01*
D23*
X182000Y203200D01*
D21*
X485800Y257200D02*
X495300Y266700D01*
X485800Y257200D02*
X485800Y254000D01*
X495300Y266700D02*
X520700Y266700D01*
X83745Y89154D02*
X76454Y96445D01*
X83745Y89154D02*
X94055Y89154D01*
X76454Y165208D02*
X76454Y182955D01*
X76454Y165208D02*
X76454Y139884D01*
X76454Y114560D01*
X76454Y96445D01*
X88900Y195401D02*
X88900Y203200D01*
X106501Y101600D02*
X94055Y89154D01*
X106501Y101600D02*
X114300Y101600D01*
X76454Y182955D02*
X88900Y195401D01*
X114300Y177800D02*
X101708Y165208D01*
X76454Y165208D01*
X101784Y139884D02*
X114300Y152400D01*
X101784Y139884D02*
X76454Y139884D01*
X83739Y114560D02*
X83745Y114554D01*
X83739Y114560D02*
X76454Y114560D01*
X101854Y114554D02*
X114300Y127000D01*
X101854Y114554D02*
X83745Y114554D01*
X88900Y355600D02*
X182000Y355600D01*
X88900Y355600D02*
X76200Y342900D01*
X76200Y317452D01*
X76200Y292128D01*
X76200Y266503D01*
X76200Y254000D01*
X76454Y253746D01*
X76454Y248845D01*
X83999Y241300D01*
X88297Y241300D01*
X101600Y241300D01*
X114300Y254000D01*
X101552Y317452D02*
X114300Y330200D01*
X101552Y317452D02*
X76200Y317452D01*
X101628Y292128D02*
X114300Y304800D01*
X101628Y292128D02*
X76200Y292128D01*
X101403Y266503D02*
X114300Y279400D01*
X101403Y266503D02*
X76200Y266503D01*
X596900Y254000D02*
X609600Y266700D01*
X609600Y317151D02*
X609600Y342776D01*
X609600Y317151D02*
X609600Y292100D01*
X609600Y266700D01*
X609600Y342776D02*
X609600Y368300D01*
X596900Y381000D01*
X584200Y381000D01*
X571500Y368300D01*
X571500Y355600D01*
X584076Y342776D02*
X571500Y330200D01*
X584076Y342776D02*
X609600Y342776D01*
X602055Y317246D02*
X602151Y317151D01*
X609600Y317151D01*
X583946Y317246D02*
X571500Y304800D01*
X583946Y317246D02*
X602055Y317246D01*
X609600Y292100D02*
X584200Y292100D01*
X571500Y279400D01*
X596900Y254000D02*
X609600Y241300D01*
X609600Y190500D01*
X609600Y165100D01*
X609600Y139700D01*
X609600Y114300D01*
X596900Y101600D01*
X609600Y139700D02*
X584200Y139700D01*
X571500Y127000D01*
X584200Y165100D02*
X609600Y165100D01*
X584200Y165100D02*
X571500Y152400D01*
X584200Y190500D02*
X609600Y190500D01*
X584200Y190500D02*
X571500Y177800D01*
X88900Y203200D02*
X88297Y203803D01*
X88297Y241300D01*
D22*
X355600Y190500D03*
X444500Y342900D03*
X444500Y381000D03*
D24*
X486800Y381000D01*
D22*
X254000Y355600D03*
X292100Y355600D03*
X241300Y304800D03*
X292100Y292100D03*
X184150Y171450D03*
D21*
X221234Y330200D02*
X221234Y337566D01*
X203200Y355600D01*
D23*
X199000Y355600D01*
D21*
X526034Y210566D02*
X526034Y203200D01*
X526034Y210566D02*
X508000Y228600D01*
D23*
X503800Y228600D01*
D21*
X526034Y355600D02*
X526034Y362966D01*
X508000Y381000D01*
D23*
X503800Y381000D01*
D21*
X393700Y313300D02*
X393700Y279400D01*
D23*
X393700Y313300D02*
X389500Y317500D01*
X389500Y341663D02*
X389500Y342900D01*
D21*
X389500Y341663D02*
X389500Y317500D01*
D23*
X373380Y401320D02*
X368300Y401320D01*
D21*
X406400Y114300D02*
X406400Y52070D01*
X491100Y368300D02*
X503800Y381000D01*
X491100Y368300D02*
X419100Y368300D01*
X393700Y342900D01*
D23*
X389500Y342900D01*
D21*
X368300Y401320D02*
X330200Y401320D01*
X292100Y401320D01*
X368300Y401320D02*
X386080Y401320D01*
X393700Y393700D01*
X393700Y345863D01*
D23*
X389500Y341663D01*
X292100Y401320D02*
X284988Y401320D01*
D21*
X221234Y337566D01*
X330200Y114300D02*
X338852Y105648D01*
X338852Y45874D01*
X348880Y35846D01*
X384917Y35846D01*
X401141Y52070D02*
X406400Y52070D01*
X401141Y52070D02*
X384917Y35846D01*
X455930Y76200D02*
X462280Y82550D01*
X455930Y76200D02*
X431800Y76200D01*
X407670Y52070D01*
X406400Y52070D01*
X200000Y228600D02*
X199000Y227600D01*
X199000Y203200D01*
X228600Y203200D01*
D22*
X228600Y203200D03*
D21*
X330200Y203200D02*
X330200Y114300D01*
D22*
X330200Y203200D03*
D21*
X368300Y279400D02*
X393700Y279400D01*
X368300Y279400D02*
X330200Y241300D01*
X330200Y203200D01*
X228600Y203200D02*
X228600Y177800D01*
X221234Y177800D01*
X503800Y228600D02*
X504800Y229600D01*
X504800Y241179D01*
X504800Y254000D01*
D22*
X457200Y241300D03*
D21*
X457321Y241179D01*
X504800Y241179D01*
D23*
X419100Y139700D02*
X393700Y139700D01*
X481957Y152400D02*
X526034Y152400D01*
X481957Y152400D02*
X475877Y146320D01*
X425720Y146320D02*
X419100Y139700D01*
X425720Y146320D02*
X475877Y146320D01*
D22*
X545383Y151683D03*
D23*
X526751Y151683D01*
X526034Y152400D01*
X402590Y152400D02*
X393700Y152400D01*
X402590Y152400D02*
X415290Y165100D01*
X464566Y165100D01*
D22*
X546100Y165100D03*
D23*
X537345Y171180D02*
X502023Y171180D01*
X543425Y165100D02*
X546100Y165100D01*
X495943Y165100D02*
X464566Y165100D01*
X537345Y171180D02*
X543425Y165100D01*
X502023Y171180D02*
X495943Y165100D01*
X488680Y171180D02*
X508000Y190500D01*
X407137Y171180D02*
X401057Y165100D01*
X407137Y171180D02*
X488680Y171180D01*
X508000Y190500D02*
X526034Y190500D01*
X401057Y165100D02*
X393700Y165100D01*
D22*
X546100Y190274D03*
D23*
X526260Y190274D01*
X526034Y190500D01*
X419100Y177800D02*
X393700Y177800D01*
X419100Y177800D02*
X444500Y203200D01*
X464566Y203200D01*
D22*
X508000Y203200D03*
D23*
X464566Y203200D01*
X406400Y190500D02*
X393700Y190500D01*
X406400Y190500D02*
X444500Y228600D01*
X453255Y298180D02*
X501380Y298180D01*
X444500Y289425D02*
X444500Y228600D01*
X444500Y289425D02*
X453255Y298180D01*
X501380Y298180D02*
X508000Y304800D01*
X526034Y304800D01*
D22*
X545383Y304083D03*
D23*
X526751Y304083D01*
X526034Y304800D01*
X406400Y203200D02*
X393700Y203200D01*
X406400Y203200D02*
X431832Y228632D01*
X431832Y303562D01*
X447040Y317500D01*
X464566Y317500D01*
D22*
X546100Y317500D03*
D23*
X537345Y323580D02*
X502023Y323580D01*
X543425Y317500D02*
X546100Y317500D01*
X495943Y317500D02*
X464566Y317500D01*
X537345Y323580D02*
X543425Y317500D01*
X502023Y323580D02*
X495943Y317500D01*
X406400Y215900D02*
X393700Y215900D01*
X406400Y215900D02*
X425450Y234950D01*
X440555Y323580D02*
X488680Y323580D01*
X489220Y324120D01*
X425450Y308475D02*
X425450Y234950D01*
X425450Y308475D02*
X440555Y323580D01*
X488577Y324120D02*
X489220Y324120D01*
X507357Y342900D02*
X526034Y342900D01*
X507357Y342900D02*
X488577Y324120D01*
D22*
X546100Y342674D03*
D23*
X526260Y342674D01*
X526034Y342900D01*
X406400Y228600D02*
X393700Y228600D01*
X406400Y228600D02*
X419132Y241332D01*
X419132Y328962D01*
X444500Y355600D01*
X464566Y355600D01*
D22*
X508000Y355600D03*
D23*
X464566Y355600D01*
X596900Y127000D02*
X584200Y114300D01*
X558800Y114300D01*
X533400Y139700D01*
X526034Y139700D01*
X476614Y152400D02*
X464566Y152400D01*
X566457Y140224D02*
X576544Y140224D01*
X588720Y152400D02*
X596900Y152400D01*
X588720Y152400D02*
X576544Y140224D01*
X482694Y158480D02*
X476614Y152400D01*
X482694Y158480D02*
X548201Y158480D01*
X566457Y140224D01*
X566457Y165624D02*
X576544Y165624D01*
X554281Y177800D02*
X526034Y177800D01*
X588720Y177800D02*
X596900Y177800D01*
X566457Y165624D02*
X554281Y177800D01*
X576544Y165624D02*
X588720Y177800D01*
X502657Y190500D02*
X464566Y190500D01*
X548712Y196580D02*
X554792Y190500D01*
X508737Y196580D02*
X502657Y190500D01*
X508737Y196580D02*
X548712Y196580D01*
X578475Y190500D02*
X591175Y203200D01*
X596900Y203200D01*
X578475Y190500D02*
X554792Y190500D01*
X502657Y304800D02*
X464566Y304800D01*
X502657Y304800D02*
X508737Y310880D01*
X547505Y310880D01*
X578475Y292100D02*
X591175Y304800D01*
X596900Y304800D01*
X566285Y292100D02*
X547505Y310880D01*
X566285Y292100D02*
X578475Y292100D01*
X528876Y327358D02*
X526034Y330200D01*
X528876Y327358D02*
X545160Y327358D01*
X555018Y317500D01*
X578475Y317500D02*
X591175Y330200D01*
X596900Y330200D01*
X578475Y317500D02*
X555018Y317500D01*
X502014Y342900D02*
X464566Y342900D01*
X548712Y348980D02*
X554792Y342900D01*
X508094Y348980D02*
X502014Y342900D01*
X508094Y348980D02*
X548712Y348980D01*
X578475Y342900D02*
X591175Y355600D01*
X596900Y355600D01*
X578475Y342900D02*
X554792Y342900D01*
X596900Y279400D02*
X584200Y266700D01*
X558800Y266700D01*
X533400Y292100D01*
X526034Y292100D01*
X292100Y254000D02*
X279400Y254000D01*
X270478Y262922D01*
X291227Y254397D02*
X291981Y254397D01*
X292100Y254000D02*
X291227Y254397D01*
X270478Y317428D02*
X270478Y317428D01*
X270478Y364458D02*
X292100Y386080D01*
X270478Y364458D02*
X270478Y317428D01*
X270478Y262922D01*
X304800Y301625D02*
X301625Y304800D01*
X304800Y301625D02*
X304800Y292100D01*
X317500Y279400D01*
X317500Y266700D01*
X304800Y254000D01*
X292100Y254000D01*
X292100Y266700D02*
X279400Y266700D01*
X274256Y271844D01*
X274256Y318992D01*
X275748Y317500D02*
X301625Y317500D01*
X275748Y317500D02*
X274256Y318992D01*
X274256Y350456D01*
X309880Y386080D02*
X330200Y386080D01*
X309880Y386080D02*
X274256Y350456D01*
X301625Y342900D02*
X304800Y346075D01*
X304800Y355600D01*
X313722Y364522D01*
X313985Y364522D01*
X317763Y368300D02*
X342900Y368300D01*
X317763Y368300D02*
X313985Y364522D01*
X342900Y368300D02*
X360680Y386080D01*
X368300Y386080D01*
D22*
X342900Y368300D03*
X412750Y342900D03*
D23*
X412750Y247650D02*
X406400Y241300D01*
X393700Y241300D01*
X412750Y247650D02*
X412750Y342900D01*
X355600Y114300D02*
X355600Y52070D01*
X355600Y114300D02*
X368300Y127000D01*
X368300Y241300D01*
X381000Y254000D01*
X393700Y254000D01*
X381000Y114300D02*
X381000Y49530D01*
X388223Y266303D02*
X393700Y266700D01*
X388223Y266303D02*
X381610Y259953D01*
X342900Y221243D01*
X342900Y76200D01*
X343424Y47027D02*
X350557Y39894D01*
X360644Y39894D01*
X370280Y49530D02*
X381000Y49530D01*
X370280Y49530D02*
X360644Y39894D01*
X343424Y75676D02*
X342900Y76200D01*
X343424Y75676D02*
X343424Y47027D01*
D21*
X38100Y101600D02*
X38100Y127000D01*
X38100Y152400D01*
X38100Y177800D01*
X63500Y203200D01*
X63500Y228600D01*
X38100Y254000D01*
X38100Y279400D01*
X38100Y304800D01*
X38100Y330200D01*
X63500Y355600D01*
X622300Y101600D02*
X647700Y127000D01*
X647700Y152400D01*
X647700Y177800D01*
X647700Y201385D01*
X647700Y203200D01*
X622300Y241300D02*
X622300Y254000D01*
X647700Y279400D01*
X647700Y304800D01*
X647700Y330200D01*
X647700Y355600D01*
X622300Y101600D02*
X603250Y82550D01*
X477520Y82550D01*
X278130Y50800D02*
X278130Y39370D01*
X292100Y25400D01*
X477520Y58420D02*
X477520Y82550D01*
X444500Y25400D02*
X292100Y25400D01*
X444500Y25400D02*
X477520Y58420D01*
X647700Y215900D02*
X622300Y241300D01*
X647700Y215900D02*
X647700Y203200D01*
D23*
X292100Y241300D02*
X279400Y241300D01*
X266700Y254000D01*
X266700Y304800D01*
X247650Y323850D01*
X247515Y323850D01*
X232545Y323580D01*
X184420Y323580D02*
X177800Y330200D01*
X184420Y323580D02*
X232545Y323580D01*
X177800Y330200D02*
X159766Y330200D01*
D22*
X139700Y342900D03*
D23*
X152400Y330200D01*
X159766Y330200D01*
X279400Y228600D02*
X292100Y228600D01*
X279400Y228600D02*
X260350Y247650D01*
X260350Y304800D01*
X247650Y317500D01*
X221234Y317500D01*
X221008Y317274D01*
D22*
X139700Y317274D03*
D23*
X142601Y317274D01*
X148455Y311420D01*
X197120Y311420D01*
X203200Y317500D01*
X220782Y317500D01*
X221008Y317274D01*
X279400Y215900D02*
X292100Y215900D01*
X279400Y215900D02*
X254000Y241300D01*
X254000Y278591D02*
X254000Y279400D01*
X254000Y278591D02*
X254000Y241300D01*
X178443Y292100D02*
X159766Y292100D01*
X178443Y292100D02*
X184523Y286020D01*
X246571Y286020D02*
X254000Y278591D01*
X246571Y286020D02*
X184523Y286020D01*
D22*
X139700Y292100D03*
D23*
X159766Y292100D01*
X279400Y203200D02*
X292100Y203200D01*
X279400Y203200D02*
X247650Y234950D01*
X247650Y273050D01*
X241300Y279400D01*
X221234Y279400D01*
D22*
X139700Y266926D03*
D23*
X142601Y266926D01*
X148455Y272780D01*
X171180Y272780D02*
X177800Y279400D01*
X171180Y272780D02*
X148455Y272780D01*
X177800Y279400D02*
X221234Y279400D01*
X232545Y171720D02*
X209923Y171720D01*
X251325Y190500D02*
X292100Y190500D01*
X203843Y177800D02*
X159766Y177800D01*
X232545Y171720D02*
X251325Y190500D01*
X209923Y171720D02*
X203843Y177800D01*
D22*
X139700Y190500D03*
D23*
X152400Y177800D01*
X159766Y177800D01*
X254000Y177800D02*
X292100Y177800D01*
X254000Y177800D02*
X241300Y165100D01*
X221234Y165100D01*
D22*
X139700Y165100D03*
D23*
X148455Y159020D02*
X196477Y159020D01*
X142375Y165100D02*
X139700Y165100D01*
X202557Y165100D02*
X221234Y165100D01*
X148455Y159020D02*
X142375Y165100D01*
X196477Y159020D02*
X202557Y165100D01*
X222520Y133620D02*
X232545Y133620D01*
X222520Y133620D02*
X221980Y133080D01*
X264025Y165100D02*
X292100Y165100D01*
X264025Y165100D02*
X232545Y133620D01*
X221980Y133080D02*
X184420Y133080D01*
X177800Y139700D01*
X159766Y139700D01*
D22*
X139700Y139700D03*
D23*
X159766Y139700D01*
X266700Y152400D02*
X292100Y152400D01*
X266700Y152400D02*
X241300Y127000D01*
X221234Y127000D01*
D22*
X139700Y114526D03*
D23*
X142601Y114526D01*
X148455Y120380D01*
X171180Y120380D02*
X177800Y127000D01*
X171180Y120380D02*
X148455Y120380D01*
X177800Y127000D02*
X221234Y127000D01*
X159766Y317500D02*
X152400Y317500D01*
X127000Y342900D01*
X101600Y342900D02*
X88900Y330200D01*
X101600Y342900D02*
X127000Y342900D01*
X97081Y304800D02*
X88900Y304800D01*
X97081Y304800D02*
X109257Y316976D01*
X193112Y298720D02*
X199192Y304800D01*
X193112Y298720D02*
X148455Y298720D01*
X130199Y316976D02*
X109257Y316976D01*
X130199Y316976D02*
X148455Y298720D01*
X199192Y304800D02*
X221234Y304800D01*
X119344Y291576D02*
X109257Y291576D01*
X97081Y279400D02*
X88900Y279400D01*
X131520Y279400D02*
X159766Y279400D01*
X109257Y291576D02*
X97081Y279400D01*
X119344Y291576D02*
X131520Y279400D01*
X203200Y266700D02*
X221234Y266700D01*
X203200Y266700D02*
X196806Y260306D01*
X95206Y255226D02*
X88900Y254000D01*
X95206Y255226D02*
X103387Y260306D01*
X109257Y266176D01*
X119344Y266176D01*
X125214Y260306D01*
X196806Y260306D01*
X97081Y152400D02*
X88900Y152400D01*
X199418Y152400D02*
X221234Y152400D01*
X109257Y164576D02*
X97081Y152400D01*
X193112Y146094D02*
X199418Y152400D01*
X130199Y164576D02*
X109257Y164576D01*
X130199Y164576D02*
X148681Y146094D01*
X193112Y146094D01*
X119344Y139176D02*
X109257Y139176D01*
X97081Y127000D02*
X88900Y127000D01*
X131520Y127000D02*
X159766Y127000D01*
X109257Y139176D02*
X97081Y127000D01*
X119344Y139176D02*
X131520Y127000D01*
X119344Y113776D02*
X109257Y113776D01*
X97081Y101600D02*
X88900Y101600D01*
X97081Y101600D02*
X109257Y113776D01*
X202140Y107906D02*
X221234Y114300D01*
X125214Y107906D02*
X119344Y113776D01*
X125214Y107906D02*
X202140Y107906D01*
X101600Y190500D02*
X88900Y177800D01*
X101600Y190500D02*
X127000Y190500D01*
X152400Y165100D01*
X159766Y165100D01*
D21*
X495373Y279400D02*
X526034Y279400D01*
D23*
X495373Y279400D02*
X495300Y279400D01*
D21*
X482600Y292100D01*
X464566Y292100D01*
X464566Y330200D02*
X482374Y330200D01*
D23*
X482600Y330426D01*
D22*
X482600Y330426D03*
D23*
X508226Y317500D02*
X526034Y317500D01*
X508226Y317500D02*
X508000Y317274D01*
D22*
X508000Y317274D03*
X495373Y279400D03*
D21*
X495373Y127000D02*
X526034Y127000D01*
D23*
X495373Y127000D02*
X495300Y127000D01*
D21*
X482600Y139700D01*
X464566Y139700D01*
D23*
X464566Y177800D02*
X482600Y177800D01*
D22*
X482600Y177800D03*
D23*
X508226Y165100D02*
X526034Y165100D01*
X508226Y165100D02*
X508000Y164874D01*
D22*
X508000Y164874D03*
X495373Y127000D03*
D21*
X190500Y152400D02*
X159766Y152400D01*
D22*
X190500Y152400D03*
X190500Y139474D03*
D21*
X221008Y139474D01*
D23*
X221234Y139700D01*
D22*
X190500Y118110D03*
D21*
X159766Y114300D01*
X190500Y101600D02*
X221234Y101600D01*
D22*
X190500Y101600D03*
D23*
X190274Y304800D02*
X159766Y304800D01*
X190274Y304800D02*
X190500Y305026D01*
D22*
X190500Y305026D03*
X190500Y292326D03*
D21*
X221008Y292326D01*
D23*
X221234Y292100D01*
D22*
X190500Y270510D03*
D21*
X159766Y266700D01*
D23*
X190500Y254000D02*
X221234Y254000D01*
D22*
X190500Y254000D03*
D21*
X255270Y101600D02*
X306070Y50800D01*
X255270Y101600D02*
X221234Y101600D01*
D23*
X300415Y328990D02*
X301625Y330200D01*
X300415Y328990D02*
X286002Y330260D01*
D22*
X286002Y330260D03*
M02*
