G04 EAGLE Gerber RS-274X export*
G75*
%MOMM*%
%FSLAX34Y34*%
%LPD*%
%INSoldermask Bottom*%
%IPPOS*%
%AMOC8*
5,1,8,0,0,1.08239X$1,22.5*%
G01*
G04 Define Apertures*
%ADD10C,2.006600*%
%ADD11R,2.006600X2.006600*%
%ADD12P,1.45711X8X22.5*%
%ADD13P,1.45711X8X202.5*%
%ADD14C,3.429000*%
D10*
X571500Y127000D03*
X596900Y127000D03*
X622300Y127000D03*
X647700Y127000D03*
D11*
X306070Y50800D03*
D10*
X278130Y50800D03*
X571500Y152400D03*
X596900Y152400D03*
X622300Y152400D03*
X647700Y152400D03*
X571500Y177800D03*
X596900Y177800D03*
X622300Y177800D03*
X647700Y177800D03*
X571500Y203200D03*
X596900Y203200D03*
X622300Y203200D03*
X647700Y203200D03*
X571500Y279400D03*
X596900Y279400D03*
X622300Y279400D03*
X647700Y279400D03*
X571500Y304800D03*
X596900Y304800D03*
X622300Y304800D03*
X647700Y304800D03*
X571500Y330200D03*
X596900Y330200D03*
X622300Y330200D03*
X647700Y330200D03*
X571500Y355600D03*
X596900Y355600D03*
X622300Y355600D03*
X647700Y355600D03*
D11*
X431800Y49530D03*
D10*
X406400Y52070D03*
X381000Y49530D03*
X355600Y52070D03*
D12*
X381000Y114300D03*
X406400Y114300D03*
D13*
X355600Y114300D03*
X330200Y114300D03*
D10*
X114300Y330200D03*
X88900Y330200D03*
X63500Y330200D03*
X38100Y330200D03*
X114300Y304800D03*
X88900Y304800D03*
X63500Y304800D03*
X38100Y304800D03*
X114300Y279400D03*
X88900Y279400D03*
X63500Y279400D03*
X38100Y279400D03*
X114300Y254000D03*
X88900Y254000D03*
X63500Y254000D03*
X38100Y254000D03*
X114300Y177800D03*
X88900Y177800D03*
X63500Y177800D03*
X38100Y177800D03*
X114300Y152400D03*
X88900Y152400D03*
X63500Y152400D03*
X38100Y152400D03*
X114300Y127000D03*
X88900Y127000D03*
X63500Y127000D03*
X38100Y127000D03*
X114300Y101600D03*
X88900Y101600D03*
X63500Y101600D03*
X38100Y101600D03*
D14*
X50800Y50800D03*
X635000Y50800D03*
X635000Y406400D03*
X50800Y406400D03*
D10*
X63500Y355600D03*
X88900Y355600D03*
X63500Y203200D03*
X88900Y203200D03*
X622300Y101600D03*
X596900Y101600D03*
X622300Y254000D03*
X596900Y254000D03*
M02*
