G04 EAGLE Gerber RS-274X export*
G75*
%MOMM*%
%FSLAX34Y34*%
%LPD*%
%INSoldermask Top*%
%IPPOS*%
%AMOC8*
5,1,8,0,0,1.08239X$1,22.5*%
G01*
G04 Define Apertures*
%ADD10R,2.159000X0.787400*%
%ADD11C,2.006600*%
%ADD12R,2.006600X2.006600*%
%ADD13R,1.327000X0.927000*%
%ADD14R,1.727200X1.295400*%
%ADD15R,1.828800X0.152400*%
%ADD16R,1.295400X1.727200*%
%ADD17R,0.152400X1.828800*%
%ADD18R,1.227000X1.127000*%
%ADD19P,1.45711X8X22.5*%
%ADD20P,1.45711X8X202.5*%
%ADD21R,1.397000X0.762000*%
%ADD22R,1.427000X1.627000*%
%ADD23C,3.429000*%
D10*
X159766Y177800D03*
X221234Y177800D03*
X159766Y165100D03*
X159766Y152400D03*
X221234Y165100D03*
X221234Y152400D03*
X159766Y139700D03*
X221234Y139700D03*
X159766Y127000D03*
X159766Y114300D03*
X221234Y127000D03*
X221234Y114300D03*
X159766Y101600D03*
X221234Y101600D03*
X464566Y203200D03*
X526034Y203200D03*
X464566Y190500D03*
X464566Y177800D03*
X526034Y190500D03*
X526034Y177800D03*
X464566Y165100D03*
X526034Y165100D03*
X464566Y152400D03*
X464566Y139700D03*
X526034Y152400D03*
X526034Y139700D03*
X464566Y127000D03*
X526034Y127000D03*
D11*
X571500Y127000D03*
X596900Y127000D03*
X622300Y127000D03*
X647700Y127000D03*
D12*
X306070Y50800D03*
D11*
X278130Y50800D03*
X571500Y152400D03*
X596900Y152400D03*
X622300Y152400D03*
X647700Y152400D03*
X571500Y177800D03*
X596900Y177800D03*
X622300Y177800D03*
X647700Y177800D03*
X571500Y203200D03*
X596900Y203200D03*
X622300Y203200D03*
X647700Y203200D03*
X571500Y279400D03*
X596900Y279400D03*
X622300Y279400D03*
X647700Y279400D03*
X571500Y304800D03*
X596900Y304800D03*
X622300Y304800D03*
X647700Y304800D03*
X571500Y330200D03*
X596900Y330200D03*
X622300Y330200D03*
X647700Y330200D03*
X571500Y355600D03*
X596900Y355600D03*
X622300Y355600D03*
X647700Y355600D03*
D12*
X431800Y49530D03*
D11*
X406400Y52070D03*
X381000Y49530D03*
X355600Y52070D03*
D13*
X301625Y304800D03*
X301625Y317500D03*
X320675Y304800D03*
X320675Y317500D03*
X320675Y330200D03*
X320675Y342900D03*
X301625Y330200D03*
X301625Y342900D03*
D14*
X330200Y386080D03*
X330200Y401320D03*
D15*
X330200Y393700D03*
D14*
X368300Y386080D03*
X368300Y401320D03*
D15*
X368300Y393700D03*
D14*
X292100Y386080D03*
X292100Y401320D03*
D15*
X292100Y393700D03*
D16*
X477520Y82550D03*
X462280Y82550D03*
D17*
X469900Y82550D03*
D18*
X199000Y355600D03*
X182000Y355600D03*
X199000Y203200D03*
X182000Y203200D03*
X503800Y228600D03*
X486800Y228600D03*
D19*
X381000Y114300D03*
X406400Y114300D03*
D20*
X355600Y114300D03*
X330200Y114300D03*
D21*
X292100Y279400D03*
X292100Y266700D03*
X292100Y254000D03*
X292100Y241300D03*
X292100Y228600D03*
X292100Y215900D03*
X292100Y203200D03*
X292100Y190500D03*
X292100Y177800D03*
X292100Y165100D03*
X292100Y152400D03*
X292100Y139700D03*
X393700Y139700D03*
X393700Y152400D03*
X393700Y165100D03*
X393700Y177800D03*
X393700Y190500D03*
X393700Y203200D03*
X393700Y215900D03*
X393700Y228600D03*
X393700Y241300D03*
X393700Y254000D03*
X393700Y266700D03*
X393700Y279400D03*
D10*
X159766Y330200D03*
X221234Y330200D03*
X159766Y317500D03*
X159766Y304800D03*
X221234Y317500D03*
X221234Y304800D03*
X159766Y292100D03*
X221234Y292100D03*
X159766Y279400D03*
X159766Y266700D03*
X221234Y279400D03*
X221234Y266700D03*
X159766Y254000D03*
X221234Y254000D03*
X464566Y355600D03*
X526034Y355600D03*
X464566Y342900D03*
X464566Y330200D03*
X526034Y342900D03*
X526034Y330200D03*
X464566Y317500D03*
X526034Y317500D03*
X464566Y304800D03*
X464566Y292100D03*
X526034Y304800D03*
X526034Y292100D03*
X464566Y279400D03*
X526034Y279400D03*
D11*
X114300Y330200D03*
X88900Y330200D03*
X63500Y330200D03*
X38100Y330200D03*
X114300Y304800D03*
X88900Y304800D03*
X63500Y304800D03*
X38100Y304800D03*
X114300Y279400D03*
X88900Y279400D03*
X63500Y279400D03*
X38100Y279400D03*
X114300Y254000D03*
X88900Y254000D03*
X63500Y254000D03*
X38100Y254000D03*
X114300Y177800D03*
X88900Y177800D03*
X63500Y177800D03*
X38100Y177800D03*
X114300Y152400D03*
X88900Y152400D03*
X63500Y152400D03*
X38100Y152400D03*
X114300Y127000D03*
X88900Y127000D03*
X63500Y127000D03*
X38100Y127000D03*
X114300Y101600D03*
X88900Y101600D03*
X63500Y101600D03*
X38100Y101600D03*
D18*
X503800Y381000D03*
X486800Y381000D03*
X389500Y317500D03*
X372500Y317500D03*
X389500Y342900D03*
X372500Y342900D03*
D22*
X504800Y254000D03*
X485800Y254000D03*
X200000Y228600D03*
X181000Y228600D03*
D23*
X50800Y50800D03*
X635000Y50800D03*
X635000Y406400D03*
X50800Y406400D03*
D11*
X63500Y355600D03*
X88900Y355600D03*
X63500Y203200D03*
X88900Y203200D03*
X622300Y101600D03*
X596900Y101600D03*
X622300Y254000D03*
X596900Y254000D03*
M02*
