G04 EAGLE Gerber RS-274X export*
G75*
%MOMM*%
%FSLAX34Y34*%
%LPD*%
%INSolderpaste Top*%
%IPPOS*%
%AMOC8*
5,1,8,0,0,1.08239X$1,22.5*%
G01*
G04 Define Apertures*
%ADD10R,2.032000X0.660400*%
%ADD11R,1.200000X0.800000*%
%ADD12R,1.600200X1.168400*%
%ADD13R,1.168400X1.600200*%
%ADD14R,1.100000X1.000000*%
%ADD15R,1.270000X0.635000*%
%ADD16R,1.300000X1.500000*%
D10*
X159766Y177800D03*
X221234Y177800D03*
X159766Y165100D03*
X159766Y152400D03*
X221234Y165100D03*
X221234Y152400D03*
X159766Y139700D03*
X221234Y139700D03*
X159766Y127000D03*
X159766Y114300D03*
X221234Y127000D03*
X221234Y114300D03*
X159766Y101600D03*
X221234Y101600D03*
X464566Y203200D03*
X526034Y203200D03*
X464566Y190500D03*
X464566Y177800D03*
X526034Y190500D03*
X526034Y177800D03*
X464566Y165100D03*
X526034Y165100D03*
X464566Y152400D03*
X464566Y139700D03*
X526034Y152400D03*
X526034Y139700D03*
X464566Y127000D03*
X526034Y127000D03*
D11*
X301625Y304800D03*
X301625Y317500D03*
X320675Y304800D03*
X320675Y317500D03*
X320675Y330200D03*
X320675Y342900D03*
X301625Y330200D03*
X301625Y342900D03*
D12*
X330200Y386080D03*
X330200Y401320D03*
X368300Y386080D03*
X368300Y401320D03*
X292100Y386080D03*
X292100Y401320D03*
D13*
X477520Y82550D03*
X462280Y82550D03*
D14*
X199000Y355600D03*
X182000Y355600D03*
X199000Y203200D03*
X182000Y203200D03*
X503800Y228600D03*
X486800Y228600D03*
D15*
X292100Y279400D03*
X292100Y266700D03*
X292100Y254000D03*
X292100Y241300D03*
X292100Y228600D03*
X292100Y215900D03*
X292100Y203200D03*
X292100Y190500D03*
X292100Y177800D03*
X292100Y165100D03*
X292100Y152400D03*
X292100Y139700D03*
X393700Y139700D03*
X393700Y152400D03*
X393700Y165100D03*
X393700Y177800D03*
X393700Y190500D03*
X393700Y203200D03*
X393700Y215900D03*
X393700Y228600D03*
X393700Y241300D03*
X393700Y254000D03*
X393700Y266700D03*
X393700Y279400D03*
D10*
X159766Y330200D03*
X221234Y330200D03*
X159766Y317500D03*
X159766Y304800D03*
X221234Y317500D03*
X221234Y304800D03*
X159766Y292100D03*
X221234Y292100D03*
X159766Y279400D03*
X159766Y266700D03*
X221234Y279400D03*
X221234Y266700D03*
X159766Y254000D03*
X221234Y254000D03*
X464566Y355600D03*
X526034Y355600D03*
X464566Y342900D03*
X464566Y330200D03*
X526034Y342900D03*
X526034Y330200D03*
X464566Y317500D03*
X526034Y317500D03*
X464566Y304800D03*
X464566Y292100D03*
X526034Y304800D03*
X526034Y292100D03*
X464566Y279400D03*
X526034Y279400D03*
D14*
X503800Y381000D03*
X486800Y381000D03*
X389500Y317500D03*
X372500Y317500D03*
X389500Y342900D03*
X372500Y342900D03*
D16*
X504800Y254000D03*
X485800Y254000D03*
X200000Y228600D03*
X181000Y228600D03*
M02*
