M48
;GenerationSoftware,Autodesk,EAGLE,9.7.0*%
;CreationDate,2021-08-13T22:40:36Z*%
FMAT,2
ICI,OFF
METRIC,TZ,000.000
T5C0.350
T4C0.813
T3C1.016
T2C3.302
%
G90
M71
T2
X5080Y40640
X5080Y5080
X63500Y5080
X63500Y40640
T3
X64770Y30480
X57150Y33020
X59690Y33020
X62230Y33020
X57150Y35560
X59690Y35560
X62230Y35560
X64770Y35560
X43180Y4953
X40640Y5207
X38100Y4953
X35560Y5207
X11430Y33020
X8890Y33020
X6350Y33020
X3810Y33020
X11430Y30480
X64770Y33020
X8890Y30480
X6350Y30480
X3810Y30480
X11430Y27940
X8890Y27940
X6350Y27940
X3810Y27940
X11430Y25400
X8890Y25400
X6350Y25400
X3810Y25400
X11430Y17780
X8890Y17780
X6350Y17780
X3810Y17780
X11430Y15240
X8890Y15240
X3810Y15240
X11430Y12700
X8890Y12700
X6350Y12700
X3810Y12700
X11430Y10160
X8890Y10160
X6350Y10160
X3810Y10160
X6350Y35560
X8890Y35560
X6350Y20320
X8890Y20320
X62230Y10160
X59690Y10160
X62230Y25400
X59690Y25400
X62230Y17780
X57150Y12700
X59690Y12700
X62230Y12700
X64770Y12700
X30607Y5080
X27813Y5080
X57150Y15240
X59690Y15240
X62230Y15240
X64770Y15240
X57150Y17780
X59690Y17780
X6350Y15240
X64770Y17780
X57150Y20320
X59690Y20320
X62230Y20320
X64770Y20320
X57150Y27940
X59690Y27940
X62230Y27940
X64770Y27940
X57150Y30480
X59690Y30480
X62230Y30480
T4
X38100Y11430
X40640Y11430
X35560Y11430
X33020Y11430
T5
X35560Y31750
X41910Y15240
X44450Y19050
X27940Y13970
X20320Y19050
X35560Y19050
X44450Y34290
X44450Y38100
X25400Y35560
X29210Y35560
X24130Y30480
X29210Y29210
X18415Y17145
X33020Y20320
X45720Y24130
X54538Y15168
X54610Y16510
X54610Y19027
X50800Y20320
X54538Y30408
X54610Y31750
X54610Y34267
X50800Y35560
X34290Y36830
X41275Y34290
X13970Y34290
X13970Y31727
X13970Y29210
X13970Y26693
X13970Y19050
X13970Y16510
X13970Y13970
X13970Y11453
X48260Y33043
X50800Y31727
X49537Y27940
X48260Y17780
X50800Y16487
X43180Y12700
X19050Y15240
X19050Y13947
X19050Y11811
X19050Y10160
X19050Y30503
X19050Y29233
X49537Y12700
X19050Y25400
X22860Y20320
X46990Y22860
X46990Y25400
X16510Y20320
X28600Y33026
X19050Y27051
M30