M48
;GenerationSoftware,Autodesk,EAGLE,9.7.0*%
;CreationDate,2021-07-06T21:01:39Z*%
FMAT,2
ICI,OFF
METRIC,TZ,000.000
T7C0.640
T6C0.660
T5C1.016
T4C1.040
T3C1.200
T2C2.750
%
G90
M71
T2
X3500Y3895
X61500Y3895
X3500Y52895
X61500Y52895
T3
X79950Y46040
X79950Y51120
T4
X21320Y40700
X18780Y40700
X16240Y40700
X59420Y15300
X56880Y15300
X54340Y15300
X51800Y15300
X28940Y40700
X49260Y15300
X46720Y15300
X44180Y15300
X41640Y15300
X39100Y15300
X36560Y15300
X34020Y15300
X31480Y15300
X28940Y15300
X26400Y15300
X23860Y15300
X21320Y15300
X61960Y15300
X18780Y15300
X16240Y15300
X23860Y40700
X26400Y40700
X31480Y40700
X34020Y40700
X36560Y40700
X39100Y40700
X41640Y40700
X44180Y40700
X46720Y40700
X49260Y40700
X51800Y40700
X54340Y40700
X56880Y40700
X59420Y40700
X61960Y40700
T5
X26137Y54167
X28677Y51627
X28677Y54167
X31217Y51627
X31217Y54167
X33757Y51627
X33757Y54167
X36297Y51627
X36297Y54167
X38837Y51627
X38837Y54167
X41377Y51627
X41377Y54167
X43917Y51627
X43917Y54167
X46457Y51627
X46457Y54167
X48997Y51627
X48997Y54167
X51537Y51627
X51537Y54167
X54077Y51627
X54077Y54167
X56617Y51627
X56617Y54167
X8370Y51625
X8357Y54167
X10897Y51627
X10897Y54167
X13437Y51627
X13437Y54167
X15977Y51627
X15977Y54167
X18517Y51627
X18517Y54167
X21057Y51627
X21057Y54167
X23597Y51627
X23597Y54167
X26137Y51627
T6
X8600Y25120
X8600Y32360
T7
X67780Y25130
X67780Y27630
X67780Y30130
X67780Y17060
X67780Y19560
X5220Y47010
X5220Y44510
X5220Y42010
X5000Y31000
X5000Y33500
X67780Y14560
X5000Y36000
X80380Y40530
X80380Y38030
X80380Y35530
X80380Y30100
X80380Y27600
X80380Y25100
X80380Y19670
X80380Y17170
X80380Y14670
X67780Y35700
X67780Y38200
X67780Y40700
M30