M48
;GenerationSoftware,Autodesk,EAGLE,9.7.0*%
;CreationDate,2022-12-17T20:38:50Z*%
FMAT,2
ICI,OFF
METRIC,TZ,000.000
T11C0.305
T10C0.350
T9C0.600
T8C0.630
T7C0.730
T6C0.813
T5C0.914
T4C1.000
T3C1.016
T2C1.040
T1C1.200
%
G90
M71
T1
X-37338Y31496
X-33782Y31496
X-30353Y33147
X-40894Y33147
X-33782Y34798
X-37338Y34798
T2
X22150Y-13970
X19610Y-13970
X60250Y-13970
X17070Y-13970
X14530Y-13970
X32310Y-13970
X22150Y11430
X45010Y-13970
X24690Y11430
X27230Y11430
X29770Y11430
X19610Y11430
X32310Y11430
X34850Y11430
X37390Y11430
X42470Y11430
X45010Y11430
X29770Y-13970
X55170Y11430
X47550Y11430
X50090Y11430
X52630Y11430
X57710Y11430
X60250Y11430
X39930Y11430
X27230Y-13970
X24690Y-13970
X34850Y-13970
X37390Y-13970
X39930Y-13970
X42470Y-13970
X47550Y-13970
X50090Y-13970
X52630Y-13970
X55170Y-13970
X57710Y-13970
X14530Y11430
X17070Y11430
T3
X31750Y26670
X26670Y26670
X-58420Y2540
X29210Y26670
X-58420Y11430
X-55880Y11430
X-53340Y11430
X-58420Y7620
X-55880Y7620
X-55880Y2540
X-53340Y2540
X-58420Y-1270
X-55880Y-1270
X-53340Y-1270
X24130Y26670
X-53340Y7620
T4
X-5120Y-22860
X12740Y-22860
X15240Y-22860
X17740Y-22860
X24170Y-22860
X29170Y-22860
X35600Y-22860
X38100Y-22860
X40600Y-22860
X47030Y-22860
X49530Y-22860
X52030Y-22860
X51970Y26670
X49470Y26670
X46970Y26670
X44470Y26670
X41970Y26670
X39470Y26670
X8830Y26670
X6330Y26670
X3830Y26670
X1330Y26670
X-5140Y26670
X-7640Y26670
X-10140Y26670
X-12640Y26670
X1330Y17780
X3830Y17780
X6330Y17780
X8830Y17780
X-12640Y17780
X-10140Y17780
X-7640Y17780
X-5140Y17780
X-57150Y19110
X-57150Y16610
X35600Y17780
X26670Y-22860
X-57150Y21610
X-57150Y24110
X-57150Y26610
X-57150Y29110
X-43080Y-33020
X-40580Y-33020
X-38080Y-33020
X-35580Y-33020
X-33080Y-33020
X-30580Y-33020
X-43080Y-25400
X-40580Y-25400
X-38080Y-25400
X-35580Y-25400
X-33080Y-25400
X-30580Y-25400
X40600Y17780
X38100Y17780
X52030Y17780
X49530Y17780
X47030Y17780
X1310Y-22860
X3810Y-22860
X6310Y-22860
X-10120Y-22860
X-7620Y-22860
X2540Y-16410
X2540Y-13910
X2540Y-11410
X2540Y-8910
X2540Y-6410
X2540Y-3910
T5
X-50800Y35560
X-45720Y31750
X-48260Y31750
X-50800Y31750
X-45720Y35560
X-48260Y35560
T6
X-10160Y9220
X-7620Y9220
X-5080Y9220
X-7620Y1600
X-5080Y1600
X-10160Y1600
X-12700Y1600
X-2540Y9220
X-2540Y1600
X-15240Y1600
X-17780Y1600
X44425Y5080
X33020Y2540
X33020Y5080
X13970Y5080
X13970Y2540
X21590Y2540
X21590Y5080
X48260Y2540
X55880Y2540
X55880Y5080
X36805Y5080
X36805Y2540
X44425Y2540
X-15240Y9220
X48260Y5080
X-17780Y9220
X-12700Y9220
X25400Y5080
X25400Y2540
T7
X-58580Y-6350
X-58580Y-8890
X-58580Y-11430
X-58580Y-13970
X-50640Y-13970
X-50640Y-11430
X-50640Y-8890
X-50640Y-6350
X-47150Y-6350
X-47150Y-8890
X-47150Y-11430
X-47150Y-13970
X-50640Y-27940
X-58580Y-25400
X-58580Y-22860
X-58580Y-20320
X-39210Y-13970
X-39210Y-6350
X-39210Y-8890
X-39210Y-11430
X-50640Y-25400
X-50640Y-22860
X-50640Y-20320
X-58580Y-27940
T8
X-45620Y22860
X-40740Y22860
T9
X-6604Y-32004
X-4064Y-32004
X-1524Y-32004
X1016Y-32004
X3556Y-32004
X8636Y-32004
X11176Y-32004
X13716Y-32004
X16256Y-32004
X18796Y-32004
X23876Y-32004
X26416Y-32004
X28956Y-32004
X31496Y-32004
X34036Y-32004
X36576Y-32004
X-24384Y32766
X-21844Y32766
X-16764Y32766
X-14224Y32766
X-11684Y32766
X-9144Y32766
X-6604Y32766
X-4064Y32766
X1016Y32766
X3556Y32766
X6096Y32766
X8636Y32766
X11176Y32766
X13716Y32766
X16256Y32766
X18796Y32766
X21336Y32766
X23876Y32766
X26416Y32766
X28956Y32766
X31496Y32766
X34036Y32766
X36576Y32766
X-24384Y35306
X-21844Y35306
X-19304Y35306
X-16764Y35306
X-14224Y35306
X-11684Y35306
X-9144Y35306
X-6604Y35306
X-4064Y35306
X1016Y35306
X3556Y35306
X6096Y35306
X8636Y35306
X11176Y35306
X13716Y35306
X16256Y35306
X-19304Y32766
X-4064Y-34544
X21336Y35306
X23876Y35306
X26416Y35306
X28956Y35306
X31496Y35306
X34036Y35306
X36576Y35306
X-24384Y-34544
X-21844Y-34544
X-19304Y-34544
X-16764Y-34544
X-14224Y-34544
X-11684Y-34544
X-9144Y-34544
X-6604Y-34544
X18796Y35306
X-1524Y-34544
X1016Y-34544
X3556Y-34544
X8636Y-34544
X11176Y-34544
X13716Y-34544
X16256Y-34544
X18796Y-34544
X23876Y-34544
X26416Y-34544
X28956Y-34544
X31496Y-34544
X34036Y-34544
X36576Y-34544
X-24384Y-32004
X-21844Y-32004
X-19304Y-32004
X-16764Y-32004
X-14224Y-32004
X-11684Y-32004
X-9144Y-32004
T10
X-53213Y14732
T11
X-38100Y-318
X42545Y-1270
X20638Y-3492
X32702Y-1270
X-26352Y12700
X32385Y17145
X34925Y13970
X36195Y15875
X15875Y16192
X-5715Y-10160
X-5715Y-13970
X40958Y-17780
X-5715Y-12382
X1905Y-10160
X-4445Y-7620
X-1905Y-12700
X-29210Y-11747
X-21590Y22225
X-34925Y20003
X-26987Y23495
X-42228Y-4445
M30