G04 EAGLE Gerber RS-274X export*
G75*
%MOMM*%
%FSLAX34Y34*%
%LPD*%
%INBottom Copper*%
%IPPOS*%
%AMOC8*
5,1,8,0,0,1.08239X$1,22.5*%
G01*
G04 Define Apertures*
%ADD10C,1.148000*%
%ADD11C,1.800000*%
%ADD12C,1.260000*%
%ADD13R,1.524000X1.524000*%
%ADD14C,1.524000*%
%ADD15R,1.560000X1.560000*%
%ADD16C,1.560000*%
%ADD17C,0.508000*%
D10*
X52200Y420100D03*
X52200Y445100D03*
X52200Y470100D03*
D11*
X799500Y511200D03*
X799500Y460400D03*
D12*
X86000Y323600D03*
X86000Y251200D03*
D10*
X677800Y195600D03*
X677800Y170600D03*
X677800Y145600D03*
X677800Y301300D03*
X677800Y276300D03*
X677800Y251300D03*
X677800Y407000D03*
X677800Y382000D03*
X677800Y357000D03*
X803800Y146700D03*
X803800Y171700D03*
X803800Y196700D03*
X803800Y251000D03*
X803800Y276000D03*
X803800Y301000D03*
X803800Y355300D03*
X803800Y380300D03*
X803800Y405300D03*
D13*
X83700Y516252D03*
D14*
X83566Y541670D03*
X108966Y516270D03*
X108966Y541670D03*
X134366Y516270D03*
X134366Y541670D03*
X159766Y516270D03*
X159766Y541670D03*
X185166Y516270D03*
X185166Y541670D03*
X210566Y516270D03*
X210566Y541670D03*
X235966Y516270D03*
X235966Y541670D03*
X261366Y516270D03*
X261366Y541670D03*
X286766Y516270D03*
X286766Y541670D03*
X312166Y516270D03*
X312166Y541670D03*
X337566Y516270D03*
X337566Y541670D03*
X362966Y516270D03*
X362966Y541670D03*
X388366Y516270D03*
X388366Y541670D03*
X413766Y516270D03*
X413766Y541670D03*
X439166Y516270D03*
X439166Y541670D03*
X464566Y516270D03*
X464566Y541670D03*
X489966Y516270D03*
X489966Y541670D03*
X515366Y516270D03*
X515366Y541670D03*
X540766Y516270D03*
X540766Y541670D03*
X566166Y516270D03*
X566166Y541670D03*
D10*
X50000Y310000D03*
X50000Y335000D03*
X50000Y360000D03*
D15*
X162400Y153000D03*
D16*
X187800Y153000D03*
X619600Y153000D03*
X213200Y153000D03*
X238600Y153000D03*
X264000Y153000D03*
X289400Y153000D03*
X314800Y153000D03*
X340200Y153000D03*
X365600Y153000D03*
X391000Y153000D03*
X416400Y153000D03*
X441800Y153000D03*
X467200Y153000D03*
X492600Y153000D03*
X518000Y153000D03*
X543400Y153000D03*
X568800Y153000D03*
X594200Y153000D03*
X162400Y407000D03*
X187800Y407000D03*
X213200Y407000D03*
X238600Y407000D03*
X264000Y407000D03*
X289400Y407000D03*
X314800Y407000D03*
X340200Y407000D03*
X365600Y407000D03*
X391000Y407000D03*
X416400Y407000D03*
X441800Y407000D03*
X467200Y407000D03*
X492600Y407000D03*
X518000Y407000D03*
X543400Y407000D03*
X568800Y407000D03*
X594200Y407000D03*
X619600Y407000D03*
D17*
X86000Y411300D02*
X86000Y323600D01*
X86000Y411300D02*
X52200Y445100D01*
X640000Y290000D02*
X650000Y300000D01*
X650000Y360000D01*
X672000Y382000D01*
X677800Y382000D01*
X478800Y190000D02*
X441800Y153000D01*
X478800Y190000D02*
X630000Y190000D01*
X640000Y200000D01*
X640000Y290000D01*
X494200Y180000D02*
X467200Y153000D01*
X494200Y180000D02*
X640000Y180000D01*
X650000Y190000D01*
X650000Y248500D01*
X677800Y276300D01*
X535600Y170600D02*
X518000Y153000D01*
X535600Y170600D02*
X677800Y170600D01*
X428600Y90000D02*
X365600Y153000D01*
X428600Y90000D02*
X722100Y90000D01*
X803800Y171700D01*
X444000Y100000D02*
X391000Y153000D01*
X444000Y100000D02*
X710000Y100000D01*
X730000Y120000D01*
X730000Y270000D01*
X736000Y276000D01*
X803800Y276000D01*
X459400Y110000D02*
X416400Y153000D01*
X459400Y110000D02*
X710000Y110000D01*
X720000Y120000D01*
X720000Y370000D01*
X730300Y380300D01*
X803800Y380300D01*
X288800Y251200D02*
X86000Y251200D01*
X288800Y251200D02*
X340200Y199800D01*
X340200Y153000D01*
X159766Y532794D02*
X159766Y541670D01*
X171450Y521110D02*
X171450Y508550D01*
X171450Y521110D02*
X159766Y532794D01*
X238600Y423061D02*
X238600Y407000D01*
X238600Y423061D02*
X213396Y448265D01*
X213396Y466604D01*
X171450Y508550D01*
X220000Y451000D02*
X264000Y407000D01*
X220000Y451000D02*
X220000Y480000D01*
X196850Y503150D01*
X185166Y532794D02*
X185166Y541670D01*
X196850Y521110D02*
X196850Y503150D01*
X196850Y521110D02*
X185166Y532794D01*
M02*
