G04 EAGLE Gerber RS-274X export*
G75*
%MOMM*%
%FSLAX34Y34*%
%LPD*%
%INTop Copper*%
%IPPOS*%
%AMOC8*
5,1,8,0,0,1.08239X$1,22.5*%
G01*
G04 Define Apertures*
%ADD10C,1.148000*%
%ADD11C,1.800000*%
%ADD12C,1.260000*%
%ADD13R,1.524000X1.524000*%
%ADD14C,1.524000*%
%ADD15R,1.560000X1.560000*%
%ADD16C,1.560000*%
%ADD17C,1.016000*%
%ADD18C,0.508000*%
D10*
X52200Y420100D03*
X52200Y445100D03*
X52200Y470100D03*
D11*
X799500Y511200D03*
X799500Y460400D03*
D12*
X86000Y323600D03*
X86000Y251200D03*
D10*
X677800Y195600D03*
X677800Y170600D03*
X677800Y145600D03*
X677800Y301300D03*
X677800Y276300D03*
X677800Y251300D03*
X677800Y407000D03*
X677800Y382000D03*
X677800Y357000D03*
X803800Y146700D03*
X803800Y171700D03*
X803800Y196700D03*
X803800Y251000D03*
X803800Y276000D03*
X803800Y301000D03*
X803800Y355300D03*
X803800Y380300D03*
X803800Y405300D03*
D13*
X83700Y516252D03*
D14*
X83566Y541670D03*
X108966Y516270D03*
X108966Y541670D03*
X134366Y516270D03*
X134366Y541670D03*
X159766Y516270D03*
X159766Y541670D03*
X185166Y516270D03*
X185166Y541670D03*
X210566Y516270D03*
X210566Y541670D03*
X235966Y516270D03*
X235966Y541670D03*
X261366Y516270D03*
X261366Y541670D03*
X286766Y516270D03*
X286766Y541670D03*
X312166Y516270D03*
X312166Y541670D03*
X337566Y516270D03*
X337566Y541670D03*
X362966Y516270D03*
X362966Y541670D03*
X388366Y516270D03*
X388366Y541670D03*
X413766Y516270D03*
X413766Y541670D03*
X439166Y516270D03*
X439166Y541670D03*
X464566Y516270D03*
X464566Y541670D03*
X489966Y516270D03*
X489966Y541670D03*
X515366Y516270D03*
X515366Y541670D03*
X540766Y516270D03*
X540766Y541670D03*
X566166Y516270D03*
X566166Y541670D03*
D10*
X50000Y310000D03*
X50000Y335000D03*
X50000Y360000D03*
D15*
X162400Y153000D03*
D16*
X187800Y153000D03*
X619600Y153000D03*
X213200Y153000D03*
X238600Y153000D03*
X264000Y153000D03*
X289400Y153000D03*
X314800Y153000D03*
X340200Y153000D03*
X365600Y153000D03*
X391000Y153000D03*
X416400Y153000D03*
X441800Y153000D03*
X467200Y153000D03*
X492600Y153000D03*
X518000Y153000D03*
X543400Y153000D03*
X568800Y153000D03*
X594200Y153000D03*
X162400Y407000D03*
X187800Y407000D03*
X213200Y407000D03*
X238600Y407000D03*
X264000Y407000D03*
X289400Y407000D03*
X314800Y407000D03*
X340200Y407000D03*
X365600Y407000D03*
X391000Y407000D03*
X416400Y407000D03*
X441800Y407000D03*
X467200Y407000D03*
X492600Y407000D03*
X518000Y407000D03*
X543400Y407000D03*
X568800Y407000D03*
X594200Y407000D03*
X619600Y407000D03*
D17*
X799500Y460400D02*
X834760Y425140D01*
X834760Y370000D01*
X834760Y270000D01*
X834760Y160000D01*
X834760Y74760D01*
X830000Y70000D01*
X700000Y70000D01*
X440000Y70000D01*
X80000Y70000D01*
X50000Y100000D01*
X50000Y300000D01*
X50000Y310000D01*
X40000Y310000D01*
X30000Y320000D01*
X30000Y410000D01*
X40100Y420100D01*
X52200Y420100D01*
X40000Y310000D02*
X50000Y300000D01*
D18*
X803800Y355300D02*
X818500Y370000D01*
X834760Y370000D01*
X822800Y270000D02*
X803800Y251000D01*
X822800Y270000D02*
X834760Y270000D01*
X817100Y160000D02*
X803800Y146700D01*
X817100Y160000D02*
X834760Y160000D01*
X492600Y153000D02*
X492600Y122600D01*
X440000Y70000D01*
X700000Y70000D02*
X700000Y173400D01*
X677800Y195600D01*
X700000Y173400D02*
X700000Y279100D01*
X677800Y301300D01*
X700000Y279100D02*
X700000Y384800D01*
X677800Y407000D01*
X799500Y460400D02*
X820000Y480900D01*
X820000Y530000D01*
X810000Y540000D01*
X690000Y540000D01*
X630000Y480000D01*
X170000Y480000D01*
X146050Y503950D01*
X134366Y532794D02*
X134366Y541670D01*
X146050Y521110D02*
X146050Y503950D01*
X146050Y521110D02*
X134366Y532794D01*
D17*
X710000Y450000D02*
X771200Y511200D01*
X710000Y450000D02*
X660000Y450000D01*
X230000Y450000D01*
X209900Y470100D01*
X120000Y470100D01*
X70000Y470100D01*
X52200Y470100D01*
D18*
X120000Y510780D02*
X120650Y511430D01*
X120000Y510780D02*
X120000Y470100D01*
X120650Y529986D02*
X108966Y541670D01*
X120650Y529986D02*
X120650Y511430D01*
D17*
X771200Y511200D02*
X799500Y511200D01*
D18*
X771200Y437900D02*
X803800Y405300D01*
X771200Y437900D02*
X771200Y511200D01*
X771200Y437900D02*
X771200Y333600D01*
X803800Y301000D01*
X771200Y333600D02*
X771200Y229300D01*
X803800Y196700D01*
X660000Y374800D02*
X660000Y450000D01*
X660000Y374800D02*
X677800Y357000D01*
X660000Y374800D02*
X660000Y269100D01*
X677800Y251300D01*
X660000Y269100D02*
X660000Y163400D01*
X677800Y145600D01*
X649600Y153000D02*
X619600Y153000D01*
X649600Y153000D02*
X660000Y163400D01*
D17*
X70000Y380000D02*
X50000Y360000D01*
X70000Y380000D02*
X70000Y470100D01*
M02*
