G04 EAGLE Gerber RS-274X export*
G75*
%MOMM*%
%FSLAX34Y34*%
%LPD*%
%IN*%
%IPPOS*%
%AMOC8*
5,1,8,0,0,1.08239X$1,22.5*%
G01*
G04 Define Apertures*
%ADD10C,0.254000*%
D10*
X0Y30000D02*
X114Y27385D01*
X456Y24791D01*
X1022Y22235D01*
X1809Y19739D01*
X2811Y17321D01*
X4019Y15000D01*
X5425Y12793D01*
X7019Y10716D01*
X8787Y8787D01*
X10716Y7019D01*
X12793Y5425D01*
X15000Y4019D01*
X17321Y2811D01*
X19739Y1809D01*
X22235Y1022D01*
X24791Y456D01*
X27385Y114D01*
X30000Y0D01*
X820000Y0D01*
X822615Y114D01*
X825209Y456D01*
X827765Y1022D01*
X830261Y1809D01*
X832679Y2811D01*
X835000Y4019D01*
X837207Y5425D01*
X839284Y7019D01*
X841213Y8787D01*
X842981Y10716D01*
X844575Y12793D01*
X845981Y15000D01*
X847189Y17321D01*
X848191Y19739D01*
X848978Y22235D01*
X849544Y24791D01*
X849886Y27385D01*
X850000Y30000D01*
X850000Y530000D01*
X849886Y532615D01*
X849544Y535209D01*
X848978Y537765D01*
X848191Y540261D01*
X847189Y542679D01*
X845981Y545000D01*
X844575Y547207D01*
X842981Y549284D01*
X841213Y551213D01*
X839284Y552981D01*
X837207Y554575D01*
X835000Y555981D01*
X832679Y557189D01*
X830261Y558191D01*
X827765Y558978D01*
X825209Y559544D01*
X822615Y559886D01*
X820000Y560000D01*
X30000Y560000D01*
X27385Y559886D01*
X24791Y559544D01*
X22235Y558978D01*
X19739Y558191D01*
X17321Y557189D01*
X15000Y555981D01*
X12793Y554575D01*
X10716Y552981D01*
X8787Y551213D01*
X7019Y549284D01*
X5425Y547207D01*
X4019Y545000D01*
X2811Y542679D01*
X1809Y540261D01*
X1022Y537765D01*
X456Y535209D01*
X114Y532615D01*
X0Y530000D01*
X0Y30000D01*
X48750Y38461D02*
X48680Y37481D01*
X48540Y36509D01*
X48331Y35549D01*
X48055Y34607D01*
X47711Y33687D01*
X47303Y32793D01*
X46833Y31931D01*
X46302Y31105D01*
X45713Y30319D01*
X45070Y29577D01*
X44375Y28882D01*
X43633Y28239D01*
X42847Y27650D01*
X42021Y27119D01*
X41159Y26649D01*
X40265Y26241D01*
X39345Y25897D01*
X38403Y25621D01*
X37443Y25412D01*
X36471Y25272D01*
X35491Y25202D01*
X34509Y25202D01*
X33529Y25272D01*
X32557Y25412D01*
X31597Y25621D01*
X30655Y25897D01*
X29735Y26241D01*
X28841Y26649D01*
X27979Y27119D01*
X27153Y27650D01*
X26367Y28239D01*
X25625Y28882D01*
X24930Y29577D01*
X24287Y30319D01*
X23698Y31105D01*
X23167Y31931D01*
X22697Y32793D01*
X22289Y33687D01*
X21945Y34607D01*
X21669Y35549D01*
X21460Y36509D01*
X21320Y37481D01*
X21250Y38461D01*
X21250Y39443D01*
X21320Y40423D01*
X21460Y41395D01*
X21669Y42355D01*
X21945Y43297D01*
X22289Y44217D01*
X22697Y45111D01*
X23167Y45973D01*
X23698Y46799D01*
X24287Y47585D01*
X24930Y48327D01*
X25625Y49022D01*
X26367Y49665D01*
X27153Y50254D01*
X27979Y50785D01*
X28841Y51255D01*
X29735Y51663D01*
X30655Y52007D01*
X31597Y52283D01*
X32557Y52492D01*
X33529Y52632D01*
X34509Y52702D01*
X35491Y52702D01*
X36471Y52632D01*
X37443Y52492D01*
X38403Y52283D01*
X39345Y52007D01*
X40265Y51663D01*
X41159Y51255D01*
X42021Y50785D01*
X42847Y50254D01*
X43633Y49665D01*
X44375Y49022D01*
X45070Y48327D01*
X45713Y47585D01*
X46302Y46799D01*
X46833Y45973D01*
X47303Y45111D01*
X47711Y44217D01*
X48055Y43297D01*
X48331Y42355D01*
X48540Y41395D01*
X48680Y40423D01*
X48750Y39443D01*
X48750Y38461D01*
X628750Y38461D02*
X628680Y37481D01*
X628540Y36509D01*
X628331Y35549D01*
X628055Y34607D01*
X627711Y33687D01*
X627303Y32793D01*
X626833Y31931D01*
X626302Y31105D01*
X625713Y30319D01*
X625070Y29577D01*
X624375Y28882D01*
X623633Y28239D01*
X622847Y27650D01*
X622021Y27119D01*
X621159Y26649D01*
X620265Y26241D01*
X619345Y25897D01*
X618403Y25621D01*
X617443Y25412D01*
X616471Y25272D01*
X615491Y25202D01*
X614509Y25202D01*
X613529Y25272D01*
X612557Y25412D01*
X611597Y25621D01*
X610655Y25897D01*
X609735Y26241D01*
X608841Y26649D01*
X607979Y27119D01*
X607153Y27650D01*
X606367Y28239D01*
X605625Y28882D01*
X604930Y29577D01*
X604287Y30319D01*
X603698Y31105D01*
X603167Y31931D01*
X602697Y32793D01*
X602289Y33687D01*
X601945Y34607D01*
X601669Y35549D01*
X601460Y36509D01*
X601320Y37481D01*
X601250Y38461D01*
X601250Y39443D01*
X601320Y40423D01*
X601460Y41395D01*
X601669Y42355D01*
X601945Y43297D01*
X602289Y44217D01*
X602697Y45111D01*
X603167Y45973D01*
X603698Y46799D01*
X604287Y47585D01*
X604930Y48327D01*
X605625Y49022D01*
X606367Y49665D01*
X607153Y50254D01*
X607979Y50785D01*
X608841Y51255D01*
X609735Y51663D01*
X610655Y52007D01*
X611597Y52283D01*
X612557Y52492D01*
X613529Y52632D01*
X614509Y52702D01*
X615491Y52702D01*
X616471Y52632D01*
X617443Y52492D01*
X618403Y52283D01*
X619345Y52007D01*
X620265Y51663D01*
X621159Y51255D01*
X622021Y50785D01*
X622847Y50254D01*
X623633Y49665D01*
X624375Y49022D01*
X625070Y48327D01*
X625713Y47585D01*
X626302Y46799D01*
X626833Y45973D01*
X627303Y45111D01*
X627711Y44217D01*
X628055Y43297D01*
X628331Y42355D01*
X628540Y41395D01*
X628680Y40423D01*
X628750Y39443D01*
X628750Y38461D01*
X48750Y528461D02*
X48680Y527481D01*
X48540Y526509D01*
X48331Y525549D01*
X48055Y524607D01*
X47711Y523687D01*
X47303Y522793D01*
X46833Y521931D01*
X46302Y521105D01*
X45713Y520319D01*
X45070Y519577D01*
X44375Y518882D01*
X43633Y518239D01*
X42847Y517650D01*
X42021Y517119D01*
X41159Y516649D01*
X40265Y516241D01*
X39345Y515897D01*
X38403Y515621D01*
X37443Y515412D01*
X36471Y515272D01*
X35491Y515202D01*
X34509Y515202D01*
X33529Y515272D01*
X32557Y515412D01*
X31597Y515621D01*
X30655Y515897D01*
X29735Y516241D01*
X28841Y516649D01*
X27979Y517119D01*
X27153Y517650D01*
X26367Y518239D01*
X25625Y518882D01*
X24930Y519577D01*
X24287Y520319D01*
X23698Y521105D01*
X23167Y521931D01*
X22697Y522793D01*
X22289Y523687D01*
X21945Y524607D01*
X21669Y525549D01*
X21460Y526509D01*
X21320Y527481D01*
X21250Y528461D01*
X21250Y529443D01*
X21320Y530423D01*
X21460Y531395D01*
X21669Y532355D01*
X21945Y533297D01*
X22289Y534217D01*
X22697Y535111D01*
X23167Y535973D01*
X23698Y536799D01*
X24287Y537585D01*
X24930Y538327D01*
X25625Y539022D01*
X26367Y539665D01*
X27153Y540254D01*
X27979Y540785D01*
X28841Y541255D01*
X29735Y541663D01*
X30655Y542007D01*
X31597Y542283D01*
X32557Y542492D01*
X33529Y542632D01*
X34509Y542702D01*
X35491Y542702D01*
X36471Y542632D01*
X37443Y542492D01*
X38403Y542283D01*
X39345Y542007D01*
X40265Y541663D01*
X41159Y541255D01*
X42021Y540785D01*
X42847Y540254D01*
X43633Y539665D01*
X44375Y539022D01*
X45070Y538327D01*
X45713Y537585D01*
X46302Y536799D01*
X46833Y535973D01*
X47303Y535111D01*
X47711Y534217D01*
X48055Y533297D01*
X48331Y532355D01*
X48540Y531395D01*
X48680Y530423D01*
X48750Y529443D01*
X48750Y528461D01*
X628750Y528461D02*
X628680Y527481D01*
X628540Y526509D01*
X628331Y525549D01*
X628055Y524607D01*
X627711Y523687D01*
X627303Y522793D01*
X626833Y521931D01*
X626302Y521105D01*
X625713Y520319D01*
X625070Y519577D01*
X624375Y518882D01*
X623633Y518239D01*
X622847Y517650D01*
X622021Y517119D01*
X621159Y516649D01*
X620265Y516241D01*
X619345Y515897D01*
X618403Y515621D01*
X617443Y515412D01*
X616471Y515272D01*
X615491Y515202D01*
X614509Y515202D01*
X613529Y515272D01*
X612557Y515412D01*
X611597Y515621D01*
X610655Y515897D01*
X609735Y516241D01*
X608841Y516649D01*
X607979Y517119D01*
X607153Y517650D01*
X606367Y518239D01*
X605625Y518882D01*
X604930Y519577D01*
X604287Y520319D01*
X603698Y521105D01*
X603167Y521931D01*
X602697Y522793D01*
X602289Y523687D01*
X601945Y524607D01*
X601669Y525549D01*
X601460Y526509D01*
X601320Y527481D01*
X601250Y528461D01*
X601250Y529443D01*
X601320Y530423D01*
X601460Y531395D01*
X601669Y532355D01*
X601945Y533297D01*
X602289Y534217D01*
X602697Y535111D01*
X603167Y535973D01*
X603698Y536799D01*
X604287Y537585D01*
X604930Y538327D01*
X605625Y539022D01*
X606367Y539665D01*
X607153Y540254D01*
X607979Y540785D01*
X608841Y541255D01*
X609735Y541663D01*
X610655Y542007D01*
X611597Y542283D01*
X612557Y542492D01*
X613529Y542632D01*
X614509Y542702D01*
X615491Y542702D01*
X616471Y542632D01*
X617443Y542492D01*
X618403Y542283D01*
X619345Y542007D01*
X620265Y541663D01*
X621159Y541255D01*
X622021Y540785D01*
X622847Y540254D01*
X623633Y539665D01*
X624375Y539022D01*
X625070Y538327D01*
X625713Y537585D01*
X626302Y536799D01*
X626833Y535973D01*
X627303Y535111D01*
X627711Y534217D01*
X628055Y533297D01*
X628331Y532355D01*
X628540Y531395D01*
X628680Y530423D01*
X628750Y529443D01*
X628750Y528461D01*
M02*
