G04 EAGLE Gerber RS-274X export*
G75*
%MOMM*%
%FSLAX34Y34*%
%LPD*%
%INSoldermask Top*%
%IPPOS*%
%AMOC8*
5,1,8,0,0,1.08239X$1,22.5*%
G01*
G04 Define Apertures*
%ADD10C,1.351200*%
%ADD11C,2.003200*%
%ADD12C,1.463200*%
%ADD13C,2.953200*%
%ADD14R,1.727200X1.727200*%
%ADD15C,1.727200*%
%ADD16R,1.763200X1.763200*%
%ADD17C,1.763200*%
D10*
X52200Y420100D03*
X52200Y445100D03*
X52200Y470100D03*
D11*
X799500Y511200D03*
X799500Y460400D03*
D12*
X86000Y323600D03*
X86000Y251200D03*
D10*
X677800Y195600D03*
X677800Y170600D03*
X677800Y145600D03*
X677800Y301300D03*
X677800Y276300D03*
X677800Y251300D03*
X677800Y407000D03*
X677800Y382000D03*
X677800Y357000D03*
X803800Y146700D03*
X803800Y171700D03*
X803800Y196700D03*
X803800Y251000D03*
X803800Y276000D03*
X803800Y301000D03*
X803800Y355300D03*
X803800Y380300D03*
X803800Y405300D03*
D13*
X35000Y38952D03*
X615000Y38952D03*
X35000Y528952D03*
X615000Y528952D03*
D14*
X83700Y516252D03*
D15*
X83566Y541670D03*
X108966Y516270D03*
X108966Y541670D03*
X134366Y516270D03*
X134366Y541670D03*
X159766Y516270D03*
X159766Y541670D03*
X185166Y516270D03*
X185166Y541670D03*
X210566Y516270D03*
X210566Y541670D03*
X235966Y516270D03*
X235966Y541670D03*
X261366Y516270D03*
X261366Y541670D03*
X286766Y516270D03*
X286766Y541670D03*
X312166Y516270D03*
X312166Y541670D03*
X337566Y516270D03*
X337566Y541670D03*
X362966Y516270D03*
X362966Y541670D03*
X388366Y516270D03*
X388366Y541670D03*
X413766Y516270D03*
X413766Y541670D03*
X439166Y516270D03*
X439166Y541670D03*
X464566Y516270D03*
X464566Y541670D03*
X489966Y516270D03*
X489966Y541670D03*
X515366Y516270D03*
X515366Y541670D03*
X540766Y516270D03*
X540766Y541670D03*
X566166Y516270D03*
X566166Y541670D03*
D10*
X50000Y310000D03*
X50000Y335000D03*
X50000Y360000D03*
D16*
X162400Y153000D03*
D17*
X187800Y153000D03*
X619600Y153000D03*
X213200Y153000D03*
X238600Y153000D03*
X264000Y153000D03*
X289400Y153000D03*
X314800Y153000D03*
X340200Y153000D03*
X365600Y153000D03*
X391000Y153000D03*
X416400Y153000D03*
X441800Y153000D03*
X467200Y153000D03*
X492600Y153000D03*
X518000Y153000D03*
X543400Y153000D03*
X568800Y153000D03*
X594200Y153000D03*
X162400Y407000D03*
X187800Y407000D03*
X213200Y407000D03*
X238600Y407000D03*
X264000Y407000D03*
X289400Y407000D03*
X314800Y407000D03*
X340200Y407000D03*
X365600Y407000D03*
X391000Y407000D03*
X416400Y407000D03*
X441800Y407000D03*
X467200Y407000D03*
X492600Y407000D03*
X518000Y407000D03*
X543400Y407000D03*
X568800Y407000D03*
X594200Y407000D03*
X619600Y407000D03*
M02*
