G04 EAGLE Gerber RS-274X export*
G75*
%MOMM*%
%FSLAX34Y34*%
%LPD*%
%INTop Copper*%
%IPPOS*%
%AMOC8*
5,1,8,0,0,1.08239X$1,22.5*%
G01*
G04 Define Apertures*
%ADD10R,0.961800X1.711800*%
%ADD11R,1.164600X1.815300*%
%ADD12R,1.500000X1.500000*%
%ADD13C,1.500000*%
%ADD14C,0.900000*%
%ADD15P,2.74927X8X22.5*%
%ADD16R,1.031200X1.420200*%
%ADD17C,1.524000*%
%ADD18R,2.392000X1.565300*%
%ADD19C,1.219200*%
%ADD20R,0.920900X0.970200*%
%ADD21R,1.475000X0.600000*%
%ADD22R,0.600000X1.475000*%
%ADD23R,1.525000X0.650000*%
%ADD24R,1.130000X1.130000*%
%ADD25C,1.130000*%
%ADD26C,1.230000*%
%ADD27C,1.371600*%
%ADD28R,0.970200X0.920900*%
%ADD29R,2.350000X2.450000*%
%ADD30R,0.798700X0.973900*%
%ADD31R,0.973900X0.798700*%
%ADD32C,1.524000*%
%ADD33R,1.560000X1.560000*%
%ADD34C,1.560000*%
%ADD35C,0.558800*%
%ADD36C,0.457200*%
%ADD37C,0.525000*%
G36*
X595119Y-387959D02*
X595000Y-387968D01*
X-595000Y-387968D01*
X-595119Y-387959D01*
X-603526Y-386627D01*
X-603753Y-386553D01*
X-611337Y-382689D01*
X-611530Y-382549D01*
X-617549Y-376530D01*
X-617689Y-376337D01*
X-621553Y-368753D01*
X-621627Y-368526D01*
X-622959Y-360119D01*
X-622968Y-360000D01*
X-622968Y360000D01*
X-622959Y360119D01*
X-621627Y368526D01*
X-621553Y368753D01*
X-617689Y376337D01*
X-617549Y376530D01*
X-611530Y382549D01*
X-611337Y382689D01*
X-603753Y386553D01*
X-603526Y386627D01*
X-595119Y387959D01*
X-595000Y387968D01*
X595000Y387968D01*
X595119Y387959D01*
X603526Y386627D01*
X603753Y386553D01*
X611337Y382689D01*
X611530Y382549D01*
X617549Y376530D01*
X617689Y376337D01*
X621553Y368753D01*
X621627Y368526D01*
X622959Y360119D01*
X622968Y360000D01*
X622968Y-360000D01*
X622959Y-360119D01*
X621627Y-368526D01*
X621553Y-368753D01*
X617689Y-376337D01*
X617549Y-376530D01*
X611530Y-382549D01*
X611337Y-382689D01*
X603753Y-386553D01*
X603526Y-386627D01*
X595119Y-387959D01*
G37*
%LPC*%
G36*
X585963Y334706D02*
X594037Y334706D01*
X601496Y337796D01*
X607204Y343504D01*
X610294Y350963D01*
X610294Y359037D01*
X607204Y366496D01*
X601496Y372204D01*
X594037Y375294D01*
X585963Y375294D01*
X578504Y372204D01*
X572796Y366496D01*
X569706Y359037D01*
X569706Y350963D01*
X572796Y343504D01*
X578504Y337796D01*
X585963Y334706D01*
G37*
G36*
X-594037Y334706D02*
X-585963Y334706D01*
X-578504Y337796D01*
X-572796Y343504D01*
X-569706Y350963D01*
X-569706Y359037D01*
X-572796Y366496D01*
X-578504Y372204D01*
X-585963Y375294D01*
X-594037Y375294D01*
X-601496Y372204D01*
X-607204Y366496D01*
X-610294Y359037D01*
X-610294Y350963D01*
X-607204Y343504D01*
X-601496Y337796D01*
X-594037Y334706D01*
G37*
G36*
X-458817Y347472D02*
X-455583Y347472D01*
X-452596Y348709D01*
X-450309Y350996D01*
X-449072Y353983D01*
X-449072Y357217D01*
X-450309Y360204D01*
X-452596Y362491D01*
X-455583Y363728D01*
X-458817Y363728D01*
X-461804Y362491D01*
X-464091Y360204D01*
X-465328Y357217D01*
X-465328Y353983D01*
X-464091Y350996D01*
X-461804Y348709D01*
X-458817Y347472D01*
G37*
G36*
X-484217Y347472D02*
X-480983Y347472D01*
X-477996Y348709D01*
X-475709Y350996D01*
X-474472Y353983D01*
X-474472Y357217D01*
X-475709Y360204D01*
X-477996Y362491D01*
X-480983Y363728D01*
X-484217Y363728D01*
X-487204Y362491D01*
X-489491Y360204D01*
X-490728Y357217D01*
X-490728Y353983D01*
X-489491Y350996D01*
X-487204Y348709D01*
X-484217Y347472D01*
G37*
G36*
X-509617Y347472D02*
X-506383Y347472D01*
X-503396Y348709D01*
X-501109Y350996D01*
X-499872Y353983D01*
X-499872Y357217D01*
X-501109Y360204D01*
X-503396Y362491D01*
X-506383Y363728D01*
X-509617Y363728D01*
X-512604Y362491D01*
X-514891Y360204D01*
X-516128Y357217D01*
X-516128Y353983D01*
X-514891Y350996D01*
X-512604Y348709D01*
X-509617Y347472D01*
G37*
G36*
X-388620Y348742D02*
X-374142Y348742D01*
X-374142Y363220D01*
X-379693Y363220D01*
X-388620Y354293D01*
X-388620Y348742D01*
G37*
G36*
X-372618Y348742D02*
X-358140Y348742D01*
X-358140Y354293D01*
X-367067Y363220D01*
X-372618Y363220D01*
X-372618Y348742D01*
G37*
G36*
X-343607Y334010D02*
X-332033Y334010D01*
X-323850Y342193D01*
X-323850Y353767D01*
X-332033Y361950D01*
X-343607Y361950D01*
X-351790Y353767D01*
X-351790Y342193D01*
X-343607Y334010D01*
G37*
G36*
X53920Y353822D02*
X60198Y353822D01*
X60198Y360100D01*
X59560Y360100D01*
X56972Y359028D01*
X54992Y357048D01*
X53920Y354460D01*
X53920Y353822D01*
G37*
G36*
X-123880Y353822D02*
X-117602Y353822D01*
X-117602Y360100D01*
X-118240Y360100D01*
X-120828Y359028D01*
X-122808Y357048D01*
X-123880Y354460D01*
X-123880Y353822D01*
G37*
G36*
X-116078Y353822D02*
X-109800Y353822D01*
X-109800Y354460D01*
X-110872Y357048D01*
X-112852Y359028D01*
X-115440Y360100D01*
X-116078Y360100D01*
X-116078Y353822D01*
G37*
G36*
X61722Y353822D02*
X68000Y353822D01*
X68000Y354460D01*
X66928Y357048D01*
X64948Y359028D01*
X62360Y360100D01*
X61722Y360100D01*
X61722Y353822D01*
G37*
G36*
X288412Y347290D02*
X290708Y347290D01*
X292828Y348168D01*
X294452Y349792D01*
X295330Y351912D01*
X295330Y354208D01*
X294452Y356328D01*
X292828Y357952D01*
X290708Y358830D01*
X288412Y358830D01*
X286292Y357952D01*
X284668Y356328D01*
X283790Y354208D01*
X283790Y351912D01*
X284668Y349792D01*
X286292Y348168D01*
X288412Y347290D01*
G37*
G36*
X263012Y347290D02*
X265308Y347290D01*
X267428Y348168D01*
X269052Y349792D01*
X269930Y351912D01*
X269930Y354208D01*
X269052Y356328D01*
X267428Y357952D01*
X265308Y358830D01*
X263012Y358830D01*
X260892Y357952D01*
X259268Y356328D01*
X258390Y354208D01*
X258390Y351912D01*
X259268Y349792D01*
X260892Y348168D01*
X263012Y347290D01*
G37*
G36*
X237612Y347290D02*
X239908Y347290D01*
X242028Y348168D01*
X243652Y349792D01*
X244530Y351912D01*
X244530Y354208D01*
X243652Y356328D01*
X242028Y357952D01*
X239908Y358830D01*
X237612Y358830D01*
X235492Y357952D01*
X233868Y356328D01*
X232990Y354208D01*
X232990Y351912D01*
X233868Y349792D01*
X235492Y348168D01*
X237612Y347290D01*
G37*
G36*
X212212Y347290D02*
X214508Y347290D01*
X216628Y348168D01*
X218252Y349792D01*
X219130Y351912D01*
X219130Y354208D01*
X218252Y356328D01*
X216628Y357952D01*
X214508Y358830D01*
X212212Y358830D01*
X210092Y357952D01*
X208468Y356328D01*
X207590Y354208D01*
X207590Y351912D01*
X208468Y349792D01*
X210092Y348168D01*
X212212Y347290D01*
G37*
G36*
X186812Y347290D02*
X189108Y347290D01*
X191228Y348168D01*
X192852Y349792D01*
X193730Y351912D01*
X193730Y354208D01*
X192852Y356328D01*
X191228Y357952D01*
X189108Y358830D01*
X186812Y358830D01*
X184692Y357952D01*
X183068Y356328D01*
X182190Y354208D01*
X182190Y351912D01*
X183068Y349792D01*
X184692Y348168D01*
X186812Y347290D01*
G37*
G36*
X161412Y347290D02*
X163708Y347290D01*
X165828Y348168D01*
X167452Y349792D01*
X168330Y351912D01*
X168330Y354208D01*
X167452Y356328D01*
X165828Y357952D01*
X163708Y358830D01*
X161412Y358830D01*
X159292Y357952D01*
X157668Y356328D01*
X156790Y354208D01*
X156790Y351912D01*
X157668Y349792D01*
X159292Y348168D01*
X161412Y347290D01*
G37*
G36*
X136012Y347290D02*
X138308Y347290D01*
X140428Y348168D01*
X142052Y349792D01*
X142930Y351912D01*
X142930Y354208D01*
X142052Y356328D01*
X140428Y357952D01*
X138308Y358830D01*
X136012Y358830D01*
X133892Y357952D01*
X132268Y356328D01*
X131390Y354208D01*
X131390Y351912D01*
X132268Y349792D01*
X133892Y348168D01*
X136012Y347290D01*
G37*
G36*
X110612Y347290D02*
X112908Y347290D01*
X115028Y348168D01*
X116652Y349792D01*
X117530Y351912D01*
X117530Y354208D01*
X116652Y356328D01*
X115028Y357952D01*
X112908Y358830D01*
X110612Y358830D01*
X108492Y357952D01*
X106868Y356328D01*
X105990Y354208D01*
X105990Y351912D01*
X106868Y349792D01*
X108492Y348168D01*
X110612Y347290D01*
G37*
G36*
X85212Y347290D02*
X87508Y347290D01*
X89628Y348168D01*
X91252Y349792D01*
X92130Y351912D01*
X92130Y354208D01*
X91252Y356328D01*
X89628Y357952D01*
X87508Y358830D01*
X85212Y358830D01*
X83092Y357952D01*
X81468Y356328D01*
X80590Y354208D01*
X80590Y351912D01*
X81468Y349792D01*
X83092Y348168D01*
X85212Y347290D01*
G37*
G36*
X34412Y347290D02*
X36708Y347290D01*
X38828Y348168D01*
X40452Y349792D01*
X41330Y351912D01*
X41330Y354208D01*
X40452Y356328D01*
X38828Y357952D01*
X36708Y358830D01*
X34412Y358830D01*
X32292Y357952D01*
X30668Y356328D01*
X29790Y354208D01*
X29790Y351912D01*
X30668Y349792D01*
X32292Y348168D01*
X34412Y347290D01*
G37*
G36*
X9012Y347290D02*
X11308Y347290D01*
X13428Y348168D01*
X15052Y349792D01*
X15930Y351912D01*
X15930Y354208D01*
X15052Y356328D01*
X13428Y357952D01*
X11308Y358830D01*
X9012Y358830D01*
X6892Y357952D01*
X5268Y356328D01*
X4390Y354208D01*
X4390Y351912D01*
X5268Y349792D01*
X6892Y348168D01*
X9012Y347290D01*
G37*
G36*
X-41788Y347290D02*
X-39492Y347290D01*
X-37372Y348168D01*
X-35748Y349792D01*
X-34870Y351912D01*
X-34870Y354208D01*
X-35748Y356328D01*
X-37372Y357952D01*
X-39492Y358830D01*
X-41788Y358830D01*
X-43908Y357952D01*
X-45532Y356328D01*
X-46410Y354208D01*
X-46410Y351912D01*
X-45532Y349792D01*
X-43908Y348168D01*
X-41788Y347290D01*
G37*
G36*
X-67188Y347290D02*
X-64892Y347290D01*
X-62772Y348168D01*
X-61148Y349792D01*
X-60270Y351912D01*
X-60270Y354208D01*
X-61148Y356328D01*
X-62772Y357952D01*
X-64892Y358830D01*
X-67188Y358830D01*
X-69308Y357952D01*
X-70932Y356328D01*
X-71810Y354208D01*
X-71810Y351912D01*
X-70932Y349792D01*
X-69308Y348168D01*
X-67188Y347290D01*
G37*
G36*
X-92588Y347290D02*
X-90292Y347290D01*
X-88172Y348168D01*
X-86548Y349792D01*
X-85670Y351912D01*
X-85670Y354208D01*
X-86548Y356328D01*
X-88172Y357952D01*
X-90292Y358830D01*
X-92588Y358830D01*
X-94708Y357952D01*
X-96332Y356328D01*
X-97210Y354208D01*
X-97210Y351912D01*
X-96332Y349792D01*
X-94708Y348168D01*
X-92588Y347290D01*
G37*
G36*
X-143388Y347290D02*
X-141092Y347290D01*
X-138972Y348168D01*
X-137348Y349792D01*
X-136470Y351912D01*
X-136470Y354208D01*
X-137348Y356328D01*
X-138972Y357952D01*
X-141092Y358830D01*
X-143388Y358830D01*
X-145508Y357952D01*
X-147132Y356328D01*
X-148010Y354208D01*
X-148010Y351912D01*
X-147132Y349792D01*
X-145508Y348168D01*
X-143388Y347290D01*
G37*
G36*
X-168788Y347290D02*
X-166492Y347290D01*
X-164372Y348168D01*
X-162748Y349792D01*
X-161870Y351912D01*
X-161870Y354208D01*
X-162748Y356328D01*
X-164372Y357952D01*
X-166492Y358830D01*
X-168788Y358830D01*
X-170908Y357952D01*
X-172532Y356328D01*
X-173410Y354208D01*
X-173410Y351912D01*
X-172532Y349792D01*
X-170908Y348168D01*
X-168788Y347290D01*
G37*
G36*
X-194188Y347290D02*
X-191892Y347290D01*
X-189772Y348168D01*
X-188148Y349792D01*
X-187270Y351912D01*
X-187270Y354208D01*
X-188148Y356328D01*
X-189772Y357952D01*
X-191892Y358830D01*
X-194188Y358830D01*
X-196308Y357952D01*
X-197932Y356328D01*
X-198810Y354208D01*
X-198810Y351912D01*
X-197932Y349792D01*
X-196308Y348168D01*
X-194188Y347290D01*
G37*
G36*
X-219588Y347290D02*
X-217292Y347290D01*
X-215172Y348168D01*
X-213548Y349792D01*
X-212670Y351912D01*
X-212670Y354208D01*
X-213548Y356328D01*
X-215172Y357952D01*
X-217292Y358830D01*
X-219588Y358830D01*
X-221708Y357952D01*
X-223332Y356328D01*
X-224210Y354208D01*
X-224210Y351912D01*
X-223332Y349792D01*
X-221708Y348168D01*
X-219588Y347290D01*
G37*
G36*
X-244988Y347290D02*
X-242692Y347290D01*
X-240572Y348168D01*
X-238948Y349792D01*
X-238070Y351912D01*
X-238070Y354208D01*
X-238948Y356328D01*
X-240572Y357952D01*
X-242692Y358830D01*
X-244988Y358830D01*
X-247108Y357952D01*
X-248732Y356328D01*
X-249610Y354208D01*
X-249610Y351912D01*
X-248732Y349792D01*
X-247108Y348168D01*
X-244988Y347290D01*
G37*
G36*
X364612Y347290D02*
X366908Y347290D01*
X369028Y348168D01*
X370652Y349792D01*
X371530Y351912D01*
X371530Y354208D01*
X370652Y356328D01*
X369028Y357952D01*
X366908Y358830D01*
X364612Y358830D01*
X362492Y357952D01*
X360868Y356328D01*
X359990Y354208D01*
X359990Y351912D01*
X360868Y349792D01*
X362492Y348168D01*
X364612Y347290D01*
G37*
G36*
X339212Y347290D02*
X341508Y347290D01*
X343628Y348168D01*
X345252Y349792D01*
X346130Y351912D01*
X346130Y354208D01*
X345252Y356328D01*
X343628Y357952D01*
X341508Y358830D01*
X339212Y358830D01*
X337092Y357952D01*
X335468Y356328D01*
X334590Y354208D01*
X334590Y351912D01*
X335468Y349792D01*
X337092Y348168D01*
X339212Y347290D01*
G37*
G36*
X313812Y347290D02*
X316108Y347290D01*
X318228Y348168D01*
X319852Y349792D01*
X320730Y351912D01*
X320730Y354208D01*
X319852Y356328D01*
X318228Y357952D01*
X316108Y358830D01*
X313812Y358830D01*
X311692Y357952D01*
X310068Y356328D01*
X309190Y354208D01*
X309190Y351912D01*
X310068Y349792D01*
X311692Y348168D01*
X313812Y347290D01*
G37*
G36*
X61722Y346020D02*
X62360Y346020D01*
X64948Y347092D01*
X66928Y349072D01*
X68000Y351660D01*
X68000Y352298D01*
X61722Y352298D01*
X61722Y346020D01*
G37*
G36*
X59560Y346020D02*
X60198Y346020D01*
X60198Y352298D01*
X53920Y352298D01*
X53920Y351660D01*
X54992Y349072D01*
X56972Y347092D01*
X59560Y346020D01*
G37*
G36*
X-116078Y346020D02*
X-115440Y346020D01*
X-112852Y347092D01*
X-110872Y349072D01*
X-109800Y351660D01*
X-109800Y352298D01*
X-116078Y352298D01*
X-116078Y346020D01*
G37*
G36*
X-118240Y346020D02*
X-117602Y346020D01*
X-117602Y352298D01*
X-123880Y352298D01*
X-123880Y351660D01*
X-122808Y349072D01*
X-120828Y347092D01*
X-118240Y346020D01*
G37*
G36*
X-372618Y332740D02*
X-367067Y332740D01*
X-358140Y341667D01*
X-358140Y347218D01*
X-372618Y347218D01*
X-372618Y332740D01*
G37*
G36*
X-379693Y332740D02*
X-374142Y332740D01*
X-374142Y347218D01*
X-388620Y347218D01*
X-388620Y341667D01*
X-379693Y332740D01*
G37*
G36*
X-424180Y332232D02*
X-409702Y332232D01*
X-409702Y346710D01*
X-415253Y346710D01*
X-424180Y337783D01*
X-424180Y332232D01*
G37*
G36*
X-408178Y332232D02*
X-393700Y332232D01*
X-393700Y337783D01*
X-402627Y346710D01*
X-408178Y346710D01*
X-408178Y332232D01*
G37*
G36*
X354256Y169030D02*
X357744Y169030D01*
X360968Y170365D01*
X363435Y172832D01*
X364770Y176056D01*
X364770Y179544D01*
X363435Y182768D01*
X360968Y185235D01*
X357744Y186570D01*
X354256Y186570D01*
X350998Y185221D01*
X350818Y185099D01*
X350521Y185039D01*
X329024Y185039D01*
X328738Y185095D01*
X328485Y185262D01*
X250148Y263600D01*
X249987Y263836D01*
X249924Y264133D01*
X249982Y264430D01*
X250190Y264932D01*
X250190Y268468D01*
X248837Y271736D01*
X246336Y274237D01*
X243068Y275590D01*
X239532Y275590D01*
X236785Y274452D01*
X236506Y274394D01*
X236208Y274450D01*
X235955Y274618D01*
X201708Y308864D01*
X-258699Y308864D01*
X-258974Y308915D01*
X-259229Y309079D01*
X-259401Y309329D01*
X-259461Y309626D01*
X-259461Y331883D01*
X-261842Y334264D01*
X-288798Y334264D01*
X-289073Y334315D01*
X-289328Y334479D01*
X-289500Y334729D01*
X-289560Y335026D01*
X-289560Y337257D01*
X-297743Y345440D01*
X-309317Y345440D01*
X-317500Y337257D01*
X-317500Y325683D01*
X-309317Y317500D01*
X-297743Y317500D01*
X-289356Y325887D01*
X-289345Y325904D01*
X-289095Y326076D01*
X-288798Y326136D01*
X-268351Y326136D01*
X-268076Y326085D01*
X-267821Y325921D01*
X-267649Y325671D01*
X-267589Y325374D01*
X-267589Y297824D01*
X-267621Y297662D01*
X-267621Y286723D01*
X-266877Y285979D01*
X-256615Y285979D01*
X-255872Y286723D01*
X-255872Y297477D01*
X-256615Y298221D01*
X-258699Y298221D01*
X-258974Y298272D01*
X-259229Y298436D01*
X-259401Y298686D01*
X-259461Y298983D01*
X-259461Y299974D01*
X-259410Y300249D01*
X-259246Y300504D01*
X-258996Y300676D01*
X-258699Y300736D01*
X-252505Y300736D01*
X-252242Y300689D01*
X-251984Y300530D01*
X-251808Y300282D01*
X-251743Y299986D01*
X-251799Y299688D01*
X-251966Y299435D01*
X-253399Y298003D01*
X-253399Y292862D01*
X-239110Y292862D01*
X-239110Y298003D01*
X-240542Y299435D01*
X-240695Y299655D01*
X-240764Y299950D01*
X-240714Y300249D01*
X-240550Y300504D01*
X-240300Y300676D01*
X-240003Y300736D01*
X198026Y300736D01*
X198312Y300680D01*
X198565Y300513D01*
X232187Y266891D01*
X232350Y266649D01*
X232410Y266352D01*
X232410Y264932D01*
X233763Y261664D01*
X236264Y259163D01*
X239532Y257810D01*
X243068Y257810D01*
X243570Y258018D01*
X243849Y258076D01*
X244147Y258020D01*
X244400Y257853D01*
X325438Y176815D01*
X325499Y176727D01*
X325679Y176851D01*
X325976Y176911D01*
X346468Y176911D01*
X346743Y176860D01*
X346998Y176696D01*
X347170Y176446D01*
X347230Y176149D01*
X347230Y176056D01*
X348565Y172832D01*
X351032Y170365D01*
X354256Y169030D01*
G37*
G36*
X-217678Y328422D02*
X-211400Y328422D01*
X-211400Y329060D01*
X-212472Y331648D01*
X-214452Y333628D01*
X-217040Y334700D01*
X-217678Y334700D01*
X-217678Y328422D01*
G37*
G36*
X-166878Y328422D02*
X-160600Y328422D01*
X-160600Y329060D01*
X-161672Y331648D01*
X-163652Y333628D01*
X-166240Y334700D01*
X-166878Y334700D01*
X-166878Y328422D01*
G37*
G36*
X-141478Y328422D02*
X-135200Y328422D01*
X-135200Y329060D01*
X-136272Y331648D01*
X-138252Y333628D01*
X-140840Y334700D01*
X-141478Y334700D01*
X-141478Y328422D01*
G37*
G36*
X341122Y328422D02*
X347400Y328422D01*
X347400Y329060D01*
X346328Y331648D01*
X344348Y333628D01*
X341760Y334700D01*
X341122Y334700D01*
X341122Y328422D01*
G37*
G36*
X366522Y328422D02*
X372800Y328422D01*
X372800Y329060D01*
X371728Y331648D01*
X369748Y333628D01*
X367160Y334700D01*
X366522Y334700D01*
X366522Y328422D01*
G37*
G36*
X-192278Y328422D02*
X-186000Y328422D01*
X-186000Y329060D01*
X-187072Y331648D01*
X-189052Y333628D01*
X-191640Y334700D01*
X-192278Y334700D01*
X-192278Y328422D01*
G37*
G36*
X-243078Y328422D02*
X-236800Y328422D01*
X-236800Y329060D01*
X-237872Y331648D01*
X-239852Y333628D01*
X-242440Y334700D01*
X-243078Y334700D01*
X-243078Y328422D01*
G37*
G36*
X-250880Y328422D02*
X-244602Y328422D01*
X-244602Y334700D01*
X-245240Y334700D01*
X-247828Y333628D01*
X-249808Y331648D01*
X-250880Y329060D01*
X-250880Y328422D01*
G37*
G36*
X-200080Y328422D02*
X-193802Y328422D01*
X-193802Y334700D01*
X-194440Y334700D01*
X-197028Y333628D01*
X-199008Y331648D01*
X-200080Y329060D01*
X-200080Y328422D01*
G37*
G36*
X358720Y328422D02*
X364998Y328422D01*
X364998Y334700D01*
X364360Y334700D01*
X361772Y333628D01*
X359792Y331648D01*
X358720Y329060D01*
X358720Y328422D01*
G37*
G36*
X333320Y328422D02*
X339598Y328422D01*
X339598Y334700D01*
X338960Y334700D01*
X336372Y333628D01*
X334392Y331648D01*
X333320Y329060D01*
X333320Y328422D01*
G37*
G36*
X-149280Y328422D02*
X-143002Y328422D01*
X-143002Y334700D01*
X-143640Y334700D01*
X-146228Y333628D01*
X-148208Y331648D01*
X-149280Y329060D01*
X-149280Y328422D01*
G37*
G36*
X-174680Y328422D02*
X-168402Y328422D01*
X-168402Y334700D01*
X-169040Y334700D01*
X-171628Y333628D01*
X-173608Y331648D01*
X-174680Y329060D01*
X-174680Y328422D01*
G37*
G36*
X-225480Y328422D02*
X-219202Y328422D01*
X-219202Y334700D01*
X-219840Y334700D01*
X-222428Y333628D01*
X-224408Y331648D01*
X-225480Y329060D01*
X-225480Y328422D01*
G37*
G36*
X263012Y321890D02*
X265308Y321890D01*
X267428Y322768D01*
X269052Y324392D01*
X269930Y326512D01*
X269930Y328808D01*
X269052Y330928D01*
X267428Y332552D01*
X265308Y333430D01*
X263012Y333430D01*
X260892Y332552D01*
X259268Y330928D01*
X258390Y328808D01*
X258390Y326512D01*
X259268Y324392D01*
X260892Y322768D01*
X263012Y321890D01*
G37*
G36*
X59812Y321890D02*
X62108Y321890D01*
X64228Y322768D01*
X65852Y324392D01*
X66730Y326512D01*
X66730Y328808D01*
X65852Y330928D01*
X64228Y332552D01*
X62108Y333430D01*
X59812Y333430D01*
X57692Y332552D01*
X56068Y330928D01*
X55190Y328808D01*
X55190Y326512D01*
X56068Y324392D01*
X57692Y322768D01*
X59812Y321890D01*
G37*
G36*
X34412Y321890D02*
X36708Y321890D01*
X38828Y322768D01*
X40452Y324392D01*
X41330Y326512D01*
X41330Y328808D01*
X40452Y330928D01*
X38828Y332552D01*
X36708Y333430D01*
X34412Y333430D01*
X32292Y332552D01*
X30668Y330928D01*
X29790Y328808D01*
X29790Y326512D01*
X30668Y324392D01*
X32292Y322768D01*
X34412Y321890D01*
G37*
G36*
X9012Y321890D02*
X11308Y321890D01*
X13428Y322768D01*
X15052Y324392D01*
X15930Y326512D01*
X15930Y328808D01*
X15052Y330928D01*
X13428Y332552D01*
X11308Y333430D01*
X9012Y333430D01*
X6892Y332552D01*
X5268Y330928D01*
X4390Y328808D01*
X4390Y326512D01*
X5268Y324392D01*
X6892Y322768D01*
X9012Y321890D01*
G37*
G36*
X-41788Y321890D02*
X-39492Y321890D01*
X-37372Y322768D01*
X-35748Y324392D01*
X-34870Y326512D01*
X-34870Y328808D01*
X-35748Y330928D01*
X-37372Y332552D01*
X-39492Y333430D01*
X-41788Y333430D01*
X-43908Y332552D01*
X-45532Y330928D01*
X-46410Y328808D01*
X-46410Y326512D01*
X-45532Y324392D01*
X-43908Y322768D01*
X-41788Y321890D01*
G37*
G36*
X-67188Y321890D02*
X-64892Y321890D01*
X-62772Y322768D01*
X-61148Y324392D01*
X-60270Y326512D01*
X-60270Y328808D01*
X-61148Y330928D01*
X-62772Y332552D01*
X-64892Y333430D01*
X-67188Y333430D01*
X-69308Y332552D01*
X-70932Y330928D01*
X-71810Y328808D01*
X-71810Y326512D01*
X-70932Y324392D01*
X-69308Y322768D01*
X-67188Y321890D01*
G37*
G36*
X161412Y321890D02*
X163708Y321890D01*
X165828Y322768D01*
X167452Y324392D01*
X168330Y326512D01*
X168330Y328808D01*
X167452Y330928D01*
X165828Y332552D01*
X163708Y333430D01*
X161412Y333430D01*
X159292Y332552D01*
X157668Y330928D01*
X156790Y328808D01*
X156790Y326512D01*
X157668Y324392D01*
X159292Y322768D01*
X161412Y321890D01*
G37*
G36*
X288412Y321890D02*
X290708Y321890D01*
X292828Y322768D01*
X294452Y324392D01*
X295330Y326512D01*
X295330Y328808D01*
X294452Y330928D01*
X292828Y332552D01*
X290708Y333430D01*
X288412Y333430D01*
X286292Y332552D01*
X284668Y330928D01*
X283790Y328808D01*
X283790Y326512D01*
X284668Y324392D01*
X286292Y322768D01*
X288412Y321890D01*
G37*
G36*
X313812Y321890D02*
X316108Y321890D01*
X318228Y322768D01*
X319852Y324392D01*
X320730Y326512D01*
X320730Y328808D01*
X319852Y330928D01*
X318228Y332552D01*
X316108Y333430D01*
X313812Y333430D01*
X311692Y332552D01*
X310068Y330928D01*
X309190Y328808D01*
X309190Y326512D01*
X310068Y324392D01*
X311692Y322768D01*
X313812Y321890D01*
G37*
G36*
X237612Y321890D02*
X239908Y321890D01*
X242028Y322768D01*
X243652Y324392D01*
X244530Y326512D01*
X244530Y328808D01*
X243652Y330928D01*
X242028Y332552D01*
X239908Y333430D01*
X237612Y333430D01*
X235492Y332552D01*
X233868Y330928D01*
X232990Y328808D01*
X232990Y326512D01*
X233868Y324392D01*
X235492Y322768D01*
X237612Y321890D01*
G37*
G36*
X212212Y321890D02*
X214508Y321890D01*
X216628Y322768D01*
X218252Y324392D01*
X219130Y326512D01*
X219130Y328808D01*
X218252Y330928D01*
X216628Y332552D01*
X214508Y333430D01*
X212212Y333430D01*
X210092Y332552D01*
X208468Y330928D01*
X207590Y328808D01*
X207590Y326512D01*
X208468Y324392D01*
X210092Y322768D01*
X212212Y321890D01*
G37*
G36*
X186812Y321890D02*
X189108Y321890D01*
X191228Y322768D01*
X192852Y324392D01*
X193730Y326512D01*
X193730Y328808D01*
X192852Y330928D01*
X191228Y332552D01*
X189108Y333430D01*
X186812Y333430D01*
X184692Y332552D01*
X183068Y330928D01*
X182190Y328808D01*
X182190Y326512D01*
X183068Y324392D01*
X184692Y322768D01*
X186812Y321890D01*
G37*
G36*
X-92588Y321890D02*
X-90292Y321890D01*
X-88172Y322768D01*
X-86548Y324392D01*
X-85670Y326512D01*
X-85670Y328808D01*
X-86548Y330928D01*
X-88172Y332552D01*
X-90292Y333430D01*
X-92588Y333430D01*
X-94708Y332552D01*
X-96332Y330928D01*
X-97210Y328808D01*
X-97210Y326512D01*
X-96332Y324392D01*
X-94708Y322768D01*
X-92588Y321890D01*
G37*
G36*
X136012Y321890D02*
X138308Y321890D01*
X140428Y322768D01*
X142052Y324392D01*
X142930Y326512D01*
X142930Y328808D01*
X142052Y330928D01*
X140428Y332552D01*
X138308Y333430D01*
X136012Y333430D01*
X133892Y332552D01*
X132268Y330928D01*
X131390Y328808D01*
X131390Y326512D01*
X132268Y324392D01*
X133892Y322768D01*
X136012Y321890D01*
G37*
G36*
X110612Y321890D02*
X112908Y321890D01*
X115028Y322768D01*
X116652Y324392D01*
X117530Y326512D01*
X117530Y328808D01*
X116652Y330928D01*
X115028Y332552D01*
X112908Y333430D01*
X110612Y333430D01*
X108492Y332552D01*
X106868Y330928D01*
X105990Y328808D01*
X105990Y326512D01*
X106868Y324392D01*
X108492Y322768D01*
X110612Y321890D01*
G37*
G36*
X85212Y321890D02*
X87508Y321890D01*
X89628Y322768D01*
X91252Y324392D01*
X92130Y326512D01*
X92130Y328808D01*
X91252Y330928D01*
X89628Y332552D01*
X87508Y333430D01*
X85212Y333430D01*
X83092Y332552D01*
X81468Y330928D01*
X80590Y328808D01*
X80590Y326512D01*
X81468Y324392D01*
X83092Y322768D01*
X85212Y321890D01*
G37*
G36*
X-117988Y321890D02*
X-115692Y321890D01*
X-113572Y322768D01*
X-111948Y324392D01*
X-111070Y326512D01*
X-111070Y328808D01*
X-111948Y330928D01*
X-113572Y332552D01*
X-115692Y333430D01*
X-117988Y333430D01*
X-120108Y332552D01*
X-121732Y330928D01*
X-122610Y328808D01*
X-122610Y326512D01*
X-121732Y324392D01*
X-120108Y322768D01*
X-117988Y321890D01*
G37*
G36*
X-415253Y316230D02*
X-409702Y316230D01*
X-409702Y330708D01*
X-424180Y330708D01*
X-424180Y325157D01*
X-415253Y316230D01*
G37*
G36*
X-408178Y316230D02*
X-402627Y316230D01*
X-393700Y325157D01*
X-393700Y330708D01*
X-408178Y330708D01*
X-408178Y316230D01*
G37*
G36*
X-388620Y315722D02*
X-374142Y315722D01*
X-374142Y330200D01*
X-379693Y330200D01*
X-388620Y321273D01*
X-388620Y315722D01*
G37*
G36*
X-372618Y315722D02*
X-358140Y315722D01*
X-358140Y321273D01*
X-367067Y330200D01*
X-372618Y330200D01*
X-372618Y315722D01*
G37*
G36*
X-374838Y159465D02*
X-371548Y159465D01*
X-370501Y160512D01*
X-370260Y160675D01*
X-369962Y160735D01*
X-364044Y160735D01*
X-363908Y160828D01*
X-363612Y160893D01*
X-363314Y160838D01*
X-363159Y160735D01*
X-357238Y160735D01*
X-356952Y160679D01*
X-356699Y160512D01*
X-355652Y159465D01*
X-352362Y159465D01*
X-352362Y179295D01*
X-353949Y179295D01*
X-354224Y179346D01*
X-354479Y179510D01*
X-354651Y179760D01*
X-354711Y180057D01*
X-354711Y197899D01*
X-354664Y198162D01*
X-354505Y198420D01*
X-354257Y198596D01*
X-353961Y198661D01*
X-353663Y198605D01*
X-353410Y198438D01*
X-350933Y195961D01*
X-347567Y195961D01*
X-288092Y255436D01*
X-287872Y255589D01*
X-287577Y255659D01*
X-287278Y255608D01*
X-287023Y255444D01*
X-286851Y255194D01*
X-286791Y254897D01*
X-286791Y249808D01*
X-272009Y249808D01*
X-272009Y254703D01*
X-272292Y254985D01*
X-272445Y255205D01*
X-272514Y255500D01*
X-272464Y255799D01*
X-272300Y256054D01*
X-272050Y256226D01*
X-271753Y256286D01*
X-249649Y256286D01*
X-249363Y256230D01*
X-249110Y256063D01*
X-247788Y254741D01*
X-247635Y254521D01*
X-247565Y254226D01*
X-247616Y253927D01*
X-247780Y253672D01*
X-248030Y253500D01*
X-248327Y253440D01*
X-254958Y253440D01*
X-254958Y248412D01*
X-245555Y248412D01*
X-245555Y250668D01*
X-245508Y250931D01*
X-245349Y251189D01*
X-245101Y251365D01*
X-244805Y251430D01*
X-244507Y251374D01*
X-244254Y251207D01*
X-223933Y230886D01*
X-210403Y230886D01*
X-210117Y230830D01*
X-209864Y230663D01*
X-209631Y230430D01*
X-193329Y230430D01*
X-192585Y231174D01*
X-192585Y238726D01*
X-193329Y239470D01*
X-209631Y239470D01*
X-209864Y239237D01*
X-210105Y239074D01*
X-210403Y239014D01*
X-220251Y239014D01*
X-220537Y239070D01*
X-220790Y239237D01*
X-246063Y264510D01*
X-246216Y264730D01*
X-246286Y265025D01*
X-246235Y265324D01*
X-246071Y265579D01*
X-245821Y265751D01*
X-245524Y265811D01*
X-192499Y265811D01*
X-192213Y265755D01*
X-191960Y265588D01*
X-109284Y182912D01*
X-109124Y182676D01*
X-109061Y182379D01*
X-109119Y182082D01*
X-110170Y179544D01*
X-110170Y176056D01*
X-108835Y172832D01*
X-106368Y170365D01*
X-103144Y169030D01*
X-99656Y169030D01*
X-96432Y170365D01*
X-93965Y172832D01*
X-92630Y176056D01*
X-92630Y179544D01*
X-93965Y182768D01*
X-96432Y185235D01*
X-99656Y186570D01*
X-101132Y186570D01*
X-101418Y186626D01*
X-101671Y186793D01*
X-188817Y273939D01*
X-290101Y273939D01*
X-290387Y273995D01*
X-290640Y274162D01*
X-324212Y307734D01*
X-324370Y307965D01*
X-324435Y308261D01*
X-324379Y308559D01*
X-324212Y308812D01*
X-323850Y309173D01*
X-323850Y320747D01*
X-332033Y328930D01*
X-343607Y328930D01*
X-351790Y320747D01*
X-351790Y317848D01*
X-351846Y317562D01*
X-352013Y317309D01*
X-353314Y316008D01*
X-353314Y296926D01*
X-353365Y296651D01*
X-353529Y296396D01*
X-353779Y296224D01*
X-354076Y296164D01*
X-373158Y296164D01*
X-411035Y258287D01*
X-411277Y258124D01*
X-411574Y258064D01*
X-534449Y258064D01*
X-534712Y258111D01*
X-534970Y258270D01*
X-535146Y258518D01*
X-535211Y258814D01*
X-535155Y259112D01*
X-534988Y259365D01*
X-485117Y309236D01*
X-484881Y309396D01*
X-484584Y309459D01*
X-484287Y309401D01*
X-484217Y309372D01*
X-480983Y309372D01*
X-477996Y310609D01*
X-475709Y312896D01*
X-474472Y315883D01*
X-474472Y319117D01*
X-475709Y322104D01*
X-477996Y324391D01*
X-480983Y325628D01*
X-484217Y325628D01*
X-487204Y324391D01*
X-489491Y322104D01*
X-490728Y319117D01*
X-490728Y315883D01*
X-490699Y315813D01*
X-490641Y315534D01*
X-490697Y315236D01*
X-490864Y314983D01*
X-541210Y264637D01*
X-541452Y264474D01*
X-541749Y264414D01*
X-561968Y264414D01*
X-562243Y264465D01*
X-562498Y264629D01*
X-562670Y264879D01*
X-562730Y265176D01*
X-562730Y267844D01*
X-564065Y271068D01*
X-566532Y273535D01*
X-569756Y274870D01*
X-573244Y274870D01*
X-576468Y273535D01*
X-578935Y271068D01*
X-580270Y267844D01*
X-580270Y264356D01*
X-578935Y261132D01*
X-576468Y258665D01*
X-573244Y257330D01*
X-569756Y257330D01*
X-568898Y257685D01*
X-568618Y257743D01*
X-568320Y257688D01*
X-568067Y257520D01*
X-566833Y256286D01*
X-541876Y256286D01*
X-541613Y256239D01*
X-541355Y256080D01*
X-541179Y255832D01*
X-541114Y255536D01*
X-541170Y255238D01*
X-541337Y254985D01*
X-571229Y225093D01*
X-571471Y224930D01*
X-571768Y224870D01*
X-573244Y224870D01*
X-576468Y223535D01*
X-578935Y221068D01*
X-580270Y217844D01*
X-580270Y214356D01*
X-578935Y211132D01*
X-576468Y208665D01*
X-573244Y207330D01*
X-569756Y207330D01*
X-566532Y208665D01*
X-564065Y211132D01*
X-562730Y214356D01*
X-562730Y217844D01*
X-563781Y220382D01*
X-563839Y220661D01*
X-563783Y220959D01*
X-563616Y221212D01*
X-535115Y249713D01*
X-534873Y249876D01*
X-534576Y249936D01*
X-407892Y249936D01*
X-371791Y286036D01*
X-371572Y286189D01*
X-371277Y286259D01*
X-370978Y286208D01*
X-370722Y286045D01*
X-370551Y285795D01*
X-370491Y285498D01*
X-370491Y280162D01*
X-356202Y280162D01*
X-356202Y285303D01*
X-357634Y286735D01*
X-357787Y286955D01*
X-357856Y287250D01*
X-357806Y287549D01*
X-357642Y287804D01*
X-357392Y287976D01*
X-357095Y288036D01*
X-354076Y288036D01*
X-353801Y287985D01*
X-353546Y287821D01*
X-353374Y287571D01*
X-353314Y287274D01*
X-353314Y285507D01*
X-353370Y285221D01*
X-353537Y284968D01*
X-353729Y284777D01*
X-353729Y274023D01*
X-352985Y273279D01*
X-342723Y273279D01*
X-341980Y274023D01*
X-341980Y284777D01*
X-342723Y285521D01*
X-344424Y285521D01*
X-344699Y285572D01*
X-344954Y285736D01*
X-345126Y285986D01*
X-345186Y286283D01*
X-345186Y300730D01*
X-345139Y300993D01*
X-344980Y301251D01*
X-344732Y301427D01*
X-344436Y301492D01*
X-344138Y301436D01*
X-343885Y301269D01*
X-343607Y300990D01*
X-332033Y300990D01*
X-331037Y301987D01*
X-330806Y302145D01*
X-330510Y302210D01*
X-330212Y302154D01*
X-329959Y301987D01*
X-293783Y265811D01*
X-291051Y265811D01*
X-290788Y265764D01*
X-290530Y265605D01*
X-290354Y265357D01*
X-290289Y265061D01*
X-290345Y264763D01*
X-290512Y264510D01*
X-353410Y201612D01*
X-353630Y201459D01*
X-353925Y201389D01*
X-354224Y201440D01*
X-354479Y201604D01*
X-354651Y201854D01*
X-354711Y202151D01*
X-354711Y230283D01*
X-357092Y232664D01*
X-400655Y232664D01*
X-400941Y232720D01*
X-401194Y232887D01*
X-403197Y234890D01*
X-405924Y236020D01*
X-408876Y236020D01*
X-411603Y234890D01*
X-413690Y232803D01*
X-414820Y230076D01*
X-414820Y227124D01*
X-413690Y224397D01*
X-411603Y222310D01*
X-408876Y221180D01*
X-405924Y221180D01*
X-403197Y222310D01*
X-401194Y224313D01*
X-400952Y224476D01*
X-400655Y224536D01*
X-363601Y224536D01*
X-363326Y224485D01*
X-363071Y224321D01*
X-362899Y224071D01*
X-362839Y223774D01*
X-362839Y214851D01*
X-362886Y214588D01*
X-363045Y214330D01*
X-363293Y214154D01*
X-363589Y214089D01*
X-363887Y214145D01*
X-364140Y214312D01*
X-366617Y216789D01*
X-432976Y216789D01*
X-433262Y216845D01*
X-433515Y217012D01*
X-449167Y232664D01*
X-449455Y232664D01*
X-449741Y232720D01*
X-449994Y232887D01*
X-451997Y234890D01*
X-454724Y236020D01*
X-457676Y236020D01*
X-460403Y234890D01*
X-462490Y232803D01*
X-463620Y230076D01*
X-463620Y227124D01*
X-462490Y224397D01*
X-460403Y222310D01*
X-457676Y221180D01*
X-454724Y221180D01*
X-451997Y222310D01*
X-451691Y222616D01*
X-451460Y222774D01*
X-451164Y222839D01*
X-450866Y222783D01*
X-450613Y222616D01*
X-436658Y208661D01*
X-373126Y208661D01*
X-372851Y208610D01*
X-372596Y208446D01*
X-372424Y208196D01*
X-372364Y207899D01*
X-372364Y180057D01*
X-372415Y179782D01*
X-372579Y179527D01*
X-372829Y179355D01*
X-373126Y179295D01*
X-374838Y179295D01*
X-374838Y159465D01*
G37*
G36*
X-141478Y320620D02*
X-140840Y320620D01*
X-138252Y321692D01*
X-136272Y323672D01*
X-135200Y326260D01*
X-135200Y326898D01*
X-141478Y326898D01*
X-141478Y320620D01*
G37*
G36*
X338960Y320620D02*
X339598Y320620D01*
X339598Y326898D01*
X333320Y326898D01*
X333320Y326260D01*
X334392Y323672D01*
X336372Y321692D01*
X338960Y320620D01*
G37*
G36*
X341122Y320620D02*
X341760Y320620D01*
X344348Y321692D01*
X346328Y323672D01*
X347400Y326260D01*
X347400Y326898D01*
X341122Y326898D01*
X341122Y320620D01*
G37*
G36*
X364360Y320620D02*
X364998Y320620D01*
X364998Y326898D01*
X358720Y326898D01*
X358720Y326260D01*
X359792Y323672D01*
X361772Y321692D01*
X364360Y320620D01*
G37*
G36*
X366522Y320620D02*
X367160Y320620D01*
X369748Y321692D01*
X371728Y323672D01*
X372800Y326260D01*
X372800Y326898D01*
X366522Y326898D01*
X366522Y320620D01*
G37*
G36*
X-143640Y320620D02*
X-143002Y320620D01*
X-143002Y326898D01*
X-149280Y326898D01*
X-149280Y326260D01*
X-148208Y323672D01*
X-146228Y321692D01*
X-143640Y320620D01*
G37*
G36*
X-245240Y320620D02*
X-244602Y320620D01*
X-244602Y326898D01*
X-250880Y326898D01*
X-250880Y326260D01*
X-249808Y323672D01*
X-247828Y321692D01*
X-245240Y320620D01*
G37*
G36*
X-166878Y320620D02*
X-166240Y320620D01*
X-163652Y321692D01*
X-161672Y323672D01*
X-160600Y326260D01*
X-160600Y326898D01*
X-166878Y326898D01*
X-166878Y320620D01*
G37*
G36*
X-169040Y320620D02*
X-168402Y320620D01*
X-168402Y326898D01*
X-174680Y326898D01*
X-174680Y326260D01*
X-173608Y323672D01*
X-171628Y321692D01*
X-169040Y320620D01*
G37*
G36*
X-192278Y320620D02*
X-191640Y320620D01*
X-189052Y321692D01*
X-187072Y323672D01*
X-186000Y326260D01*
X-186000Y326898D01*
X-192278Y326898D01*
X-192278Y320620D01*
G37*
G36*
X-194440Y320620D02*
X-193802Y320620D01*
X-193802Y326898D01*
X-200080Y326898D01*
X-200080Y326260D01*
X-199008Y323672D01*
X-197028Y321692D01*
X-194440Y320620D01*
G37*
G36*
X-217678Y320620D02*
X-217040Y320620D01*
X-214452Y321692D01*
X-212472Y323672D01*
X-211400Y326260D01*
X-211400Y326898D01*
X-217678Y326898D01*
X-217678Y320620D01*
G37*
G36*
X-219840Y320620D02*
X-219202Y320620D01*
X-219202Y326898D01*
X-225480Y326898D01*
X-225480Y326260D01*
X-224408Y323672D01*
X-222428Y321692D01*
X-219840Y320620D01*
G37*
G36*
X-243078Y320620D02*
X-242440Y320620D01*
X-239852Y321692D01*
X-237872Y323672D01*
X-236800Y326260D01*
X-236800Y326898D01*
X-243078Y326898D01*
X-243078Y320620D01*
G37*
G36*
X-458817Y309372D02*
X-455583Y309372D01*
X-452596Y310609D01*
X-450309Y312896D01*
X-449072Y315883D01*
X-449072Y319117D01*
X-450309Y322104D01*
X-452596Y324391D01*
X-455583Y325628D01*
X-458817Y325628D01*
X-461804Y324391D01*
X-464091Y322104D01*
X-465328Y319117D01*
X-465328Y315883D01*
X-464091Y312896D01*
X-461804Y310609D01*
X-458817Y309372D01*
G37*
G36*
X-509617Y309372D02*
X-506383Y309372D01*
X-503396Y310609D01*
X-501109Y312896D01*
X-499872Y315883D01*
X-499872Y319117D01*
X-501109Y322104D01*
X-503396Y324391D01*
X-506383Y325628D01*
X-509617Y325628D01*
X-512604Y324391D01*
X-514891Y322104D01*
X-516128Y319117D01*
X-516128Y315883D01*
X-514891Y312896D01*
X-512604Y310609D01*
X-509617Y309372D01*
G37*
G36*
X-372618Y299720D02*
X-367067Y299720D01*
X-358140Y308647D01*
X-358140Y314198D01*
X-372618Y314198D01*
X-372618Y299720D01*
G37*
G36*
X-379693Y299720D02*
X-374142Y299720D01*
X-374142Y314198D01*
X-388620Y314198D01*
X-388620Y308647D01*
X-379693Y299720D01*
G37*
G36*
X-581540Y291862D02*
X-572262Y291862D01*
X-572262Y301140D01*
X-580052Y301140D01*
X-581540Y299652D01*
X-581540Y291862D01*
G37*
G36*
X-570738Y291862D02*
X-561460Y291862D01*
X-561460Y299652D01*
X-562948Y301140D01*
X-570738Y301140D01*
X-570738Y291862D01*
G37*
G36*
X-251911Y284709D02*
X-247016Y284709D01*
X-247016Y291338D01*
X-253399Y291338D01*
X-253399Y286197D01*
X-251911Y284709D01*
G37*
G36*
X-245492Y284709D02*
X-240597Y284709D01*
X-239110Y286197D01*
X-239110Y291338D01*
X-245492Y291338D01*
X-245492Y284709D01*
G37*
G36*
X-580052Y281060D02*
X-572262Y281060D01*
X-572262Y290338D01*
X-581540Y290338D01*
X-581540Y282548D01*
X-580052Y281060D01*
G37*
G36*
X-570738Y281060D02*
X-562948Y281060D01*
X-561460Y282548D01*
X-561460Y290338D01*
X-570738Y290338D01*
X-570738Y281060D01*
G37*
G36*
X315732Y257810D02*
X319268Y257810D01*
X322536Y259163D01*
X325037Y261664D01*
X326390Y264932D01*
X326390Y266352D01*
X326446Y266638D01*
X326613Y266891D01*
X338010Y278288D01*
X338252Y278451D01*
X338549Y278511D01*
X448851Y278511D01*
X449137Y278455D01*
X449390Y278288D01*
X460707Y266971D01*
X460870Y266729D01*
X460930Y266432D01*
X460930Y264956D01*
X462265Y261732D01*
X464732Y259265D01*
X467956Y257930D01*
X471444Y257930D01*
X474668Y259265D01*
X477135Y261732D01*
X478470Y264956D01*
X478470Y268444D01*
X477135Y271668D01*
X474668Y274135D01*
X471444Y275470D01*
X467956Y275470D01*
X465418Y274419D01*
X465139Y274361D01*
X464841Y274417D01*
X464588Y274584D01*
X452533Y286639D01*
X334867Y286639D01*
X322845Y274618D01*
X322609Y274457D01*
X322312Y274394D01*
X322015Y274452D01*
X319268Y275590D01*
X315732Y275590D01*
X312464Y274237D01*
X309963Y271736D01*
X308610Y268468D01*
X308610Y264932D01*
X309963Y261664D01*
X312464Y259163D01*
X315732Y257810D01*
G37*
G36*
X-369003Y272009D02*
X-364108Y272009D01*
X-364108Y278638D01*
X-370491Y278638D01*
X-370491Y273497D01*
X-369003Y272009D01*
G37*
G36*
X-362584Y272009D02*
X-357689Y272009D01*
X-356202Y273497D01*
X-356202Y278638D01*
X-362584Y278638D01*
X-362584Y272009D01*
G37*
G36*
X267462Y267462D02*
X276860Y267462D01*
X276860Y268721D01*
X275313Y272455D01*
X272455Y275313D01*
X268721Y276860D01*
X267462Y276860D01*
X267462Y267462D01*
G37*
G36*
X256540Y267462D02*
X265938Y267462D01*
X265938Y276860D01*
X264679Y276860D01*
X260945Y275313D01*
X258087Y272455D01*
X256540Y268721D01*
X256540Y267462D01*
G37*
G36*
X-61440Y267462D02*
X-52162Y267462D01*
X-52162Y276740D01*
X-59952Y276740D01*
X-61440Y275252D01*
X-61440Y267462D01*
G37*
G36*
X509660Y267462D02*
X518938Y267462D01*
X518938Y276740D01*
X511148Y276740D01*
X509660Y275252D01*
X509660Y267462D01*
G37*
G36*
X78260Y267462D02*
X87538Y267462D01*
X87538Y276740D01*
X79748Y276740D01*
X78260Y275252D01*
X78260Y267462D01*
G37*
G36*
X89062Y267462D02*
X98340Y267462D01*
X98340Y275252D01*
X96852Y276740D01*
X89062Y276740D01*
X89062Y267462D01*
G37*
G36*
X520462Y267462D02*
X529740Y267462D01*
X529740Y275252D01*
X528252Y276740D01*
X520462Y276740D01*
X520462Y267462D01*
G37*
G36*
X-50638Y267462D02*
X-41360Y267462D01*
X-41360Y275252D01*
X-42848Y276740D01*
X-50638Y276740D01*
X-50638Y267462D01*
G37*
G36*
X309467Y246761D02*
X430308Y246761D01*
X441550Y258003D01*
X441786Y258163D01*
X442083Y258226D01*
X442381Y258168D01*
X442956Y257930D01*
X446444Y257930D01*
X449668Y259265D01*
X452135Y261732D01*
X453470Y264956D01*
X453470Y268444D01*
X452135Y271668D01*
X449668Y274135D01*
X446444Y275470D01*
X442956Y275470D01*
X439732Y274135D01*
X437265Y271668D01*
X435930Y268444D01*
X435930Y264956D01*
X436051Y264664D01*
X436109Y264384D01*
X436053Y264086D01*
X435886Y263833D01*
X427165Y255112D01*
X426923Y254949D01*
X426626Y254889D01*
X313149Y254889D01*
X312863Y254945D01*
X312610Y255112D01*
X301213Y266509D01*
X301050Y266751D01*
X300990Y267048D01*
X300990Y268468D01*
X299637Y271736D01*
X297136Y274237D01*
X293868Y275590D01*
X290332Y275590D01*
X287064Y274237D01*
X284563Y271736D01*
X283210Y268468D01*
X283210Y264932D01*
X284563Y261664D01*
X287064Y259163D01*
X290332Y257810D01*
X293868Y257810D01*
X296615Y258948D01*
X296894Y259006D01*
X297192Y258950D01*
X297445Y258782D01*
X309467Y246761D01*
G37*
G36*
X61556Y257930D02*
X65044Y257930D01*
X68268Y259265D01*
X70735Y261732D01*
X72070Y264956D01*
X72070Y268444D01*
X70735Y271668D01*
X68268Y274135D01*
X65044Y275470D01*
X61556Y275470D01*
X58332Y274135D01*
X55865Y271668D01*
X54530Y268444D01*
X54530Y264956D01*
X55865Y261732D01*
X58332Y259265D01*
X61556Y257930D01*
G37*
G36*
X36556Y257930D02*
X40044Y257930D01*
X43268Y259265D01*
X45735Y261732D01*
X47070Y264956D01*
X47070Y268444D01*
X45735Y271668D01*
X43268Y274135D01*
X40044Y275470D01*
X36556Y275470D01*
X33332Y274135D01*
X30865Y271668D01*
X29530Y268444D01*
X29530Y264956D01*
X30865Y261732D01*
X33332Y259265D01*
X36556Y257930D01*
G37*
G36*
X492956Y257930D02*
X496444Y257930D01*
X499668Y259265D01*
X502135Y261732D01*
X503470Y264956D01*
X503470Y268444D01*
X502135Y271668D01*
X499668Y274135D01*
X496444Y275470D01*
X492956Y275470D01*
X489732Y274135D01*
X487265Y271668D01*
X485930Y268444D01*
X485930Y264956D01*
X487265Y261732D01*
X489732Y259265D01*
X492956Y257930D01*
G37*
G36*
X417956Y257930D02*
X421444Y257930D01*
X424668Y259265D01*
X427135Y261732D01*
X428470Y264956D01*
X428470Y268444D01*
X427135Y271668D01*
X424668Y274135D01*
X421444Y275470D01*
X417956Y275470D01*
X414732Y274135D01*
X412265Y271668D01*
X410930Y268444D01*
X410930Y264956D01*
X412265Y261732D01*
X414732Y259265D01*
X417956Y257930D01*
G37*
G36*
X392956Y257930D02*
X396444Y257930D01*
X399668Y259265D01*
X402135Y261732D01*
X403470Y264956D01*
X403470Y268444D01*
X402135Y271668D01*
X399668Y274135D01*
X396444Y275470D01*
X392956Y275470D01*
X389732Y274135D01*
X387265Y271668D01*
X385930Y268444D01*
X385930Y264956D01*
X387265Y261732D01*
X389732Y259265D01*
X392956Y257930D01*
G37*
G36*
X168896Y105230D02*
X172504Y105230D01*
X175838Y106611D01*
X178389Y109162D01*
X179770Y112496D01*
X179770Y113382D01*
X179826Y113668D01*
X179993Y113921D01*
X191960Y125888D01*
X192202Y126051D01*
X192499Y126111D01*
X295364Y126111D01*
X295621Y126066D01*
X295881Y125909D01*
X296058Y125663D01*
X296126Y125367D01*
X296072Y125069D01*
X295907Y124815D01*
X295655Y124645D01*
X291843Y123066D01*
X288934Y120157D01*
X287360Y116357D01*
X287360Y115062D01*
X308040Y115062D01*
X308040Y116357D01*
X306466Y120157D01*
X303557Y123066D01*
X299745Y124645D01*
X299524Y124785D01*
X299344Y125030D01*
X299275Y125325D01*
X299326Y125624D01*
X299489Y125879D01*
X299739Y126051D01*
X300036Y126111D01*
X382683Y126111D01*
X385064Y128492D01*
X385064Y169482D01*
X385117Y169762D01*
X385283Y170016D01*
X385534Y170186D01*
X385968Y170365D01*
X388435Y172832D01*
X389770Y176056D01*
X389770Y179544D01*
X388435Y182768D01*
X385968Y185235D01*
X382744Y186570D01*
X379256Y186570D01*
X376032Y185235D01*
X373565Y182768D01*
X372230Y179544D01*
X372230Y176056D01*
X373565Y172832D01*
X376032Y170365D01*
X376466Y170186D01*
X376704Y170029D01*
X376876Y169779D01*
X376936Y169482D01*
X376936Y135001D01*
X376885Y134726D01*
X376721Y134471D01*
X376471Y134299D01*
X376174Y134239D01*
X351376Y134239D01*
X351113Y134286D01*
X350855Y134445D01*
X350679Y134693D01*
X350614Y134989D01*
X350670Y135287D01*
X350837Y135540D01*
X353314Y138017D01*
X353314Y141383D01*
X350933Y143764D01*
X128999Y143764D01*
X128713Y143820D01*
X128460Y143987D01*
X97231Y175216D01*
X97071Y175452D01*
X97008Y175749D01*
X97066Y176046D01*
X97070Y176056D01*
X97070Y177918D01*
X97117Y178181D01*
X97276Y178439D01*
X97524Y178615D01*
X97820Y178680D01*
X98118Y178624D01*
X98371Y178457D01*
X109442Y167386D01*
X156624Y167386D01*
X156887Y167339D01*
X157145Y167180D01*
X157321Y166932D01*
X157386Y166636D01*
X157330Y166338D01*
X157163Y166085D01*
X154686Y163608D01*
X154686Y160242D01*
X160242Y154686D01*
X363633Y154686D01*
X366014Y157067D01*
X366014Y160433D01*
X363633Y162814D01*
X163924Y162814D01*
X163638Y162870D01*
X163385Y163037D01*
X160337Y166085D01*
X160184Y166305D01*
X160114Y166600D01*
X160165Y166899D01*
X160329Y167154D01*
X160579Y167326D01*
X160876Y167386D01*
X325533Y167386D01*
X327914Y169767D01*
X327914Y173133D01*
X325437Y175610D01*
X325376Y175698D01*
X325196Y175574D01*
X324899Y175514D01*
X113124Y175514D01*
X112838Y175570D01*
X112585Y175737D01*
X22293Y266029D01*
X22130Y266271D01*
X22070Y266568D01*
X22070Y268444D01*
X20735Y271668D01*
X18268Y274135D01*
X15044Y275470D01*
X11556Y275470D01*
X8332Y274135D01*
X5865Y271668D01*
X4530Y268444D01*
X4530Y264956D01*
X5865Y261732D01*
X8332Y259265D01*
X11556Y257930D01*
X15044Y257930D01*
X17299Y258864D01*
X17578Y258922D01*
X17876Y258866D01*
X18129Y258699D01*
X88957Y187871D01*
X89110Y187651D01*
X89180Y187356D01*
X89129Y187057D01*
X88965Y186802D01*
X88715Y186630D01*
X88418Y186570D01*
X86556Y186570D01*
X83332Y185235D01*
X80865Y182768D01*
X79530Y179544D01*
X79530Y176056D01*
X80865Y172832D01*
X83332Y170365D01*
X86556Y169030D01*
X90044Y169030D01*
X90902Y169385D01*
X91182Y169443D01*
X91480Y169388D01*
X91733Y169220D01*
X125317Y135636D01*
X188374Y135636D01*
X188637Y135589D01*
X188895Y135430D01*
X189071Y135182D01*
X189136Y134886D01*
X189080Y134588D01*
X188913Y134335D01*
X176713Y122136D01*
X176477Y121975D01*
X176181Y121913D01*
X175883Y121970D01*
X172504Y123370D01*
X168896Y123370D01*
X165562Y121989D01*
X163011Y119438D01*
X161630Y116104D01*
X161630Y112496D01*
X163011Y109162D01*
X165562Y106611D01*
X168896Y105230D01*
G37*
G36*
X493556Y-237370D02*
X497044Y-237370D01*
X500268Y-236035D01*
X502735Y-233568D01*
X504070Y-230344D01*
X504070Y-226856D01*
X502735Y-223632D01*
X500268Y-221165D01*
X497044Y-219830D01*
X493556Y-219830D01*
X493122Y-220010D01*
X492843Y-220067D01*
X492545Y-220012D01*
X492292Y-219844D01*
X422518Y-150071D01*
X422365Y-149851D01*
X422295Y-149556D01*
X422346Y-149257D01*
X422510Y-149002D01*
X422760Y-148830D01*
X423057Y-148770D01*
X426504Y-148770D01*
X429838Y-147389D01*
X432389Y-144838D01*
X433770Y-141504D01*
X433770Y-137896D01*
X432389Y-134562D01*
X429838Y-132011D01*
X426504Y-130630D01*
X422896Y-130630D01*
X420578Y-131590D01*
X420298Y-131648D01*
X420000Y-131593D01*
X419747Y-131425D01*
X385858Y-97536D01*
X31206Y-97536D01*
X30943Y-97489D01*
X30685Y-97330D01*
X30509Y-97082D01*
X30444Y-96786D01*
X30500Y-96488D01*
X30667Y-96235D01*
X32835Y-94068D01*
X34170Y-90844D01*
X34170Y-87356D01*
X32835Y-84132D01*
X30368Y-81665D01*
X27144Y-80330D01*
X23656Y-80330D01*
X20432Y-81665D01*
X17965Y-84132D01*
X16594Y-87443D01*
X16579Y-87524D01*
X16415Y-87779D01*
X16165Y-87951D01*
X15868Y-88011D01*
X14192Y-88011D01*
X1715Y-100488D01*
X1473Y-100651D01*
X1176Y-100711D01*
X-21717Y-100711D01*
X-21992Y-100660D01*
X-22247Y-100496D01*
X-22419Y-100246D01*
X-22479Y-99949D01*
X-22479Y-98357D01*
X-22855Y-97981D01*
X-23013Y-97750D01*
X-23078Y-97454D01*
X-23023Y-97156D01*
X-22855Y-96903D01*
X-22479Y-96527D01*
X-22479Y-81273D01*
X-23223Y-80529D01*
X-23749Y-80529D01*
X-24024Y-80478D01*
X-24279Y-80314D01*
X-24451Y-80064D01*
X-24511Y-79767D01*
X-24511Y-74676D01*
X-24460Y-74401D01*
X-24296Y-74146D01*
X-24046Y-73974D01*
X-23749Y-73914D01*
X20733Y-73914D01*
X21967Y-72680D01*
X22203Y-72520D01*
X22500Y-72457D01*
X22798Y-72515D01*
X23656Y-72870D01*
X27144Y-72870D01*
X30368Y-71535D01*
X32835Y-69068D01*
X34170Y-65844D01*
X34170Y-62356D01*
X32835Y-59132D01*
X30368Y-56665D01*
X29559Y-56330D01*
X29338Y-56190D01*
X29158Y-55945D01*
X29089Y-55650D01*
X29140Y-55351D01*
X29303Y-55096D01*
X29553Y-54924D01*
X29850Y-54864D01*
X163101Y-54864D01*
X163387Y-54920D01*
X163640Y-55087D01*
X166592Y-58039D01*
X439833Y-58039D01*
X451346Y-46527D01*
X451576Y-46369D01*
X451872Y-46304D01*
X452170Y-46359D01*
X452423Y-46527D01*
X453093Y-47197D01*
X478065Y-47197D01*
X478809Y-46453D01*
X478809Y-42926D01*
X478860Y-42651D01*
X479024Y-42396D01*
X479274Y-42224D01*
X479571Y-42164D01*
X498329Y-42164D01*
X498604Y-42215D01*
X498859Y-42379D01*
X499031Y-42629D01*
X499091Y-42926D01*
X499091Y-46453D01*
X499835Y-47197D01*
X524807Y-47197D01*
X525551Y-46453D01*
X525551Y-29747D01*
X524807Y-29004D01*
X499835Y-29004D01*
X499091Y-29747D01*
X499091Y-33274D01*
X499040Y-33549D01*
X498876Y-33804D01*
X498626Y-33976D01*
X498329Y-34036D01*
X479571Y-34036D01*
X479296Y-33985D01*
X479041Y-33821D01*
X478869Y-33571D01*
X478809Y-33274D01*
X478809Y-29747D01*
X478065Y-29004D01*
X453093Y-29004D01*
X452349Y-29747D01*
X452349Y-33713D01*
X452293Y-33999D01*
X452126Y-34252D01*
X436690Y-49688D01*
X436448Y-49851D01*
X436151Y-49911D01*
X170274Y-49911D01*
X169988Y-49855D01*
X169735Y-49688D01*
X166783Y-46736D01*
X33802Y-46736D01*
X33539Y-46689D01*
X33281Y-46530D01*
X33106Y-46282D01*
X33040Y-45986D01*
X33096Y-45688D01*
X33264Y-45435D01*
X33912Y-44787D01*
X35440Y-41097D01*
X35440Y-39862D01*
X15360Y-39862D01*
X15360Y-41097D01*
X16327Y-43431D01*
X16384Y-43686D01*
X16338Y-43986D01*
X16179Y-44244D01*
X15931Y-44420D01*
X15635Y-44485D01*
X15337Y-44429D01*
X15084Y-44262D01*
X1683Y-30861D01*
X-559976Y-30861D01*
X-560262Y-30805D01*
X-560515Y-30638D01*
X-560642Y-30511D01*
X-560795Y-30291D01*
X-560865Y-29996D01*
X-560814Y-29697D01*
X-560650Y-29442D01*
X-560400Y-29270D01*
X-560103Y-29210D01*
X-557032Y-29210D01*
X-553764Y-27857D01*
X-551263Y-25356D01*
X-549910Y-22088D01*
X-549910Y-3312D01*
X-551263Y-44D01*
X-553764Y2457D01*
X-557032Y3810D01*
X-560568Y3810D01*
X-563836Y2457D01*
X-566337Y-44D01*
X-567690Y-3312D01*
X-567690Y-21623D01*
X-567737Y-21886D01*
X-567896Y-22144D01*
X-568144Y-22320D01*
X-568440Y-22385D01*
X-568738Y-22329D01*
X-568991Y-22162D01*
X-575087Y-16066D01*
X-575250Y-15824D01*
X-575310Y-15527D01*
X-575310Y-3312D01*
X-576663Y-44D01*
X-579164Y2457D01*
X-582432Y3810D01*
X-585968Y3810D01*
X-589236Y2457D01*
X-591737Y-44D01*
X-593090Y-3312D01*
X-593090Y-21623D01*
X-593137Y-21886D01*
X-593296Y-22144D01*
X-593544Y-22320D01*
X-593840Y-22385D01*
X-594138Y-22329D01*
X-594391Y-22162D01*
X-595788Y-20765D01*
X-595951Y-20523D01*
X-596011Y-20226D01*
X-596011Y20574D01*
X-595960Y20849D01*
X-595796Y21104D01*
X-595546Y21276D01*
X-595249Y21336D01*
X-593852Y21336D01*
X-593577Y21285D01*
X-593322Y21121D01*
X-593150Y20871D01*
X-593090Y20574D01*
X-593090Y16012D01*
X-591737Y12744D01*
X-589236Y10243D01*
X-585968Y8890D01*
X-582432Y8890D01*
X-579164Y10243D01*
X-576663Y12744D01*
X-575310Y16012D01*
X-575310Y34788D01*
X-576663Y38056D01*
X-579164Y40557D01*
X-582432Y41910D01*
X-585968Y41910D01*
X-589236Y40557D01*
X-591737Y38056D01*
X-593090Y34788D01*
X-593090Y30226D01*
X-593141Y29951D01*
X-593305Y29696D01*
X-593555Y29524D01*
X-593852Y29464D01*
X-601758Y29464D01*
X-604235Y26987D01*
X-604455Y26834D01*
X-604750Y26764D01*
X-605049Y26815D01*
X-605304Y26979D01*
X-605476Y27229D01*
X-605536Y27526D01*
X-605536Y112301D01*
X-605480Y112587D01*
X-605313Y112840D01*
X-594391Y123762D01*
X-594171Y123915D01*
X-593876Y123985D01*
X-593577Y123934D01*
X-593322Y123770D01*
X-593150Y123520D01*
X-593090Y123223D01*
X-593090Y104912D01*
X-591737Y101644D01*
X-589236Y99143D01*
X-585968Y97790D01*
X-582432Y97790D01*
X-579164Y99143D01*
X-576663Y101644D01*
X-575310Y104912D01*
X-575310Y123477D01*
X-575254Y123763D01*
X-575087Y124016D01*
X-566865Y132238D01*
X-566623Y132401D01*
X-566326Y132461D01*
X-522699Y132461D01*
X-522413Y132405D01*
X-522160Y132238D01*
X-442912Y52990D01*
X-442759Y52770D01*
X-442689Y52475D01*
X-442740Y52176D01*
X-442904Y51921D01*
X-443154Y51749D01*
X-443451Y51689D01*
X-553626Y51689D01*
X-553912Y51745D01*
X-554165Y51912D01*
X-560642Y58389D01*
X-560795Y58609D01*
X-560865Y58904D01*
X-560814Y59203D01*
X-560650Y59458D01*
X-560400Y59630D01*
X-560103Y59690D01*
X-557032Y59690D01*
X-553764Y61043D01*
X-551263Y63544D01*
X-549910Y66812D01*
X-549910Y85588D01*
X-551263Y88856D01*
X-553764Y91357D01*
X-557032Y92710D01*
X-560568Y92710D01*
X-563836Y91357D01*
X-566337Y88856D01*
X-567690Y85588D01*
X-567690Y67277D01*
X-567737Y67014D01*
X-567896Y66756D01*
X-568144Y66580D01*
X-568440Y66515D01*
X-568738Y66571D01*
X-568991Y66738D01*
X-575087Y72834D01*
X-575250Y73076D01*
X-575310Y73373D01*
X-575310Y85588D01*
X-576663Y88856D01*
X-579164Y91357D01*
X-582432Y92710D01*
X-585968Y92710D01*
X-589236Y91357D01*
X-591737Y88856D01*
X-593090Y85588D01*
X-593090Y66812D01*
X-591737Y63544D01*
X-589236Y61043D01*
X-585968Y59690D01*
X-582432Y59690D01*
X-579164Y61043D01*
X-577516Y62691D01*
X-577286Y62849D01*
X-576990Y62914D01*
X-576692Y62859D01*
X-576439Y62691D01*
X-557308Y43561D01*
X-446499Y43561D01*
X-446213Y43505D01*
X-445960Y43338D01*
X-376333Y-26289D01*
X153576Y-26289D01*
X153862Y-26345D01*
X154115Y-26512D01*
X166592Y-38989D01*
X168129Y-38989D01*
X168404Y-39040D01*
X168659Y-39204D01*
X168831Y-39454D01*
X168891Y-39751D01*
X168891Y-46453D01*
X169635Y-47197D01*
X194607Y-47197D01*
X195351Y-46453D01*
X195351Y-32962D01*
X195407Y-32676D01*
X195574Y-32423D01*
X201485Y-26512D01*
X201727Y-26349D01*
X202024Y-26289D01*
X255176Y-26289D01*
X255462Y-26345D01*
X255715Y-26512D01*
X270268Y-41065D01*
X270431Y-41307D01*
X270491Y-41604D01*
X270491Y-46453D01*
X271235Y-47197D01*
X296207Y-47197D01*
X296951Y-46453D01*
X296951Y-29747D01*
X296207Y-29004D01*
X271235Y-29004D01*
X271007Y-29232D01*
X270776Y-29390D01*
X270480Y-29455D01*
X270182Y-29399D01*
X269929Y-29232D01*
X258858Y-18161D01*
X198342Y-18161D01*
X187722Y-28780D01*
X187481Y-28943D01*
X187184Y-29004D01*
X169635Y-29004D01*
X169407Y-29232D01*
X169176Y-29390D01*
X168880Y-29455D01*
X168582Y-29399D01*
X168329Y-29232D01*
X157258Y-18161D01*
X-372651Y-18161D01*
X-372937Y-18105D01*
X-373190Y-17938D01*
X-382588Y-8540D01*
X-382741Y-8320D01*
X-382811Y-8025D01*
X-382760Y-7726D01*
X-382596Y-7471D01*
X-382346Y-7299D01*
X-382049Y-7239D01*
X324899Y-7239D01*
X325162Y-7286D01*
X325420Y-7445D01*
X325596Y-7693D01*
X325661Y-7989D01*
X325605Y-8287D01*
X325438Y-8540D01*
X322961Y-11017D01*
X322961Y-28242D01*
X322910Y-28516D01*
X322746Y-28772D01*
X322496Y-28943D01*
X322199Y-29004D01*
X313393Y-29004D01*
X312649Y-29747D01*
X312649Y-46453D01*
X313393Y-47197D01*
X338365Y-47197D01*
X339109Y-46453D01*
X339109Y-29747D01*
X338365Y-29004D01*
X331851Y-29004D01*
X331576Y-28952D01*
X331321Y-28789D01*
X331149Y-28539D01*
X331089Y-28242D01*
X331089Y-11017D01*
X328612Y-8540D01*
X328459Y-8320D01*
X328389Y-8025D01*
X328440Y-7726D01*
X328604Y-7471D01*
X328854Y-7299D01*
X329151Y-7239D01*
X423324Y-7239D01*
X423587Y-7286D01*
X423845Y-7445D01*
X424021Y-7693D01*
X424086Y-7989D01*
X424030Y-8287D01*
X423863Y-8540D01*
X421386Y-11017D01*
X421386Y-28242D01*
X421335Y-28516D01*
X421171Y-28772D01*
X420921Y-28943D01*
X420624Y-29004D01*
X410935Y-29004D01*
X410191Y-29747D01*
X410191Y-46453D01*
X410935Y-47197D01*
X435907Y-47197D01*
X436651Y-46453D01*
X436651Y-29747D01*
X435907Y-29004D01*
X430276Y-29004D01*
X430001Y-28952D01*
X429746Y-28789D01*
X429574Y-28539D01*
X429514Y-28242D01*
X429514Y-11017D01*
X427037Y-8540D01*
X426884Y-8320D01*
X426814Y-8025D01*
X426865Y-7726D01*
X427029Y-7471D01*
X427279Y-7299D01*
X427576Y-7239D01*
X509683Y-7239D01*
X544037Y27115D01*
X544257Y27268D01*
X544552Y27338D01*
X544851Y27287D01*
X545106Y27123D01*
X545278Y26873D01*
X545338Y26576D01*
X545338Y23935D01*
X546459Y21227D01*
X548531Y19155D01*
X551091Y18095D01*
X551329Y17939D01*
X551501Y17689D01*
X551561Y17391D01*
X551561Y-28242D01*
X551510Y-28516D01*
X551346Y-28772D01*
X551096Y-28943D01*
X550799Y-29004D01*
X541993Y-29004D01*
X541249Y-29747D01*
X541249Y-46453D01*
X541993Y-47197D01*
X566965Y-47197D01*
X567709Y-46453D01*
X567709Y-29747D01*
X566965Y-29004D01*
X560451Y-29004D01*
X560176Y-28952D01*
X559921Y-28789D01*
X559749Y-28539D01*
X559689Y-28242D01*
X559689Y17272D01*
X559740Y17547D01*
X559904Y17802D01*
X560154Y17974D01*
X560451Y18034D01*
X566361Y18034D01*
X569069Y19155D01*
X571141Y21227D01*
X572320Y24075D01*
X572460Y24296D01*
X572705Y24475D01*
X573000Y24545D01*
X573299Y24494D01*
X573554Y24331D01*
X573726Y24080D01*
X573786Y23783D01*
X573786Y-119158D01*
X593207Y-138579D01*
X593370Y-138821D01*
X593430Y-139118D01*
X593430Y-141504D01*
X594811Y-144838D01*
X597362Y-147389D01*
X600696Y-148770D01*
X604304Y-148770D01*
X607638Y-147389D01*
X610189Y-144838D01*
X611570Y-141504D01*
X611570Y-137896D01*
X610189Y-134562D01*
X607638Y-132011D01*
X604304Y-130630D01*
X600696Y-130630D01*
X598378Y-131590D01*
X598098Y-131648D01*
X597800Y-131593D01*
X597547Y-131425D01*
X582137Y-116015D01*
X581974Y-115773D01*
X581914Y-115476D01*
X581914Y100108D01*
X579533Y102489D01*
X576674Y102489D01*
X576388Y102545D01*
X576135Y102712D01*
X574918Y103929D01*
X574765Y104149D01*
X574695Y104444D01*
X574746Y104743D01*
X574910Y104998D01*
X575160Y105170D01*
X575457Y105230D01*
X578904Y105230D01*
X582238Y106611D01*
X584789Y109162D01*
X586170Y112496D01*
X586170Y116104D01*
X584789Y119438D01*
X582238Y121989D01*
X578904Y123370D01*
X575296Y123370D01*
X571962Y121989D01*
X570515Y120542D01*
X570295Y120389D01*
X570000Y120319D01*
X569701Y120370D01*
X569446Y120533D01*
X569274Y120783D01*
X569214Y121081D01*
X569214Y141383D01*
X566833Y143764D01*
X458883Y143764D01*
X458608Y143815D01*
X458352Y143979D01*
X458181Y144229D01*
X458121Y144526D01*
X458121Y145269D01*
X458089Y145424D01*
X458089Y169799D01*
X458140Y170074D01*
X458304Y170329D01*
X458554Y170501D01*
X458851Y170561D01*
X464821Y170561D01*
X465107Y170505D01*
X465295Y170381D01*
X468556Y169030D01*
X472044Y169030D01*
X475268Y170365D01*
X477735Y172832D01*
X479070Y176056D01*
X479070Y179544D01*
X477735Y182768D01*
X475268Y185235D01*
X472044Y186570D01*
X468556Y186570D01*
X465332Y185235D01*
X462865Y182768D01*
X461530Y179544D01*
X461530Y179451D01*
X461479Y179176D01*
X461315Y178921D01*
X461065Y178749D01*
X460768Y178689D01*
X452342Y178689D01*
X449961Y176308D01*
X449961Y146583D01*
X449910Y146308D01*
X449746Y146053D01*
X449496Y145881D01*
X449199Y145821D01*
X447115Y145821D01*
X446372Y145077D01*
X446372Y134323D01*
X447115Y133579D01*
X457377Y133579D01*
X458121Y134323D01*
X458121Y134874D01*
X458172Y135149D01*
X458335Y135404D01*
X458585Y135576D01*
X458883Y135636D01*
X560324Y135636D01*
X560599Y135585D01*
X560854Y135421D01*
X561026Y135171D01*
X561086Y134874D01*
X561086Y119172D01*
X561041Y118914D01*
X560884Y118655D01*
X560638Y118478D01*
X560342Y118410D01*
X560044Y118464D01*
X559790Y118629D01*
X559620Y118880D01*
X559389Y119438D01*
X556838Y121989D01*
X553504Y123370D01*
X549896Y123370D01*
X546562Y121989D01*
X544011Y119438D01*
X542630Y116104D01*
X542630Y112496D01*
X544011Y109162D01*
X546562Y106611D01*
X549896Y105230D01*
X553504Y105230D01*
X556838Y106611D01*
X559389Y109162D01*
X559620Y109720D01*
X559760Y109940D01*
X560005Y110120D01*
X560300Y110190D01*
X560599Y110139D01*
X560854Y109975D01*
X561026Y109725D01*
X561086Y109428D01*
X561086Y106267D01*
X572992Y94361D01*
X573024Y94361D01*
X573299Y94310D01*
X573554Y94146D01*
X573726Y93896D01*
X573786Y93599D01*
X573786Y52417D01*
X573741Y52159D01*
X573584Y51900D01*
X573338Y51722D01*
X573042Y51655D01*
X572744Y51708D01*
X572490Y51874D01*
X572320Y52125D01*
X571141Y54973D01*
X569069Y57045D01*
X566361Y58166D01*
X551239Y58166D01*
X548531Y57045D01*
X546459Y54973D01*
X545338Y52265D01*
X545338Y49335D01*
X546459Y46627D01*
X548531Y44555D01*
X550766Y43630D01*
X550986Y43490D01*
X551166Y43245D01*
X551236Y42950D01*
X551185Y42651D01*
X551021Y42396D01*
X550771Y42224D01*
X550474Y42164D01*
X547592Y42164D01*
X538892Y33464D01*
X538672Y33311D01*
X538377Y33241D01*
X538078Y33292D01*
X537823Y33456D01*
X537651Y33706D01*
X537591Y34003D01*
X537591Y37338D01*
X530657Y37338D01*
X530657Y28459D01*
X532047Y28459D01*
X532310Y28412D01*
X532568Y28253D01*
X532744Y28005D01*
X532809Y27709D01*
X532753Y27411D01*
X532586Y27158D01*
X506540Y1112D01*
X506298Y949D01*
X506001Y889D01*
X-20771Y889D01*
X-21029Y934D01*
X-21288Y1091D01*
X-21466Y1337D01*
X-21533Y1633D01*
X-21480Y1931D01*
X-21314Y2186D01*
X-21063Y2355D01*
X-20508Y2585D01*
X-18079Y5014D01*
X-16764Y8188D01*
X-16764Y15240D01*
X-34036Y15240D01*
X-34036Y8188D01*
X-32721Y5014D01*
X-30292Y2585D01*
X-29737Y2355D01*
X-29516Y2215D01*
X-29337Y1970D01*
X-29267Y1675D01*
X-29318Y1376D01*
X-29482Y1121D01*
X-29732Y949D01*
X-30029Y889D01*
X-293149Y889D01*
X-293412Y936D01*
X-293670Y1095D01*
X-293846Y1343D01*
X-293911Y1639D01*
X-293855Y1937D01*
X-293688Y2190D01*
X-227140Y68738D01*
X-226898Y68901D01*
X-226601Y68961D01*
X-110076Y68961D01*
X-109813Y68914D01*
X-109555Y68755D01*
X-109379Y68507D01*
X-109314Y68211D01*
X-109370Y67913D01*
X-109537Y67660D01*
X-148311Y28886D01*
X-148547Y28726D01*
X-148844Y28663D01*
X-149141Y28721D01*
X-150935Y29464D01*
X-153865Y29464D01*
X-156573Y28343D01*
X-158645Y26271D01*
X-159766Y23563D01*
X-159766Y8441D01*
X-158645Y5733D01*
X-156573Y3661D01*
X-153865Y2540D01*
X-150935Y2540D01*
X-148227Y3661D01*
X-146155Y5733D01*
X-145034Y8441D01*
X-145034Y20353D01*
X-144978Y20639D01*
X-144811Y20892D01*
X-106490Y59213D01*
X-106248Y59376D01*
X-105951Y59436D01*
X131374Y59436D01*
X131632Y59391D01*
X131891Y59234D01*
X132068Y58988D01*
X132136Y58692D01*
X132083Y58394D01*
X131917Y58140D01*
X131666Y57970D01*
X129431Y57045D01*
X127359Y54973D01*
X126238Y52265D01*
X126238Y49335D01*
X127359Y46627D01*
X129431Y44555D01*
X132139Y43434D01*
X147261Y43434D01*
X149969Y44555D01*
X152041Y46627D01*
X153162Y49335D01*
X153162Y52265D01*
X152041Y54973D01*
X149969Y57045D01*
X147734Y57970D01*
X147514Y58110D01*
X147334Y58355D01*
X147264Y58650D01*
X147315Y58949D01*
X147479Y59204D01*
X147729Y59376D01*
X148026Y59436D01*
X207574Y59436D01*
X207832Y59391D01*
X208091Y59234D01*
X208268Y58988D01*
X208336Y58692D01*
X208283Y58394D01*
X208117Y58140D01*
X207866Y57970D01*
X205631Y57045D01*
X203559Y54973D01*
X202438Y52265D01*
X202438Y49335D01*
X203559Y46627D01*
X205631Y44555D01*
X208339Y43434D01*
X223461Y43434D01*
X226169Y44555D01*
X228241Y46627D01*
X229362Y49335D01*
X229362Y52265D01*
X228241Y54973D01*
X226169Y57045D01*
X223934Y57970D01*
X223714Y58110D01*
X223534Y58355D01*
X223464Y58650D01*
X223515Y58949D01*
X223679Y59204D01*
X223929Y59376D01*
X224226Y59436D01*
X226601Y59436D01*
X226887Y59380D01*
X227140Y59213D01*
X239617Y46736D01*
X241235Y46736D01*
X241521Y46680D01*
X241774Y46513D01*
X243731Y44555D01*
X246439Y43434D01*
X261561Y43434D01*
X264269Y44555D01*
X266341Y46627D01*
X267462Y49335D01*
X267462Y52265D01*
X266341Y54973D01*
X264269Y57045D01*
X261561Y58166D01*
X246439Y58166D01*
X243731Y57045D01*
X242806Y56119D01*
X242575Y55961D01*
X242279Y55896D01*
X241981Y55952D01*
X241728Y56119D01*
X230187Y67660D01*
X230034Y67880D01*
X229964Y68175D01*
X230015Y68474D01*
X230179Y68729D01*
X230429Y68901D01*
X230726Y68961D01*
X325374Y68961D01*
X325649Y68910D01*
X325904Y68746D01*
X326076Y68496D01*
X326136Y68199D01*
X326136Y58928D01*
X326085Y58653D01*
X325921Y58398D01*
X325671Y58226D01*
X325374Y58166D01*
X322639Y58166D01*
X319931Y57045D01*
X317859Y54973D01*
X316738Y52265D01*
X316738Y49335D01*
X317859Y46627D01*
X319931Y44555D01*
X322639Y43434D01*
X337761Y43434D01*
X340469Y44555D01*
X342541Y46627D01*
X343662Y49335D01*
X343662Y52265D01*
X342541Y54973D01*
X340469Y57045D01*
X337761Y58166D01*
X335026Y58166D01*
X334751Y58217D01*
X334496Y58381D01*
X334324Y58631D01*
X334264Y58928D01*
X334264Y74708D01*
X331883Y77089D01*
X59578Y77089D01*
X59315Y77136D01*
X59057Y77295D01*
X58881Y77543D01*
X58816Y77839D01*
X58872Y78137D01*
X59039Y78390D01*
X59947Y79297D01*
X59947Y84074D01*
X59998Y84349D01*
X60162Y84604D01*
X60412Y84776D01*
X60709Y84836D01*
X66809Y84836D01*
X67084Y84785D01*
X67339Y84621D01*
X67511Y84371D01*
X67571Y84074D01*
X67571Y79815D01*
X68315Y79071D01*
X78985Y79071D01*
X79729Y79815D01*
X79729Y97985D01*
X78985Y98729D01*
X68315Y98729D01*
X67571Y97985D01*
X67571Y93726D01*
X67520Y93451D01*
X67356Y93196D01*
X67106Y93024D01*
X66809Y92964D01*
X60709Y92964D01*
X60434Y93015D01*
X60179Y93179D01*
X60007Y93429D01*
X59947Y93726D01*
X59947Y98503D01*
X59039Y99410D01*
X58886Y99630D01*
X58817Y99925D01*
X58867Y100224D01*
X59031Y100479D01*
X59281Y100651D01*
X59578Y100711D01*
X131351Y100711D01*
X131637Y100655D01*
X131890Y100488D01*
X138113Y94265D01*
X138266Y94045D01*
X138336Y93750D01*
X138285Y93451D01*
X138121Y93196D01*
X137871Y93024D01*
X137574Y92964D01*
X110991Y92964D01*
X110716Y93015D01*
X110461Y93179D01*
X110289Y93429D01*
X110229Y93726D01*
X110229Y97985D01*
X109485Y98729D01*
X98815Y98729D01*
X98071Y97985D01*
X98071Y79815D01*
X98815Y79071D01*
X109485Y79071D01*
X110229Y79815D01*
X110229Y84074D01*
X110280Y84349D01*
X110444Y84604D01*
X110694Y84776D01*
X110991Y84836D01*
X427133Y84836D01*
X447392Y105095D01*
X447629Y105256D01*
X447925Y105318D01*
X448223Y105260D01*
X448296Y105230D01*
X451904Y105230D01*
X455238Y106611D01*
X457789Y109162D01*
X459170Y112496D01*
X459170Y116104D01*
X457789Y119438D01*
X455238Y121989D01*
X451904Y123370D01*
X448296Y123370D01*
X444962Y121989D01*
X442411Y119438D01*
X441030Y116104D01*
X441030Y112496D01*
X441500Y111362D01*
X441558Y111083D01*
X441502Y110785D01*
X441334Y110532D01*
X423990Y93187D01*
X423748Y93024D01*
X423451Y92964D01*
X335501Y92964D01*
X335238Y93011D01*
X334980Y93170D01*
X334804Y93418D01*
X334739Y93714D01*
X334795Y94012D01*
X334962Y94265D01*
X345792Y105095D01*
X346029Y105256D01*
X346325Y105318D01*
X346623Y105260D01*
X346696Y105230D01*
X350304Y105230D01*
X353638Y106611D01*
X356189Y109162D01*
X357570Y112496D01*
X357570Y116104D01*
X356189Y119438D01*
X353638Y121989D01*
X350304Y123370D01*
X346696Y123370D01*
X343362Y121989D01*
X340811Y119438D01*
X339430Y116104D01*
X339430Y112496D01*
X339900Y111362D01*
X339958Y111083D01*
X339902Y110785D01*
X339734Y110532D01*
X331915Y102712D01*
X331673Y102549D01*
X331376Y102489D01*
X300036Y102489D01*
X299779Y102534D01*
X299519Y102691D01*
X299342Y102937D01*
X299275Y103233D01*
X299328Y103531D01*
X299493Y103786D01*
X299745Y103955D01*
X303557Y105534D01*
X306466Y108443D01*
X308040Y112243D01*
X308040Y113538D01*
X287360Y113538D01*
X287360Y112243D01*
X288934Y108443D01*
X291843Y105534D01*
X295655Y103955D01*
X295876Y103815D01*
X296056Y103570D01*
X296125Y103275D01*
X296075Y102976D01*
X295911Y102721D01*
X295661Y102549D01*
X295364Y102489D01*
X147636Y102489D01*
X147379Y102534D01*
X147119Y102691D01*
X146942Y102937D01*
X146875Y103233D01*
X146928Y103531D01*
X147093Y103786D01*
X147345Y103955D01*
X151157Y105534D01*
X154066Y108443D01*
X155640Y112243D01*
X155640Y113538D01*
X134960Y113538D01*
X134960Y112243D01*
X135934Y109893D01*
X135991Y109625D01*
X135940Y109326D01*
X135777Y109071D01*
X135527Y108899D01*
X135230Y108839D01*
X40099Y108839D01*
X39813Y108895D01*
X39560Y109062D01*
X-117407Y266029D01*
X-117570Y266271D01*
X-117630Y266568D01*
X-117630Y268444D01*
X-118965Y271668D01*
X-121432Y274135D01*
X-124656Y275470D01*
X-128144Y275470D01*
X-131368Y274135D01*
X-133835Y271668D01*
X-135170Y268444D01*
X-135170Y264956D01*
X-133835Y261732D01*
X-131368Y259265D01*
X-128144Y257930D01*
X-124656Y257930D01*
X-122401Y258864D01*
X-122122Y258922D01*
X-121824Y258866D01*
X-121571Y258699D01*
X-50743Y187871D01*
X-50590Y187651D01*
X-50520Y187356D01*
X-50571Y187057D01*
X-50735Y186802D01*
X-50985Y186630D01*
X-51282Y186570D01*
X-53144Y186570D01*
X-56368Y185235D01*
X-58835Y182768D01*
X-60170Y179544D01*
X-60170Y176056D01*
X-58835Y172832D01*
X-56368Y170365D01*
X-53144Y169030D01*
X-49656Y169030D01*
X-46432Y170365D01*
X-43965Y172832D01*
X-42630Y176056D01*
X-42630Y177918D01*
X-42583Y178181D01*
X-42424Y178439D01*
X-42176Y178615D01*
X-41880Y178680D01*
X-41582Y178624D01*
X-41329Y178457D01*
X36417Y100711D01*
X46130Y100711D01*
X46393Y100664D01*
X46651Y100505D01*
X46827Y100257D01*
X46892Y99961D01*
X46836Y99663D01*
X46669Y99410D01*
X45761Y98503D01*
X45761Y79297D01*
X46669Y78390D01*
X46822Y78170D01*
X46891Y77875D01*
X46841Y77576D01*
X46677Y77321D01*
X46427Y77149D01*
X46130Y77089D01*
X31866Y77089D01*
X31603Y77136D01*
X31345Y77295D01*
X31169Y77543D01*
X31104Y77839D01*
X31160Y78137D01*
X31327Y78390D01*
X31709Y78771D01*
X31709Y88138D01*
X14983Y88138D01*
X14983Y78771D01*
X15365Y78390D01*
X15518Y78170D01*
X15587Y77875D01*
X15537Y77576D01*
X15373Y77321D01*
X15123Y77149D01*
X14826Y77089D01*
X-230283Y77089D01*
X-283408Y23964D01*
X-283628Y23811D01*
X-283923Y23741D01*
X-284222Y23792D01*
X-284477Y23956D01*
X-284649Y24206D01*
X-284709Y24503D01*
X-284709Y29592D01*
X-291338Y29592D01*
X-291338Y23210D01*
X-286003Y23210D01*
X-285739Y23163D01*
X-285481Y23003D01*
X-285306Y22756D01*
X-285241Y22460D01*
X-285296Y22162D01*
X-285464Y21909D01*
X-296735Y10637D01*
X-296977Y10474D01*
X-297274Y10414D01*
X-388526Y10414D01*
X-388812Y10470D01*
X-389065Y10637D01*
X-519017Y140589D01*
X-569374Y140589D01*
X-569637Y140636D01*
X-569895Y140795D01*
X-570071Y141043D01*
X-570136Y141339D01*
X-570080Y141637D01*
X-569913Y141890D01*
X-560515Y151288D01*
X-560273Y151451D01*
X-559976Y151511D01*
X-535526Y151511D01*
X-535263Y151464D01*
X-535005Y151305D01*
X-534829Y151057D01*
X-534764Y150761D01*
X-534820Y150463D01*
X-534987Y150210D01*
X-536194Y149003D01*
X-536194Y145637D01*
X-533813Y143256D01*
X-413606Y143256D01*
X-413343Y143209D01*
X-413085Y143050D01*
X-412909Y142802D01*
X-412844Y142506D01*
X-412900Y142208D01*
X-413067Y141955D01*
X-416814Y138208D01*
X-416814Y99917D01*
X-408083Y91186D01*
X-401542Y91186D01*
X-398221Y94507D01*
X-397979Y94670D01*
X-397682Y94730D01*
X-390079Y94730D01*
X-389335Y95474D01*
X-389335Y101362D01*
X-389279Y101648D01*
X-389112Y101901D01*
X-388065Y102948D01*
X-388065Y106238D01*
X-398742Y106238D01*
X-398742Y107762D01*
X-388065Y107762D01*
X-388065Y109474D01*
X-388014Y109749D01*
X-387850Y110004D01*
X-387600Y110176D01*
X-387303Y110236D01*
X-369792Y110236D01*
X-324436Y155592D01*
X-324216Y155745D01*
X-323921Y155815D01*
X-323622Y155764D01*
X-323516Y155696D01*
X-323516Y155762D01*
X-303305Y155762D01*
X-303305Y159193D01*
X-303258Y159456D01*
X-303099Y159714D01*
X-302851Y159890D01*
X-302555Y159955D01*
X-302257Y159899D01*
X-302004Y159732D01*
X-265208Y122936D01*
X-265205Y122936D01*
X-264942Y122889D01*
X-264684Y122730D01*
X-264508Y122482D01*
X-264443Y122186D01*
X-264499Y121888D01*
X-264666Y121635D01*
X-266099Y120203D01*
X-266099Y115062D01*
X-259716Y115062D01*
X-259716Y121691D01*
X-261247Y121691D01*
X-261510Y121738D01*
X-261768Y121897D01*
X-261944Y122145D01*
X-262009Y122441D01*
X-261953Y122739D01*
X-261786Y122992D01*
X-259461Y125317D01*
X-259461Y128683D01*
X-299942Y169164D01*
X-322199Y169164D01*
X-322474Y169215D01*
X-322729Y169379D01*
X-322901Y169629D01*
X-322961Y169926D01*
X-322961Y169958D01*
X-323107Y170104D01*
X-323270Y170346D01*
X-323330Y170643D01*
X-323330Y177281D01*
X-324074Y178025D01*
X-331156Y178025D01*
X-331292Y177932D01*
X-331588Y177867D01*
X-331886Y177922D01*
X-332041Y178025D01*
X-339156Y178025D01*
X-339292Y177932D01*
X-339588Y177867D01*
X-339886Y177922D01*
X-340041Y178025D01*
X-345962Y178025D01*
X-346248Y178081D01*
X-346501Y178248D01*
X-347548Y179295D01*
X-350838Y179295D01*
X-350838Y159465D01*
X-347548Y159465D01*
X-346501Y160512D01*
X-346260Y160675D01*
X-345962Y160735D01*
X-340044Y160735D01*
X-339908Y160828D01*
X-339612Y160893D01*
X-339314Y160838D01*
X-339159Y160735D01*
X-332627Y160735D01*
X-332364Y160688D01*
X-332106Y160529D01*
X-331930Y160281D01*
X-331865Y159985D01*
X-331921Y159687D01*
X-332088Y159434D01*
X-372935Y118587D01*
X-373177Y118424D01*
X-373474Y118364D01*
X-388605Y118364D01*
X-388869Y118411D01*
X-389127Y118570D01*
X-389302Y118818D01*
X-389367Y119114D01*
X-389335Y119287D01*
X-389335Y126556D01*
X-389428Y126692D01*
X-389493Y126988D01*
X-389438Y127286D01*
X-389335Y127441D01*
X-389335Y134556D01*
X-389428Y134692D01*
X-389493Y134988D01*
X-389438Y135286D01*
X-389335Y135441D01*
X-389335Y142556D01*
X-389428Y142692D01*
X-389493Y142988D01*
X-389438Y143286D01*
X-389335Y143441D01*
X-389335Y150556D01*
X-389428Y150692D01*
X-389493Y150988D01*
X-389438Y151286D01*
X-389335Y151441D01*
X-389335Y158526D01*
X-390079Y159270D01*
X-397682Y159270D01*
X-397968Y159326D01*
X-398221Y159493D01*
X-398367Y159639D01*
X-399392Y159639D01*
X-399596Y159667D01*
X-400584Y159941D01*
X-400945Y159738D01*
X-401320Y159639D01*
X-563719Y159639D01*
X-563982Y159686D01*
X-564240Y159845D01*
X-564416Y160093D01*
X-564481Y160389D01*
X-564425Y160687D01*
X-564258Y160940D01*
X-564065Y161132D01*
X-562730Y164356D01*
X-562730Y167844D01*
X-564065Y171068D01*
X-566532Y173535D01*
X-569756Y174870D01*
X-573244Y174870D01*
X-576468Y173535D01*
X-578935Y171068D01*
X-580270Y167844D01*
X-580270Y164356D01*
X-578935Y161132D01*
X-576468Y158665D01*
X-573244Y157330D01*
X-569756Y157330D01*
X-566828Y158543D01*
X-566573Y158600D01*
X-566273Y158554D01*
X-566015Y158394D01*
X-565840Y158147D01*
X-565774Y157851D01*
X-565830Y157553D01*
X-565998Y157300D01*
X-582485Y140812D01*
X-582727Y140649D01*
X-583024Y140589D01*
X-589058Y140589D01*
X-613664Y115983D01*
X-613664Y-90583D01*
X-611283Y-92964D01*
X-591838Y-92964D01*
X-591552Y-93020D01*
X-591299Y-93187D01*
X-589720Y-94767D01*
X-587176Y-95820D01*
X-584424Y-95820D01*
X-581880Y-94767D01*
X-579934Y-92820D01*
X-578880Y-90276D01*
X-578880Y-87524D01*
X-579934Y-84980D01*
X-581880Y-83034D01*
X-584424Y-81980D01*
X-587176Y-81980D01*
X-589720Y-83034D01*
X-591299Y-84613D01*
X-591541Y-84776D01*
X-591838Y-84836D01*
X-604774Y-84836D01*
X-605049Y-84785D01*
X-605304Y-84621D01*
X-605476Y-84371D01*
X-605536Y-84074D01*
X-605536Y-24351D01*
X-605489Y-24088D01*
X-605330Y-23830D01*
X-605082Y-23654D01*
X-604786Y-23589D01*
X-604488Y-23645D01*
X-604235Y-23812D01*
X-579533Y-48514D01*
X-420592Y-48514D01*
X-418211Y-46133D01*
X-418211Y-42767D01*
X-420688Y-40290D01*
X-420841Y-40070D01*
X-420911Y-39775D01*
X-420860Y-39476D01*
X-420696Y-39221D01*
X-420446Y-39049D01*
X-420149Y-38989D01*
X-1999Y-38989D01*
X-1713Y-39045D01*
X-1460Y-39212D01*
X14192Y-54864D01*
X20950Y-54864D01*
X21207Y-54909D01*
X21467Y-55066D01*
X21644Y-55312D01*
X21712Y-55608D01*
X21658Y-55906D01*
X21493Y-56161D01*
X21241Y-56330D01*
X20432Y-56665D01*
X17965Y-59132D01*
X16630Y-62356D01*
X16630Y-65024D01*
X16579Y-65299D01*
X16415Y-65554D01*
X16165Y-65726D01*
X15868Y-65786D01*
X-30258Y-65786D01*
X-32639Y-68167D01*
X-32639Y-79767D01*
X-32690Y-80042D01*
X-32854Y-80297D01*
X-33104Y-80469D01*
X-33401Y-80529D01*
X-34587Y-80529D01*
X-35331Y-81273D01*
X-35331Y-96527D01*
X-34955Y-96903D01*
X-34797Y-97134D01*
X-34732Y-97430D01*
X-34787Y-97728D01*
X-34955Y-97981D01*
X-35331Y-98357D01*
X-35331Y-160282D01*
X-35378Y-160545D01*
X-35537Y-160803D01*
X-35785Y-160979D01*
X-36081Y-161044D01*
X-36379Y-160988D01*
X-36632Y-160821D01*
X-40646Y-156807D01*
X-40809Y-156565D01*
X-40869Y-156268D01*
X-40869Y-98357D01*
X-41245Y-97981D01*
X-41403Y-97750D01*
X-41468Y-97454D01*
X-41413Y-97156D01*
X-41245Y-96903D01*
X-40869Y-96527D01*
X-40869Y-81273D01*
X-41783Y-80358D01*
X-41941Y-80128D01*
X-42007Y-79832D01*
X-41951Y-79534D01*
X-41783Y-79281D01*
X-40386Y-77883D01*
X-40386Y-74517D01*
X-42767Y-72136D01*
X-46133Y-72136D01*
X-51689Y-77692D01*
X-51689Y-79767D01*
X-51740Y-80042D01*
X-51904Y-80297D01*
X-52154Y-80469D01*
X-52451Y-80529D01*
X-52977Y-80529D01*
X-53721Y-81273D01*
X-53721Y-84074D01*
X-53772Y-84349D01*
X-53936Y-84604D01*
X-54186Y-84776D01*
X-54483Y-84836D01*
X-123317Y-84836D01*
X-123592Y-84785D01*
X-123847Y-84621D01*
X-124019Y-84371D01*
X-124079Y-84074D01*
X-124079Y-81273D01*
X-124823Y-80529D01*
X-136187Y-80529D01*
X-136931Y-81273D01*
X-136931Y-142943D01*
X-136555Y-143319D01*
X-136397Y-143550D01*
X-136332Y-143846D01*
X-136387Y-144144D01*
X-136555Y-144397D01*
X-136931Y-144773D01*
X-136931Y-160027D01*
X-136187Y-160771D01*
X-124823Y-160771D01*
X-124079Y-160027D01*
X-124079Y-157226D01*
X-124028Y-156951D01*
X-123864Y-156696D01*
X-123614Y-156524D01*
X-123317Y-156464D01*
X-54483Y-156464D01*
X-54208Y-156515D01*
X-53953Y-156679D01*
X-53781Y-156929D01*
X-53721Y-157226D01*
X-53721Y-160027D01*
X-52977Y-160771D01*
X-48492Y-160771D01*
X-48206Y-160827D01*
X-47953Y-160994D01*
X-27083Y-181864D01*
X411258Y-181864D01*
X413639Y-179483D01*
X413639Y-176117D01*
X411258Y-173736D01*
X34400Y-173736D01*
X34136Y-173689D01*
X33878Y-173530D01*
X33703Y-173282D01*
X33638Y-172986D01*
X33693Y-172688D01*
X33861Y-172435D01*
X34170Y-172126D01*
X34170Y-156074D01*
X33426Y-155330D01*
X17374Y-155330D01*
X16630Y-156074D01*
X16630Y-157099D01*
X16579Y-157374D01*
X16415Y-157629D01*
X16165Y-157801D01*
X15868Y-157861D01*
X-17051Y-157861D01*
X-17337Y-157805D01*
X-17590Y-157638D01*
X-22256Y-152972D01*
X-22419Y-152730D01*
X-22479Y-152433D01*
X-22479Y-144526D01*
X-22428Y-144251D01*
X-22264Y-143996D01*
X-22014Y-143824D01*
X-21717Y-143764D01*
X17346Y-143764D01*
X17632Y-143820D01*
X17885Y-143987D01*
X20432Y-146535D01*
X23656Y-147870D01*
X27144Y-147870D01*
X30368Y-146535D01*
X32835Y-144068D01*
X34170Y-140844D01*
X34170Y-137356D01*
X32835Y-134132D01*
X31067Y-132365D01*
X30914Y-132145D01*
X30845Y-131850D01*
X30896Y-131551D01*
X31059Y-131296D01*
X31309Y-131124D01*
X31606Y-131064D01*
X33433Y-131064D01*
X36385Y-128112D01*
X36627Y-127949D01*
X36924Y-127889D01*
X379001Y-127889D01*
X379287Y-127945D01*
X379540Y-128112D01*
X390007Y-138579D01*
X390170Y-138821D01*
X390230Y-139118D01*
X390230Y-141504D01*
X391611Y-144838D01*
X393808Y-147035D01*
X393961Y-147255D01*
X394031Y-147550D01*
X393980Y-147849D01*
X393817Y-148104D01*
X393567Y-148276D01*
X393269Y-148336D01*
X392524Y-148336D01*
X392238Y-148280D01*
X391985Y-148113D01*
X383193Y-139321D01*
X383030Y-139079D01*
X382970Y-138782D01*
X382970Y-137896D01*
X381589Y-134562D01*
X379038Y-132011D01*
X375704Y-130630D01*
X372096Y-130630D01*
X368762Y-132011D01*
X366211Y-134562D01*
X364830Y-137896D01*
X364830Y-141504D01*
X366211Y-144838D01*
X368762Y-147389D01*
X372096Y-148770D01*
X375704Y-148770D01*
X379083Y-147370D01*
X379362Y-147313D01*
X379660Y-147368D01*
X379913Y-147536D01*
X388842Y-156464D01*
X417101Y-156464D01*
X417387Y-156520D01*
X417640Y-156687D01*
X486544Y-225592D01*
X486705Y-225828D01*
X486768Y-226124D01*
X486710Y-226422D01*
X486530Y-226856D01*
X486530Y-230344D01*
X487865Y-233568D01*
X490332Y-236035D01*
X493556Y-237370D01*
G37*
G36*
X-78144Y257930D02*
X-74656Y257930D01*
X-71432Y259265D01*
X-68965Y261732D01*
X-67630Y264956D01*
X-67630Y268444D01*
X-68965Y271668D01*
X-71432Y274135D01*
X-74656Y275470D01*
X-78144Y275470D01*
X-81368Y274135D01*
X-83835Y271668D01*
X-85170Y268444D01*
X-85170Y264956D01*
X-83835Y261732D01*
X-81368Y259265D01*
X-78144Y257930D01*
G37*
G36*
X-103144Y257930D02*
X-99656Y257930D01*
X-96432Y259265D01*
X-93965Y261732D01*
X-92630Y264956D01*
X-92630Y268444D01*
X-93965Y271668D01*
X-96432Y274135D01*
X-99656Y275470D01*
X-103144Y275470D01*
X-106368Y274135D01*
X-108835Y271668D01*
X-110170Y268444D01*
X-110170Y264956D01*
X-108835Y261732D01*
X-106368Y259265D01*
X-103144Y257930D01*
G37*
G36*
X-59952Y256660D02*
X-52162Y256660D01*
X-52162Y265938D01*
X-61440Y265938D01*
X-61440Y258148D01*
X-59952Y256660D01*
G37*
G36*
X520462Y256660D02*
X528252Y256660D01*
X529740Y258148D01*
X529740Y265938D01*
X520462Y265938D01*
X520462Y256660D01*
G37*
G36*
X267462Y256540D02*
X268721Y256540D01*
X272455Y258087D01*
X275313Y260945D01*
X276860Y264679D01*
X276860Y265938D01*
X267462Y265938D01*
X267462Y256540D01*
G37*
G36*
X264679Y256540D02*
X265938Y256540D01*
X265938Y265938D01*
X256540Y265938D01*
X256540Y264679D01*
X258087Y260945D01*
X260945Y258087D01*
X264679Y256540D01*
G37*
G36*
X511148Y256660D02*
X518938Y256660D01*
X518938Y265938D01*
X509660Y265938D01*
X509660Y258148D01*
X511148Y256660D01*
G37*
G36*
X89062Y256660D02*
X96852Y256660D01*
X98340Y258148D01*
X98340Y265938D01*
X89062Y265938D01*
X89062Y256660D01*
G37*
G36*
X79748Y256660D02*
X87538Y256660D01*
X87538Y265938D01*
X78260Y265938D01*
X78260Y258148D01*
X79748Y256660D01*
G37*
G36*
X-50638Y256660D02*
X-42848Y256660D01*
X-41360Y258148D01*
X-41360Y265938D01*
X-50638Y265938D01*
X-50638Y256660D01*
G37*
G36*
X-265885Y248412D02*
X-256482Y248412D01*
X-256482Y253440D01*
X-264397Y253440D01*
X-265885Y251952D01*
X-265885Y248412D01*
G37*
G36*
X-209631Y243130D02*
X-193329Y243130D01*
X-192585Y243874D01*
X-192585Y251426D01*
X-193329Y252170D01*
X-209631Y252170D01*
X-210375Y251426D01*
X-210375Y243874D01*
X-209631Y243130D01*
G37*
G36*
X-573244Y232330D02*
X-569756Y232330D01*
X-566532Y233665D01*
X-564065Y236132D01*
X-562730Y239356D01*
X-562730Y242844D01*
X-564065Y246068D01*
X-566532Y248535D01*
X-569756Y249870D01*
X-573244Y249870D01*
X-576468Y248535D01*
X-578935Y246068D01*
X-580270Y242844D01*
X-580270Y239356D01*
X-578935Y236132D01*
X-576468Y233665D01*
X-573244Y232330D01*
G37*
G36*
X-285303Y241902D02*
X-280162Y241902D01*
X-280162Y248284D01*
X-286791Y248284D01*
X-286791Y243389D01*
X-285303Y241902D01*
G37*
G36*
X-278638Y241902D02*
X-273497Y241902D01*
X-272009Y243389D01*
X-272009Y248284D01*
X-278638Y248284D01*
X-278638Y241902D01*
G37*
G36*
X-254958Y241860D02*
X-247043Y241860D01*
X-245555Y243348D01*
X-245555Y246888D01*
X-254958Y246888D01*
X-254958Y241860D01*
G37*
G36*
X-264397Y241860D02*
X-256482Y241860D01*
X-256482Y246888D01*
X-265885Y246888D01*
X-265885Y243348D01*
X-264397Y241860D01*
G37*
G36*
X-179265Y78740D02*
X-176335Y78740D01*
X-173627Y79861D01*
X-171555Y81933D01*
X-170434Y84641D01*
X-170434Y99763D01*
X-171555Y102471D01*
X-173513Y104428D01*
X-173676Y104670D01*
X-173736Y104967D01*
X-173736Y115983D01*
X-245967Y188214D01*
X-246797Y188214D01*
X-247083Y188270D01*
X-247336Y188437D01*
X-247569Y188670D01*
X-255632Y188670D01*
X-255918Y188726D01*
X-256171Y188893D01*
X-257037Y189759D01*
X-257190Y189979D01*
X-257260Y190274D01*
X-257209Y190573D01*
X-257045Y190828D01*
X-256795Y191000D01*
X-256498Y191060D01*
X-256482Y191060D01*
X-256482Y196088D01*
X-265885Y196088D01*
X-265885Y194097D01*
X-265932Y193834D01*
X-266091Y193576D01*
X-266339Y193400D01*
X-266635Y193335D01*
X-266933Y193391D01*
X-267186Y193558D01*
X-275113Y201485D01*
X-275276Y201727D01*
X-275336Y202024D01*
X-275336Y226918D01*
X-275285Y227192D01*
X-275121Y227448D01*
X-274871Y227619D01*
X-274574Y227680D01*
X-274023Y227680D01*
X-273279Y228423D01*
X-273279Y230124D01*
X-273228Y230399D01*
X-273064Y230654D01*
X-272814Y230826D01*
X-272517Y230886D01*
X-264643Y230886D01*
X-264357Y230830D01*
X-264104Y230663D01*
X-263871Y230430D01*
X-247569Y230430D01*
X-246825Y231174D01*
X-246825Y238726D01*
X-247569Y239470D01*
X-263871Y239470D01*
X-264104Y239237D01*
X-264345Y239074D01*
X-264643Y239014D01*
X-273293Y239014D01*
X-273579Y239070D01*
X-273832Y239237D01*
X-274023Y239429D01*
X-284777Y239429D01*
X-285521Y238685D01*
X-285521Y228423D01*
X-284777Y227680D01*
X-284226Y227680D01*
X-283951Y227628D01*
X-283696Y227465D01*
X-283524Y227215D01*
X-283464Y226918D01*
X-283464Y198342D01*
X-268383Y183261D01*
X-265377Y183261D01*
X-265102Y183210D01*
X-264847Y183046D01*
X-264675Y182796D01*
X-264615Y182499D01*
X-264615Y180374D01*
X-263871Y179630D01*
X-249193Y179630D01*
X-248907Y179574D01*
X-248654Y179407D01*
X-182087Y112840D01*
X-181924Y112598D01*
X-181864Y112301D01*
X-181864Y104967D01*
X-181920Y104681D01*
X-182087Y104428D01*
X-184045Y102471D01*
X-185166Y99763D01*
X-185166Y84641D01*
X-184045Y81933D01*
X-181973Y79861D01*
X-179265Y78740D01*
G37*
G36*
X-209631Y217730D02*
X-193329Y217730D01*
X-192585Y218474D01*
X-192585Y226026D01*
X-193329Y226770D01*
X-209631Y226770D01*
X-209864Y226537D01*
X-210105Y226374D01*
X-210403Y226314D01*
X-217583Y226314D01*
X-219964Y223933D01*
X-219964Y220567D01*
X-217583Y218186D01*
X-210403Y218186D01*
X-210117Y218130D01*
X-209864Y217963D01*
X-209631Y217730D01*
G37*
G36*
X-263871Y217730D02*
X-247569Y217730D01*
X-246825Y218474D01*
X-246825Y226026D01*
X-247569Y226770D01*
X-263871Y226770D01*
X-264615Y226026D01*
X-264615Y218474D01*
X-263871Y217730D01*
G37*
G36*
X-209631Y205030D02*
X-193329Y205030D01*
X-192585Y205774D01*
X-192585Y213326D01*
X-193329Y214070D01*
X-209631Y214070D01*
X-210375Y213326D01*
X-210375Y205774D01*
X-209631Y205030D01*
G37*
G36*
X-263871Y205030D02*
X-247569Y205030D01*
X-246825Y205774D01*
X-246825Y213326D01*
X-247569Y214070D01*
X-263871Y214070D01*
X-264615Y213326D01*
X-264615Y205774D01*
X-263871Y205030D01*
G37*
G36*
X-265885Y197612D02*
X-256482Y197612D01*
X-256482Y202640D01*
X-264397Y202640D01*
X-265885Y201152D01*
X-265885Y197612D01*
G37*
G36*
X-254958Y197612D02*
X-245555Y197612D01*
X-245555Y201152D01*
X-247043Y202640D01*
X-254958Y202640D01*
X-254958Y197612D01*
G37*
G36*
X-209631Y192330D02*
X-193329Y192330D01*
X-192585Y193074D01*
X-192585Y200626D01*
X-193329Y201370D01*
X-209631Y201370D01*
X-210375Y200626D01*
X-210375Y193074D01*
X-209631Y192330D01*
G37*
G36*
X-573244Y182330D02*
X-569756Y182330D01*
X-566532Y183665D01*
X-564065Y186132D01*
X-562730Y189356D01*
X-562730Y192844D01*
X-564065Y196068D01*
X-566532Y198535D01*
X-569756Y199870D01*
X-573244Y199870D01*
X-576468Y198535D01*
X-578935Y196068D01*
X-580270Y192844D01*
X-580270Y189356D01*
X-578935Y186132D01*
X-576468Y183665D01*
X-573244Y182330D01*
G37*
G36*
X-254958Y191060D02*
X-247043Y191060D01*
X-245555Y192548D01*
X-245555Y196088D01*
X-254958Y196088D01*
X-254958Y191060D01*
G37*
G36*
X-209631Y179630D02*
X-193329Y179630D01*
X-192585Y180374D01*
X-192585Y187926D01*
X-193329Y188670D01*
X-209631Y188670D01*
X-210375Y187926D01*
X-210375Y180374D01*
X-209631Y179630D01*
G37*
G36*
X521062Y178562D02*
X530340Y178562D01*
X530340Y186352D01*
X528852Y187840D01*
X521062Y187840D01*
X521062Y178562D01*
G37*
G36*
X406762Y178562D02*
X416040Y178562D01*
X416040Y186352D01*
X414552Y187840D01*
X406762Y187840D01*
X406762Y178562D01*
G37*
G36*
X3260Y178562D02*
X12538Y178562D01*
X12538Y187840D01*
X4748Y187840D01*
X3260Y186352D01*
X3260Y178562D01*
G37*
G36*
X510260Y178562D02*
X519538Y178562D01*
X519538Y187840D01*
X511748Y187840D01*
X510260Y186352D01*
X510260Y178562D01*
G37*
G36*
X-125638Y178562D02*
X-116360Y178562D01*
X-116360Y186352D01*
X-117848Y187840D01*
X-125638Y187840D01*
X-125638Y178562D01*
G37*
G36*
X-136440Y178562D02*
X-127162Y178562D01*
X-127162Y187840D01*
X-134952Y187840D01*
X-136440Y186352D01*
X-136440Y178562D01*
G37*
G36*
X14062Y178562D02*
X23340Y178562D01*
X23340Y186352D01*
X21852Y187840D01*
X14062Y187840D01*
X14062Y178562D01*
G37*
G36*
X395960Y178562D02*
X405238Y178562D01*
X405238Y187840D01*
X397448Y187840D01*
X395960Y186352D01*
X395960Y178562D01*
G37*
G36*
X493556Y169030D02*
X497044Y169030D01*
X500268Y170365D01*
X502735Y172832D01*
X504070Y176056D01*
X504070Y179544D01*
X502735Y182768D01*
X500268Y185235D01*
X497044Y186570D01*
X493556Y186570D01*
X490332Y185235D01*
X487865Y182768D01*
X486530Y179544D01*
X486530Y176056D01*
X487865Y172832D01*
X490332Y170365D01*
X493556Y169030D01*
G37*
G36*
X36556Y169030D02*
X40044Y169030D01*
X43268Y170365D01*
X45735Y172832D01*
X47070Y176056D01*
X47070Y179544D01*
X45735Y182768D01*
X43268Y185235D01*
X40044Y186570D01*
X36556Y186570D01*
X33332Y185235D01*
X30865Y182768D01*
X29530Y179544D01*
X29530Y176056D01*
X30865Y172832D01*
X33332Y170365D01*
X36556Y169030D01*
G37*
G36*
X-78144Y169030D02*
X-74656Y169030D01*
X-71432Y170365D01*
X-68965Y172832D01*
X-67630Y176056D01*
X-67630Y179544D01*
X-68965Y182768D01*
X-71432Y185235D01*
X-74656Y186570D01*
X-78144Y186570D01*
X-81368Y185235D01*
X-83835Y182768D01*
X-85170Y179544D01*
X-85170Y176056D01*
X-83835Y172832D01*
X-81368Y170365D01*
X-78144Y169030D01*
G37*
G36*
X61556Y169030D02*
X65044Y169030D01*
X68268Y170365D01*
X70735Y172832D01*
X72070Y176056D01*
X72070Y179544D01*
X70735Y182768D01*
X68268Y185235D01*
X65044Y186570D01*
X61556Y186570D01*
X58332Y185235D01*
X55865Y182768D01*
X54530Y179544D01*
X54530Y176056D01*
X55865Y172832D01*
X58332Y170365D01*
X61556Y169030D01*
G37*
G36*
X-379652Y159465D02*
X-376362Y159465D01*
X-376362Y179295D01*
X-379652Y179295D01*
X-380699Y178248D01*
X-380941Y178085D01*
X-381238Y178025D01*
X-387126Y178025D01*
X-387870Y177281D01*
X-387870Y161479D01*
X-387126Y160735D01*
X-381238Y160735D01*
X-380952Y160679D01*
X-380699Y160512D01*
X-379652Y159465D01*
G37*
G36*
X521062Y167760D02*
X528852Y167760D01*
X530340Y169248D01*
X530340Y177038D01*
X521062Y177038D01*
X521062Y167760D01*
G37*
G36*
X406762Y167760D02*
X414552Y167760D01*
X416040Y169248D01*
X416040Y177038D01*
X406762Y177038D01*
X406762Y167760D01*
G37*
G36*
X397448Y167760D02*
X405238Y167760D01*
X405238Y177038D01*
X395960Y177038D01*
X395960Y169248D01*
X397448Y167760D01*
G37*
G36*
X14062Y167760D02*
X21852Y167760D01*
X23340Y169248D01*
X23340Y177038D01*
X14062Y177038D01*
X14062Y167760D01*
G37*
G36*
X4748Y167760D02*
X12538Y167760D01*
X12538Y177038D01*
X3260Y177038D01*
X3260Y169248D01*
X4748Y167760D01*
G37*
G36*
X-125638Y167760D02*
X-117848Y167760D01*
X-116360Y169248D01*
X-116360Y177038D01*
X-125638Y177038D01*
X-125638Y167760D01*
G37*
G36*
X511748Y167760D02*
X519538Y167760D01*
X519538Y177038D01*
X510260Y177038D01*
X510260Y169248D01*
X511748Y167760D01*
G37*
G36*
X-134952Y167760D02*
X-127162Y167760D01*
X-127162Y177038D01*
X-136440Y177038D01*
X-136440Y169248D01*
X-134952Y167760D01*
G37*
G36*
X-263871Y166930D02*
X-247569Y166930D01*
X-246825Y167674D01*
X-246825Y175226D01*
X-247569Y175970D01*
X-263871Y175970D01*
X-264615Y175226D01*
X-264615Y167674D01*
X-263871Y166930D01*
G37*
G36*
X-209631Y166930D02*
X-193329Y166930D01*
X-192585Y167674D01*
X-192585Y175226D01*
X-193329Y175970D01*
X-209631Y175970D01*
X-210375Y175226D01*
X-210375Y167674D01*
X-209631Y166930D01*
G37*
G36*
X-209631Y154230D02*
X-193329Y154230D01*
X-192585Y154974D01*
X-192585Y162526D01*
X-193329Y163270D01*
X-209631Y163270D01*
X-210375Y162526D01*
X-210375Y154974D01*
X-209631Y154230D01*
G37*
G36*
X-263871Y154230D02*
X-247569Y154230D01*
X-246825Y154974D01*
X-246825Y162526D01*
X-247569Y163270D01*
X-263871Y163270D01*
X-264615Y162526D01*
X-264615Y154974D01*
X-263871Y154230D01*
G37*
G36*
X-323135Y147762D02*
X-303305Y147762D01*
X-303305Y154238D01*
X-323135Y154238D01*
X-323135Y147762D01*
G37*
G36*
X429610Y140462D02*
X435992Y140462D01*
X435992Y147091D01*
X431097Y147091D01*
X429610Y145603D01*
X429610Y140462D01*
G37*
G36*
X437516Y140462D02*
X443899Y140462D01*
X443899Y145603D01*
X442411Y147091D01*
X437516Y147091D01*
X437516Y140462D01*
G37*
G36*
X-323135Y139762D02*
X-303305Y139762D01*
X-303305Y146238D01*
X-323135Y146238D01*
X-323135Y139762D01*
G37*
G36*
X437516Y132309D02*
X442411Y132309D01*
X443899Y133797D01*
X443899Y138938D01*
X437516Y138938D01*
X437516Y132309D01*
G37*
G36*
X431097Y132309D02*
X435992Y132309D01*
X435992Y138938D01*
X429610Y138938D01*
X429610Y133797D01*
X431097Y132309D01*
G37*
G36*
X-279577Y70079D02*
X-269315Y70079D01*
X-268572Y70823D01*
X-268572Y81577D01*
X-268763Y81768D01*
X-268926Y82010D01*
X-268986Y82307D01*
X-268986Y84074D01*
X-268935Y84349D01*
X-268771Y84604D01*
X-268521Y84776D01*
X-268224Y84836D01*
X-268178Y84836D01*
X-267903Y84785D01*
X-267647Y84621D01*
X-267476Y84371D01*
X-267416Y84074D01*
X-267416Y83504D01*
X-266628Y82717D01*
X-266586Y82709D01*
X-266330Y82546D01*
X-266159Y82296D01*
X-266099Y81999D01*
X-266099Y76962D01*
X-251810Y76962D01*
X-251810Y82363D01*
X-251785Y82500D01*
X-251861Y82483D01*
X-252159Y82538D01*
X-252412Y82706D01*
X-253297Y83591D01*
X-256127Y83591D01*
X-256401Y83642D01*
X-256657Y83806D01*
X-256828Y84056D01*
X-256889Y84353D01*
X-256889Y94296D01*
X-257304Y94711D01*
X-257462Y94942D01*
X-257527Y95238D01*
X-257472Y95536D01*
X-257304Y95789D01*
X-256889Y96204D01*
X-256889Y106147D01*
X-256837Y106422D01*
X-256674Y106677D01*
X-256424Y106849D01*
X-256127Y106909D01*
X-253297Y106909D01*
X-252412Y107794D01*
X-252193Y107947D01*
X-251898Y108017D01*
X-251781Y107997D01*
X-251810Y108137D01*
X-251810Y113538D01*
X-266099Y113538D01*
X-266099Y108502D01*
X-266150Y108227D01*
X-266313Y107971D01*
X-266563Y107800D01*
X-266623Y107788D01*
X-267416Y106996D01*
X-267416Y106426D01*
X-267467Y106151D01*
X-267630Y105896D01*
X-267880Y105724D01*
X-268178Y105664D01*
X-268224Y105664D01*
X-268499Y105715D01*
X-268754Y105879D01*
X-268926Y106129D01*
X-268986Y106426D01*
X-268986Y108193D01*
X-268930Y108479D01*
X-268763Y108732D01*
X-268572Y108923D01*
X-268572Y119677D01*
X-269315Y120421D01*
X-279577Y120421D01*
X-280321Y119677D01*
X-280321Y119633D01*
X-280367Y119369D01*
X-280527Y119111D01*
X-280774Y118936D01*
X-281070Y118871D01*
X-281368Y118926D01*
X-281621Y119094D01*
X-290417Y127889D01*
X-303813Y127889D01*
X-304088Y127940D01*
X-304343Y128104D01*
X-304515Y128354D01*
X-304575Y128651D01*
X-304575Y133362D01*
X-304519Y133648D01*
X-304352Y133901D01*
X-303305Y134948D01*
X-303305Y138238D01*
X-323135Y138238D01*
X-323135Y134948D01*
X-322088Y133901D01*
X-321925Y133660D01*
X-321865Y133362D01*
X-321865Y127444D01*
X-321772Y127308D01*
X-321707Y127012D01*
X-321762Y126714D01*
X-321865Y126559D01*
X-321865Y119444D01*
X-321772Y119308D01*
X-321707Y119012D01*
X-321762Y118714D01*
X-321865Y118559D01*
X-321865Y111444D01*
X-321772Y111308D01*
X-321707Y111012D01*
X-321762Y110714D01*
X-321865Y110559D01*
X-321865Y103444D01*
X-321772Y103308D01*
X-321707Y103012D01*
X-321762Y102714D01*
X-321865Y102559D01*
X-321865Y95474D01*
X-321121Y94730D01*
X-305319Y94730D01*
X-304575Y95474D01*
X-304575Y102556D01*
X-304668Y102692D01*
X-304733Y102988D01*
X-304678Y103286D01*
X-304575Y103441D01*
X-304575Y109474D01*
X-304524Y109749D01*
X-304360Y110004D01*
X-304110Y110176D01*
X-303813Y110236D01*
X-300449Y110236D01*
X-300163Y110180D01*
X-299910Y110013D01*
X-277337Y87440D01*
X-277174Y87198D01*
X-277114Y86901D01*
X-277114Y83083D01*
X-277165Y82808D01*
X-277329Y82553D01*
X-277579Y82381D01*
X-277876Y82321D01*
X-279577Y82321D01*
X-280321Y81577D01*
X-280321Y70823D01*
X-279577Y70079D01*
G37*
G36*
X-560568Y97790D02*
X-557032Y97790D01*
X-553764Y99143D01*
X-551263Y101644D01*
X-549910Y104912D01*
X-549910Y123688D01*
X-551263Y126956D01*
X-553764Y129457D01*
X-557032Y130810D01*
X-560568Y130810D01*
X-563836Y129457D01*
X-566337Y126956D01*
X-567690Y123688D01*
X-567690Y104912D01*
X-566337Y101644D01*
X-563836Y99143D01*
X-560568Y97790D01*
G37*
G36*
X-535168Y97790D02*
X-531632Y97790D01*
X-528364Y99143D01*
X-525863Y101644D01*
X-524510Y104912D01*
X-524510Y123688D01*
X-525863Y126956D01*
X-528364Y129457D01*
X-531632Y130810D01*
X-535168Y130810D01*
X-538436Y129457D01*
X-540937Y126956D01*
X-542290Y123688D01*
X-542290Y104912D01*
X-540937Y101644D01*
X-538436Y99143D01*
X-535168Y97790D01*
G37*
G36*
X134960Y115062D02*
X144538Y115062D01*
X144538Y124640D01*
X143243Y124640D01*
X139443Y123066D01*
X136534Y120157D01*
X134960Y116357D01*
X134960Y115062D01*
G37*
G36*
X146062Y115062D02*
X155640Y115062D01*
X155640Y116357D01*
X154066Y120157D01*
X151157Y123066D01*
X147357Y124640D01*
X146062Y124640D01*
X146062Y115062D01*
G37*
G36*
X397496Y105230D02*
X401104Y105230D01*
X404438Y106611D01*
X406989Y109162D01*
X408370Y112496D01*
X408370Y116104D01*
X406989Y119438D01*
X404438Y121989D01*
X401104Y123370D01*
X397496Y123370D01*
X394162Y121989D01*
X391611Y119438D01*
X390230Y116104D01*
X390230Y112496D01*
X391611Y109162D01*
X394162Y106611D01*
X397496Y105230D01*
G37*
G36*
X372096Y105230D02*
X375704Y105230D01*
X379038Y106611D01*
X381589Y109162D01*
X382970Y112496D01*
X382970Y116104D01*
X381589Y119438D01*
X379038Y121989D01*
X375704Y123370D01*
X372096Y123370D01*
X368762Y121989D01*
X366211Y119438D01*
X364830Y116104D01*
X364830Y112496D01*
X366211Y109162D01*
X368762Y106611D01*
X372096Y105230D01*
G37*
G36*
X473696Y105230D02*
X477304Y105230D01*
X480638Y106611D01*
X483189Y109162D01*
X484570Y112496D01*
X484570Y116104D01*
X483189Y119438D01*
X480638Y121989D01*
X477304Y123370D01*
X473696Y123370D01*
X470362Y121989D01*
X467811Y119438D01*
X466430Y116104D01*
X466430Y112496D01*
X467811Y109162D01*
X470362Y106611D01*
X473696Y105230D01*
G37*
G36*
X600696Y105230D02*
X604304Y105230D01*
X607638Y106611D01*
X610189Y109162D01*
X611570Y112496D01*
X611570Y116104D01*
X610189Y119438D01*
X607638Y121989D01*
X604304Y123370D01*
X600696Y123370D01*
X597362Y121989D01*
X594811Y119438D01*
X593430Y116104D01*
X593430Y112496D01*
X594811Y109162D01*
X597362Y106611D01*
X600696Y105230D01*
G37*
G36*
X245096Y105230D02*
X248704Y105230D01*
X252038Y106611D01*
X254589Y109162D01*
X255970Y112496D01*
X255970Y116104D01*
X254589Y119438D01*
X252038Y121989D01*
X248704Y123370D01*
X245096Y123370D01*
X241762Y121989D01*
X239211Y119438D01*
X237830Y116104D01*
X237830Y112496D01*
X239211Y109162D01*
X241762Y106611D01*
X245096Y105230D01*
G37*
G36*
X270496Y105230D02*
X274104Y105230D01*
X277438Y106611D01*
X279989Y109162D01*
X281370Y112496D01*
X281370Y116104D01*
X279989Y119438D01*
X277438Y121989D01*
X274104Y123370D01*
X270496Y123370D01*
X267162Y121989D01*
X264611Y119438D01*
X263230Y116104D01*
X263230Y112496D01*
X264611Y109162D01*
X267162Y106611D01*
X270496Y105230D01*
G37*
G36*
X321296Y105230D02*
X324904Y105230D01*
X328238Y106611D01*
X330789Y109162D01*
X332170Y112496D01*
X332170Y116104D01*
X330789Y119438D01*
X328238Y121989D01*
X324904Y123370D01*
X321296Y123370D01*
X317962Y121989D01*
X315411Y119438D01*
X314030Y116104D01*
X314030Y112496D01*
X315411Y109162D01*
X317962Y106611D01*
X321296Y105230D01*
G37*
G36*
X524496Y105230D02*
X528104Y105230D01*
X531438Y106611D01*
X533989Y109162D01*
X535370Y112496D01*
X535370Y116104D01*
X533989Y119438D01*
X531438Y121989D01*
X528104Y123370D01*
X524496Y123370D01*
X521162Y121989D01*
X518611Y119438D01*
X517230Y116104D01*
X517230Y112496D01*
X518611Y109162D01*
X521162Y106611D01*
X524496Y105230D01*
G37*
G36*
X194296Y105230D02*
X197904Y105230D01*
X201238Y106611D01*
X203789Y109162D01*
X205170Y112496D01*
X205170Y116104D01*
X203789Y119438D01*
X201238Y121989D01*
X197904Y123370D01*
X194296Y123370D01*
X190962Y121989D01*
X188411Y119438D01*
X187030Y116104D01*
X187030Y112496D01*
X188411Y109162D01*
X190962Y106611D01*
X194296Y105230D01*
G37*
G36*
X219696Y105230D02*
X223304Y105230D01*
X226638Y106611D01*
X229189Y109162D01*
X230570Y112496D01*
X230570Y116104D01*
X229189Y119438D01*
X226638Y121989D01*
X223304Y123370D01*
X219696Y123370D01*
X216362Y121989D01*
X213811Y119438D01*
X212430Y116104D01*
X212430Y112496D01*
X213811Y109162D01*
X216362Y106611D01*
X219696Y105230D01*
G37*
G36*
X499096Y105230D02*
X502704Y105230D01*
X506038Y106611D01*
X508589Y109162D01*
X509970Y112496D01*
X509970Y116104D01*
X508589Y119438D01*
X506038Y121989D01*
X502704Y123370D01*
X499096Y123370D01*
X495762Y121989D01*
X493211Y119438D01*
X491830Y116104D01*
X491830Y112496D01*
X493211Y109162D01*
X495762Y106611D01*
X499096Y105230D01*
G37*
G36*
X422896Y105230D02*
X426504Y105230D01*
X429838Y106611D01*
X432389Y109162D01*
X433770Y112496D01*
X433770Y116104D01*
X432389Y119438D01*
X429838Y121989D01*
X426504Y123370D01*
X422896Y123370D01*
X419562Y121989D01*
X417011Y119438D01*
X415630Y116104D01*
X415630Y112496D01*
X417011Y109162D01*
X419562Y106611D01*
X422896Y105230D01*
G37*
G36*
X-258192Y115062D02*
X-251810Y115062D01*
X-251810Y120203D01*
X-253297Y121691D01*
X-258192Y121691D01*
X-258192Y115062D01*
G37*
G36*
X-250368Y82761D02*
X-241328Y82761D01*
X-240585Y83504D01*
X-240585Y94296D01*
X-241000Y94711D01*
X-241158Y94942D01*
X-241223Y95238D01*
X-241168Y95536D01*
X-241000Y95789D01*
X-240585Y96204D01*
X-240585Y106996D01*
X-241328Y107740D01*
X-250368Y107740D01*
X-250509Y107598D01*
X-250728Y107445D01*
X-251023Y107376D01*
X-251140Y107395D01*
X-251112Y107255D01*
X-251112Y96204D01*
X-250696Y95789D01*
X-250538Y95558D01*
X-250473Y95262D01*
X-250528Y94964D01*
X-250696Y94711D01*
X-251112Y94296D01*
X-251112Y83245D01*
X-251136Y83108D01*
X-251060Y83125D01*
X-250762Y83069D01*
X-250509Y82902D01*
X-250368Y82761D01*
G37*
G36*
X-26865Y78740D02*
X-23935Y78740D01*
X-21227Y79861D01*
X-19155Y81933D01*
X-18034Y84641D01*
X-18034Y99763D01*
X-19155Y102471D01*
X-21227Y104543D01*
X-23935Y105664D01*
X-26865Y105664D01*
X-29573Y104543D01*
X-31645Y102471D01*
X-32766Y99763D01*
X-32766Y84641D01*
X-31645Y81933D01*
X-29573Y79861D01*
X-26865Y78740D01*
G37*
G36*
X-52265Y78740D02*
X-49335Y78740D01*
X-46627Y79861D01*
X-44555Y81933D01*
X-43434Y84641D01*
X-43434Y99763D01*
X-44555Y102471D01*
X-46627Y104543D01*
X-49335Y105664D01*
X-52265Y105664D01*
X-54973Y104543D01*
X-57045Y102471D01*
X-58166Y99763D01*
X-58166Y84641D01*
X-57045Y81933D01*
X-54973Y79861D01*
X-52265Y78740D01*
G37*
G36*
X-153865Y78740D02*
X-150935Y78740D01*
X-148227Y79861D01*
X-146155Y81933D01*
X-145034Y84641D01*
X-145034Y99763D01*
X-146155Y102471D01*
X-148227Y104543D01*
X-150935Y105664D01*
X-153865Y105664D01*
X-156573Y104543D01*
X-158645Y102471D01*
X-159766Y99763D01*
X-159766Y84641D01*
X-158645Y81933D01*
X-156573Y79861D01*
X-153865Y78740D01*
G37*
G36*
X-103065Y78740D02*
X-100135Y78740D01*
X-97427Y79861D01*
X-95355Y81933D01*
X-94234Y84641D01*
X-94234Y99763D01*
X-95355Y102471D01*
X-97427Y104543D01*
X-100135Y105664D01*
X-103065Y105664D01*
X-105773Y104543D01*
X-107845Y102471D01*
X-108966Y99763D01*
X-108966Y84641D01*
X-107845Y81933D01*
X-105773Y79861D01*
X-103065Y78740D01*
G37*
G36*
X-128465Y78740D02*
X-125535Y78740D01*
X-122827Y79861D01*
X-120755Y81933D01*
X-119634Y84641D01*
X-119634Y99763D01*
X-120755Y102471D01*
X-122827Y104543D01*
X-125535Y105664D01*
X-128465Y105664D01*
X-131173Y104543D01*
X-133245Y102471D01*
X-134366Y99763D01*
X-134366Y84641D01*
X-133245Y81933D01*
X-131173Y79861D01*
X-128465Y78740D01*
G37*
G36*
X-77665Y78740D02*
X-74735Y78740D01*
X-72027Y79861D01*
X-69955Y81933D01*
X-68834Y84641D01*
X-68834Y99763D01*
X-69955Y102471D01*
X-72027Y104543D01*
X-74735Y105664D01*
X-77665Y105664D01*
X-80373Y104543D01*
X-82445Y102471D01*
X-83566Y99763D01*
X-83566Y84641D01*
X-82445Y81933D01*
X-80373Y79861D01*
X-77665Y78740D01*
G37*
G36*
X14983Y89662D02*
X22584Y89662D01*
X22584Y100517D01*
X16471Y100517D01*
X14983Y99029D01*
X14983Y89662D01*
G37*
G36*
X24108Y89662D02*
X31709Y89662D01*
X31709Y99029D01*
X30221Y100517D01*
X24108Y100517D01*
X24108Y89662D01*
G37*
G36*
X-298383Y23298D02*
X-298403Y23181D01*
X-298263Y23210D01*
X-292862Y23210D01*
X-292862Y37499D01*
X-297899Y37499D01*
X-298173Y37550D01*
X-298429Y37713D01*
X-298600Y37963D01*
X-298612Y38023D01*
X-299404Y38816D01*
X-299673Y38816D01*
X-299936Y38862D01*
X-300194Y39022D01*
X-300369Y39269D01*
X-300434Y39565D01*
X-300379Y39863D01*
X-300211Y40116D01*
X-300165Y40163D01*
X-299923Y40326D01*
X-299626Y40386D01*
X-298207Y40386D01*
X-297921Y40330D01*
X-297668Y40163D01*
X-297477Y39972D01*
X-286723Y39972D01*
X-285979Y40715D01*
X-285979Y50977D01*
X-286723Y51721D01*
X-297477Y51721D01*
X-298221Y50977D01*
X-298221Y49276D01*
X-298272Y49001D01*
X-298436Y48746D01*
X-298686Y48574D01*
X-298983Y48514D01*
X-299974Y48514D01*
X-300249Y48565D01*
X-300504Y48729D01*
X-300676Y48979D01*
X-300736Y49276D01*
X-300736Y62008D01*
X-323107Y84379D01*
X-323270Y84621D01*
X-323330Y84918D01*
X-323330Y92521D01*
X-324074Y93265D01*
X-331156Y93265D01*
X-331292Y93172D01*
X-331588Y93107D01*
X-331886Y93162D01*
X-332041Y93265D01*
X-339156Y93265D01*
X-339292Y93172D01*
X-339588Y93107D01*
X-339886Y93162D01*
X-340041Y93265D01*
X-347156Y93265D01*
X-347292Y93172D01*
X-347588Y93107D01*
X-347886Y93162D01*
X-348041Y93265D01*
X-355156Y93265D01*
X-355292Y93172D01*
X-355588Y93107D01*
X-355886Y93162D01*
X-356041Y93265D01*
X-363156Y93265D01*
X-363292Y93172D01*
X-363588Y93107D01*
X-363886Y93162D01*
X-364041Y93265D01*
X-371156Y93265D01*
X-371292Y93172D01*
X-371588Y93107D01*
X-371886Y93162D01*
X-372041Y93265D01*
X-379156Y93265D01*
X-379292Y93172D01*
X-379588Y93107D01*
X-379886Y93162D01*
X-380041Y93265D01*
X-387126Y93265D01*
X-387870Y92521D01*
X-387870Y76719D01*
X-387126Y75975D01*
X-380044Y75975D01*
X-379908Y76068D01*
X-379612Y76133D01*
X-379314Y76078D01*
X-379159Y75975D01*
X-373126Y75975D01*
X-372851Y75924D01*
X-372596Y75760D01*
X-372424Y75510D01*
X-372364Y75213D01*
X-372364Y49276D01*
X-372415Y49001D01*
X-372579Y48746D01*
X-372829Y48574D01*
X-373126Y48514D01*
X-374117Y48514D01*
X-374392Y48565D01*
X-374647Y48729D01*
X-374819Y48979D01*
X-374879Y49276D01*
X-374879Y50977D01*
X-375623Y51721D01*
X-386377Y51721D01*
X-387121Y50977D01*
X-387121Y40715D01*
X-386377Y39972D01*
X-375623Y39972D01*
X-375432Y40163D01*
X-375190Y40326D01*
X-374893Y40386D01*
X-373474Y40386D01*
X-373188Y40330D01*
X-372935Y40163D01*
X-372889Y40116D01*
X-372736Y39897D01*
X-372666Y39602D01*
X-372717Y39303D01*
X-372880Y39047D01*
X-373130Y38876D01*
X-373428Y38816D01*
X-373696Y38816D01*
X-374483Y38028D01*
X-374491Y37986D01*
X-374654Y37730D01*
X-374904Y37559D01*
X-375202Y37499D01*
X-380238Y37499D01*
X-380238Y23210D01*
X-374837Y23210D01*
X-374700Y23185D01*
X-374717Y23261D01*
X-374662Y23559D01*
X-374494Y23812D01*
X-373609Y24697D01*
X-373609Y27527D01*
X-373558Y27801D01*
X-373394Y28057D01*
X-373144Y28228D01*
X-372847Y28289D01*
X-362904Y28289D01*
X-362489Y28704D01*
X-362258Y28862D01*
X-361962Y28927D01*
X-361664Y28872D01*
X-361411Y28704D01*
X-360996Y28289D01*
X-351053Y28289D01*
X-350778Y28237D01*
X-350523Y28074D01*
X-350351Y27824D01*
X-350291Y27527D01*
X-350291Y24697D01*
X-349406Y23812D01*
X-349253Y23593D01*
X-349183Y23298D01*
X-349203Y23181D01*
X-349063Y23210D01*
X-343662Y23210D01*
X-343662Y37499D01*
X-348699Y37499D01*
X-348973Y37550D01*
X-349229Y37713D01*
X-349400Y37963D01*
X-349412Y38023D01*
X-350204Y38816D01*
X-350473Y38816D01*
X-350736Y38862D01*
X-350994Y39022D01*
X-351169Y39269D01*
X-351234Y39565D01*
X-351179Y39863D01*
X-351011Y40116D01*
X-350965Y40163D01*
X-350723Y40326D01*
X-350426Y40386D01*
X-349007Y40386D01*
X-348721Y40330D01*
X-348468Y40163D01*
X-348277Y39972D01*
X-337523Y39972D01*
X-336779Y40715D01*
X-336779Y50977D01*
X-337523Y51721D01*
X-348277Y51721D01*
X-349021Y50977D01*
X-349021Y49276D01*
X-349072Y49001D01*
X-349236Y48746D01*
X-349486Y48574D01*
X-349783Y48514D01*
X-353949Y48514D01*
X-354224Y48565D01*
X-354479Y48729D01*
X-354651Y48979D01*
X-354711Y49276D01*
X-354711Y75213D01*
X-354660Y75488D01*
X-354496Y75743D01*
X-354246Y75915D01*
X-353949Y75975D01*
X-348044Y75975D01*
X-347908Y76068D01*
X-347612Y76133D01*
X-347314Y76078D01*
X-347159Y75975D01*
X-340044Y75975D01*
X-339908Y76068D01*
X-339612Y76133D01*
X-339314Y76078D01*
X-339061Y75910D01*
X-338951Y75800D01*
X-338788Y75559D01*
X-338728Y75261D01*
X-338728Y73878D01*
X-334487Y69637D01*
X-334324Y69396D01*
X-334264Y69099D01*
X-334264Y39578D01*
X-334315Y39303D01*
X-334479Y39047D01*
X-334729Y38876D01*
X-335026Y38816D01*
X-335596Y38816D01*
X-336383Y38028D01*
X-336391Y37986D01*
X-336554Y37730D01*
X-336804Y37559D01*
X-337102Y37499D01*
X-342138Y37499D01*
X-342138Y23210D01*
X-336737Y23210D01*
X-336600Y23185D01*
X-336617Y23261D01*
X-336562Y23559D01*
X-336394Y23812D01*
X-335509Y24697D01*
X-335509Y27527D01*
X-335458Y27801D01*
X-335294Y28057D01*
X-335044Y28228D01*
X-334747Y28289D01*
X-325653Y28289D01*
X-325378Y28237D01*
X-325123Y28074D01*
X-324951Y27824D01*
X-324891Y27527D01*
X-324891Y24697D01*
X-324006Y23812D01*
X-323853Y23593D01*
X-323783Y23298D01*
X-323803Y23181D01*
X-323663Y23210D01*
X-318262Y23210D01*
X-318262Y37499D01*
X-323299Y37499D01*
X-323573Y37550D01*
X-323829Y37713D01*
X-324000Y37963D01*
X-324012Y38023D01*
X-324804Y38816D01*
X-325073Y38816D01*
X-325336Y38862D01*
X-325594Y39022D01*
X-325769Y39269D01*
X-325834Y39565D01*
X-325779Y39863D01*
X-325611Y40116D01*
X-325565Y40163D01*
X-325323Y40326D01*
X-325026Y40386D01*
X-323607Y40386D01*
X-323321Y40330D01*
X-323068Y40163D01*
X-322877Y39972D01*
X-312123Y39972D01*
X-311379Y40715D01*
X-311379Y50977D01*
X-312123Y51721D01*
X-322877Y51721D01*
X-323621Y50977D01*
X-323621Y49276D01*
X-323672Y49001D01*
X-323836Y48746D01*
X-324086Y48574D01*
X-324383Y48514D01*
X-325374Y48514D01*
X-325649Y48565D01*
X-325904Y48729D01*
X-326076Y48979D01*
X-326136Y49276D01*
X-326136Y72781D01*
X-328029Y74674D01*
X-328182Y74894D01*
X-328252Y75189D01*
X-328201Y75488D01*
X-328038Y75743D01*
X-327788Y75915D01*
X-327490Y75975D01*
X-326513Y75975D01*
X-326227Y75919D01*
X-325974Y75752D01*
X-309087Y58865D01*
X-308924Y58623D01*
X-308864Y58326D01*
X-308864Y39578D01*
X-308915Y39303D01*
X-309079Y39047D01*
X-309329Y38876D01*
X-309626Y38816D01*
X-310196Y38816D01*
X-310983Y38028D01*
X-310991Y37986D01*
X-311154Y37730D01*
X-311404Y37559D01*
X-311702Y37499D01*
X-316738Y37499D01*
X-316738Y23210D01*
X-311337Y23210D01*
X-311200Y23185D01*
X-311217Y23261D01*
X-311162Y23559D01*
X-310994Y23812D01*
X-310109Y24697D01*
X-310109Y27527D01*
X-310058Y27801D01*
X-309894Y28057D01*
X-309644Y28228D01*
X-309347Y28289D01*
X-300253Y28289D01*
X-299978Y28237D01*
X-299723Y28074D01*
X-299551Y27824D01*
X-299491Y27527D01*
X-299491Y24697D01*
X-298606Y23812D01*
X-298453Y23593D01*
X-298383Y23298D01*
G37*
G36*
X-535168Y59690D02*
X-531632Y59690D01*
X-528364Y61043D01*
X-525863Y63544D01*
X-524510Y66812D01*
X-524510Y85588D01*
X-525863Y88856D01*
X-528364Y91357D01*
X-531632Y92710D01*
X-535168Y92710D01*
X-538436Y91357D01*
X-540937Y88856D01*
X-542290Y85588D01*
X-542290Y66812D01*
X-540937Y63544D01*
X-538436Y61043D01*
X-535168Y59690D01*
G37*
G36*
X-258192Y68809D02*
X-253297Y68809D01*
X-251810Y70297D01*
X-251810Y75438D01*
X-258192Y75438D01*
X-258192Y68809D01*
G37*
G36*
X-264611Y68809D02*
X-259716Y68809D01*
X-259716Y75438D01*
X-266099Y75438D01*
X-266099Y70297D01*
X-264611Y68809D01*
G37*
G36*
X360485Y43434D02*
X375607Y43434D01*
X378315Y44555D01*
X380387Y46627D01*
X381508Y49335D01*
X381508Y52265D01*
X380387Y54973D01*
X378315Y57045D01*
X375607Y58166D01*
X360485Y58166D01*
X357777Y57045D01*
X355705Y54973D01*
X354584Y52265D01*
X354584Y49335D01*
X355705Y46627D01*
X357777Y44555D01*
X360485Y43434D01*
G37*
G36*
X-103065Y2540D02*
X-100135Y2540D01*
X-97427Y3661D01*
X-95355Y5733D01*
X-94234Y8441D01*
X-94234Y20353D01*
X-94178Y20639D01*
X-94011Y20892D01*
X-84265Y30638D01*
X-84023Y30801D01*
X-83726Y30861D01*
X-78123Y30861D01*
X-77866Y30816D01*
X-77606Y30659D01*
X-77429Y30413D01*
X-77362Y30117D01*
X-77415Y29819D01*
X-77580Y29565D01*
X-77832Y29395D01*
X-80373Y28343D01*
X-82445Y26271D01*
X-83566Y23563D01*
X-83566Y8441D01*
X-82445Y5733D01*
X-80373Y3661D01*
X-77665Y2540D01*
X-74735Y2540D01*
X-72027Y3661D01*
X-69955Y5733D01*
X-68834Y8441D01*
X-68834Y23563D01*
X-69955Y26271D01*
X-72027Y28343D01*
X-74568Y29395D01*
X-74789Y29535D01*
X-74968Y29780D01*
X-75038Y30075D01*
X-74987Y30374D01*
X-74824Y30629D01*
X-74574Y30801D01*
X-74277Y30861D01*
X-52723Y30861D01*
X-52466Y30816D01*
X-52206Y30659D01*
X-52029Y30413D01*
X-51962Y30117D01*
X-52015Y29819D01*
X-52180Y29565D01*
X-52432Y29395D01*
X-54973Y28343D01*
X-57045Y26271D01*
X-58166Y23563D01*
X-58166Y8441D01*
X-57045Y5733D01*
X-54973Y3661D01*
X-52265Y2540D01*
X-49335Y2540D01*
X-46627Y3661D01*
X-44555Y5733D01*
X-43434Y8441D01*
X-43434Y23563D01*
X-44555Y26271D01*
X-46627Y28343D01*
X-49168Y29395D01*
X-49389Y29535D01*
X-49568Y29780D01*
X-49638Y30075D01*
X-49587Y30374D01*
X-49424Y30629D01*
X-49174Y30801D01*
X-48877Y30861D01*
X-30642Y30861D01*
X-30384Y30816D01*
X-30125Y30659D01*
X-29948Y30413D01*
X-29880Y30117D01*
X-29934Y29819D01*
X-30099Y29565D01*
X-30245Y29466D01*
X-32721Y26990D01*
X-34036Y23816D01*
X-34036Y16764D01*
X-16764Y16764D01*
X-16764Y23816D01*
X-18079Y26990D01*
X-20543Y29454D01*
X-20670Y29535D01*
X-20850Y29780D01*
X-20920Y30075D01*
X-20869Y30374D01*
X-20705Y30629D01*
X-20455Y30801D01*
X-20158Y30861D01*
X102776Y30861D01*
X103062Y30805D01*
X103315Y30638D01*
X125317Y8636D01*
X411258Y8636D01*
X429483Y26861D01*
X429703Y27014D01*
X429998Y27084D01*
X430297Y27033D01*
X430552Y26869D01*
X430724Y26619D01*
X430784Y26322D01*
X430784Y23935D01*
X431905Y21227D01*
X433977Y19155D01*
X436685Y18034D01*
X451807Y18034D01*
X454515Y19155D01*
X456587Y21227D01*
X457708Y23935D01*
X457708Y26865D01*
X456587Y29573D01*
X454515Y31645D01*
X452280Y32570D01*
X452060Y32710D01*
X451880Y32955D01*
X451810Y33250D01*
X451861Y33549D01*
X452025Y33804D01*
X452275Y33976D01*
X452572Y34036D01*
X458883Y34036D01*
X470328Y45481D01*
X470559Y45639D01*
X470855Y45704D01*
X471153Y45648D01*
X471406Y45481D01*
X472331Y44555D01*
X475039Y43434D01*
X490161Y43434D01*
X492869Y44555D01*
X494941Y46627D01*
X496062Y49335D01*
X496062Y52265D01*
X494941Y54973D01*
X492869Y57045D01*
X490161Y58166D01*
X475039Y58166D01*
X472331Y57045D01*
X470374Y55087D01*
X470132Y54924D01*
X469835Y54864D01*
X468217Y54864D01*
X455740Y42387D01*
X455498Y42224D01*
X455201Y42164D01*
X452572Y42164D01*
X452314Y42209D01*
X452055Y42366D01*
X451878Y42612D01*
X451810Y42908D01*
X451863Y43206D01*
X452029Y43461D01*
X452280Y43630D01*
X454515Y44555D01*
X456587Y46627D01*
X457708Y49335D01*
X457708Y52265D01*
X456587Y54973D01*
X454515Y57045D01*
X451807Y58166D01*
X436685Y58166D01*
X433977Y57045D01*
X431905Y54973D01*
X430784Y52265D01*
X430784Y49335D01*
X431905Y46627D01*
X433977Y44555D01*
X436212Y43630D01*
X436432Y43490D01*
X436612Y43245D01*
X436682Y42950D01*
X436631Y42651D01*
X436467Y42396D01*
X436217Y42224D01*
X435920Y42164D01*
X433292Y42164D01*
X424592Y33464D01*
X424372Y33311D01*
X424077Y33241D01*
X423778Y33292D01*
X423523Y33456D01*
X423351Y33706D01*
X423291Y34003D01*
X423291Y37338D01*
X416357Y37338D01*
X416357Y28459D01*
X417747Y28459D01*
X418010Y28412D01*
X418268Y28253D01*
X418444Y28005D01*
X418509Y27709D01*
X418453Y27411D01*
X418286Y27158D01*
X408115Y16987D01*
X407873Y16824D01*
X407576Y16764D01*
X376372Y16764D01*
X376114Y16809D01*
X375855Y16966D01*
X375678Y17212D01*
X375610Y17508D01*
X375663Y17806D01*
X375829Y18061D01*
X376080Y18230D01*
X378315Y19155D01*
X380272Y21113D01*
X380514Y21276D01*
X380811Y21336D01*
X385858Y21336D01*
X394028Y29506D01*
X394270Y29669D01*
X394567Y29729D01*
X402887Y29729D01*
X403631Y30473D01*
X403631Y45727D01*
X402887Y46471D01*
X391523Y46471D01*
X390779Y45727D01*
X390779Y38067D01*
X390723Y37781D01*
X390556Y37528D01*
X382715Y29687D01*
X382473Y29524D01*
X382176Y29464D01*
X380811Y29464D01*
X380525Y29520D01*
X380272Y29687D01*
X378315Y31645D01*
X375607Y32766D01*
X360485Y32766D01*
X357777Y31645D01*
X355705Y29573D01*
X354584Y26865D01*
X354584Y23935D01*
X355705Y21227D01*
X357777Y19155D01*
X360012Y18230D01*
X360232Y18090D01*
X360412Y17845D01*
X360482Y17550D01*
X360431Y17251D01*
X360267Y16996D01*
X360017Y16824D01*
X359720Y16764D01*
X338526Y16764D01*
X338268Y16809D01*
X338009Y16966D01*
X337832Y17212D01*
X337764Y17508D01*
X337817Y17806D01*
X337983Y18061D01*
X338234Y18230D01*
X340469Y19155D01*
X342541Y21227D01*
X343662Y23935D01*
X343662Y26865D01*
X342541Y29573D01*
X340469Y31645D01*
X337761Y32766D01*
X322639Y32766D01*
X319931Y31645D01*
X317859Y29573D01*
X316738Y26865D01*
X316738Y23935D01*
X317859Y21227D01*
X319931Y19155D01*
X322166Y18230D01*
X322386Y18090D01*
X322566Y17845D01*
X322636Y17550D01*
X322585Y17251D01*
X322421Y16996D01*
X322171Y16824D01*
X321874Y16764D01*
X262326Y16764D01*
X262068Y16809D01*
X261809Y16966D01*
X261632Y17212D01*
X261564Y17508D01*
X261617Y17806D01*
X261783Y18061D01*
X262034Y18230D01*
X264269Y19155D01*
X266226Y21113D01*
X266468Y21276D01*
X266765Y21336D01*
X271558Y21336D01*
X279728Y29506D01*
X279970Y29669D01*
X280267Y29729D01*
X288587Y29729D01*
X289331Y30473D01*
X289331Y45727D01*
X288587Y46471D01*
X277223Y46471D01*
X276479Y45727D01*
X276479Y38067D01*
X276423Y37781D01*
X276256Y37528D01*
X268415Y29687D01*
X268173Y29524D01*
X267876Y29464D01*
X266765Y29464D01*
X266479Y29520D01*
X266226Y29687D01*
X264269Y31645D01*
X261561Y32766D01*
X246439Y32766D01*
X243731Y31645D01*
X241659Y29573D01*
X240538Y26865D01*
X240538Y23935D01*
X241659Y21227D01*
X243731Y19155D01*
X245966Y18230D01*
X246186Y18090D01*
X246366Y17845D01*
X246436Y17550D01*
X246385Y17251D01*
X246221Y16996D01*
X245971Y16824D01*
X245674Y16764D01*
X224226Y16764D01*
X223968Y16809D01*
X223709Y16966D01*
X223532Y17212D01*
X223464Y17508D01*
X223517Y17806D01*
X223683Y18061D01*
X223934Y18230D01*
X226169Y19155D01*
X228241Y21227D01*
X229362Y23935D01*
X229362Y26865D01*
X228241Y29573D01*
X226169Y31645D01*
X223461Y32766D01*
X208339Y32766D01*
X205631Y31645D01*
X203559Y29573D01*
X202438Y26865D01*
X202438Y23935D01*
X203559Y21227D01*
X205631Y19155D01*
X207866Y18230D01*
X208086Y18090D01*
X208266Y17845D01*
X208336Y17550D01*
X208285Y17251D01*
X208121Y16996D01*
X207871Y16824D01*
X207574Y16764D01*
X148026Y16764D01*
X147768Y16809D01*
X147509Y16966D01*
X147332Y17212D01*
X147264Y17508D01*
X147317Y17806D01*
X147483Y18061D01*
X147734Y18230D01*
X149969Y19155D01*
X151926Y21113D01*
X152168Y21276D01*
X152465Y21336D01*
X157258Y21336D01*
X165428Y29506D01*
X165670Y29669D01*
X165967Y29729D01*
X174287Y29729D01*
X175031Y30473D01*
X175031Y45727D01*
X174287Y46471D01*
X162923Y46471D01*
X162179Y45727D01*
X162179Y38067D01*
X162123Y37781D01*
X161956Y37528D01*
X154115Y29687D01*
X153873Y29524D01*
X153576Y29464D01*
X152465Y29464D01*
X152179Y29520D01*
X151926Y29687D01*
X149969Y31645D01*
X147261Y32766D01*
X132139Y32766D01*
X129431Y31645D01*
X127359Y29573D01*
X126238Y26865D01*
X126238Y23935D01*
X127359Y21227D01*
X129431Y19155D01*
X131666Y18230D01*
X131886Y18090D01*
X132066Y17845D01*
X132136Y17550D01*
X132085Y17251D01*
X131921Y16996D01*
X131671Y16824D01*
X131374Y16764D01*
X128999Y16764D01*
X128713Y16820D01*
X128460Y16987D01*
X106458Y38989D01*
X-87408Y38989D01*
X-97511Y28886D01*
X-97747Y28726D01*
X-98044Y28663D01*
X-98341Y28721D01*
X-100135Y29464D01*
X-103065Y29464D01*
X-105773Y28343D01*
X-107845Y26271D01*
X-108966Y23563D01*
X-108966Y8441D01*
X-107845Y5733D01*
X-105773Y3661D01*
X-103065Y2540D01*
G37*
G36*
X302057Y38862D02*
X308991Y38862D01*
X308991Y46253D01*
X307503Y47741D01*
X302057Y47741D01*
X302057Y38862D01*
G37*
G36*
X187757Y38862D02*
X194691Y38862D01*
X194691Y46253D01*
X193203Y47741D01*
X187757Y47741D01*
X187757Y38862D01*
G37*
G36*
X416357Y38862D02*
X423291Y38862D01*
X423291Y46253D01*
X421803Y47741D01*
X416357Y47741D01*
X416357Y38862D01*
G37*
G36*
X407899Y38862D02*
X414833Y38862D01*
X414833Y47741D01*
X409387Y47741D01*
X407899Y46253D01*
X407899Y38862D01*
G37*
G36*
X179299Y38862D02*
X186233Y38862D01*
X186233Y47741D01*
X180787Y47741D01*
X179299Y46253D01*
X179299Y38862D01*
G37*
G36*
X293599Y38862D02*
X300533Y38862D01*
X300533Y47741D01*
X295087Y47741D01*
X293599Y46253D01*
X293599Y38862D01*
G37*
G36*
X522199Y38862D02*
X529133Y38862D01*
X529133Y47741D01*
X523687Y47741D01*
X522199Y46253D01*
X522199Y38862D01*
G37*
G36*
X530657Y38862D02*
X537591Y38862D01*
X537591Y46253D01*
X536103Y47741D01*
X530657Y47741D01*
X530657Y38862D01*
G37*
G36*
X475039Y18034D02*
X490161Y18034D01*
X492869Y19155D01*
X494826Y21113D01*
X495068Y21276D01*
X495365Y21336D01*
X500158Y21336D01*
X508328Y29506D01*
X508570Y29669D01*
X508867Y29729D01*
X517187Y29729D01*
X517931Y30473D01*
X517931Y45727D01*
X517187Y46471D01*
X505823Y46471D01*
X505079Y45727D01*
X505079Y38067D01*
X505023Y37781D01*
X504856Y37528D01*
X497015Y29687D01*
X496773Y29524D01*
X496476Y29464D01*
X495365Y29464D01*
X495079Y29520D01*
X494826Y29687D01*
X492869Y31645D01*
X490161Y32766D01*
X475039Y32766D01*
X472331Y31645D01*
X470259Y29573D01*
X469138Y26865D01*
X469138Y23935D01*
X470259Y21227D01*
X472331Y19155D01*
X475039Y18034D01*
G37*
G36*
X-535168Y8890D02*
X-531632Y8890D01*
X-528364Y10243D01*
X-525863Y12744D01*
X-524510Y16012D01*
X-524510Y34788D01*
X-525863Y38056D01*
X-528364Y40557D01*
X-531632Y41910D01*
X-535168Y41910D01*
X-538436Y40557D01*
X-540937Y38056D01*
X-542290Y34788D01*
X-542290Y16012D01*
X-540937Y12744D01*
X-538436Y10243D01*
X-535168Y8890D01*
G37*
G36*
X-560568Y8890D02*
X-557032Y8890D01*
X-553764Y10243D01*
X-551263Y12744D01*
X-549910Y16012D01*
X-549910Y34788D01*
X-551263Y38056D01*
X-553764Y40557D01*
X-557032Y41910D01*
X-560568Y41910D01*
X-563836Y40557D01*
X-566337Y38056D01*
X-567690Y34788D01*
X-567690Y16012D01*
X-566337Y12744D01*
X-563836Y10243D01*
X-560568Y8890D01*
G37*
G36*
X-388391Y31116D02*
X-381762Y31116D01*
X-381762Y37499D01*
X-386903Y37499D01*
X-388391Y36011D01*
X-388391Y31116D01*
G37*
G36*
X-291338Y31116D02*
X-284709Y31116D01*
X-284709Y36011D01*
X-286197Y37499D01*
X-291338Y37499D01*
X-291338Y31116D01*
G37*
G36*
X180787Y28459D02*
X186233Y28459D01*
X186233Y37338D01*
X179299Y37338D01*
X179299Y29947D01*
X180787Y28459D01*
G37*
G36*
X187757Y28459D02*
X193203Y28459D01*
X194691Y29947D01*
X194691Y37338D01*
X187757Y37338D01*
X187757Y28459D01*
G37*
G36*
X409387Y28459D02*
X414833Y28459D01*
X414833Y37338D01*
X407899Y37338D01*
X407899Y29947D01*
X409387Y28459D01*
G37*
G36*
X295087Y28459D02*
X300533Y28459D01*
X300533Y37338D01*
X293599Y37338D01*
X293599Y29947D01*
X295087Y28459D01*
G37*
G36*
X302057Y28459D02*
X307503Y28459D01*
X308991Y29947D01*
X308991Y37338D01*
X302057Y37338D01*
X302057Y28459D01*
G37*
G36*
X523687Y28459D02*
X529133Y28459D01*
X529133Y37338D01*
X522199Y37338D01*
X522199Y29947D01*
X523687Y28459D01*
G37*
G36*
X-386903Y23210D02*
X-381762Y23210D01*
X-381762Y29592D01*
X-388391Y29592D01*
X-388391Y24697D01*
X-386903Y23210D01*
G37*
G36*
X-128465Y2540D02*
X-125535Y2540D01*
X-122827Y3661D01*
X-120755Y5733D01*
X-119634Y8441D01*
X-119634Y23563D01*
X-120755Y26271D01*
X-122827Y28343D01*
X-125535Y29464D01*
X-128465Y29464D01*
X-131173Y28343D01*
X-133245Y26271D01*
X-134366Y23563D01*
X-134366Y8441D01*
X-133245Y5733D01*
X-131173Y3661D01*
X-128465Y2540D01*
G37*
G36*
X-179265Y2540D02*
X-176335Y2540D01*
X-173627Y3661D01*
X-171555Y5733D01*
X-170434Y8441D01*
X-170434Y23563D01*
X-171555Y26271D01*
X-173627Y28343D01*
X-176335Y29464D01*
X-179265Y29464D01*
X-181973Y28343D01*
X-184045Y26271D01*
X-185166Y23563D01*
X-185166Y8441D01*
X-184045Y5733D01*
X-181973Y3661D01*
X-179265Y2540D01*
G37*
G36*
X-335596Y11985D02*
X-324804Y11985D01*
X-324061Y12728D01*
X-324061Y21768D01*
X-324202Y21909D01*
X-324355Y22128D01*
X-324424Y22423D01*
X-324405Y22540D01*
X-324545Y22512D01*
X-335855Y22512D01*
X-335992Y22536D01*
X-335975Y22460D01*
X-336031Y22162D01*
X-336198Y21909D01*
X-336340Y21768D01*
X-336340Y12728D01*
X-335596Y11985D01*
G37*
G36*
X-310196Y11985D02*
X-299404Y11985D01*
X-298661Y12728D01*
X-298661Y21768D01*
X-298802Y21909D01*
X-298955Y22128D01*
X-299024Y22423D01*
X-299005Y22540D01*
X-299145Y22512D01*
X-310455Y22512D01*
X-310592Y22536D01*
X-310575Y22460D01*
X-310631Y22162D01*
X-310798Y21909D01*
X-310940Y21768D01*
X-310940Y12728D01*
X-310196Y11985D01*
G37*
G36*
X-373696Y11985D02*
X-362904Y11985D01*
X-362489Y12400D01*
X-362258Y12558D01*
X-361962Y12623D01*
X-361664Y12568D01*
X-361411Y12400D01*
X-360996Y11985D01*
X-350204Y11985D01*
X-349461Y12728D01*
X-349461Y21768D01*
X-349602Y21909D01*
X-349755Y22128D01*
X-349824Y22423D01*
X-349805Y22540D01*
X-349945Y22512D01*
X-360996Y22512D01*
X-361411Y22096D01*
X-361642Y21938D01*
X-361938Y21873D01*
X-362236Y21928D01*
X-362489Y22096D01*
X-362904Y22512D01*
X-373955Y22512D01*
X-374092Y22536D01*
X-374075Y22460D01*
X-374131Y22162D01*
X-374298Y21909D01*
X-374440Y21768D01*
X-374440Y12728D01*
X-373696Y11985D01*
G37*
G36*
X-535168Y-29210D02*
X-531632Y-29210D01*
X-528364Y-27857D01*
X-525863Y-25356D01*
X-524510Y-22088D01*
X-524510Y-3312D01*
X-525863Y-44D01*
X-528364Y2457D01*
X-531632Y3810D01*
X-535168Y3810D01*
X-538436Y2457D01*
X-540937Y-44D01*
X-542290Y-3312D01*
X-542290Y-22088D01*
X-540937Y-25356D01*
X-538436Y-27857D01*
X-535168Y-29210D01*
G37*
G36*
X211793Y-47197D02*
X236765Y-47197D01*
X237509Y-46453D01*
X237509Y-29747D01*
X236765Y-29004D01*
X211793Y-29004D01*
X211049Y-29747D01*
X211049Y-30099D01*
X210998Y-30374D01*
X210834Y-30629D01*
X210584Y-30801D01*
X210287Y-30861D01*
X204692Y-30861D01*
X202311Y-33242D01*
X202311Y-36608D01*
X204692Y-38989D01*
X210287Y-38989D01*
X210562Y-39040D01*
X210817Y-39204D01*
X210989Y-39454D01*
X211049Y-39751D01*
X211049Y-46453D01*
X211793Y-47197D01*
G37*
G36*
X26162Y-38338D02*
X35440Y-38338D01*
X35440Y-37103D01*
X33912Y-33413D01*
X31087Y-30589D01*
X27397Y-29060D01*
X26162Y-29060D01*
X26162Y-38338D01*
G37*
G36*
X15360Y-38338D02*
X24638Y-38338D01*
X24638Y-29060D01*
X23403Y-29060D01*
X19713Y-30589D01*
X16889Y-33413D01*
X15360Y-37103D01*
X15360Y-38338D01*
G37*
G36*
X-585038Y-62738D02*
X-577610Y-62738D01*
X-577610Y-56798D01*
X-579098Y-55310D01*
X-585038Y-55310D01*
X-585038Y-62738D01*
G37*
G36*
X-593990Y-62738D02*
X-586562Y-62738D01*
X-586562Y-55310D01*
X-592502Y-55310D01*
X-593990Y-56798D01*
X-593990Y-62738D01*
G37*
G36*
X-393476Y-70420D02*
X-390724Y-70420D01*
X-388180Y-69367D01*
X-386234Y-67420D01*
X-385180Y-64876D01*
X-385180Y-62124D01*
X-386234Y-59580D01*
X-388180Y-57634D01*
X-390724Y-56580D01*
X-393476Y-56580D01*
X-396020Y-57634D01*
X-397967Y-59580D01*
X-399020Y-62124D01*
X-399020Y-64876D01*
X-397967Y-67420D01*
X-396020Y-69367D01*
X-393476Y-70420D01*
G37*
G36*
X-507776Y-70420D02*
X-505024Y-70420D01*
X-502480Y-69367D01*
X-500534Y-67420D01*
X-499480Y-64876D01*
X-499480Y-62124D01*
X-500534Y-59580D01*
X-502480Y-57634D01*
X-505024Y-56580D01*
X-507776Y-56580D01*
X-510320Y-57634D01*
X-512267Y-59580D01*
X-513320Y-62124D01*
X-513320Y-64876D01*
X-512267Y-67420D01*
X-510320Y-69367D01*
X-507776Y-70420D01*
G37*
G36*
X-477676Y-70420D02*
X-465324Y-70420D01*
X-464580Y-69676D01*
X-464580Y-57324D01*
X-465324Y-56580D01*
X-477676Y-56580D01*
X-478420Y-57324D01*
X-478420Y-69676D01*
X-477676Y-70420D01*
G37*
G36*
X-585038Y-71690D02*
X-579098Y-71690D01*
X-577610Y-70202D01*
X-577610Y-64262D01*
X-585038Y-64262D01*
X-585038Y-71690D01*
G37*
G36*
X-592502Y-71690D02*
X-586562Y-71690D01*
X-586562Y-64262D01*
X-593990Y-64262D01*
X-593990Y-70202D01*
X-592502Y-71690D01*
G37*
G36*
X-156591Y-88138D02*
X-149657Y-88138D01*
X-149657Y-79259D01*
X-155103Y-79259D01*
X-156591Y-80747D01*
X-156591Y-88138D01*
G37*
G36*
X-148133Y-88138D02*
X-141199Y-88138D01*
X-141199Y-80747D01*
X-142687Y-79259D01*
X-148133Y-79259D01*
X-148133Y-88138D01*
G37*
G36*
X-391338Y-88138D02*
X-383910Y-88138D01*
X-383910Y-87271D01*
X-385157Y-84261D01*
X-387461Y-81957D01*
X-390471Y-80710D01*
X-391338Y-80710D01*
X-391338Y-88138D01*
G37*
G36*
X-505638Y-88138D02*
X-498210Y-88138D01*
X-498210Y-87271D01*
X-499457Y-84261D01*
X-501761Y-81957D01*
X-504771Y-80710D01*
X-505638Y-80710D01*
X-505638Y-88138D01*
G37*
G36*
X-514590Y-88138D02*
X-507162Y-88138D01*
X-507162Y-80710D01*
X-508029Y-80710D01*
X-511039Y-81957D01*
X-513343Y-84261D01*
X-514590Y-87271D01*
X-514590Y-88138D01*
G37*
G36*
X-400290Y-88138D02*
X-392862Y-88138D01*
X-392862Y-80710D01*
X-393729Y-80710D01*
X-396739Y-81957D01*
X-399043Y-84261D01*
X-400290Y-87271D01*
X-400290Y-88138D01*
G37*
G36*
X-472876Y-95820D02*
X-470124Y-95820D01*
X-467580Y-94767D01*
X-465634Y-92820D01*
X-464580Y-90276D01*
X-464580Y-87524D01*
X-465634Y-84980D01*
X-467580Y-83034D01*
X-470124Y-81980D01*
X-472876Y-81980D01*
X-475420Y-83034D01*
X-477367Y-84980D01*
X-478420Y-87524D01*
X-478420Y-90276D01*
X-477367Y-92820D01*
X-475420Y-94767D01*
X-472876Y-95820D01*
G37*
G36*
X-505638Y-97090D02*
X-504771Y-97090D01*
X-501761Y-95843D01*
X-499457Y-93539D01*
X-498210Y-90529D01*
X-498210Y-89662D01*
X-505638Y-89662D01*
X-505638Y-97090D01*
G37*
G36*
X-393729Y-97090D02*
X-392862Y-97090D01*
X-392862Y-89662D01*
X-400290Y-89662D01*
X-400290Y-90529D01*
X-399043Y-93539D01*
X-396739Y-95843D01*
X-393729Y-97090D01*
G37*
G36*
X-508029Y-97090D02*
X-507162Y-97090D01*
X-507162Y-89662D01*
X-514590Y-89662D01*
X-514590Y-90529D01*
X-513343Y-93539D01*
X-511039Y-95843D01*
X-508029Y-97090D01*
G37*
G36*
X-156591Y-103610D02*
X-141199Y-103610D01*
X-141199Y-89662D01*
X-156591Y-89662D01*
X-156591Y-103610D01*
G37*
G36*
X-391338Y-97090D02*
X-390471Y-97090D01*
X-387461Y-95843D01*
X-385157Y-93539D01*
X-383910Y-90529D01*
X-383910Y-89662D01*
X-391338Y-89662D01*
X-391338Y-97090D01*
G37*
G36*
X-156591Y-119082D02*
X-141199Y-119082D01*
X-141199Y-105134D01*
X-156591Y-105134D01*
X-156591Y-119082D01*
G37*
G36*
X-593990Y-113538D02*
X-586562Y-113538D01*
X-586562Y-106110D01*
X-587429Y-106110D01*
X-590439Y-107357D01*
X-592743Y-109661D01*
X-593990Y-112671D01*
X-593990Y-113538D01*
G37*
G36*
X-585038Y-113538D02*
X-577610Y-113538D01*
X-577610Y-112671D01*
X-578857Y-109661D01*
X-581161Y-107357D01*
X-584171Y-106110D01*
X-585038Y-106110D01*
X-585038Y-113538D01*
G37*
G36*
X-472876Y-121220D02*
X-470124Y-121220D01*
X-467580Y-120167D01*
X-465634Y-118220D01*
X-464580Y-115676D01*
X-464580Y-112924D01*
X-465634Y-110380D01*
X-467580Y-108434D01*
X-470124Y-107380D01*
X-472876Y-107380D01*
X-475420Y-108434D01*
X-477367Y-110380D01*
X-478420Y-112924D01*
X-478420Y-115676D01*
X-477367Y-118220D01*
X-475420Y-120167D01*
X-472876Y-121220D01*
G37*
G36*
X-507776Y-121220D02*
X-505024Y-121220D01*
X-502480Y-120167D01*
X-500534Y-118220D01*
X-499480Y-115676D01*
X-499480Y-112924D01*
X-500534Y-110380D01*
X-502480Y-108434D01*
X-505024Y-107380D01*
X-507776Y-107380D01*
X-510320Y-108434D01*
X-512267Y-110380D01*
X-513320Y-112924D01*
X-513320Y-115676D01*
X-512267Y-118220D01*
X-510320Y-120167D01*
X-507776Y-121220D01*
G37*
G36*
X-407544Y-338970D02*
X-404056Y-338970D01*
X-400832Y-337635D01*
X-398365Y-335168D01*
X-397030Y-331944D01*
X-397030Y-328456D01*
X-398365Y-325232D01*
X-400832Y-322765D01*
X-404056Y-321430D01*
X-407544Y-321430D01*
X-410647Y-322715D01*
X-410927Y-322773D01*
X-411225Y-322718D01*
X-411478Y-322550D01*
X-423767Y-310261D01*
X-439674Y-310261D01*
X-439949Y-310210D01*
X-440204Y-310046D01*
X-440376Y-309796D01*
X-440436Y-309499D01*
X-440436Y-257485D01*
X-440391Y-257227D01*
X-440234Y-256968D01*
X-439988Y-256790D01*
X-439692Y-256723D01*
X-439394Y-256776D01*
X-439140Y-256942D01*
X-438970Y-257193D01*
X-438235Y-258968D01*
X-435768Y-261435D01*
X-432544Y-262770D01*
X-429056Y-262770D01*
X-425832Y-261435D01*
X-423365Y-258968D01*
X-422030Y-255744D01*
X-422030Y-253468D01*
X-421974Y-253182D01*
X-421807Y-252929D01*
X-309621Y-140743D01*
X-309379Y-140580D01*
X-309082Y-140520D01*
X-298124Y-140520D01*
X-297380Y-139776D01*
X-297380Y-128818D01*
X-297324Y-128532D01*
X-297157Y-128279D01*
X-288036Y-119158D01*
X-288036Y-115792D01*
X-290417Y-113411D01*
X-293783Y-113411D01*
X-296079Y-115707D01*
X-296299Y-115860D01*
X-296594Y-115930D01*
X-296893Y-115879D01*
X-297148Y-115715D01*
X-297320Y-115465D01*
X-297380Y-115168D01*
X-297380Y-114224D01*
X-298124Y-113480D01*
X-322676Y-113480D01*
X-323420Y-114224D01*
X-323420Y-139776D01*
X-322664Y-140532D01*
X-322469Y-140567D01*
X-322211Y-140726D01*
X-322035Y-140974D01*
X-321970Y-141270D01*
X-322026Y-141568D01*
X-322193Y-141821D01*
X-426254Y-245881D01*
X-426490Y-246042D01*
X-426787Y-246105D01*
X-427084Y-246047D01*
X-429056Y-245230D01*
X-432544Y-245230D01*
X-435768Y-246565D01*
X-438235Y-249032D01*
X-438970Y-250807D01*
X-439110Y-251028D01*
X-439355Y-251207D01*
X-439650Y-251277D01*
X-439949Y-251226D01*
X-440204Y-251063D01*
X-440376Y-250813D01*
X-440436Y-250515D01*
X-440436Y-167099D01*
X-440380Y-166813D01*
X-440213Y-166560D01*
X-394824Y-121171D01*
X-394588Y-121011D01*
X-394291Y-120948D01*
X-393993Y-121006D01*
X-393476Y-121220D01*
X-390724Y-121220D01*
X-388180Y-120167D01*
X-386234Y-118220D01*
X-385180Y-115676D01*
X-385180Y-112924D01*
X-386234Y-110380D01*
X-388180Y-108434D01*
X-390724Y-107380D01*
X-393476Y-107380D01*
X-396020Y-108434D01*
X-397967Y-110380D01*
X-399020Y-112924D01*
X-399020Y-113557D01*
X-399076Y-113843D01*
X-399243Y-114096D01*
X-448564Y-163417D01*
X-448564Y-316008D01*
X-446183Y-318389D01*
X-427449Y-318389D01*
X-427163Y-318445D01*
X-426910Y-318612D01*
X-414793Y-330729D01*
X-414630Y-330971D01*
X-414570Y-331268D01*
X-414570Y-331944D01*
X-413235Y-335168D01*
X-410768Y-337635D01*
X-407544Y-338970D01*
G37*
G36*
X-247638Y-126238D02*
X-234110Y-126238D01*
X-234110Y-113698D01*
X-235598Y-112210D01*
X-247638Y-112210D01*
X-247638Y-126238D01*
G37*
G36*
X-262690Y-126238D02*
X-249162Y-126238D01*
X-249162Y-112210D01*
X-261202Y-112210D01*
X-262690Y-113698D01*
X-262690Y-126238D01*
G37*
G36*
X-585038Y-122490D02*
X-584171Y-122490D01*
X-581161Y-121243D01*
X-578857Y-118939D01*
X-577610Y-115929D01*
X-577610Y-115062D01*
X-585038Y-115062D01*
X-585038Y-122490D01*
G37*
G36*
X-587429Y-122490D02*
X-586562Y-122490D01*
X-586562Y-115062D01*
X-593990Y-115062D01*
X-593990Y-115929D01*
X-592743Y-118939D01*
X-590439Y-121243D01*
X-587429Y-122490D01*
G37*
G36*
X-156591Y-134554D02*
X-141199Y-134554D01*
X-141199Y-120606D01*
X-156591Y-120606D01*
X-156591Y-134554D01*
G37*
G36*
X-247638Y-141790D02*
X-235598Y-141790D01*
X-234110Y-140302D01*
X-234110Y-127762D01*
X-247638Y-127762D01*
X-247638Y-141790D01*
G37*
G36*
X-261202Y-141790D02*
X-249162Y-141790D01*
X-249162Y-127762D01*
X-262690Y-127762D01*
X-262690Y-140302D01*
X-261202Y-141790D01*
G37*
G36*
X465160Y-138938D02*
X474738Y-138938D01*
X474738Y-129360D01*
X473443Y-129360D01*
X469643Y-130934D01*
X466734Y-133843D01*
X465160Y-137643D01*
X465160Y-138938D01*
G37*
G36*
X476262Y-138938D02*
X485840Y-138938D01*
X485840Y-137643D01*
X484266Y-133843D01*
X481357Y-130934D01*
X477557Y-129360D01*
X476262Y-129360D01*
X476262Y-138938D01*
G37*
G36*
X270496Y-148770D02*
X274104Y-148770D01*
X277438Y-147389D01*
X279989Y-144838D01*
X281370Y-141504D01*
X281370Y-137896D01*
X279989Y-134562D01*
X277438Y-132011D01*
X274104Y-130630D01*
X270496Y-130630D01*
X267162Y-132011D01*
X264611Y-134562D01*
X263230Y-137896D01*
X263230Y-141504D01*
X264611Y-144838D01*
X267162Y-147389D01*
X270496Y-148770D01*
G37*
G36*
X245096Y-148770D02*
X248704Y-148770D01*
X252038Y-147389D01*
X254589Y-144838D01*
X255970Y-141504D01*
X255970Y-137896D01*
X254589Y-134562D01*
X252038Y-132011D01*
X248704Y-130630D01*
X245096Y-130630D01*
X241762Y-132011D01*
X239211Y-134562D01*
X237830Y-137896D01*
X237830Y-141504D01*
X239211Y-144838D01*
X241762Y-147389D01*
X245096Y-148770D01*
G37*
G36*
X194296Y-148770D02*
X197904Y-148770D01*
X201238Y-147389D01*
X203789Y-144838D01*
X205170Y-141504D01*
X205170Y-137896D01*
X203789Y-134562D01*
X201238Y-132011D01*
X197904Y-130630D01*
X194296Y-130630D01*
X190962Y-132011D01*
X188411Y-134562D01*
X187030Y-137896D01*
X187030Y-141504D01*
X188411Y-144838D01*
X190962Y-147389D01*
X194296Y-148770D01*
G37*
G36*
X168896Y-148770D02*
X172504Y-148770D01*
X175838Y-147389D01*
X178389Y-144838D01*
X179770Y-141504D01*
X179770Y-137896D01*
X178389Y-134562D01*
X175838Y-132011D01*
X172504Y-130630D01*
X168896Y-130630D01*
X165562Y-132011D01*
X163011Y-134562D01*
X161630Y-137896D01*
X161630Y-141504D01*
X163011Y-144838D01*
X165562Y-147389D01*
X168896Y-148770D01*
G37*
G36*
X136974Y-148770D02*
X153626Y-148770D01*
X154370Y-148026D01*
X154370Y-131374D01*
X153626Y-130630D01*
X136974Y-130630D01*
X136230Y-131374D01*
X136230Y-148026D01*
X136974Y-148770D01*
G37*
G36*
X575296Y-148770D02*
X578904Y-148770D01*
X582238Y-147389D01*
X584789Y-144838D01*
X586170Y-141504D01*
X586170Y-137896D01*
X584789Y-134562D01*
X582238Y-132011D01*
X578904Y-130630D01*
X575296Y-130630D01*
X571962Y-132011D01*
X569411Y-134562D01*
X568030Y-137896D01*
X568030Y-141504D01*
X569411Y-144838D01*
X571962Y-147389D01*
X575296Y-148770D01*
G37*
G36*
X346696Y-148770D02*
X350304Y-148770D01*
X353638Y-147389D01*
X356189Y-144838D01*
X357570Y-141504D01*
X357570Y-137896D01*
X356189Y-134562D01*
X353638Y-132011D01*
X350304Y-130630D01*
X346696Y-130630D01*
X343362Y-132011D01*
X340811Y-134562D01*
X339430Y-137896D01*
X339430Y-141504D01*
X340811Y-144838D01*
X343362Y-147389D01*
X346696Y-148770D01*
G37*
G36*
X549896Y-148770D02*
X553504Y-148770D01*
X556838Y-147389D01*
X559389Y-144838D01*
X560770Y-141504D01*
X560770Y-137896D01*
X559389Y-134562D01*
X556838Y-132011D01*
X553504Y-130630D01*
X549896Y-130630D01*
X546562Y-132011D01*
X544011Y-134562D01*
X542630Y-137896D01*
X542630Y-141504D01*
X544011Y-144838D01*
X546562Y-147389D01*
X549896Y-148770D01*
G37*
G36*
X524496Y-148770D02*
X528104Y-148770D01*
X531438Y-147389D01*
X533989Y-144838D01*
X535370Y-141504D01*
X535370Y-137896D01*
X533989Y-134562D01*
X531438Y-132011D01*
X528104Y-130630D01*
X524496Y-130630D01*
X521162Y-132011D01*
X518611Y-134562D01*
X517230Y-137896D01*
X517230Y-141504D01*
X518611Y-144838D01*
X521162Y-147389D01*
X524496Y-148770D01*
G37*
G36*
X499096Y-148770D02*
X502704Y-148770D01*
X506038Y-147389D01*
X508589Y-144838D01*
X509970Y-141504D01*
X509970Y-137896D01*
X508589Y-134562D01*
X506038Y-132011D01*
X502704Y-130630D01*
X499096Y-130630D01*
X495762Y-132011D01*
X493211Y-134562D01*
X491830Y-137896D01*
X491830Y-141504D01*
X493211Y-144838D01*
X495762Y-147389D01*
X499096Y-148770D01*
G37*
G36*
X219696Y-148770D02*
X223304Y-148770D01*
X226638Y-147389D01*
X229189Y-144838D01*
X230570Y-141504D01*
X230570Y-137896D01*
X229189Y-134562D01*
X226638Y-132011D01*
X223304Y-130630D01*
X219696Y-130630D01*
X216362Y-132011D01*
X213811Y-134562D01*
X212430Y-137896D01*
X212430Y-141504D01*
X213811Y-144838D01*
X216362Y-147389D01*
X219696Y-148770D01*
G37*
G36*
X448296Y-148770D02*
X451904Y-148770D01*
X455238Y-147389D01*
X457789Y-144838D01*
X459170Y-141504D01*
X459170Y-137896D01*
X457789Y-134562D01*
X455238Y-132011D01*
X451904Y-130630D01*
X448296Y-130630D01*
X444962Y-132011D01*
X442411Y-134562D01*
X441030Y-137896D01*
X441030Y-141504D01*
X442411Y-144838D01*
X444962Y-147389D01*
X448296Y-148770D01*
G37*
G36*
X321296Y-148770D02*
X324904Y-148770D01*
X328238Y-147389D01*
X330789Y-144838D01*
X332170Y-141504D01*
X332170Y-137896D01*
X330789Y-134562D01*
X328238Y-132011D01*
X324904Y-130630D01*
X321296Y-130630D01*
X317962Y-132011D01*
X315411Y-134562D01*
X314030Y-137896D01*
X314030Y-141504D01*
X315411Y-144838D01*
X317962Y-147389D01*
X321296Y-148770D01*
G37*
G36*
X295896Y-148770D02*
X299504Y-148770D01*
X302838Y-147389D01*
X305389Y-144838D01*
X306770Y-141504D01*
X306770Y-137896D01*
X305389Y-134562D01*
X302838Y-132011D01*
X299504Y-130630D01*
X295896Y-130630D01*
X292562Y-132011D01*
X290011Y-134562D01*
X288630Y-137896D01*
X288630Y-141504D01*
X290011Y-144838D01*
X292562Y-147389D01*
X295896Y-148770D01*
G37*
G36*
X-391338Y-138938D02*
X-383910Y-138938D01*
X-383910Y-138071D01*
X-385157Y-135061D01*
X-387461Y-132757D01*
X-390471Y-131510D01*
X-391338Y-131510D01*
X-391338Y-138938D01*
G37*
G36*
X-505638Y-138938D02*
X-498210Y-138938D01*
X-498210Y-138071D01*
X-499457Y-135061D01*
X-501761Y-132757D01*
X-504771Y-131510D01*
X-505638Y-131510D01*
X-505638Y-138938D01*
G37*
G36*
X-400290Y-138938D02*
X-392862Y-138938D01*
X-392862Y-131510D01*
X-393729Y-131510D01*
X-396739Y-132757D01*
X-399043Y-135061D01*
X-400290Y-138071D01*
X-400290Y-138938D01*
G37*
G36*
X-514590Y-138938D02*
X-507162Y-138938D01*
X-507162Y-131510D01*
X-508029Y-131510D01*
X-511039Y-132757D01*
X-513343Y-135061D01*
X-514590Y-138071D01*
X-514590Y-138938D01*
G37*
G36*
X-587176Y-146620D02*
X-584424Y-146620D01*
X-581880Y-145567D01*
X-579934Y-143620D01*
X-578880Y-141076D01*
X-578880Y-138324D01*
X-579934Y-135780D01*
X-581880Y-133834D01*
X-584424Y-132780D01*
X-587176Y-132780D01*
X-589720Y-133834D01*
X-591667Y-135780D01*
X-592720Y-138324D01*
X-592720Y-141076D01*
X-591667Y-143620D01*
X-589720Y-145567D01*
X-587176Y-146620D01*
G37*
G36*
X-472876Y-146620D02*
X-470124Y-146620D01*
X-467580Y-145567D01*
X-465634Y-143620D01*
X-464580Y-141076D01*
X-464580Y-138324D01*
X-465634Y-135780D01*
X-467580Y-133834D01*
X-470124Y-132780D01*
X-472876Y-132780D01*
X-475420Y-133834D01*
X-477367Y-135780D01*
X-478420Y-138324D01*
X-478420Y-141076D01*
X-477367Y-143620D01*
X-475420Y-145567D01*
X-472876Y-146620D01*
G37*
G36*
X-156591Y-151638D02*
X-141199Y-151638D01*
X-141199Y-144178D01*
X-141207Y-144166D01*
X-141272Y-143870D01*
X-141217Y-143572D01*
X-141199Y-143545D01*
X-141199Y-136078D01*
X-156591Y-136078D01*
X-156591Y-143538D01*
X-156583Y-143550D01*
X-156518Y-143846D01*
X-156573Y-144144D01*
X-156591Y-144171D01*
X-156591Y-151638D01*
G37*
G36*
X-505638Y-147890D02*
X-504771Y-147890D01*
X-501761Y-146643D01*
X-499457Y-144339D01*
X-498210Y-141329D01*
X-498210Y-140462D01*
X-505638Y-140462D01*
X-505638Y-147890D01*
G37*
G36*
X-508029Y-147890D02*
X-507162Y-147890D01*
X-507162Y-140462D01*
X-514590Y-140462D01*
X-514590Y-141329D01*
X-513343Y-144339D01*
X-511039Y-146643D01*
X-508029Y-147890D01*
G37*
G36*
X476262Y-150040D02*
X477557Y-150040D01*
X481357Y-148466D01*
X484266Y-145557D01*
X485840Y-141757D01*
X485840Y-140462D01*
X476262Y-140462D01*
X476262Y-150040D01*
G37*
G36*
X473443Y-150040D02*
X474738Y-150040D01*
X474738Y-140462D01*
X465160Y-140462D01*
X465160Y-141757D01*
X466734Y-145557D01*
X469643Y-148466D01*
X473443Y-150040D01*
G37*
G36*
X-391338Y-147890D02*
X-390471Y-147890D01*
X-387461Y-146643D01*
X-385157Y-144339D01*
X-383910Y-141329D01*
X-383910Y-140462D01*
X-391338Y-140462D01*
X-391338Y-147890D01*
G37*
G36*
X-393729Y-147890D02*
X-392862Y-147890D01*
X-392862Y-140462D01*
X-400290Y-140462D01*
X-400290Y-141329D01*
X-399043Y-144339D01*
X-396739Y-146643D01*
X-393729Y-147890D01*
G37*
G36*
X-155103Y-162041D02*
X-149657Y-162041D01*
X-149657Y-153162D01*
X-156591Y-153162D01*
X-156591Y-160553D01*
X-155103Y-162041D01*
G37*
G36*
X-148133Y-162041D02*
X-142687Y-162041D01*
X-141199Y-160553D01*
X-141199Y-153162D01*
X-148133Y-153162D01*
X-148133Y-162041D01*
G37*
G36*
X-593990Y-202438D02*
X-586562Y-202438D01*
X-586562Y-195010D01*
X-592502Y-195010D01*
X-593990Y-196498D01*
X-593990Y-202438D01*
G37*
G36*
X-585038Y-202438D02*
X-577610Y-202438D01*
X-577610Y-196498D01*
X-579098Y-195010D01*
X-585038Y-195010D01*
X-585038Y-202438D01*
G37*
G36*
X-587176Y-235520D02*
X-584424Y-235520D01*
X-581880Y-234467D01*
X-579934Y-232520D01*
X-578880Y-229976D01*
X-578880Y-229343D01*
X-578824Y-229057D01*
X-578657Y-228804D01*
X-557340Y-207487D01*
X-557098Y-207324D01*
X-556801Y-207264D01*
X-512438Y-207264D01*
X-512152Y-207320D01*
X-511899Y-207487D01*
X-510320Y-209067D01*
X-507776Y-210120D01*
X-505024Y-210120D01*
X-502480Y-209067D01*
X-500534Y-207120D01*
X-499480Y-204576D01*
X-499480Y-201824D01*
X-500534Y-199280D01*
X-502480Y-197334D01*
X-505024Y-196280D01*
X-507776Y-196280D01*
X-510320Y-197334D01*
X-511899Y-198913D01*
X-512141Y-199076D01*
X-512438Y-199136D01*
X-560483Y-199136D01*
X-583076Y-221729D01*
X-583312Y-221889D01*
X-583609Y-221952D01*
X-583907Y-221894D01*
X-584424Y-221680D01*
X-587176Y-221680D01*
X-589720Y-222734D01*
X-591667Y-224680D01*
X-592720Y-227224D01*
X-592720Y-229976D01*
X-591667Y-232520D01*
X-589720Y-234467D01*
X-587176Y-235520D01*
G37*
G36*
X-592502Y-211390D02*
X-586562Y-211390D01*
X-586562Y-203962D01*
X-593990Y-203962D01*
X-593990Y-209902D01*
X-592502Y-211390D01*
G37*
G36*
X-585038Y-211390D02*
X-579098Y-211390D01*
X-577610Y-209902D01*
X-577610Y-203962D01*
X-585038Y-203962D01*
X-585038Y-211390D01*
G37*
G36*
X339212Y-325810D02*
X341508Y-325810D01*
X343628Y-324932D01*
X345252Y-323308D01*
X346130Y-321188D01*
X346130Y-320333D01*
X346186Y-320047D01*
X346353Y-319794D01*
X353885Y-312262D01*
X354127Y-312099D01*
X354424Y-312039D01*
X366301Y-312039D01*
X366587Y-312095D01*
X366840Y-312262D01*
X367547Y-312969D01*
X367700Y-313189D01*
X367770Y-313484D01*
X367719Y-313783D01*
X367555Y-314038D01*
X367305Y-314210D01*
X367008Y-314270D01*
X364612Y-314270D01*
X362492Y-315148D01*
X360868Y-316772D01*
X359990Y-318892D01*
X359990Y-321188D01*
X360868Y-323308D01*
X362492Y-324932D01*
X364612Y-325810D01*
X366908Y-325810D01*
X368624Y-325099D01*
X368797Y-325051D01*
X368899Y-325055D01*
X369245Y-324848D01*
X369637Y-324739D01*
X395383Y-324739D01*
X396278Y-323844D01*
X396520Y-323681D01*
X396817Y-323621D01*
X403785Y-323621D01*
X404529Y-322877D01*
X404529Y-312123D01*
X403785Y-311379D01*
X393523Y-311379D01*
X392780Y-312123D01*
X392780Y-315533D01*
X392724Y-315818D01*
X392556Y-316071D01*
X392240Y-316388D01*
X391998Y-316551D01*
X391701Y-316611D01*
X382999Y-316611D01*
X382713Y-316555D01*
X382460Y-316388D01*
X369983Y-303911D01*
X350742Y-303911D01*
X348201Y-306451D01*
X347971Y-306609D01*
X347675Y-306674D01*
X347377Y-306619D01*
X347124Y-306451D01*
X290608Y-249936D01*
X227551Y-249936D01*
X227288Y-249889D01*
X227030Y-249730D01*
X226854Y-249482D01*
X226789Y-249186D01*
X226845Y-248888D01*
X227012Y-248635D01*
X238054Y-237593D01*
X238296Y-237430D01*
X238593Y-237370D01*
X249726Y-237370D01*
X250470Y-236626D01*
X250470Y-228668D01*
X250526Y-228382D01*
X250693Y-228129D01*
X261810Y-217012D01*
X262052Y-216849D01*
X262349Y-216789D01*
X331376Y-216789D01*
X331662Y-216845D01*
X331915Y-217012D01*
X347007Y-232104D01*
X347170Y-232346D01*
X347230Y-232643D01*
X347230Y-236626D01*
X347974Y-237370D01*
X364026Y-237370D01*
X364770Y-236626D01*
X364770Y-230251D01*
X364821Y-229976D01*
X364985Y-229721D01*
X365235Y-229549D01*
X365532Y-229489D01*
X366808Y-229489D01*
X371493Y-224805D01*
X371707Y-224654D01*
X372001Y-224582D01*
X372301Y-224631D01*
X372557Y-224792D01*
X372731Y-225041D01*
X372794Y-225337D01*
X372736Y-225635D01*
X372230Y-226856D01*
X372230Y-230344D01*
X373565Y-233568D01*
X376032Y-236035D01*
X379256Y-237370D01*
X382744Y-237370D01*
X385968Y-236035D01*
X388435Y-233568D01*
X389770Y-230344D01*
X389770Y-226856D01*
X388435Y-223632D01*
X385968Y-221165D01*
X382744Y-219830D01*
X379256Y-219830D01*
X378035Y-220336D01*
X377780Y-220393D01*
X377480Y-220347D01*
X377222Y-220187D01*
X377047Y-219940D01*
X376982Y-219644D01*
X377037Y-219346D01*
X377205Y-219093D01*
X379285Y-217012D01*
X379527Y-216849D01*
X379824Y-216789D01*
X452026Y-216789D01*
X452312Y-216845D01*
X452565Y-217012D01*
X461307Y-225754D01*
X461470Y-225996D01*
X461530Y-226293D01*
X461530Y-236626D01*
X462274Y-237370D01*
X478326Y-237370D01*
X479070Y-236626D01*
X479070Y-220574D01*
X478326Y-219830D01*
X467193Y-219830D01*
X466907Y-219774D01*
X466654Y-219607D01*
X455708Y-208661D01*
X376142Y-208661D01*
X365038Y-219764D01*
X364808Y-219922D01*
X364512Y-219988D01*
X364213Y-219932D01*
X364059Y-219830D01*
X347974Y-219830D01*
X347639Y-220164D01*
X347409Y-220322D01*
X347113Y-220388D01*
X346815Y-220332D01*
X346562Y-220164D01*
X335058Y-208661D01*
X258667Y-208661D01*
X247721Y-219607D01*
X247479Y-219770D01*
X247182Y-219830D01*
X233674Y-219830D01*
X232930Y-220574D01*
X232930Y-230907D01*
X232874Y-231193D01*
X232707Y-231446D01*
X223965Y-240188D01*
X223723Y-240351D01*
X223426Y-240411D01*
X151224Y-240411D01*
X150938Y-240355D01*
X150685Y-240188D01*
X148605Y-238107D01*
X148454Y-237893D01*
X148382Y-237599D01*
X148431Y-237299D01*
X148592Y-237043D01*
X148841Y-236869D01*
X149137Y-236807D01*
X149435Y-236864D01*
X150656Y-237370D01*
X154144Y-237370D01*
X157368Y-236035D01*
X159835Y-233568D01*
X161170Y-230344D01*
X161170Y-226856D01*
X159835Y-223632D01*
X157368Y-221165D01*
X154144Y-219830D01*
X150656Y-219830D01*
X147432Y-221165D01*
X144965Y-223632D01*
X143630Y-226856D01*
X143630Y-230344D01*
X144136Y-231565D01*
X144193Y-231820D01*
X144147Y-232120D01*
X143987Y-232378D01*
X143740Y-232553D01*
X143444Y-232618D01*
X143146Y-232563D01*
X142893Y-232395D01*
X136393Y-225896D01*
X136230Y-225654D01*
X136170Y-225357D01*
X136170Y-220574D01*
X135426Y-219830D01*
X119374Y-219830D01*
X118630Y-220574D01*
X118630Y-236626D01*
X119374Y-237370D01*
X135456Y-237370D01*
X135591Y-237278D01*
X135887Y-237212D01*
X136185Y-237268D01*
X136438Y-237436D01*
X147638Y-248635D01*
X147791Y-248855D01*
X147861Y-249150D01*
X147810Y-249449D01*
X147646Y-249704D01*
X147396Y-249876D01*
X147099Y-249936D01*
X-296268Y-249936D01*
X-296543Y-249885D01*
X-296798Y-249721D01*
X-296970Y-249471D01*
X-297030Y-249174D01*
X-297030Y-245974D01*
X-297774Y-245230D01*
X-313826Y-245230D01*
X-314570Y-245974D01*
X-314570Y-262026D01*
X-313826Y-262770D01*
X-297774Y-262770D01*
X-297030Y-262026D01*
X-297030Y-258826D01*
X-296979Y-258551D01*
X-296815Y-258296D01*
X-296565Y-258124D01*
X-296268Y-258064D01*
X286926Y-258064D01*
X287212Y-258120D01*
X287465Y-258287D01*
X341376Y-312199D01*
X341534Y-312429D01*
X341599Y-312725D01*
X341544Y-313023D01*
X341376Y-313276D01*
X340606Y-314047D01*
X340364Y-314210D01*
X340067Y-314270D01*
X339212Y-314270D01*
X337092Y-315148D01*
X335468Y-316772D01*
X334590Y-318892D01*
X334590Y-321188D01*
X335468Y-323308D01*
X337092Y-324932D01*
X339212Y-325810D01*
G37*
G36*
X-109226Y-237370D02*
X-93174Y-237370D01*
X-92430Y-236626D01*
X-92430Y-228668D01*
X-92374Y-228382D01*
X-92207Y-228129D01*
X-81090Y-217012D01*
X-80848Y-216849D01*
X-80551Y-216789D01*
X-11524Y-216789D01*
X-11238Y-216845D01*
X-10985Y-217012D01*
X4107Y-232104D01*
X4270Y-232346D01*
X4330Y-232643D01*
X4330Y-236626D01*
X5074Y-237370D01*
X21126Y-237370D01*
X21870Y-236626D01*
X21870Y-220574D01*
X21126Y-219830D01*
X5074Y-219830D01*
X4739Y-220164D01*
X4509Y-220322D01*
X4213Y-220388D01*
X3915Y-220332D01*
X3662Y-220164D01*
X-7842Y-208661D01*
X-84233Y-208661D01*
X-95179Y-219607D01*
X-95421Y-219770D01*
X-95718Y-219830D01*
X-109226Y-219830D01*
X-109970Y-220574D01*
X-109970Y-236626D01*
X-109226Y-237370D01*
G37*
G36*
X406762Y-227838D02*
X416040Y-227838D01*
X416040Y-226603D01*
X414512Y-222913D01*
X411687Y-220089D01*
X407997Y-218560D01*
X406762Y-218560D01*
X406762Y-227838D01*
G37*
G36*
X63862Y-227838D02*
X73140Y-227838D01*
X73140Y-226603D01*
X71612Y-222913D01*
X68787Y-220089D01*
X65097Y-218560D01*
X63862Y-218560D01*
X63862Y-227838D01*
G37*
G36*
X292462Y-227838D02*
X301740Y-227838D01*
X301740Y-226603D01*
X300212Y-222913D01*
X297387Y-220089D01*
X293697Y-218560D01*
X292462Y-218560D01*
X292462Y-227838D01*
G37*
G36*
X-50438Y-227838D02*
X-41160Y-227838D01*
X-41160Y-226603D01*
X-42689Y-222913D01*
X-45513Y-220089D01*
X-49203Y-218560D01*
X-50438Y-218560D01*
X-50438Y-227838D01*
G37*
G36*
X178162Y-227838D02*
X187440Y-227838D01*
X187440Y-226603D01*
X185912Y-222913D01*
X183087Y-220089D01*
X179397Y-218560D01*
X178162Y-218560D01*
X178162Y-227838D01*
G37*
G36*
X521062Y-227838D02*
X530340Y-227838D01*
X530340Y-226603D01*
X528812Y-222913D01*
X525987Y-220089D01*
X522297Y-218560D01*
X521062Y-218560D01*
X521062Y-227838D01*
G37*
G36*
X281660Y-227838D02*
X290938Y-227838D01*
X290938Y-218560D01*
X289703Y-218560D01*
X286013Y-220089D01*
X283189Y-222913D01*
X281660Y-226603D01*
X281660Y-227838D01*
G37*
G36*
X53060Y-227838D02*
X62338Y-227838D01*
X62338Y-218560D01*
X61103Y-218560D01*
X57413Y-220089D01*
X54589Y-222913D01*
X53060Y-226603D01*
X53060Y-227838D01*
G37*
G36*
X-61240Y-227838D02*
X-51962Y-227838D01*
X-51962Y-218560D01*
X-53197Y-218560D01*
X-56887Y-220089D01*
X-59712Y-222913D01*
X-61240Y-226603D01*
X-61240Y-227838D01*
G37*
G36*
X167360Y-227838D02*
X176638Y-227838D01*
X176638Y-218560D01*
X175403Y-218560D01*
X171713Y-220089D01*
X168889Y-222913D01*
X167360Y-226603D01*
X167360Y-227838D01*
G37*
G36*
X510260Y-227838D02*
X519538Y-227838D01*
X519538Y-218560D01*
X518303Y-218560D01*
X514613Y-220089D01*
X511789Y-222913D01*
X510260Y-226603D01*
X510260Y-227838D01*
G37*
G36*
X395960Y-227838D02*
X405238Y-227838D01*
X405238Y-218560D01*
X404003Y-218560D01*
X400313Y-220089D01*
X397489Y-222913D01*
X395960Y-226603D01*
X395960Y-227838D01*
G37*
G36*
X-77944Y-237370D02*
X-74456Y-237370D01*
X-71232Y-236035D01*
X-68765Y-233568D01*
X-67430Y-230344D01*
X-67430Y-226856D01*
X-68765Y-223632D01*
X-71232Y-221165D01*
X-74456Y-219830D01*
X-77944Y-219830D01*
X-81168Y-221165D01*
X-83635Y-223632D01*
X-84970Y-226856D01*
X-84970Y-230344D01*
X-83635Y-233568D01*
X-81168Y-236035D01*
X-77944Y-237370D01*
G37*
G36*
X36356Y-237370D02*
X39844Y-237370D01*
X43068Y-236035D01*
X45535Y-233568D01*
X46870Y-230344D01*
X46870Y-226856D01*
X45535Y-223632D01*
X43068Y-221165D01*
X39844Y-219830D01*
X36356Y-219830D01*
X33132Y-221165D01*
X30665Y-223632D01*
X29330Y-226856D01*
X29330Y-230344D01*
X30665Y-233568D01*
X33132Y-236035D01*
X36356Y-237370D01*
G37*
G36*
X264956Y-237370D02*
X268444Y-237370D01*
X271668Y-236035D01*
X274135Y-233568D01*
X275470Y-230344D01*
X275470Y-226856D01*
X274135Y-223632D01*
X271668Y-221165D01*
X268444Y-219830D01*
X264956Y-219830D01*
X261732Y-221165D01*
X259265Y-223632D01*
X257930Y-226856D01*
X257930Y-230344D01*
X259265Y-233568D01*
X261732Y-236035D01*
X264956Y-237370D01*
G37*
G36*
X-505638Y-227838D02*
X-498210Y-227838D01*
X-498210Y-226971D01*
X-499457Y-223961D01*
X-501761Y-221657D01*
X-504771Y-220410D01*
X-505638Y-220410D01*
X-505638Y-227838D01*
G37*
G36*
X-514590Y-227838D02*
X-507162Y-227838D01*
X-507162Y-220410D01*
X-508029Y-220410D01*
X-511039Y-221657D01*
X-513343Y-223961D01*
X-514590Y-226971D01*
X-514590Y-227838D01*
G37*
G36*
X-508029Y-236790D02*
X-507162Y-236790D01*
X-507162Y-229362D01*
X-514590Y-229362D01*
X-514590Y-230229D01*
X-513343Y-233239D01*
X-511039Y-235543D01*
X-508029Y-236790D01*
G37*
G36*
X518303Y-238640D02*
X519538Y-238640D01*
X519538Y-229362D01*
X510260Y-229362D01*
X510260Y-230597D01*
X511789Y-234287D01*
X514613Y-237112D01*
X518303Y-238640D01*
G37*
G36*
X521062Y-238640D02*
X522297Y-238640D01*
X525987Y-237112D01*
X528812Y-234287D01*
X530340Y-230597D01*
X530340Y-229362D01*
X521062Y-229362D01*
X521062Y-238640D01*
G37*
G36*
X406762Y-238640D02*
X407997Y-238640D01*
X411687Y-237112D01*
X414512Y-234287D01*
X416040Y-230597D01*
X416040Y-229362D01*
X406762Y-229362D01*
X406762Y-238640D01*
G37*
G36*
X404003Y-238640D02*
X405238Y-238640D01*
X405238Y-229362D01*
X395960Y-229362D01*
X395960Y-230597D01*
X397489Y-234287D01*
X400313Y-237112D01*
X404003Y-238640D01*
G37*
G36*
X292462Y-238640D02*
X293697Y-238640D01*
X297387Y-237112D01*
X300212Y-234287D01*
X301740Y-230597D01*
X301740Y-229362D01*
X292462Y-229362D01*
X292462Y-238640D01*
G37*
G36*
X289703Y-238640D02*
X290938Y-238640D01*
X290938Y-229362D01*
X281660Y-229362D01*
X281660Y-230597D01*
X283189Y-234287D01*
X286013Y-237112D01*
X289703Y-238640D01*
G37*
G36*
X178162Y-238640D02*
X179397Y-238640D01*
X183087Y-237112D01*
X185912Y-234287D01*
X187440Y-230597D01*
X187440Y-229362D01*
X178162Y-229362D01*
X178162Y-238640D01*
G37*
G36*
X175403Y-238640D02*
X176638Y-238640D01*
X176638Y-229362D01*
X167360Y-229362D01*
X167360Y-230597D01*
X168889Y-234287D01*
X171713Y-237112D01*
X175403Y-238640D01*
G37*
G36*
X63862Y-238640D02*
X65097Y-238640D01*
X68787Y-237112D01*
X71612Y-234287D01*
X73140Y-230597D01*
X73140Y-229362D01*
X63862Y-229362D01*
X63862Y-238640D01*
G37*
G36*
X61103Y-238640D02*
X62338Y-238640D01*
X62338Y-229362D01*
X53060Y-229362D01*
X53060Y-230597D01*
X54589Y-234287D01*
X57413Y-237112D01*
X61103Y-238640D01*
G37*
G36*
X-50438Y-238640D02*
X-49203Y-238640D01*
X-45513Y-237112D01*
X-42689Y-234287D01*
X-41160Y-230597D01*
X-41160Y-229362D01*
X-50438Y-229362D01*
X-50438Y-238640D01*
G37*
G36*
X-53197Y-238640D02*
X-51962Y-238640D01*
X-51962Y-229362D01*
X-61240Y-229362D01*
X-61240Y-230597D01*
X-59712Y-234287D01*
X-56887Y-237112D01*
X-53197Y-238640D01*
G37*
G36*
X-505638Y-236790D02*
X-504771Y-236790D01*
X-501761Y-235543D01*
X-499457Y-233239D01*
X-498210Y-230229D01*
X-498210Y-229362D01*
X-505638Y-229362D01*
X-505638Y-236790D01*
G37*
G36*
X-365840Y-253238D02*
X-356562Y-253238D01*
X-356562Y-243960D01*
X-357797Y-243960D01*
X-361487Y-245489D01*
X-364312Y-248313D01*
X-365840Y-252003D01*
X-365840Y-253238D01*
G37*
G36*
X-340840Y-253238D02*
X-331562Y-253238D01*
X-331562Y-243960D01*
X-332797Y-243960D01*
X-336487Y-245489D01*
X-339312Y-248313D01*
X-340840Y-252003D01*
X-340840Y-253238D01*
G37*
G36*
X-330038Y-253238D02*
X-320760Y-253238D01*
X-320760Y-252003D01*
X-322289Y-248313D01*
X-325113Y-245489D01*
X-328803Y-243960D01*
X-330038Y-243960D01*
X-330038Y-253238D01*
G37*
G36*
X-355038Y-253238D02*
X-345760Y-253238D01*
X-345760Y-252003D01*
X-347289Y-248313D01*
X-350113Y-245489D01*
X-353803Y-243960D01*
X-355038Y-243960D01*
X-355038Y-253238D01*
G37*
G36*
X-407544Y-262770D02*
X-404056Y-262770D01*
X-400832Y-261435D01*
X-398365Y-258968D01*
X-397030Y-255744D01*
X-397030Y-252256D01*
X-398365Y-249032D01*
X-400832Y-246565D01*
X-404056Y-245230D01*
X-407544Y-245230D01*
X-410768Y-246565D01*
X-413235Y-249032D01*
X-414570Y-252256D01*
X-414570Y-255744D01*
X-413235Y-258968D01*
X-410768Y-261435D01*
X-407544Y-262770D01*
G37*
G36*
X-382544Y-262770D02*
X-379056Y-262770D01*
X-375832Y-261435D01*
X-373365Y-258968D01*
X-372030Y-255744D01*
X-372030Y-252256D01*
X-373365Y-249032D01*
X-375832Y-246565D01*
X-379056Y-245230D01*
X-382544Y-245230D01*
X-385768Y-246565D01*
X-388235Y-249032D01*
X-389570Y-252256D01*
X-389570Y-255744D01*
X-388235Y-258968D01*
X-385768Y-261435D01*
X-382544Y-262770D01*
G37*
G36*
X-585038Y-253238D02*
X-577610Y-253238D01*
X-577610Y-252371D01*
X-578857Y-249361D01*
X-581161Y-247057D01*
X-584171Y-245810D01*
X-585038Y-245810D01*
X-585038Y-253238D01*
G37*
G36*
X-593990Y-253238D02*
X-586562Y-253238D01*
X-586562Y-245810D01*
X-587429Y-245810D01*
X-590439Y-247057D01*
X-592743Y-249361D01*
X-593990Y-252371D01*
X-593990Y-253238D01*
G37*
G36*
X-587176Y-286320D02*
X-584424Y-286320D01*
X-581880Y-285267D01*
X-579934Y-283320D01*
X-578880Y-280776D01*
X-578880Y-280143D01*
X-578824Y-279857D01*
X-578657Y-279604D01*
X-557340Y-258287D01*
X-557098Y-258124D01*
X-556801Y-258064D01*
X-512438Y-258064D01*
X-512152Y-258120D01*
X-511899Y-258287D01*
X-510320Y-259867D01*
X-507776Y-260920D01*
X-505024Y-260920D01*
X-502480Y-259867D01*
X-500534Y-257920D01*
X-499480Y-255376D01*
X-499480Y-252624D01*
X-500534Y-250080D01*
X-502480Y-248134D01*
X-505024Y-247080D01*
X-507776Y-247080D01*
X-510320Y-248134D01*
X-511899Y-249713D01*
X-512141Y-249876D01*
X-512438Y-249936D01*
X-560483Y-249936D01*
X-583076Y-272529D01*
X-583312Y-272689D01*
X-583609Y-272752D01*
X-583907Y-272694D01*
X-584424Y-272480D01*
X-587176Y-272480D01*
X-589720Y-273534D01*
X-591667Y-275480D01*
X-592720Y-278024D01*
X-592720Y-280776D01*
X-591667Y-283320D01*
X-589720Y-285267D01*
X-587176Y-286320D01*
G37*
G36*
X-330038Y-264040D02*
X-328803Y-264040D01*
X-325113Y-262512D01*
X-322289Y-259687D01*
X-320760Y-255997D01*
X-320760Y-254762D01*
X-330038Y-254762D01*
X-330038Y-264040D01*
G37*
G36*
X-332797Y-264040D02*
X-331562Y-264040D01*
X-331562Y-254762D01*
X-340840Y-254762D01*
X-340840Y-255997D01*
X-339312Y-259687D01*
X-336487Y-262512D01*
X-332797Y-264040D01*
G37*
G36*
X-355038Y-264040D02*
X-353803Y-264040D01*
X-350113Y-262512D01*
X-347289Y-259687D01*
X-345760Y-255997D01*
X-345760Y-254762D01*
X-355038Y-254762D01*
X-355038Y-264040D01*
G37*
G36*
X-357797Y-264040D02*
X-356562Y-264040D01*
X-356562Y-254762D01*
X-365840Y-254762D01*
X-365840Y-255997D01*
X-364312Y-259687D01*
X-361487Y-262512D01*
X-357797Y-264040D01*
G37*
G36*
X-585038Y-262190D02*
X-584171Y-262190D01*
X-581161Y-260943D01*
X-578857Y-258639D01*
X-577610Y-255629D01*
X-577610Y-254762D01*
X-585038Y-254762D01*
X-585038Y-262190D01*
G37*
G36*
X-587429Y-262190D02*
X-586562Y-262190D01*
X-586562Y-254762D01*
X-593990Y-254762D01*
X-593990Y-255629D01*
X-592743Y-258639D01*
X-590439Y-260943D01*
X-587429Y-262190D01*
G37*
G36*
X-507776Y-286320D02*
X-505024Y-286320D01*
X-502480Y-285267D01*
X-500534Y-283320D01*
X-499480Y-280776D01*
X-499480Y-278024D01*
X-500534Y-275480D01*
X-502480Y-273534D01*
X-505024Y-272480D01*
X-507776Y-272480D01*
X-510320Y-273534D01*
X-512267Y-275480D01*
X-513320Y-278024D01*
X-513320Y-280776D01*
X-512267Y-283320D01*
X-510320Y-285267D01*
X-507776Y-286320D01*
G37*
G36*
X407002Y-316738D02*
X413384Y-316738D01*
X413384Y-310109D01*
X408489Y-310109D01*
X407002Y-311597D01*
X407002Y-316738D01*
G37*
G36*
X414908Y-316738D02*
X421291Y-316738D01*
X421291Y-311597D01*
X419803Y-310109D01*
X414908Y-310109D01*
X414908Y-316738D01*
G37*
G36*
X-39878Y-319278D02*
X-33600Y-319278D01*
X-33600Y-318640D01*
X-34672Y-316052D01*
X-36652Y-314072D01*
X-39240Y-313000D01*
X-39878Y-313000D01*
X-39878Y-319278D01*
G37*
G36*
X239522Y-319278D02*
X245800Y-319278D01*
X245800Y-318640D01*
X244728Y-316052D01*
X242748Y-314072D01*
X240160Y-313000D01*
X239522Y-313000D01*
X239522Y-319278D01*
G37*
G36*
X231720Y-319278D02*
X237998Y-319278D01*
X237998Y-313000D01*
X237360Y-313000D01*
X234772Y-314072D01*
X232792Y-316052D01*
X231720Y-318640D01*
X231720Y-319278D01*
G37*
G36*
X-47680Y-319278D02*
X-41402Y-319278D01*
X-41402Y-313000D01*
X-42040Y-313000D01*
X-44628Y-314072D01*
X-46608Y-316052D01*
X-47680Y-318640D01*
X-47680Y-319278D01*
G37*
G36*
X-250880Y-319278D02*
X-244602Y-319278D01*
X-244602Y-313000D01*
X-245240Y-313000D01*
X-247828Y-314072D01*
X-249808Y-316052D01*
X-250880Y-318640D01*
X-250880Y-319278D01*
G37*
G36*
X-243078Y-319278D02*
X-236800Y-319278D01*
X-236800Y-318640D01*
X-237872Y-316052D01*
X-239852Y-314072D01*
X-242440Y-313000D01*
X-243078Y-313000D01*
X-243078Y-319278D01*
G37*
G36*
X-117988Y-325810D02*
X-115692Y-325810D01*
X-113572Y-324932D01*
X-111948Y-323308D01*
X-111070Y-321188D01*
X-111070Y-318892D01*
X-111948Y-316772D01*
X-113572Y-315148D01*
X-115692Y-314270D01*
X-117988Y-314270D01*
X-120108Y-315148D01*
X-121732Y-316772D01*
X-122610Y-318892D01*
X-122610Y-321188D01*
X-121732Y-323308D01*
X-120108Y-324932D01*
X-117988Y-325810D01*
G37*
G36*
X-143388Y-325810D02*
X-141092Y-325810D01*
X-138972Y-324932D01*
X-137348Y-323308D01*
X-136470Y-321188D01*
X-136470Y-318892D01*
X-137348Y-316772D01*
X-138972Y-315148D01*
X-141092Y-314270D01*
X-143388Y-314270D01*
X-145508Y-315148D01*
X-147132Y-316772D01*
X-148010Y-318892D01*
X-148010Y-321188D01*
X-147132Y-323308D01*
X-145508Y-324932D01*
X-143388Y-325810D01*
G37*
G36*
X-168788Y-325810D02*
X-166492Y-325810D01*
X-164372Y-324932D01*
X-162748Y-323308D01*
X-161870Y-321188D01*
X-161870Y-318892D01*
X-162748Y-316772D01*
X-164372Y-315148D01*
X-166492Y-314270D01*
X-168788Y-314270D01*
X-170908Y-315148D01*
X-172532Y-316772D01*
X-173410Y-318892D01*
X-173410Y-321188D01*
X-172532Y-323308D01*
X-170908Y-324932D01*
X-168788Y-325810D01*
G37*
G36*
X313812Y-325810D02*
X316108Y-325810D01*
X318228Y-324932D01*
X319852Y-323308D01*
X320730Y-321188D01*
X320730Y-318892D01*
X319852Y-316772D01*
X318228Y-315148D01*
X316108Y-314270D01*
X313812Y-314270D01*
X311692Y-315148D01*
X310068Y-316772D01*
X309190Y-318892D01*
X309190Y-321188D01*
X310068Y-323308D01*
X311692Y-324932D01*
X313812Y-325810D01*
G37*
G36*
X-194188Y-325810D02*
X-191892Y-325810D01*
X-189772Y-324932D01*
X-188148Y-323308D01*
X-187270Y-321188D01*
X-187270Y-318892D01*
X-188148Y-316772D01*
X-189772Y-315148D01*
X-191892Y-314270D01*
X-194188Y-314270D01*
X-196308Y-315148D01*
X-197932Y-316772D01*
X-198810Y-318892D01*
X-198810Y-321188D01*
X-197932Y-323308D01*
X-196308Y-324932D01*
X-194188Y-325810D01*
G37*
G36*
X186812Y-325810D02*
X189108Y-325810D01*
X191228Y-324932D01*
X192852Y-323308D01*
X193730Y-321188D01*
X193730Y-318892D01*
X192852Y-316772D01*
X191228Y-315148D01*
X189108Y-314270D01*
X186812Y-314270D01*
X184692Y-315148D01*
X183068Y-316772D01*
X182190Y-318892D01*
X182190Y-321188D01*
X183068Y-323308D01*
X184692Y-324932D01*
X186812Y-325810D01*
G37*
G36*
X288412Y-325810D02*
X290708Y-325810D01*
X292828Y-324932D01*
X294452Y-323308D01*
X295330Y-321188D01*
X295330Y-318892D01*
X294452Y-316772D01*
X292828Y-315148D01*
X290708Y-314270D01*
X288412Y-314270D01*
X286292Y-315148D01*
X284668Y-316772D01*
X283790Y-318892D01*
X283790Y-321188D01*
X284668Y-323308D01*
X286292Y-324932D01*
X288412Y-325810D01*
G37*
G36*
X110612Y-325810D02*
X112908Y-325810D01*
X115028Y-324932D01*
X116652Y-323308D01*
X117530Y-321188D01*
X117530Y-318892D01*
X116652Y-316772D01*
X115028Y-315148D01*
X112908Y-314270D01*
X110612Y-314270D01*
X108492Y-315148D01*
X106868Y-316772D01*
X105990Y-318892D01*
X105990Y-321188D01*
X106868Y-323308D01*
X108492Y-324932D01*
X110612Y-325810D01*
G37*
G36*
X263012Y-325810D02*
X265308Y-325810D01*
X267428Y-324932D01*
X269052Y-323308D01*
X269930Y-321188D01*
X269930Y-318892D01*
X269052Y-316772D01*
X267428Y-315148D01*
X265308Y-314270D01*
X263012Y-314270D01*
X260892Y-315148D01*
X259268Y-316772D01*
X258390Y-318892D01*
X258390Y-321188D01*
X259268Y-323308D01*
X260892Y-324932D01*
X263012Y-325810D01*
G37*
G36*
X-219588Y-325810D02*
X-217292Y-325810D01*
X-215172Y-324932D01*
X-213548Y-323308D01*
X-212670Y-321188D01*
X-212670Y-318892D01*
X-213548Y-316772D01*
X-215172Y-315148D01*
X-217292Y-314270D01*
X-219588Y-314270D01*
X-221708Y-315148D01*
X-223332Y-316772D01*
X-224210Y-318892D01*
X-224210Y-321188D01*
X-223332Y-323308D01*
X-221708Y-324932D01*
X-219588Y-325810D01*
G37*
G36*
X161412Y-325810D02*
X163708Y-325810D01*
X165828Y-324932D01*
X167452Y-323308D01*
X168330Y-321188D01*
X168330Y-318892D01*
X167452Y-316772D01*
X165828Y-315148D01*
X163708Y-314270D01*
X161412Y-314270D01*
X159292Y-315148D01*
X157668Y-316772D01*
X156790Y-318892D01*
X156790Y-321188D01*
X157668Y-323308D01*
X159292Y-324932D01*
X161412Y-325810D01*
G37*
G36*
X136012Y-325810D02*
X138308Y-325810D01*
X140428Y-324932D01*
X142052Y-323308D01*
X142930Y-321188D01*
X142930Y-318892D01*
X142052Y-316772D01*
X140428Y-315148D01*
X138308Y-314270D01*
X136012Y-314270D01*
X133892Y-315148D01*
X132268Y-316772D01*
X131390Y-318892D01*
X131390Y-321188D01*
X132268Y-323308D01*
X133892Y-324932D01*
X136012Y-325810D01*
G37*
G36*
X85212Y-325810D02*
X87508Y-325810D01*
X89628Y-324932D01*
X91252Y-323308D01*
X92130Y-321188D01*
X92130Y-318892D01*
X91252Y-316772D01*
X89628Y-315148D01*
X87508Y-314270D01*
X85212Y-314270D01*
X83092Y-315148D01*
X81468Y-316772D01*
X80590Y-318892D01*
X80590Y-321188D01*
X81468Y-323308D01*
X83092Y-324932D01*
X85212Y-325810D01*
G37*
G36*
X34412Y-325810D02*
X36708Y-325810D01*
X38828Y-324932D01*
X40452Y-323308D01*
X41330Y-321188D01*
X41330Y-318892D01*
X40452Y-316772D01*
X38828Y-315148D01*
X36708Y-314270D01*
X34412Y-314270D01*
X32292Y-315148D01*
X30668Y-316772D01*
X29790Y-318892D01*
X29790Y-321188D01*
X30668Y-323308D01*
X32292Y-324932D01*
X34412Y-325810D01*
G37*
G36*
X9012Y-325810D02*
X11308Y-325810D01*
X13428Y-324932D01*
X15052Y-323308D01*
X15930Y-321188D01*
X15930Y-318892D01*
X15052Y-316772D01*
X13428Y-315148D01*
X11308Y-314270D01*
X9012Y-314270D01*
X6892Y-315148D01*
X5268Y-316772D01*
X4390Y-318892D01*
X4390Y-321188D01*
X5268Y-323308D01*
X6892Y-324932D01*
X9012Y-325810D01*
G37*
G36*
X-16388Y-325810D02*
X-14092Y-325810D01*
X-11972Y-324932D01*
X-10348Y-323308D01*
X-9470Y-321188D01*
X-9470Y-318892D01*
X-10348Y-316772D01*
X-11972Y-315148D01*
X-14092Y-314270D01*
X-16388Y-314270D01*
X-18508Y-315148D01*
X-20132Y-316772D01*
X-21010Y-318892D01*
X-21010Y-321188D01*
X-20132Y-323308D01*
X-18508Y-324932D01*
X-16388Y-325810D01*
G37*
G36*
X-67188Y-325810D02*
X-64892Y-325810D01*
X-62772Y-324932D01*
X-61148Y-323308D01*
X-60270Y-321188D01*
X-60270Y-318892D01*
X-61148Y-316772D01*
X-62772Y-315148D01*
X-64892Y-314270D01*
X-67188Y-314270D01*
X-69308Y-315148D01*
X-70932Y-316772D01*
X-71810Y-318892D01*
X-71810Y-321188D01*
X-70932Y-323308D01*
X-69308Y-324932D01*
X-67188Y-325810D01*
G37*
G36*
X-92588Y-325810D02*
X-90292Y-325810D01*
X-88172Y-324932D01*
X-86548Y-323308D01*
X-85670Y-321188D01*
X-85670Y-318892D01*
X-86548Y-316772D01*
X-88172Y-315148D01*
X-90292Y-314270D01*
X-92588Y-314270D01*
X-94708Y-315148D01*
X-96332Y-316772D01*
X-97210Y-318892D01*
X-97210Y-321188D01*
X-96332Y-323308D01*
X-94708Y-324932D01*
X-92588Y-325810D01*
G37*
G36*
X414908Y-324891D02*
X419803Y-324891D01*
X421291Y-323403D01*
X421291Y-318262D01*
X414908Y-318262D01*
X414908Y-324891D01*
G37*
G36*
X408489Y-324891D02*
X413384Y-324891D01*
X413384Y-318262D01*
X407002Y-318262D01*
X407002Y-323403D01*
X408489Y-324891D01*
G37*
G36*
X-365840Y-329438D02*
X-356562Y-329438D01*
X-356562Y-320160D01*
X-357797Y-320160D01*
X-361487Y-321689D01*
X-364312Y-324513D01*
X-365840Y-328203D01*
X-365840Y-329438D01*
G37*
G36*
X-340840Y-329438D02*
X-331562Y-329438D01*
X-331562Y-320160D01*
X-332797Y-320160D01*
X-336487Y-321689D01*
X-339312Y-324513D01*
X-340840Y-328203D01*
X-340840Y-329438D01*
G37*
G36*
X-330038Y-329438D02*
X-320760Y-329438D01*
X-320760Y-328203D01*
X-322289Y-324513D01*
X-325113Y-321689D01*
X-328803Y-320160D01*
X-330038Y-320160D01*
X-330038Y-329438D01*
G37*
G36*
X-355038Y-329438D02*
X-345760Y-329438D01*
X-345760Y-328203D01*
X-347289Y-324513D01*
X-350113Y-321689D01*
X-353803Y-320160D01*
X-355038Y-320160D01*
X-355038Y-329438D01*
G37*
G36*
X-39878Y-327080D02*
X-39240Y-327080D01*
X-36652Y-326008D01*
X-34672Y-324028D01*
X-33600Y-321440D01*
X-33600Y-320802D01*
X-39878Y-320802D01*
X-39878Y-327080D01*
G37*
G36*
X239522Y-327080D02*
X240160Y-327080D01*
X242748Y-326008D01*
X244728Y-324028D01*
X245800Y-321440D01*
X245800Y-320802D01*
X239522Y-320802D01*
X239522Y-327080D01*
G37*
G36*
X237360Y-327080D02*
X237998Y-327080D01*
X237998Y-320802D01*
X231720Y-320802D01*
X231720Y-321440D01*
X232792Y-324028D01*
X234772Y-326008D01*
X237360Y-327080D01*
G37*
G36*
X-42040Y-327080D02*
X-41402Y-327080D01*
X-41402Y-320802D01*
X-47680Y-320802D01*
X-47680Y-321440D01*
X-46608Y-324028D01*
X-44628Y-326008D01*
X-42040Y-327080D01*
G37*
G36*
X-243078Y-327080D02*
X-242440Y-327080D01*
X-239852Y-326008D01*
X-237872Y-324028D01*
X-236800Y-321440D01*
X-236800Y-320802D01*
X-243078Y-320802D01*
X-243078Y-327080D01*
G37*
G36*
X-245240Y-327080D02*
X-244602Y-327080D01*
X-244602Y-320802D01*
X-250880Y-320802D01*
X-250880Y-321440D01*
X-249808Y-324028D01*
X-247828Y-326008D01*
X-245240Y-327080D01*
G37*
G36*
X-489276Y-369120D02*
X-464724Y-369120D01*
X-463980Y-368376D01*
X-463980Y-349393D01*
X-463924Y-349107D01*
X-463757Y-348854D01*
X-452565Y-337662D01*
X-452323Y-337499D01*
X-452026Y-337439D01*
X-436279Y-337439D01*
X-435993Y-337495D01*
X-435805Y-337619D01*
X-432544Y-338970D01*
X-429056Y-338970D01*
X-425832Y-337635D01*
X-423365Y-335168D01*
X-422030Y-331944D01*
X-422030Y-328456D01*
X-423365Y-325232D01*
X-425832Y-322765D01*
X-429056Y-321430D01*
X-432544Y-321430D01*
X-435768Y-322765D01*
X-438235Y-325232D01*
X-439570Y-328456D01*
X-439570Y-328549D01*
X-439621Y-328824D01*
X-439785Y-329079D01*
X-440035Y-329251D01*
X-440332Y-329311D01*
X-455708Y-329311D01*
X-468254Y-341857D01*
X-468496Y-342020D01*
X-468793Y-342080D01*
X-489276Y-342080D01*
X-490020Y-342824D01*
X-490020Y-368376D01*
X-489276Y-369120D01*
G37*
G36*
X-382544Y-338970D02*
X-379056Y-338970D01*
X-375832Y-337635D01*
X-373365Y-335168D01*
X-372030Y-331944D01*
X-372030Y-328456D01*
X-373365Y-325232D01*
X-375832Y-322765D01*
X-379056Y-321430D01*
X-382544Y-321430D01*
X-385768Y-322765D01*
X-388235Y-325232D01*
X-389570Y-328456D01*
X-389570Y-331944D01*
X-388235Y-335168D01*
X-385768Y-337635D01*
X-382544Y-338970D01*
G37*
G36*
X-313826Y-338970D02*
X-297774Y-338970D01*
X-297030Y-338226D01*
X-297030Y-322174D01*
X-297774Y-321430D01*
X-313826Y-321430D01*
X-314570Y-322174D01*
X-314570Y-338226D01*
X-313826Y-338970D01*
G37*
G36*
X-330038Y-340240D02*
X-328803Y-340240D01*
X-325113Y-338712D01*
X-322289Y-335887D01*
X-320760Y-332197D01*
X-320760Y-330962D01*
X-330038Y-330962D01*
X-330038Y-340240D01*
G37*
G36*
X-332797Y-340240D02*
X-331562Y-340240D01*
X-331562Y-330962D01*
X-340840Y-330962D01*
X-340840Y-332197D01*
X-339312Y-335887D01*
X-336487Y-338712D01*
X-332797Y-340240D01*
G37*
G36*
X-355038Y-340240D02*
X-353803Y-340240D01*
X-350113Y-338712D01*
X-347289Y-335887D01*
X-345760Y-332197D01*
X-345760Y-330962D01*
X-355038Y-330962D01*
X-355038Y-340240D01*
G37*
G36*
X-357797Y-340240D02*
X-356562Y-340240D01*
X-356562Y-330962D01*
X-365840Y-330962D01*
X-365840Y-332197D01*
X-364312Y-335887D01*
X-361487Y-338712D01*
X-357797Y-340240D01*
G37*
G36*
X585963Y-375294D02*
X594037Y-375294D01*
X601496Y-372204D01*
X607204Y-366496D01*
X610294Y-359037D01*
X610294Y-350963D01*
X607204Y-343504D01*
X601496Y-337796D01*
X594037Y-334706D01*
X585963Y-334706D01*
X578504Y-337796D01*
X572796Y-343504D01*
X569706Y-350963D01*
X569706Y-359037D01*
X572796Y-366496D01*
X578504Y-372204D01*
X585963Y-375294D01*
G37*
G36*
X-594037Y-375294D02*
X-585963Y-375294D01*
X-578504Y-372204D01*
X-572796Y-366496D01*
X-569706Y-359037D01*
X-569706Y-350963D01*
X-572796Y-343504D01*
X-578504Y-337796D01*
X-585963Y-334706D01*
X-594037Y-334706D01*
X-601496Y-337796D01*
X-607204Y-343504D01*
X-610294Y-350963D01*
X-610294Y-359037D01*
X-607204Y-366496D01*
X-601496Y-372204D01*
X-594037Y-375294D01*
G37*
G36*
X-22280Y-344678D02*
X-16002Y-344678D01*
X-16002Y-338400D01*
X-16640Y-338400D01*
X-19228Y-339472D01*
X-21208Y-341452D01*
X-22280Y-344040D01*
X-22280Y-344678D01*
G37*
G36*
X-47680Y-344678D02*
X-41402Y-344678D01*
X-41402Y-338400D01*
X-42040Y-338400D01*
X-44628Y-339472D01*
X-46608Y-341452D01*
X-47680Y-344040D01*
X-47680Y-344678D01*
G37*
G36*
X-250880Y-344678D02*
X-244602Y-344678D01*
X-244602Y-338400D01*
X-245240Y-338400D01*
X-247828Y-339472D01*
X-249808Y-341452D01*
X-250880Y-344040D01*
X-250880Y-344678D01*
G37*
G36*
X358720Y-344678D02*
X364998Y-344678D01*
X364998Y-338400D01*
X364360Y-338400D01*
X361772Y-339472D01*
X359792Y-341452D01*
X358720Y-344040D01*
X358720Y-344678D01*
G37*
G36*
X333320Y-344678D02*
X339598Y-344678D01*
X339598Y-338400D01*
X338960Y-338400D01*
X336372Y-339472D01*
X334392Y-341452D01*
X333320Y-344040D01*
X333320Y-344678D01*
G37*
G36*
X307920Y-344678D02*
X314198Y-344678D01*
X314198Y-338400D01*
X313560Y-338400D01*
X310972Y-339472D01*
X308992Y-341452D01*
X307920Y-344040D01*
X307920Y-344678D01*
G37*
G36*
X231720Y-344678D02*
X237998Y-344678D01*
X237998Y-338400D01*
X237360Y-338400D01*
X234772Y-339472D01*
X232792Y-341452D01*
X231720Y-344040D01*
X231720Y-344678D01*
G37*
G36*
X282520Y-344678D02*
X288798Y-344678D01*
X288798Y-338400D01*
X288160Y-338400D01*
X285572Y-339472D01*
X283592Y-341452D01*
X282520Y-344040D01*
X282520Y-344678D01*
G37*
G36*
X257120Y-344678D02*
X263398Y-344678D01*
X263398Y-338400D01*
X262760Y-338400D01*
X260172Y-339472D01*
X258192Y-341452D01*
X257120Y-344040D01*
X257120Y-344678D01*
G37*
G36*
X79320Y-344678D02*
X85598Y-344678D01*
X85598Y-338400D01*
X84960Y-338400D01*
X82372Y-339472D01*
X80392Y-341452D01*
X79320Y-344040D01*
X79320Y-344678D01*
G37*
G36*
X28520Y-344678D02*
X34798Y-344678D01*
X34798Y-338400D01*
X34160Y-338400D01*
X31572Y-339472D01*
X29592Y-341452D01*
X28520Y-344040D01*
X28520Y-344678D01*
G37*
G36*
X3120Y-344678D02*
X9398Y-344678D01*
X9398Y-338400D01*
X8760Y-338400D01*
X6172Y-339472D01*
X4192Y-341452D01*
X3120Y-344040D01*
X3120Y-344678D01*
G37*
G36*
X10922Y-344678D02*
X17200Y-344678D01*
X17200Y-344040D01*
X16128Y-341452D01*
X14148Y-339472D01*
X11560Y-338400D01*
X10922Y-338400D01*
X10922Y-344678D01*
G37*
G36*
X36322Y-344678D02*
X42600Y-344678D01*
X42600Y-344040D01*
X41528Y-341452D01*
X39548Y-339472D01*
X36960Y-338400D01*
X36322Y-338400D01*
X36322Y-344678D01*
G37*
G36*
X87122Y-344678D02*
X93400Y-344678D01*
X93400Y-344040D01*
X92328Y-341452D01*
X90348Y-339472D01*
X87760Y-338400D01*
X87122Y-338400D01*
X87122Y-344678D01*
G37*
G36*
X264922Y-344678D02*
X271200Y-344678D01*
X271200Y-344040D01*
X270128Y-341452D01*
X268148Y-339472D01*
X265560Y-338400D01*
X264922Y-338400D01*
X264922Y-344678D01*
G37*
G36*
X290322Y-344678D02*
X296600Y-344678D01*
X296600Y-344040D01*
X295528Y-341452D01*
X293548Y-339472D01*
X290960Y-338400D01*
X290322Y-338400D01*
X290322Y-344678D01*
G37*
G36*
X239522Y-344678D02*
X245800Y-344678D01*
X245800Y-344040D01*
X244728Y-341452D01*
X242748Y-339472D01*
X240160Y-338400D01*
X239522Y-338400D01*
X239522Y-344678D01*
G37*
G36*
X315722Y-344678D02*
X322000Y-344678D01*
X322000Y-344040D01*
X320928Y-341452D01*
X318948Y-339472D01*
X316360Y-338400D01*
X315722Y-338400D01*
X315722Y-344678D01*
G37*
G36*
X341122Y-344678D02*
X347400Y-344678D01*
X347400Y-344040D01*
X346328Y-341452D01*
X344348Y-339472D01*
X341760Y-338400D01*
X341122Y-338400D01*
X341122Y-344678D01*
G37*
G36*
X366522Y-344678D02*
X372800Y-344678D01*
X372800Y-344040D01*
X371728Y-341452D01*
X369748Y-339472D01*
X367160Y-338400D01*
X366522Y-338400D01*
X366522Y-344678D01*
G37*
G36*
X-243078Y-344678D02*
X-236800Y-344678D01*
X-236800Y-344040D01*
X-237872Y-341452D01*
X-239852Y-339472D01*
X-242440Y-338400D01*
X-243078Y-338400D01*
X-243078Y-344678D01*
G37*
G36*
X-39878Y-344678D02*
X-33600Y-344678D01*
X-33600Y-344040D01*
X-34672Y-341452D01*
X-36652Y-339472D01*
X-39240Y-338400D01*
X-39878Y-338400D01*
X-39878Y-344678D01*
G37*
G36*
X-14478Y-344678D02*
X-8200Y-344678D01*
X-8200Y-344040D01*
X-9272Y-341452D01*
X-11252Y-339472D01*
X-13840Y-338400D01*
X-14478Y-338400D01*
X-14478Y-344678D01*
G37*
G36*
X-143388Y-351210D02*
X-141092Y-351210D01*
X-138972Y-350332D01*
X-137348Y-348708D01*
X-136470Y-346588D01*
X-136470Y-344292D01*
X-137348Y-342172D01*
X-138972Y-340548D01*
X-141092Y-339670D01*
X-143388Y-339670D01*
X-145508Y-340548D01*
X-147132Y-342172D01*
X-148010Y-344292D01*
X-148010Y-346588D01*
X-147132Y-348708D01*
X-145508Y-350332D01*
X-143388Y-351210D01*
G37*
G36*
X186812Y-351210D02*
X189108Y-351210D01*
X191228Y-350332D01*
X192852Y-348708D01*
X193730Y-346588D01*
X193730Y-344292D01*
X192852Y-342172D01*
X191228Y-340548D01*
X189108Y-339670D01*
X186812Y-339670D01*
X184692Y-340548D01*
X183068Y-342172D01*
X182190Y-344292D01*
X182190Y-346588D01*
X183068Y-348708D01*
X184692Y-350332D01*
X186812Y-351210D01*
G37*
G36*
X110612Y-351210D02*
X112908Y-351210D01*
X115028Y-350332D01*
X116652Y-348708D01*
X117530Y-346588D01*
X117530Y-344292D01*
X116652Y-342172D01*
X115028Y-340548D01*
X112908Y-339670D01*
X110612Y-339670D01*
X108492Y-340548D01*
X106868Y-342172D01*
X105990Y-344292D01*
X105990Y-346588D01*
X106868Y-348708D01*
X108492Y-350332D01*
X110612Y-351210D01*
G37*
G36*
X-67188Y-351210D02*
X-64892Y-351210D01*
X-62772Y-350332D01*
X-61148Y-348708D01*
X-60270Y-346588D01*
X-60270Y-344292D01*
X-61148Y-342172D01*
X-62772Y-340548D01*
X-64892Y-339670D01*
X-67188Y-339670D01*
X-69308Y-340548D01*
X-70932Y-342172D01*
X-71810Y-344292D01*
X-71810Y-346588D01*
X-70932Y-348708D01*
X-69308Y-350332D01*
X-67188Y-351210D01*
G37*
G36*
X161412Y-351210D02*
X163708Y-351210D01*
X165828Y-350332D01*
X167452Y-348708D01*
X168330Y-346588D01*
X168330Y-344292D01*
X167452Y-342172D01*
X165828Y-340548D01*
X163708Y-339670D01*
X161412Y-339670D01*
X159292Y-340548D01*
X157668Y-342172D01*
X156790Y-344292D01*
X156790Y-346588D01*
X157668Y-348708D01*
X159292Y-350332D01*
X161412Y-351210D01*
G37*
G36*
X-219588Y-351210D02*
X-217292Y-351210D01*
X-215172Y-350332D01*
X-213548Y-348708D01*
X-212670Y-346588D01*
X-212670Y-344292D01*
X-213548Y-342172D01*
X-215172Y-340548D01*
X-217292Y-339670D01*
X-219588Y-339670D01*
X-221708Y-340548D01*
X-223332Y-342172D01*
X-224210Y-344292D01*
X-224210Y-346588D01*
X-223332Y-348708D01*
X-221708Y-350332D01*
X-219588Y-351210D01*
G37*
G36*
X-194188Y-351210D02*
X-191892Y-351210D01*
X-189772Y-350332D01*
X-188148Y-348708D01*
X-187270Y-346588D01*
X-187270Y-344292D01*
X-188148Y-342172D01*
X-189772Y-340548D01*
X-191892Y-339670D01*
X-194188Y-339670D01*
X-196308Y-340548D01*
X-197932Y-342172D01*
X-198810Y-344292D01*
X-198810Y-346588D01*
X-197932Y-348708D01*
X-196308Y-350332D01*
X-194188Y-351210D01*
G37*
G36*
X-168788Y-351210D02*
X-166492Y-351210D01*
X-164372Y-350332D01*
X-162748Y-348708D01*
X-161870Y-346588D01*
X-161870Y-344292D01*
X-162748Y-342172D01*
X-164372Y-340548D01*
X-166492Y-339670D01*
X-168788Y-339670D01*
X-170908Y-340548D01*
X-172532Y-342172D01*
X-173410Y-344292D01*
X-173410Y-346588D01*
X-172532Y-348708D01*
X-170908Y-350332D01*
X-168788Y-351210D01*
G37*
G36*
X-92588Y-351210D02*
X-90292Y-351210D01*
X-88172Y-350332D01*
X-86548Y-348708D01*
X-85670Y-346588D01*
X-85670Y-344292D01*
X-86548Y-342172D01*
X-88172Y-340548D01*
X-90292Y-339670D01*
X-92588Y-339670D01*
X-94708Y-340548D01*
X-96332Y-342172D01*
X-97210Y-344292D01*
X-97210Y-346588D01*
X-96332Y-348708D01*
X-94708Y-350332D01*
X-92588Y-351210D01*
G37*
G36*
X136012Y-351210D02*
X138308Y-351210D01*
X140428Y-350332D01*
X142052Y-348708D01*
X142930Y-346588D01*
X142930Y-344292D01*
X142052Y-342172D01*
X140428Y-340548D01*
X138308Y-339670D01*
X136012Y-339670D01*
X133892Y-340548D01*
X132268Y-342172D01*
X131390Y-344292D01*
X131390Y-346588D01*
X132268Y-348708D01*
X133892Y-350332D01*
X136012Y-351210D01*
G37*
G36*
X-117988Y-351210D02*
X-115692Y-351210D01*
X-113572Y-350332D01*
X-111948Y-348708D01*
X-111070Y-346588D01*
X-111070Y-344292D01*
X-111948Y-342172D01*
X-113572Y-340548D01*
X-115692Y-339670D01*
X-117988Y-339670D01*
X-120108Y-340548D01*
X-121732Y-342172D01*
X-122610Y-344292D01*
X-122610Y-346588D01*
X-121732Y-348708D01*
X-120108Y-350332D01*
X-117988Y-351210D01*
G37*
G36*
X-553290Y-354838D02*
X-539762Y-354838D01*
X-539762Y-340810D01*
X-551802Y-340810D01*
X-553290Y-342298D01*
X-553290Y-354838D01*
G37*
G36*
X-538238Y-354838D02*
X-524710Y-354838D01*
X-524710Y-342298D01*
X-526198Y-340810D01*
X-538238Y-340810D01*
X-538238Y-354838D01*
G37*
G36*
X366522Y-352480D02*
X367160Y-352480D01*
X369748Y-351408D01*
X371728Y-349428D01*
X372800Y-346840D01*
X372800Y-346202D01*
X366522Y-346202D01*
X366522Y-352480D01*
G37*
G36*
X364360Y-352480D02*
X364998Y-352480D01*
X364998Y-346202D01*
X358720Y-346202D01*
X358720Y-346840D01*
X359792Y-349428D01*
X361772Y-351408D01*
X364360Y-352480D01*
G37*
G36*
X341122Y-352480D02*
X341760Y-352480D01*
X344348Y-351408D01*
X346328Y-349428D01*
X347400Y-346840D01*
X347400Y-346202D01*
X341122Y-346202D01*
X341122Y-352480D01*
G37*
G36*
X338960Y-352480D02*
X339598Y-352480D01*
X339598Y-346202D01*
X333320Y-346202D01*
X333320Y-346840D01*
X334392Y-349428D01*
X336372Y-351408D01*
X338960Y-352480D01*
G37*
G36*
X315722Y-352480D02*
X316360Y-352480D01*
X318948Y-351408D01*
X320928Y-349428D01*
X322000Y-346840D01*
X322000Y-346202D01*
X315722Y-346202D01*
X315722Y-352480D01*
G37*
G36*
X313560Y-352480D02*
X314198Y-352480D01*
X314198Y-346202D01*
X307920Y-346202D01*
X307920Y-346840D01*
X308992Y-349428D01*
X310972Y-351408D01*
X313560Y-352480D01*
G37*
G36*
X290322Y-352480D02*
X290960Y-352480D01*
X293548Y-351408D01*
X295528Y-349428D01*
X296600Y-346840D01*
X296600Y-346202D01*
X290322Y-346202D01*
X290322Y-352480D01*
G37*
G36*
X288160Y-352480D02*
X288798Y-352480D01*
X288798Y-346202D01*
X282520Y-346202D01*
X282520Y-346840D01*
X283592Y-349428D01*
X285572Y-351408D01*
X288160Y-352480D01*
G37*
G36*
X264922Y-352480D02*
X265560Y-352480D01*
X268148Y-351408D01*
X270128Y-349428D01*
X271200Y-346840D01*
X271200Y-346202D01*
X264922Y-346202D01*
X264922Y-352480D01*
G37*
G36*
X262760Y-352480D02*
X263398Y-352480D01*
X263398Y-346202D01*
X257120Y-346202D01*
X257120Y-346840D01*
X258192Y-349428D01*
X260172Y-351408D01*
X262760Y-352480D01*
G37*
G36*
X239522Y-352480D02*
X240160Y-352480D01*
X242748Y-351408D01*
X244728Y-349428D01*
X245800Y-346840D01*
X245800Y-346202D01*
X239522Y-346202D01*
X239522Y-352480D01*
G37*
G36*
X237360Y-352480D02*
X237998Y-352480D01*
X237998Y-346202D01*
X231720Y-346202D01*
X231720Y-346840D01*
X232792Y-349428D01*
X234772Y-351408D01*
X237360Y-352480D01*
G37*
G36*
X87122Y-352480D02*
X87760Y-352480D01*
X90348Y-351408D01*
X92328Y-349428D01*
X93400Y-346840D01*
X93400Y-346202D01*
X87122Y-346202D01*
X87122Y-352480D01*
G37*
G36*
X84960Y-352480D02*
X85598Y-352480D01*
X85598Y-346202D01*
X79320Y-346202D01*
X79320Y-346840D01*
X80392Y-349428D01*
X82372Y-351408D01*
X84960Y-352480D01*
G37*
G36*
X36322Y-352480D02*
X36960Y-352480D01*
X39548Y-351408D01*
X41528Y-349428D01*
X42600Y-346840D01*
X42600Y-346202D01*
X36322Y-346202D01*
X36322Y-352480D01*
G37*
G36*
X34160Y-352480D02*
X34798Y-352480D01*
X34798Y-346202D01*
X28520Y-346202D01*
X28520Y-346840D01*
X29592Y-349428D01*
X31572Y-351408D01*
X34160Y-352480D01*
G37*
G36*
X10922Y-352480D02*
X11560Y-352480D01*
X14148Y-351408D01*
X16128Y-349428D01*
X17200Y-346840D01*
X17200Y-346202D01*
X10922Y-346202D01*
X10922Y-352480D01*
G37*
G36*
X8760Y-352480D02*
X9398Y-352480D01*
X9398Y-346202D01*
X3120Y-346202D01*
X3120Y-346840D01*
X4192Y-349428D01*
X6172Y-351408D01*
X8760Y-352480D01*
G37*
G36*
X-14478Y-352480D02*
X-13840Y-352480D01*
X-11252Y-351408D01*
X-9272Y-349428D01*
X-8200Y-346840D01*
X-8200Y-346202D01*
X-14478Y-346202D01*
X-14478Y-352480D01*
G37*
G36*
X-16640Y-352480D02*
X-16002Y-352480D01*
X-16002Y-346202D01*
X-22280Y-346202D01*
X-22280Y-346840D01*
X-21208Y-349428D01*
X-19228Y-351408D01*
X-16640Y-352480D01*
G37*
G36*
X-39878Y-352480D02*
X-39240Y-352480D01*
X-36652Y-351408D01*
X-34672Y-349428D01*
X-33600Y-346840D01*
X-33600Y-346202D01*
X-39878Y-346202D01*
X-39878Y-352480D01*
G37*
G36*
X-42040Y-352480D02*
X-41402Y-352480D01*
X-41402Y-346202D01*
X-47680Y-346202D01*
X-47680Y-346840D01*
X-46608Y-349428D01*
X-44628Y-351408D01*
X-42040Y-352480D01*
G37*
G36*
X-243078Y-352480D02*
X-242440Y-352480D01*
X-239852Y-351408D01*
X-237872Y-349428D01*
X-236800Y-346840D01*
X-236800Y-346202D01*
X-243078Y-346202D01*
X-243078Y-352480D01*
G37*
G36*
X-245240Y-352480D02*
X-244602Y-352480D01*
X-244602Y-346202D01*
X-250880Y-346202D01*
X-250880Y-346840D01*
X-249808Y-349428D01*
X-247828Y-351408D01*
X-245240Y-352480D01*
G37*
G36*
X-538238Y-370390D02*
X-526198Y-370390D01*
X-524710Y-368902D01*
X-524710Y-356362D01*
X-538238Y-356362D01*
X-538238Y-370390D01*
G37*
G36*
X-551802Y-370390D02*
X-539762Y-370390D01*
X-539762Y-356362D01*
X-553290Y-356362D01*
X-553290Y-368902D01*
X-551802Y-370390D01*
G37*
%LPD*%
D10*
X73650Y88900D03*
X104150Y88900D03*
D11*
X23346Y88900D03*
X52854Y88900D03*
D12*
X406000Y177800D03*
D13*
X381000Y177800D03*
X356000Y177800D03*
D12*
X520300Y177800D03*
D13*
X495300Y177800D03*
X470300Y177800D03*
D12*
X13100Y-228600D03*
D13*
X38100Y-228600D03*
X63100Y-228600D03*
D12*
X-101200Y-228600D03*
D13*
X-76200Y-228600D03*
X-51200Y-228600D03*
D12*
X127400Y-228600D03*
D13*
X152400Y-228600D03*
X177400Y-228600D03*
D12*
X241700Y-228600D03*
D13*
X266700Y-228600D03*
X291700Y-228600D03*
D12*
X356000Y-228600D03*
D13*
X381000Y-228600D03*
X406000Y-228600D03*
D12*
X470300Y-228600D03*
D13*
X495300Y-228600D03*
X520300Y-228600D03*
D12*
X519700Y266700D03*
D13*
X494700Y266700D03*
X469700Y266700D03*
X444700Y266700D03*
X419700Y266700D03*
X394700Y266700D03*
D12*
X88300Y266700D03*
D13*
X63300Y266700D03*
X38300Y266700D03*
X13300Y266700D03*
D12*
X-51400Y266700D03*
D13*
X-76400Y266700D03*
X-101400Y266700D03*
X-126400Y266700D03*
D12*
X13300Y177800D03*
D13*
X38300Y177800D03*
X63300Y177800D03*
X88300Y177800D03*
D12*
X-126400Y177800D03*
D13*
X-101400Y177800D03*
X-76400Y177800D03*
X-51400Y177800D03*
D14*
X-243840Y-345440D03*
X-218440Y-345440D03*
X-193040Y-345440D03*
X-167640Y-345440D03*
X-142240Y-345440D03*
X-116840Y-345440D03*
X-91440Y-345440D03*
X-66040Y-345440D03*
X-40640Y-345440D03*
X-15240Y-345440D03*
X10160Y-345440D03*
X35560Y-345440D03*
X86360Y-345440D03*
X111760Y-345440D03*
X137160Y-345440D03*
X162560Y-345440D03*
X187960Y-345440D03*
X238760Y-345440D03*
X264160Y-345440D03*
X289560Y-345440D03*
X314960Y-345440D03*
X340360Y-345440D03*
X365760Y-345440D03*
X-243840Y-320040D03*
X-218440Y-320040D03*
X-193040Y-320040D03*
X-167640Y-320040D03*
X-142240Y-320040D03*
X-116840Y-320040D03*
X-91440Y-320040D03*
X-66040Y-320040D03*
X-40640Y-320040D03*
X-15240Y-320040D03*
X10160Y-320040D03*
X35560Y-320040D03*
X86360Y-320040D03*
X111760Y-320040D03*
X137160Y-320040D03*
X162560Y-320040D03*
X187960Y-320040D03*
X238760Y-320040D03*
X264160Y-320040D03*
X289560Y-320040D03*
X314960Y-320040D03*
X340360Y-320040D03*
X365760Y-320040D03*
X-243840Y327660D03*
X-218440Y327660D03*
X-193040Y327660D03*
X-167640Y327660D03*
X-142240Y327660D03*
X-116840Y327660D03*
X-91440Y327660D03*
X-66040Y327660D03*
X-40640Y327660D03*
X10160Y327660D03*
X35560Y327660D03*
X60960Y327660D03*
X86360Y327660D03*
X111760Y327660D03*
X137160Y327660D03*
X162560Y327660D03*
X187960Y327660D03*
X213360Y327660D03*
X238760Y327660D03*
X264160Y327660D03*
X289560Y327660D03*
X314960Y327660D03*
X340360Y327660D03*
X365760Y327660D03*
X-243840Y353060D03*
X-218440Y353060D03*
X-193040Y353060D03*
X-167640Y353060D03*
X-142240Y353060D03*
X-116840Y353060D03*
X-91440Y353060D03*
X-66040Y353060D03*
X-40640Y353060D03*
X10160Y353060D03*
X35560Y353060D03*
X60960Y353060D03*
X86360Y353060D03*
X111760Y353060D03*
X137160Y353060D03*
X162560Y353060D03*
X187960Y353060D03*
X213360Y353060D03*
X238760Y353060D03*
X264160Y353060D03*
X289560Y353060D03*
X314960Y353060D03*
X340360Y353060D03*
X365760Y353060D03*
D15*
X-408940Y331470D03*
X-373380Y347980D03*
X-337820Y347980D03*
X-303530Y331470D03*
X-337820Y314960D03*
X-373380Y314960D03*
D12*
X-305800Y-254000D03*
D13*
X-330800Y-254000D03*
X-355800Y-254000D03*
X-380800Y-254000D03*
X-405800Y-254000D03*
X-430800Y-254000D03*
D12*
X-305800Y-330200D03*
D13*
X-330800Y-330200D03*
X-355800Y-330200D03*
X-380800Y-330200D03*
X-405800Y-330200D03*
X-430800Y-330200D03*
D12*
X-571500Y291100D03*
D13*
X-571500Y266100D03*
X-571500Y241100D03*
X-571500Y216100D03*
X-571500Y191100D03*
X-571500Y166100D03*
D16*
X301295Y38100D03*
X282905Y38100D03*
X186995Y38100D03*
X168605Y38100D03*
X529895Y38100D03*
X511505Y38100D03*
X415595Y38100D03*
X397205Y38100D03*
D17*
X-584200Y106680D02*
X-584200Y121920D01*
X-558800Y121920D02*
X-558800Y106680D01*
X-533400Y106680D02*
X-533400Y121920D01*
X-584200Y83820D02*
X-584200Y68580D01*
X-558800Y68580D02*
X-558800Y83820D01*
X-533400Y83820D02*
X-533400Y68580D01*
X-584200Y33020D02*
X-584200Y17780D01*
X-558800Y17780D02*
X-558800Y33020D01*
X-533400Y33020D02*
X-533400Y17780D01*
X-584200Y-5080D02*
X-584200Y-20320D01*
X-558800Y-20320D02*
X-558800Y-5080D01*
X-533400Y-5080D02*
X-533400Y-20320D01*
D18*
X182121Y-38100D03*
X224279Y-38100D03*
X512321Y-38100D03*
X554479Y-38100D03*
X283721Y-38100D03*
X325879Y-38100D03*
X465579Y-38100D03*
X423421Y-38100D03*
D19*
X-177800Y9906D02*
X-177800Y22098D01*
X-152400Y22098D02*
X-152400Y9906D01*
X-25400Y9906D02*
X-25400Y22098D01*
X-25400Y86106D02*
X-25400Y98298D01*
X-127000Y22098D02*
X-127000Y9906D01*
X-101600Y9906D02*
X-101600Y22098D01*
X-50800Y22098D02*
X-50800Y9906D01*
X-76200Y9906D02*
X-76200Y22098D01*
X-50800Y86106D02*
X-50800Y98298D01*
X-76200Y98298D02*
X-76200Y86106D01*
X-101600Y86106D02*
X-101600Y98298D01*
X-127000Y98298D02*
X-127000Y86106D01*
X-152400Y86106D02*
X-152400Y98298D01*
X-177800Y98298D02*
X-177800Y86106D01*
D20*
X-347854Y279400D03*
X-363346Y279400D03*
X398654Y-317500D03*
X414146Y-317500D03*
X-261746Y292100D03*
X-246254Y292100D03*
X452246Y139700D03*
X436754Y139700D03*
D21*
X-397980Y155000D03*
X-397980Y147000D03*
X-397980Y139000D03*
X-397980Y131000D03*
X-397980Y123000D03*
X-397980Y115000D03*
X-397980Y107000D03*
X-397980Y99000D03*
D22*
X-383600Y84620D03*
X-375600Y84620D03*
X-367600Y84620D03*
X-359600Y84620D03*
X-351600Y84620D03*
X-343600Y84620D03*
X-335600Y84620D03*
X-327600Y84620D03*
D21*
X-313220Y99000D03*
X-313220Y107000D03*
X-313220Y115000D03*
X-313220Y123000D03*
X-313220Y131000D03*
X-313220Y139000D03*
X-313220Y147000D03*
X-313220Y155000D03*
D22*
X-327600Y169380D03*
X-335600Y169380D03*
X-343600Y169380D03*
X-351600Y169380D03*
X-359600Y169380D03*
X-367600Y169380D03*
X-375600Y169380D03*
X-383600Y169380D03*
D23*
X-255720Y247650D03*
X-255720Y234950D03*
X-255720Y222250D03*
X-255720Y209550D03*
X-255720Y196850D03*
X-255720Y184150D03*
X-255720Y171450D03*
X-255720Y158750D03*
X-201480Y158750D03*
X-201480Y171450D03*
X-201480Y184150D03*
X-201480Y196850D03*
X-201480Y209550D03*
X-201480Y222250D03*
X-201480Y234950D03*
X-201480Y247650D03*
D24*
X-585800Y-63500D03*
D25*
X-585800Y-88900D03*
X-585800Y-114300D03*
X-585800Y-139700D03*
X-506400Y-139700D03*
X-506400Y-114300D03*
X-506400Y-88900D03*
X-506400Y-63500D03*
D24*
X-471500Y-63500D03*
D25*
X-471500Y-88900D03*
X-471500Y-114300D03*
X-471500Y-139700D03*
X-392100Y-139700D03*
X-392100Y-114300D03*
X-392100Y-88900D03*
X-392100Y-63500D03*
D24*
X-585800Y-203200D03*
D25*
X-585800Y-228600D03*
X-585800Y-254000D03*
X-585800Y-279400D03*
X-506400Y-279400D03*
X-506400Y-254000D03*
X-506400Y-228600D03*
X-506400Y-203200D03*
D26*
X-456200Y228600D03*
X-407400Y228600D03*
D27*
X-508000Y355600D03*
X-482600Y355600D03*
X-457200Y355600D03*
X-508000Y317500D03*
X-482600Y317500D03*
X-457200Y317500D03*
D28*
X-279400Y233554D03*
X-279400Y249046D03*
D29*
X-477000Y-355600D03*
X-539000Y-355600D03*
X-310400Y-127000D03*
X-248400Y-127000D03*
D20*
X-274446Y76200D03*
X-258954Y76200D03*
X-274446Y114300D03*
X-258954Y114300D03*
D28*
X-381000Y30354D03*
X-381000Y45846D03*
X-342900Y30354D03*
X-342900Y45846D03*
X-292100Y45846D03*
X-292100Y30354D03*
X-317500Y45846D03*
X-317500Y30354D03*
D30*
X-245848Y88900D03*
X-262152Y88900D03*
X-245848Y101600D03*
X-262152Y101600D03*
D31*
X-368300Y17248D03*
X-368300Y33552D03*
X-355600Y17248D03*
X-355600Y33552D03*
X-330200Y17248D03*
X-330200Y33552D03*
X-304800Y17248D03*
X-304800Y33552D03*
D32*
X292100Y266700D03*
X266700Y266700D03*
X241300Y266700D03*
X317500Y266700D03*
D33*
X145300Y-139700D03*
D34*
X170700Y-139700D03*
X602500Y-139700D03*
X196100Y-139700D03*
X221500Y-139700D03*
X246900Y-139700D03*
X272300Y-139700D03*
X297700Y-139700D03*
X323100Y-139700D03*
X348500Y-139700D03*
X373900Y-139700D03*
X399300Y-139700D03*
X424700Y-139700D03*
X450100Y-139700D03*
X475500Y-139700D03*
X500900Y-139700D03*
X526300Y-139700D03*
X551700Y-139700D03*
X577100Y-139700D03*
X145300Y114300D03*
X170700Y114300D03*
X196100Y114300D03*
X221500Y114300D03*
X246900Y114300D03*
X272300Y114300D03*
X297700Y114300D03*
X323100Y114300D03*
X348500Y114300D03*
X373900Y114300D03*
X399300Y114300D03*
X424700Y114300D03*
X450100Y114300D03*
X475500Y114300D03*
X500900Y114300D03*
X526300Y114300D03*
X551700Y114300D03*
X577100Y114300D03*
X602500Y114300D03*
D16*
X-47295Y-152400D03*
X-28905Y-152400D03*
X-47295Y-136928D03*
X-28905Y-136928D03*
X-47295Y-121456D03*
X-28905Y-121456D03*
X-47295Y-105984D03*
X-28905Y-105984D03*
X-47295Y-88900D03*
X-28905Y-88900D03*
X-148895Y-88900D03*
X-130505Y-88900D03*
X-148895Y-104372D03*
X-130505Y-104372D03*
X-148895Y-119844D03*
X-130505Y-119844D03*
X-148895Y-135316D03*
X-130505Y-135316D03*
X-148895Y-152400D03*
X-130505Y-152400D03*
D12*
X25400Y-164100D03*
D13*
X25400Y-139100D03*
X25400Y-114100D03*
X25400Y-89100D03*
X25400Y-64100D03*
X25400Y-39100D03*
D19*
X247904Y50800D02*
X260096Y50800D01*
X260096Y25400D02*
X247904Y25400D01*
X324104Y25400D02*
X336296Y25400D01*
X336296Y50800D02*
X324104Y50800D01*
X145796Y50800D02*
X133604Y50800D01*
X133604Y25400D02*
X145796Y25400D01*
X209804Y25400D02*
X221996Y25400D01*
X221996Y50800D02*
X209804Y50800D01*
X476504Y50800D02*
X488696Y50800D01*
X488696Y25400D02*
X476504Y25400D01*
X552704Y25400D02*
X564896Y25400D01*
X564896Y50800D02*
X552704Y50800D01*
X374142Y50800D02*
X361950Y50800D01*
X361950Y25400D02*
X374142Y25400D01*
X438150Y25400D02*
X450342Y25400D01*
X450342Y50800D02*
X438150Y50800D01*
D35*
X428625Y250825D02*
X444500Y266700D01*
X428625Y250825D02*
X311150Y250825D01*
X295275Y266700D01*
X292100Y266700D01*
X444500Y266700D02*
X444700Y266700D01*
X450850Y282575D02*
X466725Y266700D01*
X450850Y282575D02*
X336550Y282575D01*
X320675Y266700D01*
X317500Y266700D01*
X466725Y266700D02*
X469700Y266700D01*
X381000Y177800D02*
X381000Y130175D01*
X190500Y130175D01*
X174625Y114300D01*
X170700Y114300D01*
X104150Y88900D02*
X425450Y88900D01*
X450850Y114300D01*
X450100Y114300D01*
X73650Y88900D02*
X52854Y88900D01*
X158750Y161925D02*
X161925Y158750D01*
X361950Y158750D01*
D36*
X158750Y161925D03*
X361950Y158750D03*
D35*
X127000Y139700D02*
X88900Y177800D01*
X127000Y139700D02*
X349250Y139700D01*
X88900Y177800D02*
X88300Y177800D01*
D36*
X349250Y139700D03*
D35*
X38100Y104775D02*
X-123825Y266700D01*
X38100Y104775D02*
X133350Y104775D01*
X139700Y98425D01*
X333375Y98425D01*
X349250Y114300D01*
X-123825Y266700D02*
X-126400Y266700D01*
X348500Y114300D02*
X349250Y114300D01*
X111125Y171450D02*
X15875Y266700D01*
X111125Y171450D02*
X323850Y171450D01*
X15875Y266700D02*
X13300Y266700D01*
D36*
X323850Y171450D03*
D35*
X419100Y-152400D02*
X495300Y-228600D01*
X419100Y-152400D02*
X390525Y-152400D01*
X377825Y-139700D01*
X373900Y-139700D01*
X396875Y-317500D02*
X393700Y-320675D01*
X381000Y-320675D02*
X368300Y-320675D01*
X381000Y-320675D02*
X393700Y-320675D01*
X396875Y-317500D02*
X398654Y-317500D01*
X368300Y-320675D02*
X365760Y-320040D01*
X352425Y-307975D02*
X347663Y-312738D01*
X340360Y-320040D01*
X352425Y-307975D02*
X368300Y-307975D01*
X381000Y-320675D01*
X-349250Y292100D02*
X-349250Y314325D01*
X-349250Y292100D02*
X-349250Y279400D01*
X-349250Y314325D02*
X-339725Y314325D01*
X-347854Y279400D02*
X-349250Y279400D01*
X-339725Y314325D02*
X-337820Y314960D01*
X-336550Y314325D02*
X-292100Y269875D01*
X-190500Y269875D01*
X-98425Y177800D01*
X-336550Y314325D02*
X-337820Y314960D01*
X-101400Y177800D02*
X-98425Y177800D01*
X-536575Y254000D02*
X-571500Y219075D01*
X-536575Y254000D02*
X-409575Y254000D01*
X-371475Y292100D01*
X-349250Y292100D01*
X-571500Y219075D02*
X-571500Y216100D01*
X288925Y-254000D02*
X347663Y-312738D01*
X288925Y-254000D02*
X-305800Y-254000D01*
X244475Y-228600D02*
X260350Y-212725D01*
X333375Y-212725D01*
X349250Y-228600D01*
X356000Y-228600D01*
X244475Y-228600D02*
X241700Y-228600D01*
X454025Y-212725D02*
X469900Y-228600D01*
X454025Y-212725D02*
X377825Y-212725D01*
X365125Y-225425D01*
X349250Y-225425D01*
X469900Y-228600D02*
X470300Y-228600D01*
X356000Y-228600D02*
X349250Y-225425D01*
X-330200Y168275D02*
X-333375Y168275D01*
X-335600Y169380D01*
X-330200Y168275D02*
X-327600Y169380D01*
X-400050Y98425D02*
X-403225Y95250D01*
X-406400Y95250D01*
X-412750Y101600D01*
X-412750Y114300D01*
X-400050Y114300D01*
X-397980Y99000D02*
X-400050Y98425D01*
X-400050Y114300D02*
X-397980Y115000D01*
X-400050Y139700D02*
X-409575Y139700D01*
X-412750Y136525D01*
X-412750Y114300D01*
X-400050Y139700D02*
X-397980Y139000D01*
X-327025Y158750D02*
X-327025Y165100D01*
X-327025Y168275D01*
X-327025Y158750D02*
X-371475Y114300D01*
X-396875Y114300D01*
X-327025Y168275D02*
X-327600Y169380D01*
X-396875Y114300D02*
X-397980Y115000D01*
X-82550Y-212725D02*
X-98425Y-228600D01*
X-82550Y-212725D02*
X-9525Y-212725D01*
X6350Y-228600D01*
X13100Y-228600D01*
X-98425Y-228600D02*
X-101200Y-228600D01*
X-301625Y165100D02*
X-327025Y165100D01*
X-301625Y165100D02*
X-263525Y127000D01*
X-327025Y165100D02*
X-327600Y169380D01*
X225425Y-244475D02*
X241300Y-228600D01*
X225425Y-244475D02*
X149225Y-244475D01*
X133350Y-228600D01*
X127400Y-228600D01*
X241300Y-228600D02*
X241700Y-228600D01*
D36*
X-263525Y127000D03*
D35*
X498475Y25400D02*
X511175Y38100D01*
X498475Y25400D02*
X482600Y25400D01*
X511175Y38100D02*
X511505Y38100D01*
X396875Y38100D02*
X384175Y25400D01*
X368046Y25400D01*
X396875Y38100D02*
X397205Y38100D01*
X282575Y38100D02*
X269875Y25400D01*
X254000Y25400D01*
X282575Y38100D02*
X282905Y38100D01*
X168275Y38100D02*
X155575Y25400D01*
X139700Y25400D01*
X168275Y38100D02*
X168605Y38100D01*
X327025Y-12700D02*
X327025Y-38100D01*
X325879Y-38100D01*
D36*
X327025Y-12700D03*
D35*
X222250Y-38100D02*
X219075Y-34925D01*
X206375Y-34925D01*
X222250Y-38100D02*
X224279Y-38100D01*
D36*
X206375Y-34925D03*
D35*
X555625Y-38100D02*
X555625Y25400D01*
X558800Y25400D01*
X555625Y-38100D02*
X554479Y-38100D01*
X425450Y-38100D02*
X425450Y-12700D01*
X425450Y-38100D02*
X423421Y-38100D01*
D36*
X425450Y-12700D03*
D35*
X200025Y-22225D02*
X184150Y-38100D01*
X200025Y-22225D02*
X257175Y-22225D01*
X273050Y-38100D01*
X283721Y-38100D01*
X184150Y-38100D02*
X182121Y-38100D01*
X-555625Y47625D02*
X-584200Y76200D01*
X-555625Y47625D02*
X-444500Y47625D01*
X-374650Y-22225D01*
X155575Y-22225D01*
X168275Y-34925D01*
X184150Y-34925D01*
X182121Y-38100D01*
X465579Y-38100D02*
X512321Y-38100D01*
X-561975Y-34925D02*
X-584200Y-12700D01*
X-561975Y-34925D02*
X0Y-34925D01*
X15875Y-50800D01*
X165100Y-50800D01*
X168275Y-53975D01*
X438150Y-53975D01*
X454025Y-38100D01*
X465579Y-38100D01*
X-107950Y63500D02*
X-152400Y19050D01*
X-107950Y63500D02*
X228600Y63500D01*
X241300Y50800D01*
X254000Y50800D01*
X-152400Y19050D02*
X-152400Y16002D01*
X-101600Y19050D02*
X-85725Y34925D01*
X104775Y34925D01*
X127000Y12700D01*
X409575Y12700D01*
X434975Y38100D01*
X457200Y38100D01*
X469900Y50800D01*
X482600Y50800D01*
X-101600Y19050D02*
X-101600Y16002D01*
X330200Y50800D02*
X330200Y73025D01*
X-228600Y73025D01*
X-295275Y6350D01*
X-390525Y6350D01*
X-520700Y136525D01*
X-568325Y136525D01*
X-584200Y120650D01*
X-584200Y114300D01*
X558800Y50800D02*
X558800Y38100D01*
X549275Y38100D01*
X508000Y-3175D01*
X-381000Y-3175D01*
X-422275Y-44450D02*
X-577850Y-44450D01*
X-600075Y-22225D01*
X-600075Y25400D01*
X-584200Y25400D01*
D36*
X-381000Y-3175D03*
X-422275Y-44450D03*
D35*
X454025Y139700D02*
X454025Y174625D01*
X463550Y174625D01*
X466725Y177800D01*
X470300Y177800D01*
X577850Y-117475D02*
X600075Y-139700D01*
X577850Y-117475D02*
X577850Y98425D01*
X574675Y98425D01*
X565150Y107950D01*
X565150Y139700D01*
X454025Y139700D01*
X600075Y-139700D02*
X602500Y-139700D01*
X454025Y139700D02*
X452246Y139700D01*
X-255720Y234950D02*
X-269875Y234950D01*
X-279400Y234950D01*
X-279400Y233554D01*
X-260350Y187325D02*
X-257175Y184150D01*
X-260350Y187325D02*
X-266700Y187325D01*
X-279400Y200025D01*
X-279400Y233554D01*
X-257175Y184150D02*
X-255720Y184150D01*
X-263525Y304800D02*
X-263525Y330200D01*
X-263525Y304800D02*
X-263525Y292100D01*
X-263525Y330200D02*
X-301625Y330200D01*
X-263525Y292100D02*
X-261746Y292100D01*
X-301625Y330200D02*
X-303530Y331470D01*
X241300Y266700D02*
X327025Y180975D01*
X349250Y180975D01*
X352425Y177800D01*
X356000Y177800D01*
X200025Y304800D02*
X-263525Y304800D01*
X200025Y304800D02*
X238125Y266700D01*
X241300Y266700D01*
D36*
X-269875Y234950D03*
D35*
X-177800Y114300D02*
X-177800Y92202D01*
X-177800Y114300D02*
X-247650Y184150D01*
X-255720Y184150D01*
D37*
X-532130Y147320D03*
D35*
X-398300Y147320D01*
X-397980Y147000D01*
X-400050Y155575D02*
X-561975Y155575D01*
X-581025Y136525D01*
X-587375Y136525D01*
X-609600Y114300D01*
X-609600Y-88900D01*
X-585800Y-88900D01*
X-400050Y155575D02*
X-397980Y155000D01*
X-358775Y171450D02*
X-358775Y228600D01*
X-407400Y228600D01*
X-358775Y171450D02*
X-359600Y169380D01*
X-368300Y171450D02*
X-368300Y212725D01*
X-434975Y212725D01*
X-450850Y228600D01*
X-456200Y228600D01*
X-368300Y171450D02*
X-367600Y169380D01*
X-393700Y-114300D02*
X-444500Y-165100D01*
X-444500Y-314325D01*
X-425450Y-314325D01*
X-409575Y-330200D01*
X-405800Y-330200D01*
X-393700Y-114300D02*
X-392100Y-114300D01*
X-222250Y234950D02*
X-201480Y234950D01*
X-222250Y234950D02*
X-247650Y260350D01*
X-288925Y260350D01*
X-349250Y200025D01*
X-454025Y-333375D02*
X-476250Y-355600D01*
X-454025Y-333375D02*
X-438150Y-333375D01*
X-434975Y-330200D01*
X-430800Y-330200D01*
X-476250Y-355600D02*
X-477000Y-355600D01*
D36*
X-349250Y200025D03*
D35*
X-215900Y222250D02*
X-201480Y222250D01*
X-292100Y-117475D02*
X-301625Y-127000D01*
X-310400Y-127000D01*
X-301625Y-127000D02*
X-428625Y-254000D01*
X-430800Y-254000D01*
D36*
X-215900Y222250D03*
X-292100Y-117475D03*
D35*
X-539750Y260350D02*
X-482600Y317500D01*
X-539750Y260350D02*
X-565150Y260350D01*
X-568325Y263525D01*
X-571500Y263525D01*
X-571500Y266100D01*
X-381000Y44450D02*
X-371475Y44450D01*
X-369888Y42863D02*
X-368300Y41275D01*
X-369888Y42863D02*
X-371475Y44450D01*
X-368300Y41275D02*
X-368300Y33552D01*
X-381000Y44450D02*
X-381000Y45846D01*
X-368300Y44450D02*
X-368300Y82550D01*
X-367600Y84620D01*
X-368300Y44450D02*
X-369888Y42863D01*
X-327025Y44450D02*
X-317500Y44450D01*
X-327025Y44450D02*
X-330200Y41275D01*
X-330200Y33552D01*
X-317500Y44450D02*
X-317500Y45846D01*
X-334664Y83684D02*
X-335600Y84620D01*
X-334664Y83684D02*
X-334664Y75562D01*
X-330200Y71098D02*
X-330200Y41275D01*
X-330200Y71098D02*
X-334664Y75562D01*
X-273050Y76200D02*
X-273050Y88900D01*
X-262152Y88900D01*
X-273050Y76200D02*
X-274446Y76200D01*
X-298450Y114300D02*
X-311150Y114300D01*
X-298450Y114300D02*
X-273050Y88900D01*
X-311150Y114300D02*
X-313220Y115000D01*
X-342900Y44450D02*
X-352425Y44450D01*
X-354013Y42863D02*
X-355600Y41275D01*
X-354013Y42863D02*
X-352425Y44450D01*
X-355600Y41275D02*
X-355600Y33552D01*
X-342900Y44450D02*
X-342900Y45846D01*
X-358775Y44450D02*
X-358775Y82550D01*
X-358775Y44450D02*
X-355600Y44450D01*
X-358775Y82550D02*
X-359600Y84620D01*
X-355600Y44450D02*
X-354013Y42863D01*
X-301625Y44450D02*
X-292100Y44450D01*
X-303213Y42863D02*
X-304800Y41275D01*
X-303213Y42863D02*
X-301625Y44450D01*
X-304800Y41275D02*
X-304800Y33552D01*
X-292100Y44450D02*
X-292100Y45846D01*
X-304800Y60325D02*
X-327025Y82550D01*
X-304800Y60325D02*
X-304800Y44450D01*
X-327025Y82550D02*
X-327600Y84620D01*
X-304800Y44450D02*
X-303213Y42863D01*
X-273050Y101600D02*
X-273050Y114300D01*
X-273050Y101600D02*
X-262152Y101600D01*
X-273050Y114300D02*
X-274446Y114300D01*
X-292100Y123825D02*
X-311150Y123825D01*
X-292100Y123825D02*
X-282575Y114300D01*
X-274446Y114300D01*
X-311150Y123825D02*
X-313220Y123000D01*
X-558800Y-203200D02*
X-584200Y-228600D01*
X-558800Y-203200D02*
X-506400Y-203200D01*
X-584200Y-228600D02*
X-585800Y-228600D01*
X-558800Y-254000D02*
X-584200Y-279400D01*
X-558800Y-254000D02*
X-506400Y-254000D01*
X-584200Y-279400D02*
X-585800Y-279400D01*
X-130505Y-88900D02*
X-47625Y-88900D01*
X381000Y-123825D02*
X396875Y-139700D01*
X381000Y-123825D02*
X34925Y-123825D01*
X31750Y-127000D01*
X-19050Y-127000D01*
X-47625Y-79375D02*
X-44450Y-76200D01*
X-47625Y-79375D02*
X-47625Y-88900D01*
X396875Y-139700D02*
X399300Y-139700D01*
X-47295Y-88900D02*
X-47625Y-88900D01*
D36*
X-19050Y-127000D03*
X-44450Y-76200D03*
D35*
X-57150Y-120650D02*
X-130175Y-120650D01*
X-57150Y-120650D02*
X-47625Y-120650D01*
X-47295Y-121456D01*
X-130175Y-120650D02*
X-130505Y-119844D01*
X384175Y-101600D02*
X422275Y-139700D01*
X384175Y-101600D02*
X19050Y-101600D01*
X-57150Y-120650D02*
X-57150Y-123825D01*
X422275Y-139700D02*
X424700Y-139700D01*
D36*
X19050Y-101600D03*
X-57150Y-123825D03*
D35*
X-50800Y-152400D02*
X-130505Y-152400D01*
X-25400Y-177800D02*
X409575Y-177800D01*
X-25400Y-177800D02*
X-50800Y-152400D01*
X-47295Y-152400D01*
D36*
X409575Y-177800D03*
D35*
X-57150Y-136525D02*
X-130175Y-136525D01*
X-57150Y-136525D02*
X-47625Y-136525D01*
X-47295Y-136928D01*
X-130175Y-136525D02*
X-130505Y-135316D01*
X-57150Y-136525D02*
X-57150Y-139700D01*
D36*
X-57150Y-139700D03*
D35*
X-57150Y-104775D02*
X-130175Y-104775D01*
X-57150Y-104775D02*
X-47625Y-104775D01*
X-47295Y-105984D01*
X-130175Y-104775D02*
X-130505Y-104372D01*
X-57150Y-104775D02*
X-57150Y-101600D01*
D36*
X-57150Y-101600D03*
D35*
X-28575Y-152400D02*
X-19050Y-161925D01*
X25400Y-161925D01*
X-28575Y-152400D02*
X-28905Y-152400D01*
X25400Y-161925D02*
X25400Y-164100D01*
X25400Y-139700D02*
X-28575Y-139700D01*
X-28905Y-136928D01*
X25400Y-139100D02*
X25400Y-139700D01*
X-25400Y-117475D02*
X-28575Y-120650D01*
X-25400Y-117475D02*
X22225Y-117475D01*
X25400Y-114300D01*
X-28575Y-120650D02*
X-28905Y-121456D01*
X25400Y-114300D02*
X25400Y-114100D01*
X3175Y-104775D02*
X-28575Y-104775D01*
X3175Y-104775D02*
X15875Y-92075D01*
X25400Y-92075D01*
X-28575Y-104775D02*
X-28905Y-105984D01*
X25400Y-92075D02*
X25400Y-89100D01*
X-28575Y-88900D02*
X-28575Y-69850D01*
X19050Y-69850D01*
X22225Y-66675D01*
X25400Y-66675D01*
X-28575Y-88900D02*
X-28905Y-88900D01*
X25400Y-66675D02*
X25400Y-64100D01*
M02*
