G04 EAGLE Gerber RS-274X export*
G75*
%MOMM*%
%FSLAX34Y34*%
%LPD*%
%INBottom Copper*%
%IPPOS*%
%AMOC8*
5,1,8,0,0,1.08239X$1,22.5*%
G01*
G04 Define Apertures*
%ADD10R,1.500000X1.500000*%
%ADD11C,1.500000*%
%ADD12C,0.900000*%
%ADD13P,2.74927X8X22.5*%
%ADD14C,1.524000*%
%ADD15C,1.219200*%
%ADD16R,1.130000X1.130000*%
%ADD17C,1.130000*%
%ADD18C,1.230000*%
%ADD19C,1.371600*%
%ADD20C,1.524000*%
%ADD21R,1.560000X1.560000*%
%ADD22C,1.560000*%
%ADD23C,0.558800*%
%ADD24C,0.457200*%
%ADD25C,1.270000*%
%ADD26C,0.525000*%
G36*
X595119Y-387959D02*
X595000Y-387968D01*
X-595000Y-387968D01*
X-595119Y-387959D01*
X-603526Y-386627D01*
X-603753Y-386553D01*
X-611337Y-382689D01*
X-611530Y-382549D01*
X-617549Y-376530D01*
X-617689Y-376337D01*
X-621553Y-368753D01*
X-621627Y-368526D01*
X-622959Y-360119D01*
X-622968Y-360000D01*
X-622968Y360000D01*
X-622959Y360119D01*
X-621627Y368526D01*
X-621553Y368753D01*
X-617689Y376337D01*
X-617549Y376530D01*
X-611530Y382549D01*
X-611337Y382689D01*
X-603753Y386553D01*
X-603526Y386627D01*
X-595119Y387959D01*
X-595000Y387968D01*
X595000Y387968D01*
X595119Y387959D01*
X603526Y386627D01*
X603753Y386553D01*
X611337Y382689D01*
X611530Y382549D01*
X617549Y376530D01*
X617689Y376337D01*
X621553Y368753D01*
X621627Y368526D01*
X622959Y360119D01*
X622968Y360000D01*
X622968Y-360000D01*
X622959Y-360119D01*
X621627Y-368526D01*
X621553Y-368753D01*
X617689Y-376337D01*
X617549Y-376530D01*
X611530Y-382549D01*
X611337Y-382689D01*
X603753Y-386553D01*
X603526Y-386627D01*
X595119Y-387959D01*
G37*
%LPC*%
G36*
X585963Y334706D02*
X594037Y334706D01*
X601496Y337796D01*
X607204Y343504D01*
X610294Y350963D01*
X610294Y359037D01*
X607204Y366496D01*
X601496Y372204D01*
X594037Y375294D01*
X585963Y375294D01*
X578504Y372204D01*
X572796Y366496D01*
X569706Y359037D01*
X569706Y350963D01*
X572796Y343504D01*
X578504Y337796D01*
X585963Y334706D01*
G37*
G36*
X-594037Y334706D02*
X-585963Y334706D01*
X-578504Y337796D01*
X-572796Y343504D01*
X-569706Y350963D01*
X-569706Y359037D01*
X-572796Y366496D01*
X-578504Y372204D01*
X-585963Y375294D01*
X-594037Y375294D01*
X-601496Y372204D01*
X-607204Y366496D01*
X-610294Y359037D01*
X-610294Y350963D01*
X-607204Y343504D01*
X-601496Y337796D01*
X-594037Y334706D01*
G37*
G36*
X-432544Y-338970D02*
X-429056Y-338970D01*
X-425832Y-337635D01*
X-423365Y-335168D01*
X-422030Y-331944D01*
X-422030Y-328456D01*
X-423365Y-325232D01*
X-424338Y-324260D01*
X-424501Y-324018D01*
X-424561Y-323721D01*
X-424561Y-322167D01*
X-478313Y-268415D01*
X-478476Y-268173D01*
X-478536Y-267876D01*
X-478536Y-144290D01*
X-478489Y-144027D01*
X-478330Y-143769D01*
X-478082Y-143593D01*
X-477786Y-143528D01*
X-477488Y-143584D01*
X-477235Y-143751D01*
X-475420Y-145567D01*
X-472876Y-146620D01*
X-470124Y-146620D01*
X-469607Y-146406D01*
X-469327Y-146348D01*
X-469029Y-146404D01*
X-468776Y-146571D01*
X-404337Y-211010D01*
X-404174Y-211252D01*
X-404114Y-211549D01*
X-404114Y-244468D01*
X-404165Y-244743D01*
X-404329Y-244998D01*
X-404579Y-245170D01*
X-404876Y-245230D01*
X-407544Y-245230D01*
X-410768Y-246565D01*
X-413235Y-249032D01*
X-414570Y-252256D01*
X-414570Y-255744D01*
X-413235Y-258968D01*
X-410768Y-261435D01*
X-407544Y-262770D01*
X-404056Y-262770D01*
X-400832Y-261435D01*
X-398365Y-258968D01*
X-397030Y-255744D01*
X-397030Y-252256D01*
X-397385Y-251398D01*
X-397443Y-251118D01*
X-397388Y-250820D01*
X-397220Y-250567D01*
X-395986Y-249333D01*
X-395986Y-207867D01*
X-464357Y-139496D01*
X-464520Y-139254D01*
X-464580Y-138957D01*
X-464580Y-138324D01*
X-465634Y-135780D01*
X-467580Y-133834D01*
X-470124Y-132780D01*
X-472876Y-132780D01*
X-475420Y-133834D01*
X-477235Y-135649D01*
X-477455Y-135802D01*
X-477750Y-135872D01*
X-478049Y-135821D01*
X-478304Y-135657D01*
X-478476Y-135407D01*
X-478536Y-135110D01*
X-478536Y-118890D01*
X-478489Y-118627D01*
X-478330Y-118369D01*
X-478082Y-118193D01*
X-477786Y-118128D01*
X-477488Y-118184D01*
X-477235Y-118351D01*
X-475420Y-120167D01*
X-472876Y-121220D01*
X-470124Y-121220D01*
X-467580Y-120167D01*
X-465634Y-118220D01*
X-464580Y-115676D01*
X-464580Y-112924D01*
X-465634Y-110380D01*
X-467580Y-108434D01*
X-470124Y-107380D01*
X-472876Y-107380D01*
X-475420Y-108434D01*
X-477235Y-110249D01*
X-477455Y-110402D01*
X-477750Y-110472D01*
X-478049Y-110421D01*
X-478304Y-110257D01*
X-478476Y-110007D01*
X-478536Y-109710D01*
X-478536Y-93490D01*
X-478489Y-93227D01*
X-478330Y-92969D01*
X-478082Y-92793D01*
X-477786Y-92728D01*
X-477488Y-92784D01*
X-477235Y-92951D01*
X-475420Y-94767D01*
X-472876Y-95820D01*
X-470124Y-95820D01*
X-469607Y-95606D01*
X-469327Y-95548D01*
X-469029Y-95604D01*
X-468776Y-95771D01*
X-388462Y-176085D01*
X-388299Y-176327D01*
X-388239Y-176624D01*
X-388239Y-248891D01*
X-388297Y-249182D01*
X-389570Y-252256D01*
X-389570Y-255744D01*
X-388235Y-258968D01*
X-385768Y-261435D01*
X-382544Y-262770D01*
X-379056Y-262770D01*
X-375832Y-261435D01*
X-373665Y-259267D01*
X-373445Y-259114D01*
X-373150Y-259045D01*
X-372851Y-259096D01*
X-372596Y-259259D01*
X-372424Y-259509D01*
X-372364Y-259806D01*
X-372364Y-312326D01*
X-372420Y-312612D01*
X-372587Y-312865D01*
X-380929Y-321207D01*
X-381171Y-321370D01*
X-381468Y-321430D01*
X-382544Y-321430D01*
X-385768Y-322765D01*
X-388235Y-325232D01*
X-389570Y-328456D01*
X-389570Y-331944D01*
X-388235Y-335168D01*
X-385768Y-337635D01*
X-382544Y-338970D01*
X-379056Y-338970D01*
X-375832Y-337635D01*
X-373365Y-335168D01*
X-372030Y-331944D01*
X-372030Y-328456D01*
X-373198Y-325636D01*
X-373256Y-325356D01*
X-373200Y-325058D01*
X-373033Y-324805D01*
X-364236Y-316008D01*
X-364236Y-261602D01*
X-364189Y-261339D01*
X-364030Y-261081D01*
X-363782Y-260906D01*
X-363486Y-260840D01*
X-363188Y-260896D01*
X-362935Y-261064D01*
X-361487Y-262512D01*
X-357797Y-264040D01*
X-356562Y-264040D01*
X-356562Y-243960D01*
X-357797Y-243960D01*
X-361487Y-245489D01*
X-362935Y-246936D01*
X-363155Y-247089D01*
X-363450Y-247159D01*
X-363749Y-247108D01*
X-364004Y-246945D01*
X-364176Y-246695D01*
X-364236Y-246398D01*
X-364236Y-84042D01*
X-384957Y-63321D01*
X-385120Y-63079D01*
X-385180Y-62782D01*
X-385180Y-62124D01*
X-386234Y-59580D01*
X-388180Y-57634D01*
X-390724Y-56580D01*
X-393476Y-56580D01*
X-396020Y-57634D01*
X-397967Y-59580D01*
X-399020Y-62124D01*
X-399020Y-64876D01*
X-397967Y-67420D01*
X-396020Y-69367D01*
X-393476Y-70420D01*
X-390724Y-70420D01*
X-390224Y-70213D01*
X-389945Y-70155D01*
X-389647Y-70211D01*
X-389394Y-70378D01*
X-372587Y-87185D01*
X-372424Y-87427D01*
X-372364Y-87724D01*
X-372364Y-248194D01*
X-372411Y-248457D01*
X-372570Y-248715D01*
X-372818Y-248891D01*
X-373114Y-248956D01*
X-373412Y-248900D01*
X-373665Y-248733D01*
X-375832Y-246565D01*
X-379056Y-245230D01*
X-379349Y-245230D01*
X-379624Y-245179D01*
X-379879Y-245015D01*
X-380051Y-244765D01*
X-380111Y-244468D01*
X-380111Y-172942D01*
X-464357Y-88696D01*
X-464520Y-88454D01*
X-464580Y-88157D01*
X-464580Y-87524D01*
X-465634Y-84980D01*
X-467580Y-83034D01*
X-470124Y-81980D01*
X-472876Y-81980D01*
X-475420Y-83034D01*
X-477235Y-84849D01*
X-477455Y-85002D01*
X-477750Y-85072D01*
X-478049Y-85021D01*
X-478304Y-84857D01*
X-478476Y-84607D01*
X-478536Y-84310D01*
X-478536Y-71182D01*
X-478485Y-70907D01*
X-478321Y-70652D01*
X-478071Y-70480D01*
X-477774Y-70420D01*
X-465324Y-70420D01*
X-464580Y-69676D01*
X-464580Y-57324D01*
X-465324Y-56580D01*
X-477774Y-56580D01*
X-478049Y-56529D01*
X-478304Y-56365D01*
X-478476Y-56115D01*
X-478536Y-55818D01*
X-478536Y64676D01*
X-478480Y64962D01*
X-478313Y65215D01*
X-346741Y196787D01*
X-346521Y196940D01*
X-346226Y197010D01*
X-345927Y196959D01*
X-345672Y196795D01*
X-345500Y196545D01*
X-345440Y196248D01*
X-345440Y-158996D01*
X-344280Y-161796D01*
X-312643Y-193433D01*
X-312480Y-193675D01*
X-312420Y-193972D01*
X-312420Y-244468D01*
X-312471Y-244743D01*
X-312635Y-244998D01*
X-312885Y-245170D01*
X-313182Y-245230D01*
X-313826Y-245230D01*
X-314570Y-245974D01*
X-314570Y-262026D01*
X-313643Y-262953D01*
X-313480Y-263194D01*
X-313420Y-263492D01*
X-313420Y-320708D01*
X-313476Y-320994D01*
X-313643Y-321247D01*
X-314570Y-322174D01*
X-314570Y-338226D01*
X-313826Y-338970D01*
X-297774Y-338970D01*
X-297030Y-338226D01*
X-297030Y-322174D01*
X-297957Y-321247D01*
X-298120Y-321006D01*
X-298180Y-320708D01*
X-298180Y-263492D01*
X-298124Y-263206D01*
X-297957Y-262953D01*
X-297030Y-262026D01*
X-297030Y-245939D01*
X-297120Y-245806D01*
X-297180Y-245508D01*
X-297180Y-188984D01*
X-298340Y-186184D01*
X-329977Y-154547D01*
X-330140Y-154305D01*
X-330200Y-154008D01*
X-330200Y302508D01*
X-330144Y302794D01*
X-329977Y303047D01*
X-323850Y309173D01*
X-323850Y320747D01*
X-329977Y326873D01*
X-330140Y327115D01*
X-330200Y327412D01*
X-330200Y335528D01*
X-330144Y335814D01*
X-329977Y336067D01*
X-323850Y342193D01*
X-323850Y353767D01*
X-332033Y361950D01*
X-343607Y361950D01*
X-351790Y353767D01*
X-351790Y342193D01*
X-345663Y336067D01*
X-345500Y335825D01*
X-345440Y335528D01*
X-345440Y327412D01*
X-345496Y327126D01*
X-345663Y326873D01*
X-351790Y320747D01*
X-351790Y309173D01*
X-345663Y303047D01*
X-345500Y302805D01*
X-345440Y302508D01*
X-345440Y203802D01*
X-345487Y203539D01*
X-345646Y203281D01*
X-345894Y203105D01*
X-346190Y203040D01*
X-346488Y203096D01*
X-346741Y203263D01*
X-347567Y204089D01*
X-350933Y204089D01*
X-486760Y68262D01*
X-486980Y68109D01*
X-487275Y68039D01*
X-487574Y68090D01*
X-487829Y68254D01*
X-488001Y68504D01*
X-488061Y68801D01*
X-488061Y207551D01*
X-488005Y207837D01*
X-487838Y208090D01*
X-464751Y231177D01*
X-464537Y231327D01*
X-464242Y231399D01*
X-463943Y231351D01*
X-463686Y231190D01*
X-463513Y230941D01*
X-463450Y230644D01*
X-463508Y230346D01*
X-463620Y230076D01*
X-463620Y227124D01*
X-462490Y224397D01*
X-460403Y222310D01*
X-457676Y221180D01*
X-454724Y221180D01*
X-451997Y222310D01*
X-449910Y224397D01*
X-448780Y227124D01*
X-448780Y230076D01*
X-449910Y232803D01*
X-451997Y234890D01*
X-454724Y236020D01*
X-457676Y236020D01*
X-457946Y235908D01*
X-458202Y235851D01*
X-458501Y235897D01*
X-458759Y236056D01*
X-458935Y236304D01*
X-459000Y236600D01*
X-458944Y236898D01*
X-458777Y237151D01*
X-453136Y242792D01*
X-453136Y309877D01*
X-453083Y310157D01*
X-452917Y310411D01*
X-452666Y310581D01*
X-452596Y310609D01*
X-450309Y312896D01*
X-449072Y315883D01*
X-449072Y319117D01*
X-450309Y322104D01*
X-452596Y324391D01*
X-455583Y325628D01*
X-458817Y325628D01*
X-461804Y324391D01*
X-464091Y322104D01*
X-464370Y321430D01*
X-464510Y321209D01*
X-464755Y321029D01*
X-465050Y320960D01*
X-465349Y321010D01*
X-465604Y321174D01*
X-465776Y321424D01*
X-465836Y321721D01*
X-465836Y340901D01*
X-465780Y341187D01*
X-465613Y341440D01*
X-459717Y347336D01*
X-459481Y347496D01*
X-459184Y347559D01*
X-458887Y347501D01*
X-458817Y347472D01*
X-455583Y347472D01*
X-452596Y348709D01*
X-450309Y350996D01*
X-449072Y353983D01*
X-449072Y357217D01*
X-450309Y360204D01*
X-452596Y362491D01*
X-455583Y363728D01*
X-458817Y363728D01*
X-461804Y362491D01*
X-464091Y360204D01*
X-465328Y357217D01*
X-465328Y353983D01*
X-465299Y353913D01*
X-465241Y353634D01*
X-465297Y353336D01*
X-465464Y353083D01*
X-473964Y344583D01*
X-473964Y321721D01*
X-474009Y321464D01*
X-474166Y321204D01*
X-474412Y321027D01*
X-474708Y320959D01*
X-475006Y321013D01*
X-475261Y321178D01*
X-475430Y321430D01*
X-475709Y322104D01*
X-477996Y324391D01*
X-480983Y325628D01*
X-484217Y325628D01*
X-487204Y324391D01*
X-489491Y322104D01*
X-489770Y321430D01*
X-489910Y321209D01*
X-490155Y321029D01*
X-490450Y320960D01*
X-490749Y321010D01*
X-491004Y321174D01*
X-491176Y321424D01*
X-491236Y321721D01*
X-491236Y340901D01*
X-491180Y341187D01*
X-491013Y341440D01*
X-485117Y347336D01*
X-484881Y347496D01*
X-484584Y347559D01*
X-484287Y347501D01*
X-484217Y347472D01*
X-480983Y347472D01*
X-477996Y348709D01*
X-475709Y350996D01*
X-474472Y353983D01*
X-474472Y357217D01*
X-475709Y360204D01*
X-477996Y362491D01*
X-480983Y363728D01*
X-484217Y363728D01*
X-487204Y362491D01*
X-489491Y360204D01*
X-490728Y357217D01*
X-490728Y353983D01*
X-490699Y353913D01*
X-490641Y353634D01*
X-490697Y353336D01*
X-490864Y353083D01*
X-499364Y344583D01*
X-499364Y321721D01*
X-499409Y321464D01*
X-499566Y321204D01*
X-499812Y321027D01*
X-500108Y320959D01*
X-500406Y321013D01*
X-500661Y321178D01*
X-500830Y321430D01*
X-501109Y322104D01*
X-503396Y324391D01*
X-506383Y325628D01*
X-509617Y325628D01*
X-512604Y324391D01*
X-514891Y322104D01*
X-516128Y319117D01*
X-516128Y315883D01*
X-514891Y312896D01*
X-512604Y310609D01*
X-509617Y309372D01*
X-506383Y309372D01*
X-503849Y310422D01*
X-503594Y310479D01*
X-503294Y310433D01*
X-503036Y310274D01*
X-502860Y310026D01*
X-502795Y309730D01*
X-502851Y309432D01*
X-503018Y309179D01*
X-564559Y247639D01*
X-564789Y247481D01*
X-565085Y247416D01*
X-565383Y247471D01*
X-565636Y247639D01*
X-566532Y248535D01*
X-569756Y249870D01*
X-573244Y249870D01*
X-576468Y248535D01*
X-578935Y246068D01*
X-580270Y242844D01*
X-580270Y239356D01*
X-578935Y236132D01*
X-576468Y233665D01*
X-573244Y232330D01*
X-569756Y232330D01*
X-566532Y233665D01*
X-564065Y236132D01*
X-563766Y236855D01*
X-563601Y237102D01*
X-491236Y309467D01*
X-491236Y313279D01*
X-491191Y313536D01*
X-491034Y313796D01*
X-490788Y313973D01*
X-490492Y314041D01*
X-490194Y313987D01*
X-489940Y313822D01*
X-489770Y313570D01*
X-489491Y312896D01*
X-487204Y310609D01*
X-484217Y309372D01*
X-480983Y309372D01*
X-477996Y310609D01*
X-475709Y312896D01*
X-475430Y313570D01*
X-475290Y313791D01*
X-475045Y313971D01*
X-474750Y314040D01*
X-474451Y313990D01*
X-474196Y313826D01*
X-474024Y313576D01*
X-473964Y313279D01*
X-473964Y246474D01*
X-474020Y246188D01*
X-474187Y245935D01*
X-521589Y198533D01*
X-521589Y-80551D01*
X-521645Y-80837D01*
X-521812Y-81090D01*
X-524764Y-84042D01*
X-524764Y-236633D01*
X-512331Y-249067D01*
X-512173Y-249297D01*
X-512108Y-249593D01*
X-512163Y-249891D01*
X-512230Y-249993D01*
X-513320Y-252624D01*
X-513320Y-255376D01*
X-512267Y-257920D01*
X-510320Y-259867D01*
X-507776Y-260920D01*
X-505024Y-260920D01*
X-502480Y-259867D01*
X-500534Y-257920D01*
X-499480Y-255376D01*
X-499480Y-252624D01*
X-500534Y-250080D01*
X-502480Y-248134D01*
X-503466Y-247725D01*
X-503704Y-247569D01*
X-503876Y-247319D01*
X-503936Y-247021D01*
X-503936Y-245967D01*
X-516413Y-233490D01*
X-516576Y-233248D01*
X-516636Y-232951D01*
X-516636Y-87724D01*
X-516580Y-87438D01*
X-516413Y-87185D01*
X-515891Y-86663D01*
X-515671Y-86510D01*
X-515376Y-86440D01*
X-515077Y-86491D01*
X-514822Y-86655D01*
X-514650Y-86905D01*
X-514590Y-87202D01*
X-514590Y-88138D01*
X-507162Y-88138D01*
X-507162Y-80710D01*
X-508029Y-80710D01*
X-511039Y-81957D01*
X-512160Y-83078D01*
X-512380Y-83231D01*
X-512675Y-83301D01*
X-512974Y-83250D01*
X-513229Y-83086D01*
X-513401Y-82836D01*
X-513461Y-82539D01*
X-513461Y-68065D01*
X-513414Y-67802D01*
X-513255Y-67544D01*
X-513007Y-67368D01*
X-512711Y-67303D01*
X-512413Y-67359D01*
X-512160Y-67526D01*
X-510320Y-69367D01*
X-507776Y-70420D01*
X-505024Y-70420D01*
X-502480Y-69367D01*
X-500534Y-67420D01*
X-499480Y-64876D01*
X-499480Y-62124D01*
X-500534Y-59580D01*
X-502480Y-57634D01*
X-505024Y-56580D01*
X-507776Y-56580D01*
X-510320Y-57634D01*
X-512160Y-59474D01*
X-512380Y-59627D01*
X-512675Y-59697D01*
X-512974Y-59646D01*
X-513229Y-59482D01*
X-513401Y-59232D01*
X-513461Y-58935D01*
X-513461Y194851D01*
X-513405Y195137D01*
X-513238Y195390D01*
X-497490Y211138D01*
X-497270Y211291D01*
X-496975Y211361D01*
X-496676Y211310D01*
X-496421Y211146D01*
X-496249Y210896D01*
X-496189Y210599D01*
X-496189Y-182151D01*
X-496245Y-182437D01*
X-496412Y-182690D01*
X-508889Y-195167D01*
X-508889Y-196232D01*
X-508942Y-196512D01*
X-509108Y-196766D01*
X-509359Y-196936D01*
X-510320Y-197334D01*
X-512267Y-199280D01*
X-513320Y-201824D01*
X-513320Y-204576D01*
X-512267Y-207120D01*
X-510320Y-209067D01*
X-507776Y-210120D01*
X-505024Y-210120D01*
X-502480Y-209067D01*
X-500534Y-207120D01*
X-499480Y-204576D01*
X-499480Y-201824D01*
X-500558Y-199220D01*
X-500640Y-199101D01*
X-500705Y-198805D01*
X-500649Y-198507D01*
X-500482Y-198254D01*
X-487965Y-185737D01*
X-487745Y-185584D01*
X-487450Y-185514D01*
X-487151Y-185565D01*
X-486896Y-185729D01*
X-486724Y-185979D01*
X-486664Y-186276D01*
X-486664Y-271558D01*
X-484060Y-274162D01*
X-436151Y-322071D01*
X-435993Y-322302D01*
X-435928Y-322598D01*
X-435984Y-322896D01*
X-436151Y-323149D01*
X-438235Y-325232D01*
X-439570Y-328456D01*
X-439570Y-331944D01*
X-438235Y-335168D01*
X-435768Y-337635D01*
X-432544Y-338970D01*
G37*
G36*
X-509617Y347472D02*
X-506383Y347472D01*
X-503396Y348709D01*
X-501109Y350996D01*
X-499872Y353983D01*
X-499872Y357217D01*
X-501109Y360204D01*
X-503396Y362491D01*
X-506383Y363728D01*
X-509617Y363728D01*
X-512604Y362491D01*
X-514891Y360204D01*
X-516128Y357217D01*
X-516128Y353983D01*
X-514891Y350996D01*
X-512604Y348709D01*
X-509617Y347472D01*
G37*
G36*
X-388620Y348742D02*
X-374142Y348742D01*
X-374142Y363220D01*
X-379693Y363220D01*
X-388620Y354293D01*
X-388620Y348742D01*
G37*
G36*
X-372618Y348742D02*
X-358140Y348742D01*
X-358140Y354293D01*
X-367067Y363220D01*
X-372618Y363220D01*
X-372618Y348742D01*
G37*
G36*
X-123880Y353822D02*
X-117602Y353822D01*
X-117602Y360100D01*
X-118240Y360100D01*
X-120828Y359028D01*
X-122808Y357048D01*
X-123880Y354460D01*
X-123880Y353822D01*
G37*
G36*
X53920Y353822D02*
X60198Y353822D01*
X60198Y360100D01*
X59560Y360100D01*
X56972Y359028D01*
X54992Y357048D01*
X53920Y354460D01*
X53920Y353822D01*
G37*
G36*
X61722Y353822D02*
X68000Y353822D01*
X68000Y354460D01*
X66928Y357048D01*
X64948Y359028D01*
X62360Y360100D01*
X61722Y360100D01*
X61722Y353822D01*
G37*
G36*
X-116078Y353822D02*
X-109800Y353822D01*
X-109800Y354460D01*
X-110872Y357048D01*
X-112852Y359028D01*
X-115440Y360100D01*
X-116078Y360100D01*
X-116078Y353822D01*
G37*
G36*
X-41788Y347290D02*
X-39492Y347290D01*
X-37372Y348168D01*
X-35748Y349792D01*
X-34870Y351912D01*
X-34870Y354208D01*
X-35748Y356328D01*
X-37372Y357952D01*
X-39492Y358830D01*
X-41788Y358830D01*
X-43908Y357952D01*
X-45532Y356328D01*
X-46410Y354208D01*
X-46410Y351912D01*
X-45532Y349792D01*
X-43908Y348168D01*
X-41788Y347290D01*
G37*
G36*
X85212Y347290D02*
X87508Y347290D01*
X89628Y348168D01*
X91252Y349792D01*
X92130Y351912D01*
X92130Y354208D01*
X91252Y356328D01*
X89628Y357952D01*
X87508Y358830D01*
X85212Y358830D01*
X83092Y357952D01*
X81468Y356328D01*
X80590Y354208D01*
X80590Y351912D01*
X81468Y349792D01*
X83092Y348168D01*
X85212Y347290D01*
G37*
G36*
X34412Y347290D02*
X36708Y347290D01*
X38828Y348168D01*
X40452Y349792D01*
X41330Y351912D01*
X41330Y354208D01*
X40452Y356328D01*
X38828Y357952D01*
X36708Y358830D01*
X34412Y358830D01*
X32292Y357952D01*
X30668Y356328D01*
X29790Y354208D01*
X29790Y351912D01*
X30668Y349792D01*
X32292Y348168D01*
X34412Y347290D01*
G37*
G36*
X-219588Y347290D02*
X-217292Y347290D01*
X-215172Y348168D01*
X-213548Y349792D01*
X-212670Y351912D01*
X-212670Y354208D01*
X-213548Y356328D01*
X-215172Y357952D01*
X-217292Y358830D01*
X-219588Y358830D01*
X-221708Y357952D01*
X-223332Y356328D01*
X-224210Y354208D01*
X-224210Y351912D01*
X-223332Y349792D01*
X-221708Y348168D01*
X-219588Y347290D01*
G37*
G36*
X9012Y347290D02*
X11308Y347290D01*
X13428Y348168D01*
X15052Y349792D01*
X15930Y351912D01*
X15930Y354208D01*
X15052Y356328D01*
X13428Y357952D01*
X11308Y358830D01*
X9012Y358830D01*
X6892Y357952D01*
X5268Y356328D01*
X4390Y354208D01*
X4390Y351912D01*
X5268Y349792D01*
X6892Y348168D01*
X9012Y347290D01*
G37*
G36*
X136012Y347290D02*
X138308Y347290D01*
X140428Y348168D01*
X142052Y349792D01*
X142930Y351912D01*
X142930Y354208D01*
X142052Y356328D01*
X140428Y357952D01*
X138308Y358830D01*
X136012Y358830D01*
X133892Y357952D01*
X132268Y356328D01*
X131390Y354208D01*
X131390Y351912D01*
X132268Y349792D01*
X133892Y348168D01*
X136012Y347290D01*
G37*
G36*
X-67188Y347290D02*
X-64892Y347290D01*
X-62772Y348168D01*
X-61148Y349792D01*
X-60270Y351912D01*
X-60270Y354208D01*
X-61148Y356328D01*
X-62772Y357952D01*
X-64892Y358830D01*
X-67188Y358830D01*
X-69308Y357952D01*
X-70932Y356328D01*
X-71810Y354208D01*
X-71810Y351912D01*
X-70932Y349792D01*
X-69308Y348168D01*
X-67188Y347290D01*
G37*
G36*
X-194188Y347290D02*
X-191892Y347290D01*
X-189772Y348168D01*
X-188148Y349792D01*
X-187270Y351912D01*
X-187270Y354208D01*
X-188148Y356328D01*
X-189772Y357952D01*
X-191892Y358830D01*
X-194188Y358830D01*
X-196308Y357952D01*
X-197932Y356328D01*
X-198810Y354208D01*
X-198810Y351912D01*
X-197932Y349792D01*
X-196308Y348168D01*
X-194188Y347290D01*
G37*
G36*
X-168788Y347290D02*
X-166492Y347290D01*
X-164372Y348168D01*
X-162748Y349792D01*
X-161870Y351912D01*
X-161870Y354208D01*
X-162748Y356328D01*
X-164372Y357952D01*
X-166492Y358830D01*
X-168788Y358830D01*
X-170908Y357952D01*
X-172532Y356328D01*
X-173410Y354208D01*
X-173410Y351912D01*
X-172532Y349792D01*
X-170908Y348168D01*
X-168788Y347290D01*
G37*
G36*
X-143388Y347290D02*
X-141092Y347290D01*
X-138972Y348168D01*
X-137348Y349792D01*
X-136470Y351912D01*
X-136470Y354208D01*
X-137348Y356328D01*
X-138972Y357952D01*
X-141092Y358830D01*
X-143388Y358830D01*
X-145508Y357952D01*
X-147132Y356328D01*
X-148010Y354208D01*
X-148010Y351912D01*
X-147132Y349792D01*
X-145508Y348168D01*
X-143388Y347290D01*
G37*
G36*
X-109226Y-237370D02*
X-93174Y-237370D01*
X-92430Y-236626D01*
X-92430Y-220574D01*
X-93174Y-219830D01*
X-96774Y-219830D01*
X-97049Y-219779D01*
X-97304Y-219615D01*
X-97476Y-219365D01*
X-97536Y-219068D01*
X-97536Y-217392D01*
X-186213Y-128715D01*
X-186376Y-128473D01*
X-186436Y-128176D01*
X-186436Y7676D01*
X-186391Y7934D01*
X-186234Y8193D01*
X-185988Y8370D01*
X-185692Y8438D01*
X-185394Y8385D01*
X-185140Y8219D01*
X-184970Y7968D01*
X-184045Y5733D01*
X-181973Y3661D01*
X-179265Y2540D01*
X-176335Y2540D01*
X-173627Y3661D01*
X-171555Y5733D01*
X-170434Y8441D01*
X-170434Y14224D01*
X-170383Y14499D01*
X-170219Y14754D01*
X-169969Y14926D01*
X-169672Y14986D01*
X-163417Y14986D01*
X-161067Y17336D01*
X-160847Y17489D01*
X-160552Y17559D01*
X-160253Y17508D01*
X-159998Y17344D01*
X-159826Y17094D01*
X-159766Y16797D01*
X-159766Y8441D01*
X-158645Y5733D01*
X-156573Y3661D01*
X-153865Y2540D01*
X-150935Y2540D01*
X-148227Y3661D01*
X-146155Y5733D01*
X-145034Y8441D01*
X-145034Y23563D01*
X-146155Y26271D01*
X-148227Y28343D01*
X-150935Y29464D01*
X-153449Y29464D01*
X-153712Y29511D01*
X-153970Y29670D01*
X-154146Y29918D01*
X-154211Y30214D01*
X-154155Y30512D01*
X-153988Y30765D01*
X-125540Y59213D01*
X-125298Y59376D01*
X-125001Y59436D01*
X131351Y59436D01*
X131637Y59380D01*
X131890Y59213D01*
X131897Y59206D01*
X132052Y58981D01*
X132120Y58685D01*
X132066Y58387D01*
X131901Y58133D01*
X131649Y57963D01*
X129431Y57045D01*
X127359Y54973D01*
X126238Y52265D01*
X126238Y49335D01*
X127359Y46627D01*
X129431Y44555D01*
X131666Y43630D01*
X131886Y43490D01*
X132066Y43245D01*
X132136Y42950D01*
X132085Y42651D01*
X131921Y42396D01*
X131671Y42224D01*
X131374Y42164D01*
X-103283Y42164D01*
X-118364Y27083D01*
X-118364Y24328D01*
X-118409Y24070D01*
X-118566Y23811D01*
X-118812Y23634D01*
X-119108Y23566D01*
X-119406Y23619D01*
X-119661Y23785D01*
X-119830Y24036D01*
X-120755Y26271D01*
X-122827Y28343D01*
X-125535Y29464D01*
X-128465Y29464D01*
X-131173Y28343D01*
X-133245Y26271D01*
X-134366Y23563D01*
X-134366Y8441D01*
X-133245Y5733D01*
X-131173Y3661D01*
X-128465Y2540D01*
X-125535Y2540D01*
X-122827Y3661D01*
X-120755Y5733D01*
X-119634Y8441D01*
X-119634Y14224D01*
X-119583Y14499D01*
X-119419Y14754D01*
X-119169Y14926D01*
X-118872Y14986D01*
X-112617Y14986D01*
X-110267Y17336D01*
X-110047Y17489D01*
X-109752Y17559D01*
X-109453Y17508D01*
X-109198Y17344D01*
X-109026Y17094D01*
X-108966Y16797D01*
X-108966Y8441D01*
X-107845Y5733D01*
X-105773Y3661D01*
X-103065Y2540D01*
X-100135Y2540D01*
X-97427Y3661D01*
X-95355Y5733D01*
X-94234Y8441D01*
X-94234Y23563D01*
X-95355Y26271D01*
X-97427Y28343D01*
X-100135Y29464D01*
X-102649Y29464D01*
X-102912Y29511D01*
X-103170Y29670D01*
X-103346Y29918D01*
X-103411Y30214D01*
X-103355Y30512D01*
X-103188Y30765D01*
X-100140Y33813D01*
X-99898Y33976D01*
X-99601Y34036D01*
X131374Y34036D01*
X131632Y33991D01*
X131891Y33834D01*
X132068Y33588D01*
X132136Y33292D01*
X132083Y32994D01*
X131917Y32740D01*
X131666Y32570D01*
X129431Y31645D01*
X127359Y29573D01*
X126238Y26865D01*
X126238Y23935D01*
X127359Y21227D01*
X129431Y19155D01*
X132139Y18034D01*
X147261Y18034D01*
X149969Y19155D01*
X152041Y21227D01*
X153162Y23935D01*
X153162Y26865D01*
X152041Y29573D01*
X149969Y31645D01*
X147734Y32570D01*
X147514Y32710D01*
X147334Y32955D01*
X147264Y33250D01*
X147315Y33549D01*
X147479Y33804D01*
X147729Y33976D01*
X148026Y34036D01*
X185833Y34036D01*
X188214Y36417D01*
X188214Y48674D01*
X188261Y48937D01*
X188420Y49195D01*
X188668Y49371D01*
X188964Y49436D01*
X189262Y49380D01*
X189515Y49213D01*
X204692Y34036D01*
X207574Y34036D01*
X207832Y33991D01*
X208091Y33834D01*
X208268Y33588D01*
X208336Y33292D01*
X208283Y32994D01*
X208117Y32740D01*
X207866Y32570D01*
X205631Y31645D01*
X203559Y29573D01*
X202438Y26865D01*
X202438Y23935D01*
X203559Y21227D01*
X205631Y19155D01*
X208339Y18034D01*
X211074Y18034D01*
X211349Y17983D01*
X211604Y17819D01*
X211776Y17569D01*
X211836Y17272D01*
X211836Y-23401D01*
X211780Y-23687D01*
X211613Y-23940D01*
X202311Y-33242D01*
X202311Y-36608D01*
X204692Y-38989D01*
X208058Y-38989D01*
X219964Y-27083D01*
X219964Y17272D01*
X220015Y17547D01*
X220179Y17802D01*
X220429Y17974D01*
X220726Y18034D01*
X223461Y18034D01*
X226169Y19155D01*
X228241Y21227D01*
X229362Y23935D01*
X229362Y26865D01*
X228241Y29573D01*
X226169Y31645D01*
X223934Y32570D01*
X223714Y32710D01*
X223534Y32955D01*
X223464Y33250D01*
X223515Y33549D01*
X223679Y33804D01*
X223929Y33976D01*
X224226Y34036D01*
X245674Y34036D01*
X245932Y33991D01*
X246191Y33834D01*
X246368Y33588D01*
X246436Y33292D01*
X246383Y32994D01*
X246217Y32740D01*
X245966Y32570D01*
X243731Y31645D01*
X241659Y29573D01*
X240538Y26865D01*
X240538Y23935D01*
X241659Y21227D01*
X243731Y19155D01*
X246439Y18034D01*
X261561Y18034D01*
X264269Y19155D01*
X266341Y21227D01*
X267462Y23935D01*
X267462Y26865D01*
X266341Y29573D01*
X264269Y31645D01*
X262034Y32570D01*
X261814Y32710D01*
X261634Y32955D01*
X261564Y33250D01*
X261615Y33549D01*
X261779Y33804D01*
X262029Y33976D01*
X262326Y34036D01*
X321874Y34036D01*
X322132Y33991D01*
X322391Y33834D01*
X322568Y33588D01*
X322636Y33292D01*
X322583Y32994D01*
X322417Y32740D01*
X322166Y32570D01*
X319931Y31645D01*
X317859Y29573D01*
X316738Y26865D01*
X316738Y23935D01*
X317859Y21227D01*
X319931Y19155D01*
X322639Y18034D01*
X325374Y18034D01*
X325649Y17983D01*
X325904Y17819D01*
X326076Y17569D01*
X326136Y17272D01*
X326136Y-7526D01*
X326080Y-7812D01*
X325913Y-8065D01*
X322961Y-11017D01*
X322961Y-14383D01*
X325342Y-16764D01*
X328708Y-16764D01*
X334264Y-11208D01*
X334264Y17272D01*
X334315Y17547D01*
X334479Y17802D01*
X334729Y17974D01*
X335026Y18034D01*
X337761Y18034D01*
X340469Y19155D01*
X342541Y21227D01*
X343662Y23935D01*
X343662Y26865D01*
X342541Y29573D01*
X340469Y31645D01*
X338234Y32570D01*
X338014Y32710D01*
X337834Y32955D01*
X337764Y33250D01*
X337815Y33549D01*
X337979Y33804D01*
X338229Y33976D01*
X338526Y34036D01*
X359720Y34036D01*
X359978Y33991D01*
X360237Y33834D01*
X360414Y33588D01*
X360482Y33292D01*
X360429Y32994D01*
X360263Y32740D01*
X360012Y32570D01*
X357777Y31645D01*
X355705Y29573D01*
X354584Y26865D01*
X354584Y23935D01*
X355705Y21227D01*
X357777Y19155D01*
X360485Y18034D01*
X375572Y18034D01*
X375835Y17987D01*
X376093Y17828D01*
X376269Y17580D01*
X376334Y17284D01*
X376278Y16986D01*
X376111Y16733D01*
X287465Y-71913D01*
X287223Y-72076D01*
X286926Y-72136D01*
X31606Y-72136D01*
X31343Y-72089D01*
X31085Y-71930D01*
X30909Y-71682D01*
X30844Y-71386D01*
X30900Y-71088D01*
X31067Y-70835D01*
X32835Y-69068D01*
X34170Y-65844D01*
X34170Y-62356D01*
X32835Y-59132D01*
X30368Y-56665D01*
X27144Y-55330D01*
X23656Y-55330D01*
X20432Y-56665D01*
X17965Y-59132D01*
X16630Y-62356D01*
X16630Y-65844D01*
X17965Y-69068D01*
X19733Y-70835D01*
X19886Y-71055D01*
X19955Y-71350D01*
X19905Y-71649D01*
X19741Y-71904D01*
X19491Y-72076D01*
X19194Y-72136D01*
X-30099Y-72136D01*
X-30374Y-72085D01*
X-30629Y-71921D01*
X-30801Y-71671D01*
X-30861Y-71374D01*
X-30861Y-71342D01*
X-39592Y-62611D01*
X-58833Y-62611D01*
X-61214Y-64992D01*
X-61214Y-103283D01*
X-58833Y-105664D01*
X-55467Y-105664D01*
X-53086Y-103283D01*
X-53086Y-71501D01*
X-53035Y-71226D01*
X-52871Y-70971D01*
X-52621Y-70799D01*
X-52324Y-70739D01*
X-46576Y-70739D01*
X-46313Y-70786D01*
X-46055Y-70945D01*
X-45879Y-71193D01*
X-45814Y-71489D01*
X-45870Y-71787D01*
X-46037Y-72040D01*
X-48514Y-74517D01*
X-48514Y-103283D01*
X-20637Y-131160D01*
X-20484Y-131380D01*
X-20414Y-131675D01*
X-20465Y-131974D01*
X-20629Y-132229D01*
X-20879Y-132401D01*
X-21176Y-132461D01*
X-45974Y-132461D01*
X-46249Y-132410D01*
X-46504Y-132246D01*
X-46676Y-131996D01*
X-46736Y-131699D01*
X-46736Y-128492D01*
X-55467Y-119761D01*
X-58833Y-119761D01*
X-61214Y-122142D01*
X-61214Y-125508D01*
X-55087Y-131635D01*
X-54924Y-131877D01*
X-54864Y-132174D01*
X-54864Y-134874D01*
X-54915Y-135149D01*
X-55079Y-135404D01*
X-55329Y-135576D01*
X-55626Y-135636D01*
X-58833Y-135636D01*
X-61214Y-138017D01*
X-61214Y-147733D01*
X-58833Y-150114D01*
X-11017Y-150114D01*
X7810Y-131287D01*
X8052Y-131124D01*
X8349Y-131064D01*
X19194Y-131064D01*
X19457Y-131111D01*
X19715Y-131270D01*
X19891Y-131518D01*
X19956Y-131814D01*
X19900Y-132112D01*
X19733Y-132365D01*
X17965Y-134132D01*
X16630Y-137356D01*
X16630Y-140844D01*
X17965Y-144068D01*
X20432Y-146535D01*
X21241Y-146870D01*
X21462Y-147010D01*
X21642Y-147255D01*
X21711Y-147550D01*
X21661Y-147849D01*
X21497Y-148104D01*
X21247Y-148276D01*
X20950Y-148336D01*
X-1683Y-148336D01*
X-73192Y-219844D01*
X-73428Y-220005D01*
X-73724Y-220068D01*
X-74022Y-220010D01*
X-74456Y-219830D01*
X-77944Y-219830D01*
X-81168Y-221165D01*
X-83635Y-223632D01*
X-84970Y-226856D01*
X-84970Y-230344D01*
X-83635Y-233568D01*
X-81168Y-236035D01*
X-77944Y-237370D01*
X-74456Y-237370D01*
X-71232Y-236035D01*
X-68765Y-233568D01*
X-67430Y-230344D01*
X-67430Y-226856D01*
X-67610Y-226422D01*
X-67667Y-226143D01*
X-67612Y-225845D01*
X-67444Y-225592D01*
X1460Y-156687D01*
X1702Y-156524D01*
X1999Y-156464D01*
X15868Y-156464D01*
X16143Y-156515D01*
X16398Y-156679D01*
X16570Y-156929D01*
X16630Y-157226D01*
X16630Y-172126D01*
X17374Y-172870D01*
X33426Y-172870D01*
X34170Y-172126D01*
X34170Y-156043D01*
X34226Y-155757D01*
X34393Y-155504D01*
X61785Y-128112D01*
X62027Y-127949D01*
X62324Y-127889D01*
X261874Y-127889D01*
X262149Y-127940D01*
X262404Y-128104D01*
X262576Y-128354D01*
X262636Y-128651D01*
X262636Y-135033D01*
X263534Y-135932D01*
X263695Y-136168D01*
X263758Y-136465D01*
X263700Y-136762D01*
X263230Y-137896D01*
X263230Y-141504D01*
X264611Y-144838D01*
X267162Y-147389D01*
X270496Y-148770D01*
X274104Y-148770D01*
X277438Y-147389D01*
X279989Y-144838D01*
X281370Y-141504D01*
X281370Y-137896D01*
X279989Y-134562D01*
X277438Y-132011D01*
X274104Y-130630D01*
X271526Y-130630D01*
X271251Y-130579D01*
X270996Y-130415D01*
X270824Y-130165D01*
X270764Y-129868D01*
X270764Y-122142D01*
X268287Y-119665D01*
X268134Y-119445D01*
X268064Y-119150D01*
X268115Y-118851D01*
X268279Y-118596D01*
X268529Y-118424D01*
X268826Y-118364D01*
X471076Y-118364D01*
X471362Y-118420D01*
X471615Y-118587D01*
X491607Y-138579D01*
X491770Y-138821D01*
X491830Y-139118D01*
X491830Y-141504D01*
X493211Y-144838D01*
X495762Y-147389D01*
X499096Y-148770D01*
X502704Y-148770D01*
X506038Y-147389D01*
X508589Y-144838D01*
X509970Y-141504D01*
X509970Y-137896D01*
X508589Y-134562D01*
X506038Y-132011D01*
X502704Y-130630D01*
X499096Y-130630D01*
X496778Y-131590D01*
X496498Y-131648D01*
X496200Y-131593D01*
X495947Y-131425D01*
X474758Y-110236D01*
X36417Y-110236D01*
X35014Y-111639D01*
X34789Y-111795D01*
X34493Y-111862D01*
X34194Y-111809D01*
X33940Y-111643D01*
X33771Y-111392D01*
X32835Y-109132D01*
X30368Y-106665D01*
X27144Y-105330D01*
X23656Y-105330D01*
X22776Y-105694D01*
X22521Y-105751D01*
X22222Y-105705D01*
X21964Y-105546D01*
X21788Y-105298D01*
X21723Y-105002D01*
X21779Y-104704D01*
X21946Y-104451D01*
X23114Y-103283D01*
X23114Y-99917D01*
X21946Y-98749D01*
X21796Y-98535D01*
X21723Y-98240D01*
X21772Y-97941D01*
X21933Y-97684D01*
X22182Y-97511D01*
X22479Y-97448D01*
X22776Y-97506D01*
X23656Y-97870D01*
X27144Y-97870D01*
X30368Y-96535D01*
X32835Y-94068D01*
X34170Y-90844D01*
X34170Y-87356D01*
X32835Y-84132D01*
X30267Y-81565D01*
X30114Y-81345D01*
X30045Y-81050D01*
X30096Y-80751D01*
X30259Y-80496D01*
X30509Y-80324D01*
X30806Y-80264D01*
X290608Y-80264D01*
X391414Y20542D01*
X391414Y33274D01*
X391465Y33549D01*
X391629Y33804D01*
X391879Y33976D01*
X392176Y34036D01*
X435920Y34036D01*
X436178Y33991D01*
X436437Y33834D01*
X436614Y33588D01*
X436682Y33292D01*
X436629Y32994D01*
X436463Y32740D01*
X436212Y32570D01*
X433977Y31645D01*
X431905Y29573D01*
X430784Y26865D01*
X430784Y23935D01*
X431905Y21227D01*
X433977Y19155D01*
X436791Y17990D01*
X437029Y17834D01*
X437201Y17583D01*
X437261Y17286D01*
X437261Y5174D01*
X437205Y4888D01*
X437038Y4635D01*
X421386Y-11017D01*
X421386Y-14383D01*
X423767Y-16764D01*
X427133Y-16764D01*
X445389Y1492D01*
X445389Y17272D01*
X445440Y17547D01*
X445604Y17802D01*
X445854Y17974D01*
X446151Y18034D01*
X451807Y18034D01*
X454515Y19155D01*
X456587Y21227D01*
X457708Y23935D01*
X457708Y26865D01*
X456587Y29573D01*
X454515Y31645D01*
X452280Y32570D01*
X452060Y32710D01*
X451880Y32955D01*
X451810Y33250D01*
X451861Y33549D01*
X452025Y33804D01*
X452275Y33976D01*
X452572Y34036D01*
X455708Y34036D01*
X467614Y45942D01*
X467614Y49183D01*
X467659Y49441D01*
X467816Y49700D01*
X468062Y49878D01*
X468358Y49945D01*
X468656Y49892D01*
X468911Y49726D01*
X469080Y49475D01*
X470259Y46627D01*
X472331Y44555D01*
X475039Y43434D01*
X490161Y43434D01*
X492869Y44555D01*
X494941Y46627D01*
X496062Y49335D01*
X496062Y52265D01*
X494941Y54973D01*
X492869Y57045D01*
X490161Y58166D01*
X475328Y58166D01*
X475065Y58213D01*
X474807Y58372D01*
X474631Y58620D01*
X474566Y58916D01*
X474622Y59214D01*
X474789Y59467D01*
X521347Y106025D01*
X521583Y106185D01*
X521880Y106248D01*
X522178Y106190D01*
X524496Y105230D01*
X528104Y105230D01*
X531438Y106611D01*
X533989Y109162D01*
X534220Y109720D01*
X534360Y109940D01*
X534605Y110120D01*
X534900Y110190D01*
X535199Y110139D01*
X535454Y109975D01*
X535626Y109725D01*
X535686Y109428D01*
X535686Y-134828D01*
X535641Y-135086D01*
X535484Y-135345D01*
X535238Y-135522D01*
X534942Y-135590D01*
X534644Y-135537D01*
X534390Y-135371D01*
X534220Y-135120D01*
X533989Y-134562D01*
X531438Y-132011D01*
X528104Y-130630D01*
X524496Y-130630D01*
X521162Y-132011D01*
X518611Y-134562D01*
X517230Y-137896D01*
X517230Y-141504D01*
X518611Y-144838D01*
X521162Y-147389D01*
X524496Y-148770D01*
X528104Y-148770D01*
X531438Y-147389D01*
X533989Y-144838D01*
X534220Y-144280D01*
X534360Y-144060D01*
X534605Y-143880D01*
X534900Y-143810D01*
X535199Y-143861D01*
X535454Y-144025D01*
X535626Y-144275D01*
X535686Y-144572D01*
X535686Y-150401D01*
X535630Y-150687D01*
X535463Y-150940D01*
X469011Y-217392D01*
X469011Y-219068D01*
X468960Y-219343D01*
X468796Y-219598D01*
X468546Y-219770D01*
X468249Y-219830D01*
X462274Y-219830D01*
X461530Y-220574D01*
X461530Y-236626D01*
X462274Y-237370D01*
X478326Y-237370D01*
X479070Y-236626D01*
X479070Y-220574D01*
X478736Y-220239D01*
X478578Y-220009D01*
X478512Y-219713D01*
X478568Y-219415D01*
X478736Y-219162D01*
X543814Y-154083D01*
X543814Y-146481D01*
X543861Y-146217D01*
X544020Y-145959D01*
X544268Y-145784D01*
X544564Y-145719D01*
X544862Y-145774D01*
X545115Y-145942D01*
X546562Y-147389D01*
X549896Y-148770D01*
X553504Y-148770D01*
X556838Y-147389D01*
X559389Y-144838D01*
X560770Y-141504D01*
X560770Y-137896D01*
X559389Y-134562D01*
X556838Y-132011D01*
X553504Y-130630D01*
X549896Y-130630D01*
X546562Y-132011D01*
X545115Y-133458D01*
X544895Y-133611D01*
X544600Y-133681D01*
X544301Y-133630D01*
X544046Y-133467D01*
X543874Y-133217D01*
X543814Y-132919D01*
X543814Y23783D01*
X543859Y24041D01*
X544016Y24300D01*
X544262Y24478D01*
X544558Y24545D01*
X544856Y24492D01*
X545111Y24326D01*
X545280Y24075D01*
X546459Y21227D01*
X548531Y19155D01*
X551239Y18034D01*
X566361Y18034D01*
X569069Y19155D01*
X571141Y21227D01*
X572262Y23935D01*
X572262Y26865D01*
X571141Y29573D01*
X569069Y31645D01*
X566361Y32766D01*
X551239Y32766D01*
X548531Y31645D01*
X546459Y29573D01*
X545280Y26725D01*
X545140Y26504D01*
X544895Y26325D01*
X544600Y26255D01*
X544301Y26306D01*
X544046Y26469D01*
X543874Y26720D01*
X543814Y27017D01*
X543814Y49183D01*
X543859Y49441D01*
X544016Y49700D01*
X544262Y49878D01*
X544558Y49945D01*
X544856Y49892D01*
X545111Y49726D01*
X545280Y49475D01*
X546459Y46627D01*
X548531Y44555D01*
X551239Y43434D01*
X566361Y43434D01*
X569069Y44555D01*
X571141Y46627D01*
X572262Y49335D01*
X572262Y52265D01*
X571141Y54973D01*
X569069Y57045D01*
X566361Y58166D01*
X551239Y58166D01*
X548531Y57045D01*
X546459Y54973D01*
X545280Y52125D01*
X545140Y51904D01*
X544895Y51725D01*
X544600Y51655D01*
X544301Y51706D01*
X544046Y51869D01*
X543874Y52120D01*
X543814Y52417D01*
X543814Y107519D01*
X543861Y107783D01*
X544020Y108041D01*
X544268Y108216D01*
X544564Y108281D01*
X544862Y108226D01*
X545115Y108058D01*
X546562Y106611D01*
X549896Y105230D01*
X553504Y105230D01*
X556838Y106611D01*
X559389Y109162D01*
X560770Y112496D01*
X560770Y116104D01*
X559389Y119438D01*
X556838Y121989D01*
X553504Y123370D01*
X549896Y123370D01*
X546562Y121989D01*
X545115Y120542D01*
X544895Y120389D01*
X544600Y120319D01*
X544301Y120370D01*
X544046Y120533D01*
X543874Y120783D01*
X543814Y121081D01*
X543814Y223933D01*
X512388Y255359D01*
X512235Y255579D01*
X512165Y255874D01*
X512216Y256173D01*
X512380Y256428D01*
X512630Y256600D01*
X512927Y256660D01*
X518938Y256660D01*
X518938Y265938D01*
X509660Y265938D01*
X509660Y259927D01*
X509613Y259664D01*
X509454Y259406D01*
X509206Y259230D01*
X508910Y259165D01*
X508612Y259221D01*
X508359Y259388D01*
X503631Y264116D01*
X503471Y264352D01*
X503408Y264649D01*
X503466Y264946D01*
X503470Y264956D01*
X503470Y268444D01*
X502135Y271668D01*
X499668Y274135D01*
X496444Y275470D01*
X492956Y275470D01*
X489732Y274135D01*
X487265Y271668D01*
X485930Y268444D01*
X485930Y264956D01*
X487265Y261732D01*
X489732Y259265D01*
X492956Y257930D01*
X496444Y257930D01*
X497302Y258285D01*
X497582Y258343D01*
X497880Y258288D01*
X498133Y258120D01*
X535463Y220790D01*
X535626Y220548D01*
X535686Y220251D01*
X535686Y119172D01*
X535641Y118914D01*
X535484Y118655D01*
X535238Y118478D01*
X534942Y118410D01*
X534644Y118464D01*
X534390Y118629D01*
X534220Y118880D01*
X533989Y119438D01*
X531438Y121989D01*
X528104Y123370D01*
X524496Y123370D01*
X521162Y121989D01*
X518611Y119438D01*
X517230Y116104D01*
X517230Y113718D01*
X517174Y113432D01*
X517007Y113179D01*
X459486Y55658D01*
X459486Y49624D01*
X459430Y49338D01*
X459263Y49085D01*
X459009Y48831D01*
X458789Y48678D01*
X458494Y48608D01*
X458195Y48659D01*
X457940Y48823D01*
X457768Y49073D01*
X457708Y49370D01*
X457708Y52265D01*
X456587Y54973D01*
X454515Y57045D01*
X451807Y58166D01*
X443197Y58166D01*
X442911Y58222D01*
X442658Y58389D01*
X397118Y103929D01*
X396965Y104149D01*
X396895Y104444D01*
X396946Y104743D01*
X397110Y104998D01*
X397360Y105170D01*
X397657Y105230D01*
X401104Y105230D01*
X404438Y106611D01*
X406989Y109162D01*
X408370Y112496D01*
X408370Y116104D01*
X406989Y119438D01*
X404438Y121989D01*
X401409Y123244D01*
X401171Y123400D01*
X400999Y123650D01*
X400939Y123948D01*
X400939Y125508D01*
X363633Y162814D01*
X360267Y162814D01*
X357886Y160433D01*
X357886Y157701D01*
X357839Y157438D01*
X357680Y157180D01*
X357432Y157004D01*
X357136Y156939D01*
X356838Y156995D01*
X356585Y157162D01*
X347187Y166560D01*
X347024Y166802D01*
X346964Y167099D01*
X346964Y172867D01*
X347009Y173125D01*
X347166Y173384D01*
X347412Y173561D01*
X347708Y173629D01*
X348006Y173575D01*
X348261Y173410D01*
X348430Y173158D01*
X348565Y172832D01*
X351032Y170365D01*
X354256Y169030D01*
X357744Y169030D01*
X360968Y170365D01*
X363435Y172832D01*
X364770Y176056D01*
X364770Y177732D01*
X364826Y178018D01*
X364993Y178271D01*
X404114Y217392D01*
X404114Y235999D01*
X404161Y236262D01*
X404320Y236520D01*
X404568Y236696D01*
X404864Y236761D01*
X405162Y236705D01*
X405415Y236538D01*
X461427Y180525D01*
X461588Y180289D01*
X461650Y179993D01*
X461592Y179695D01*
X461530Y179544D01*
X461530Y176056D01*
X462865Y172832D01*
X465332Y170365D01*
X468556Y169030D01*
X472044Y169030D01*
X475268Y170365D01*
X477735Y172832D01*
X479070Y176056D01*
X479070Y179544D01*
X477735Y182768D01*
X475268Y185235D01*
X472044Y186570D01*
X468556Y186570D01*
X467839Y186273D01*
X467560Y186215D01*
X467262Y186271D01*
X467009Y186439D01*
X404337Y249110D01*
X404174Y249352D01*
X404114Y249649D01*
X404114Y262033D01*
X403163Y262985D01*
X403002Y263221D01*
X402940Y263517D01*
X402998Y263815D01*
X403470Y264956D01*
X403470Y268444D01*
X402135Y271668D01*
X399668Y274135D01*
X396444Y275470D01*
X392956Y275470D01*
X389732Y274135D01*
X387265Y271668D01*
X385930Y268444D01*
X385930Y264956D01*
X387265Y261732D01*
X389732Y259265D01*
X392956Y257930D01*
X395224Y257930D01*
X395499Y257879D01*
X395754Y257715D01*
X395926Y257465D01*
X395986Y257168D01*
X395986Y221074D01*
X395930Y220788D01*
X395763Y220535D01*
X360971Y185743D01*
X360734Y185582D01*
X360438Y185520D01*
X360140Y185578D01*
X357744Y186570D01*
X354256Y186570D01*
X351032Y185235D01*
X348565Y182768D01*
X348430Y182442D01*
X348290Y182221D01*
X348045Y182041D01*
X347750Y181972D01*
X347451Y182022D01*
X347196Y182186D01*
X347024Y182436D01*
X346964Y182733D01*
X346964Y262033D01*
X288408Y320589D01*
X288255Y320809D01*
X288185Y321104D01*
X288236Y321403D01*
X288400Y321658D01*
X288650Y321830D01*
X288947Y321890D01*
X290708Y321890D01*
X292828Y322768D01*
X294452Y324392D01*
X295330Y326512D01*
X295330Y328808D01*
X294452Y330928D01*
X292828Y332552D01*
X290708Y333430D01*
X288412Y333430D01*
X286292Y332552D01*
X284765Y331025D01*
X284545Y330872D01*
X284250Y330802D01*
X283951Y330853D01*
X283696Y331016D01*
X283524Y331266D01*
X283464Y331564D01*
X283464Y341408D01*
X269994Y354879D01*
X269879Y355025D01*
X269250Y356074D01*
X269214Y356094D01*
X269065Y356315D01*
X267428Y357952D01*
X265308Y358830D01*
X263012Y358830D01*
X260892Y357952D01*
X259268Y356328D01*
X258390Y354208D01*
X258390Y351912D01*
X259268Y349792D01*
X260892Y348168D01*
X263012Y347290D01*
X265308Y347290D01*
X265389Y347324D01*
X265668Y347382D01*
X265966Y347326D01*
X266219Y347158D01*
X275113Y338265D01*
X275276Y338023D01*
X275336Y337726D01*
X275336Y322167D01*
X321074Y276429D01*
X321224Y276215D01*
X321296Y275921D01*
X321248Y275621D01*
X321086Y275364D01*
X320838Y275191D01*
X320541Y275128D01*
X320243Y275186D01*
X319268Y275590D01*
X315732Y275590D01*
X312464Y274237D01*
X310165Y271937D01*
X309945Y271784D01*
X309650Y271714D01*
X309351Y271765D01*
X309096Y271929D01*
X308924Y272179D01*
X308864Y272476D01*
X308864Y274733D01*
X263008Y320589D01*
X262855Y320809D01*
X262785Y321104D01*
X262836Y321403D01*
X263000Y321658D01*
X263250Y321830D01*
X263547Y321890D01*
X265308Y321890D01*
X267428Y322768D01*
X269052Y324392D01*
X269930Y326512D01*
X269930Y328808D01*
X269052Y330928D01*
X267428Y332552D01*
X265308Y333430D01*
X263012Y333430D01*
X260892Y332552D01*
X259365Y331025D01*
X259145Y330872D01*
X258850Y330802D01*
X258551Y330853D01*
X258296Y331016D01*
X258124Y331266D01*
X258064Y331564D01*
X258064Y341408D01*
X244594Y354879D01*
X244479Y355025D01*
X243850Y356074D01*
X243814Y356094D01*
X243665Y356315D01*
X242028Y357952D01*
X239908Y358830D01*
X237612Y358830D01*
X235492Y357952D01*
X233868Y356328D01*
X232990Y354208D01*
X232990Y351912D01*
X233868Y349792D01*
X235492Y348168D01*
X237612Y347290D01*
X239908Y347290D01*
X239989Y347324D01*
X240268Y347382D01*
X240566Y347326D01*
X240819Y347158D01*
X249713Y338265D01*
X249876Y338023D01*
X249936Y337726D01*
X249936Y322167D01*
X295674Y276429D01*
X295824Y276215D01*
X295896Y275921D01*
X295848Y275621D01*
X295686Y275364D01*
X295438Y275191D01*
X295141Y275128D01*
X294843Y275186D01*
X293868Y275590D01*
X290332Y275590D01*
X287064Y274237D01*
X284563Y271736D01*
X283210Y268468D01*
X283210Y264932D01*
X284563Y261664D01*
X287064Y259163D01*
X287566Y258956D01*
X287804Y258799D01*
X287976Y258549D01*
X288036Y258252D01*
X288036Y211549D01*
X287980Y211263D01*
X287813Y211010D01*
X199868Y123066D01*
X199632Y122905D01*
X199335Y122842D01*
X199038Y122900D01*
X197904Y123370D01*
X194296Y123370D01*
X190962Y121989D01*
X189515Y120542D01*
X189295Y120389D01*
X189000Y120319D01*
X188701Y120370D01*
X188446Y120533D01*
X188274Y120783D01*
X188214Y121081D01*
X188214Y121826D01*
X188270Y122112D01*
X188437Y122365D01*
X204089Y138017D01*
X204089Y337726D01*
X204145Y338012D01*
X204312Y338265D01*
X213114Y347067D01*
X213356Y347230D01*
X213653Y347290D01*
X214508Y347290D01*
X216628Y348168D01*
X218252Y349792D01*
X219130Y351912D01*
X219130Y354208D01*
X218252Y356328D01*
X216628Y357952D01*
X214508Y358830D01*
X212212Y358830D01*
X210092Y357952D01*
X208468Y356328D01*
X207590Y354208D01*
X207590Y353353D01*
X207534Y353067D01*
X207367Y352814D01*
X195961Y341408D01*
X195961Y141699D01*
X195905Y141413D01*
X195738Y141160D01*
X180086Y125508D01*
X180086Y119172D01*
X180041Y118914D01*
X179884Y118655D01*
X179638Y118478D01*
X179342Y118410D01*
X179044Y118464D01*
X178790Y118629D01*
X178620Y118880D01*
X178389Y119438D01*
X175838Y121989D01*
X172504Y123370D01*
X168896Y123370D01*
X165562Y121989D01*
X163011Y119438D01*
X161630Y116104D01*
X161630Y112496D01*
X163011Y109162D01*
X165562Y106611D01*
X168896Y105230D01*
X172504Y105230D01*
X175838Y106611D01*
X178389Y109162D01*
X178620Y109720D01*
X178760Y109940D01*
X179005Y110120D01*
X179300Y110190D01*
X179599Y110139D01*
X179854Y109975D01*
X180026Y109725D01*
X180086Y109428D01*
X180086Y42926D01*
X180035Y42651D01*
X179871Y42396D01*
X179621Y42224D01*
X179324Y42164D01*
X148026Y42164D01*
X147768Y42209D01*
X147509Y42366D01*
X147332Y42612D01*
X147264Y42908D01*
X147317Y43206D01*
X147483Y43461D01*
X147734Y43630D01*
X149969Y44555D01*
X152041Y46627D01*
X153162Y49335D01*
X153162Y52265D01*
X152041Y54973D01*
X149969Y57045D01*
X147261Y58166D01*
X144526Y58166D01*
X144251Y58217D01*
X143996Y58381D01*
X143824Y58631D01*
X143788Y58809D01*
X134462Y68135D01*
X134299Y68377D01*
X134239Y68674D01*
X134239Y110153D01*
X134284Y110411D01*
X134441Y110670D01*
X134687Y110847D01*
X134983Y110915D01*
X135281Y110862D01*
X135536Y110696D01*
X135705Y110445D01*
X136534Y108443D01*
X139443Y105534D01*
X143243Y103960D01*
X144538Y103960D01*
X144538Y124640D01*
X143243Y124640D01*
X141096Y123751D01*
X140841Y123694D01*
X140541Y123740D01*
X140283Y123899D01*
X140108Y124146D01*
X140043Y124443D01*
X140098Y124741D01*
X140266Y124994D01*
X178689Y163417D01*
X178689Y337726D01*
X178745Y338012D01*
X178912Y338265D01*
X187714Y347067D01*
X187956Y347230D01*
X188253Y347290D01*
X189108Y347290D01*
X191228Y348168D01*
X192852Y349792D01*
X193730Y351912D01*
X193730Y354208D01*
X192852Y356328D01*
X191228Y357952D01*
X189108Y358830D01*
X186812Y358830D01*
X184692Y357952D01*
X183068Y356328D01*
X182190Y354208D01*
X182190Y353353D01*
X182134Y353067D01*
X181967Y352814D01*
X170561Y341408D01*
X170561Y167099D01*
X170505Y166813D01*
X170338Y166560D01*
X164115Y160337D01*
X163895Y160184D01*
X163600Y160114D01*
X163301Y160165D01*
X163046Y160329D01*
X162874Y160579D01*
X162814Y160876D01*
X162814Y163608D01*
X160433Y165989D01*
X-32926Y165989D01*
X-33212Y166045D01*
X-33465Y166212D01*
X-42469Y175216D01*
X-42629Y175452D01*
X-42692Y175749D01*
X-42634Y176046D01*
X-42630Y176056D01*
X-42630Y179544D01*
X-43965Y182768D01*
X-46432Y185235D01*
X-49656Y186570D01*
X-53144Y186570D01*
X-56368Y185235D01*
X-58835Y182768D01*
X-60170Y179544D01*
X-60170Y176056D01*
X-58835Y172832D01*
X-56368Y170365D01*
X-53144Y169030D01*
X-49656Y169030D01*
X-48798Y169385D01*
X-48518Y169443D01*
X-48220Y169388D01*
X-47967Y169220D01*
X-36608Y157861D01*
X159799Y157861D01*
X160062Y157814D01*
X160320Y157655D01*
X160496Y157407D01*
X160561Y157111D01*
X160505Y156813D01*
X160338Y156560D01*
X126111Y122333D01*
X126111Y68326D01*
X126060Y68051D01*
X125896Y67796D01*
X125646Y67624D01*
X125349Y67564D01*
X-128683Y67564D01*
X-169164Y27083D01*
X-169164Y24328D01*
X-169209Y24070D01*
X-169366Y23811D01*
X-169612Y23634D01*
X-169908Y23566D01*
X-170206Y23619D01*
X-170461Y23785D01*
X-170630Y24036D01*
X-171555Y26271D01*
X-173627Y28343D01*
X-176335Y29464D01*
X-179265Y29464D01*
X-181973Y28343D01*
X-184045Y26271D01*
X-184970Y24036D01*
X-185110Y23816D01*
X-185355Y23636D01*
X-185650Y23566D01*
X-185949Y23617D01*
X-186204Y23781D01*
X-186376Y24031D01*
X-186436Y24328D01*
X-186436Y55658D01*
X-261842Y131064D01*
X-265208Y131064D01*
X-267589Y128683D01*
X-267589Y125317D01*
X-194787Y52515D01*
X-194624Y52273D01*
X-194564Y51976D01*
X-194564Y-131858D01*
X-107893Y-218529D01*
X-107740Y-218749D01*
X-107670Y-219044D01*
X-107721Y-219343D01*
X-107885Y-219598D01*
X-108135Y-219770D01*
X-108432Y-219830D01*
X-109226Y-219830D01*
X-109970Y-220574D01*
X-109970Y-236626D01*
X-109226Y-237370D01*
G37*
G36*
X-92588Y347290D02*
X-90292Y347290D01*
X-88172Y348168D01*
X-86548Y349792D01*
X-85670Y351912D01*
X-85670Y354208D01*
X-86548Y356328D01*
X-88172Y357952D01*
X-90292Y358830D01*
X-92588Y358830D01*
X-94708Y357952D01*
X-96332Y356328D01*
X-97210Y354208D01*
X-97210Y351912D01*
X-96332Y349792D01*
X-94708Y348168D01*
X-92588Y347290D01*
G37*
G36*
X288412Y347290D02*
X290708Y347290D01*
X292828Y348168D01*
X294452Y349792D01*
X295330Y351912D01*
X295330Y354208D01*
X294452Y356328D01*
X292828Y357952D01*
X290708Y358830D01*
X288412Y358830D01*
X286292Y357952D01*
X284668Y356328D01*
X283790Y354208D01*
X283790Y351912D01*
X284668Y349792D01*
X286292Y348168D01*
X288412Y347290D01*
G37*
G36*
X339212Y347290D02*
X341508Y347290D01*
X343628Y348168D01*
X345252Y349792D01*
X346130Y351912D01*
X346130Y354208D01*
X345252Y356328D01*
X343628Y357952D01*
X341508Y358830D01*
X339212Y358830D01*
X337092Y357952D01*
X335468Y356328D01*
X334590Y354208D01*
X334590Y351912D01*
X335468Y349792D01*
X337092Y348168D01*
X339212Y347290D01*
G37*
G36*
X-244988Y347290D02*
X-242692Y347290D01*
X-240572Y348168D01*
X-238948Y349792D01*
X-238070Y351912D01*
X-238070Y354208D01*
X-238948Y356328D01*
X-240572Y357952D01*
X-242692Y358830D01*
X-244988Y358830D01*
X-247108Y357952D01*
X-248732Y356328D01*
X-249610Y354208D01*
X-249610Y351912D01*
X-248732Y349792D01*
X-247108Y348168D01*
X-244988Y347290D01*
G37*
G36*
X364612Y347290D02*
X366908Y347290D01*
X369028Y348168D01*
X370652Y349792D01*
X371530Y351912D01*
X371530Y354208D01*
X370652Y356328D01*
X369028Y357952D01*
X366908Y358830D01*
X364612Y358830D01*
X362492Y357952D01*
X360868Y356328D01*
X359990Y354208D01*
X359990Y351912D01*
X360868Y349792D01*
X362492Y348168D01*
X364612Y347290D01*
G37*
G36*
X110612Y347290D02*
X112908Y347290D01*
X115028Y348168D01*
X116652Y349792D01*
X117530Y351912D01*
X117530Y354208D01*
X116652Y356328D01*
X115028Y357952D01*
X112908Y358830D01*
X110612Y358830D01*
X108492Y357952D01*
X106868Y356328D01*
X105990Y354208D01*
X105990Y351912D01*
X106868Y349792D01*
X108492Y348168D01*
X110612Y347290D01*
G37*
G36*
X161412Y347290D02*
X163708Y347290D01*
X165828Y348168D01*
X167452Y349792D01*
X168330Y351912D01*
X168330Y354208D01*
X167452Y356328D01*
X165828Y357952D01*
X163708Y358830D01*
X161412Y358830D01*
X159292Y357952D01*
X157668Y356328D01*
X156790Y354208D01*
X156790Y351912D01*
X157668Y349792D01*
X159292Y348168D01*
X161412Y347290D01*
G37*
G36*
X313812Y347290D02*
X316108Y347290D01*
X318228Y348168D01*
X319852Y349792D01*
X320730Y351912D01*
X320730Y354208D01*
X319852Y356328D01*
X318228Y357952D01*
X316108Y358830D01*
X313812Y358830D01*
X311692Y357952D01*
X310068Y356328D01*
X309190Y354208D01*
X309190Y351912D01*
X310068Y349792D01*
X311692Y348168D01*
X313812Y347290D01*
G37*
G36*
X61722Y346020D02*
X62360Y346020D01*
X64948Y347092D01*
X66928Y349072D01*
X68000Y351660D01*
X68000Y352298D01*
X61722Y352298D01*
X61722Y346020D01*
G37*
G36*
X-116078Y346020D02*
X-115440Y346020D01*
X-112852Y347092D01*
X-110872Y349072D01*
X-109800Y351660D01*
X-109800Y352298D01*
X-116078Y352298D01*
X-116078Y346020D01*
G37*
G36*
X59560Y346020D02*
X60198Y346020D01*
X60198Y352298D01*
X53920Y352298D01*
X53920Y351660D01*
X54992Y349072D01*
X56972Y347092D01*
X59560Y346020D01*
G37*
G36*
X-118240Y346020D02*
X-117602Y346020D01*
X-117602Y352298D01*
X-123880Y352298D01*
X-123880Y351660D01*
X-122808Y349072D01*
X-120828Y347092D01*
X-118240Y346020D01*
G37*
G36*
X-379693Y332740D02*
X-374142Y332740D01*
X-374142Y347218D01*
X-388620Y347218D01*
X-388620Y341667D01*
X-379693Y332740D01*
G37*
G36*
X-372618Y332740D02*
X-367067Y332740D01*
X-358140Y341667D01*
X-358140Y347218D01*
X-372618Y347218D01*
X-372618Y332740D01*
G37*
G36*
X-424180Y332232D02*
X-409702Y332232D01*
X-409702Y346710D01*
X-415253Y346710D01*
X-424180Y337783D01*
X-424180Y332232D01*
G37*
G36*
X-408178Y332232D02*
X-393700Y332232D01*
X-393700Y337783D01*
X-402627Y346710D01*
X-408178Y346710D01*
X-408178Y332232D01*
G37*
G36*
X-271558Y230886D02*
X-268192Y230886D01*
X-265811Y233267D01*
X-265811Y236633D01*
X-300513Y271335D01*
X-300676Y271577D01*
X-300736Y271874D01*
X-300736Y316738D01*
X-300685Y317013D01*
X-300521Y317268D01*
X-300271Y317440D01*
X-299974Y317500D01*
X-297743Y317500D01*
X-289560Y325683D01*
X-289560Y337257D01*
X-297743Y345440D01*
X-309317Y345440D01*
X-317500Y337257D01*
X-317500Y325683D01*
X-309113Y317296D01*
X-309096Y317285D01*
X-308924Y317035D01*
X-308864Y316738D01*
X-308864Y268192D01*
X-271558Y230886D01*
G37*
G36*
X-250880Y328422D02*
X-244602Y328422D01*
X-244602Y334700D01*
X-245240Y334700D01*
X-247828Y333628D01*
X-249808Y331648D01*
X-250880Y329060D01*
X-250880Y328422D01*
G37*
G36*
X366522Y328422D02*
X372800Y328422D01*
X372800Y329060D01*
X371728Y331648D01*
X369748Y333628D01*
X367160Y334700D01*
X366522Y334700D01*
X366522Y328422D01*
G37*
G36*
X341122Y328422D02*
X347400Y328422D01*
X347400Y329060D01*
X346328Y331648D01*
X344348Y333628D01*
X341760Y334700D01*
X341122Y334700D01*
X341122Y328422D01*
G37*
G36*
X-141478Y328422D02*
X-135200Y328422D01*
X-135200Y329060D01*
X-136272Y331648D01*
X-138252Y333628D01*
X-140840Y334700D01*
X-141478Y334700D01*
X-141478Y328422D01*
G37*
G36*
X-166878Y328422D02*
X-160600Y328422D01*
X-160600Y329060D01*
X-161672Y331648D01*
X-163652Y333628D01*
X-166240Y334700D01*
X-166878Y334700D01*
X-166878Y328422D01*
G37*
G36*
X-192278Y328422D02*
X-186000Y328422D01*
X-186000Y329060D01*
X-187072Y331648D01*
X-189052Y333628D01*
X-191640Y334700D01*
X-192278Y334700D01*
X-192278Y328422D01*
G37*
G36*
X-217678Y328422D02*
X-211400Y328422D01*
X-211400Y329060D01*
X-212472Y331648D01*
X-214452Y333628D01*
X-217040Y334700D01*
X-217678Y334700D01*
X-217678Y328422D01*
G37*
G36*
X-243078Y328422D02*
X-236800Y328422D01*
X-236800Y329060D01*
X-237872Y331648D01*
X-239852Y333628D01*
X-242440Y334700D01*
X-243078Y334700D01*
X-243078Y328422D01*
G37*
G36*
X-225480Y328422D02*
X-219202Y328422D01*
X-219202Y334700D01*
X-219840Y334700D01*
X-222428Y333628D01*
X-224408Y331648D01*
X-225480Y329060D01*
X-225480Y328422D01*
G37*
G36*
X-200080Y328422D02*
X-193802Y328422D01*
X-193802Y334700D01*
X-194440Y334700D01*
X-197028Y333628D01*
X-199008Y331648D01*
X-200080Y329060D01*
X-200080Y328422D01*
G37*
G36*
X-174680Y328422D02*
X-168402Y328422D01*
X-168402Y334700D01*
X-169040Y334700D01*
X-171628Y333628D01*
X-173608Y331648D01*
X-174680Y329060D01*
X-174680Y328422D01*
G37*
G36*
X-149280Y328422D02*
X-143002Y328422D01*
X-143002Y334700D01*
X-143640Y334700D01*
X-146228Y333628D01*
X-148208Y331648D01*
X-149280Y329060D01*
X-149280Y328422D01*
G37*
G36*
X333320Y328422D02*
X339598Y328422D01*
X339598Y334700D01*
X338960Y334700D01*
X336372Y333628D01*
X334392Y331648D01*
X333320Y329060D01*
X333320Y328422D01*
G37*
G36*
X358720Y328422D02*
X364998Y328422D01*
X364998Y334700D01*
X364360Y334700D01*
X361772Y333628D01*
X359792Y331648D01*
X358720Y329060D01*
X358720Y328422D01*
G37*
G36*
X-92588Y321890D02*
X-90292Y321890D01*
X-88172Y322768D01*
X-86548Y324392D01*
X-85670Y326512D01*
X-85670Y328808D01*
X-86548Y330928D01*
X-88172Y332552D01*
X-90292Y333430D01*
X-92588Y333430D01*
X-94708Y332552D01*
X-96332Y330928D01*
X-97210Y328808D01*
X-97210Y326512D01*
X-96332Y324392D01*
X-94708Y322768D01*
X-92588Y321890D01*
G37*
G36*
X-67188Y321890D02*
X-64892Y321890D01*
X-62772Y322768D01*
X-61148Y324392D01*
X-60270Y326512D01*
X-60270Y328808D01*
X-61148Y330928D01*
X-62772Y332552D01*
X-64892Y333430D01*
X-67188Y333430D01*
X-69308Y332552D01*
X-70932Y330928D01*
X-71810Y328808D01*
X-71810Y326512D01*
X-70932Y324392D01*
X-69308Y322768D01*
X-67188Y321890D01*
G37*
G36*
X-41788Y321890D02*
X-39492Y321890D01*
X-37372Y322768D01*
X-35748Y324392D01*
X-34870Y326512D01*
X-34870Y328808D01*
X-35748Y330928D01*
X-37372Y332552D01*
X-39492Y333430D01*
X-41788Y333430D01*
X-43908Y332552D01*
X-45532Y330928D01*
X-46410Y328808D01*
X-46410Y326512D01*
X-45532Y324392D01*
X-43908Y322768D01*
X-41788Y321890D01*
G37*
G36*
X9012Y321890D02*
X11308Y321890D01*
X13428Y322768D01*
X15052Y324392D01*
X15930Y326512D01*
X15930Y328808D01*
X15052Y330928D01*
X13428Y332552D01*
X11308Y333430D01*
X9012Y333430D01*
X6892Y332552D01*
X5268Y330928D01*
X4390Y328808D01*
X4390Y326512D01*
X5268Y324392D01*
X6892Y322768D01*
X9012Y321890D01*
G37*
G36*
X34412Y321890D02*
X36708Y321890D01*
X38828Y322768D01*
X40452Y324392D01*
X41330Y326512D01*
X41330Y328808D01*
X40452Y330928D01*
X38828Y332552D01*
X36708Y333430D01*
X34412Y333430D01*
X32292Y332552D01*
X30668Y330928D01*
X29790Y328808D01*
X29790Y326512D01*
X30668Y324392D01*
X32292Y322768D01*
X34412Y321890D01*
G37*
G36*
X85212Y321890D02*
X87508Y321890D01*
X89628Y322768D01*
X91252Y324392D01*
X92130Y326512D01*
X92130Y328808D01*
X91252Y330928D01*
X89628Y332552D01*
X87508Y333430D01*
X85212Y333430D01*
X83092Y332552D01*
X81468Y330928D01*
X80590Y328808D01*
X80590Y326512D01*
X81468Y324392D01*
X83092Y322768D01*
X85212Y321890D01*
G37*
G36*
X110612Y321890D02*
X112908Y321890D01*
X115028Y322768D01*
X116652Y324392D01*
X117530Y326512D01*
X117530Y328808D01*
X116652Y330928D01*
X115028Y332552D01*
X112908Y333430D01*
X110612Y333430D01*
X108492Y332552D01*
X106868Y330928D01*
X105990Y328808D01*
X105990Y326512D01*
X106868Y324392D01*
X108492Y322768D01*
X110612Y321890D01*
G37*
G36*
X313812Y321890D02*
X316108Y321890D01*
X318228Y322768D01*
X319852Y324392D01*
X320730Y326512D01*
X320730Y328808D01*
X319852Y330928D01*
X318228Y332552D01*
X316108Y333430D01*
X313812Y333430D01*
X311692Y332552D01*
X310068Y330928D01*
X309190Y328808D01*
X309190Y326512D01*
X310068Y324392D01*
X311692Y322768D01*
X313812Y321890D01*
G37*
G36*
X161412Y321890D02*
X163708Y321890D01*
X165828Y322768D01*
X167452Y324392D01*
X168330Y326512D01*
X168330Y328808D01*
X167452Y330928D01*
X165828Y332552D01*
X163708Y333430D01*
X161412Y333430D01*
X159292Y332552D01*
X157668Y330928D01*
X156790Y328808D01*
X156790Y326512D01*
X157668Y324392D01*
X159292Y322768D01*
X161412Y321890D01*
G37*
G36*
X59812Y321890D02*
X62108Y321890D01*
X64228Y322768D01*
X65852Y324392D01*
X66730Y326512D01*
X66730Y328808D01*
X65852Y330928D01*
X64228Y332552D01*
X62108Y333430D01*
X59812Y333430D01*
X57692Y332552D01*
X56068Y330928D01*
X55190Y328808D01*
X55190Y326512D01*
X56068Y324392D01*
X57692Y322768D01*
X59812Y321890D01*
G37*
G36*
X186812Y321890D02*
X189108Y321890D01*
X191228Y322768D01*
X192852Y324392D01*
X193730Y326512D01*
X193730Y328808D01*
X192852Y330928D01*
X191228Y332552D01*
X189108Y333430D01*
X186812Y333430D01*
X184692Y332552D01*
X183068Y330928D01*
X182190Y328808D01*
X182190Y326512D01*
X183068Y324392D01*
X184692Y322768D01*
X186812Y321890D01*
G37*
G36*
X212212Y321890D02*
X214508Y321890D01*
X216628Y322768D01*
X218252Y324392D01*
X219130Y326512D01*
X219130Y328808D01*
X218252Y330928D01*
X216628Y332552D01*
X214508Y333430D01*
X212212Y333430D01*
X210092Y332552D01*
X208468Y330928D01*
X207590Y328808D01*
X207590Y326512D01*
X208468Y324392D01*
X210092Y322768D01*
X212212Y321890D01*
G37*
G36*
X237612Y321890D02*
X239908Y321890D01*
X242028Y322768D01*
X243652Y324392D01*
X244530Y326512D01*
X244530Y328808D01*
X243652Y330928D01*
X242028Y332552D01*
X239908Y333430D01*
X237612Y333430D01*
X235492Y332552D01*
X233868Y330928D01*
X232990Y328808D01*
X232990Y326512D01*
X233868Y324392D01*
X235492Y322768D01*
X237612Y321890D01*
G37*
G36*
X136012Y321890D02*
X138308Y321890D01*
X140428Y322768D01*
X142052Y324392D01*
X142930Y326512D01*
X142930Y328808D01*
X142052Y330928D01*
X140428Y332552D01*
X138308Y333430D01*
X136012Y333430D01*
X133892Y332552D01*
X132268Y330928D01*
X131390Y328808D01*
X131390Y326512D01*
X132268Y324392D01*
X133892Y322768D01*
X136012Y321890D01*
G37*
G36*
X-117988Y321890D02*
X-115692Y321890D01*
X-113572Y322768D01*
X-111948Y324392D01*
X-111070Y326512D01*
X-111070Y328808D01*
X-111948Y330928D01*
X-113572Y332552D01*
X-115692Y333430D01*
X-117988Y333430D01*
X-120108Y332552D01*
X-121732Y330928D01*
X-122610Y328808D01*
X-122610Y326512D01*
X-121732Y324392D01*
X-120108Y322768D01*
X-117988Y321890D01*
G37*
G36*
X-408178Y316230D02*
X-402627Y316230D01*
X-393700Y325157D01*
X-393700Y330708D01*
X-408178Y330708D01*
X-408178Y316230D01*
G37*
G36*
X-415253Y316230D02*
X-409702Y316230D01*
X-409702Y330708D01*
X-424180Y330708D01*
X-424180Y325157D01*
X-415253Y316230D01*
G37*
G36*
X-388620Y315722D02*
X-374142Y315722D01*
X-374142Y330200D01*
X-379693Y330200D01*
X-388620Y321273D01*
X-388620Y315722D01*
G37*
G36*
X-372618Y315722D02*
X-358140Y315722D01*
X-358140Y321273D01*
X-367067Y330200D01*
X-372618Y330200D01*
X-372618Y315722D01*
G37*
G36*
X-194440Y320620D02*
X-193802Y320620D01*
X-193802Y326898D01*
X-200080Y326898D01*
X-200080Y326260D01*
X-199008Y323672D01*
X-197028Y321692D01*
X-194440Y320620D01*
G37*
G36*
X338960Y320620D02*
X339598Y320620D01*
X339598Y326898D01*
X333320Y326898D01*
X333320Y326260D01*
X334392Y323672D01*
X336372Y321692D01*
X338960Y320620D01*
G37*
G36*
X-141478Y320620D02*
X-140840Y320620D01*
X-138252Y321692D01*
X-136272Y323672D01*
X-135200Y326260D01*
X-135200Y326898D01*
X-141478Y326898D01*
X-141478Y320620D01*
G37*
G36*
X-143640Y320620D02*
X-143002Y320620D01*
X-143002Y326898D01*
X-149280Y326898D01*
X-149280Y326260D01*
X-148208Y323672D01*
X-146228Y321692D01*
X-143640Y320620D01*
G37*
G36*
X-166878Y320620D02*
X-166240Y320620D01*
X-163652Y321692D01*
X-161672Y323672D01*
X-160600Y326260D01*
X-160600Y326898D01*
X-166878Y326898D01*
X-166878Y320620D01*
G37*
G36*
X-169040Y320620D02*
X-168402Y320620D01*
X-168402Y326898D01*
X-174680Y326898D01*
X-174680Y326260D01*
X-173608Y323672D01*
X-171628Y321692D01*
X-169040Y320620D01*
G37*
G36*
X-192278Y320620D02*
X-191640Y320620D01*
X-189052Y321692D01*
X-187072Y323672D01*
X-186000Y326260D01*
X-186000Y326898D01*
X-192278Y326898D01*
X-192278Y320620D01*
G37*
G36*
X-217678Y320620D02*
X-217040Y320620D01*
X-214452Y321692D01*
X-212472Y323672D01*
X-211400Y326260D01*
X-211400Y326898D01*
X-217678Y326898D01*
X-217678Y320620D01*
G37*
G36*
X-219840Y320620D02*
X-219202Y320620D01*
X-219202Y326898D01*
X-225480Y326898D01*
X-225480Y326260D01*
X-224408Y323672D01*
X-222428Y321692D01*
X-219840Y320620D01*
G37*
G36*
X-243078Y320620D02*
X-242440Y320620D01*
X-239852Y321692D01*
X-237872Y323672D01*
X-236800Y326260D01*
X-236800Y326898D01*
X-243078Y326898D01*
X-243078Y320620D01*
G37*
G36*
X-245240Y320620D02*
X-244602Y320620D01*
X-244602Y326898D01*
X-250880Y326898D01*
X-250880Y326260D01*
X-249808Y323672D01*
X-247828Y321692D01*
X-245240Y320620D01*
G37*
G36*
X366522Y320620D02*
X367160Y320620D01*
X369748Y321692D01*
X371728Y323672D01*
X372800Y326260D01*
X372800Y326898D01*
X366522Y326898D01*
X366522Y320620D01*
G37*
G36*
X364360Y320620D02*
X364998Y320620D01*
X364998Y326898D01*
X358720Y326898D01*
X358720Y326260D01*
X359792Y323672D01*
X361772Y321692D01*
X364360Y320620D01*
G37*
G36*
X341122Y320620D02*
X341760Y320620D01*
X344348Y321692D01*
X346328Y323672D01*
X347400Y326260D01*
X347400Y326898D01*
X341122Y326898D01*
X341122Y320620D01*
G37*
G36*
X-372618Y299720D02*
X-367067Y299720D01*
X-358140Y308647D01*
X-358140Y314198D01*
X-372618Y314198D01*
X-372618Y299720D01*
G37*
G36*
X-379693Y299720D02*
X-374142Y299720D01*
X-374142Y314198D01*
X-388620Y314198D01*
X-388620Y308647D01*
X-379693Y299720D01*
G37*
G36*
X-581540Y291862D02*
X-572262Y291862D01*
X-572262Y301140D01*
X-580052Y301140D01*
X-581540Y299652D01*
X-581540Y291862D01*
G37*
G36*
X-570738Y291862D02*
X-561460Y291862D01*
X-561460Y299652D01*
X-562948Y301140D01*
X-570738Y301140D01*
X-570738Y291862D01*
G37*
G36*
X-570738Y281060D02*
X-562948Y281060D01*
X-561460Y282548D01*
X-561460Y290338D01*
X-570738Y290338D01*
X-570738Y281060D01*
G37*
G36*
X-580052Y281060D02*
X-572262Y281060D01*
X-572262Y290338D01*
X-581540Y290338D01*
X-581540Y282548D01*
X-580052Y281060D01*
G37*
G36*
X267462Y267462D02*
X276860Y267462D01*
X276860Y268721D01*
X275313Y272455D01*
X272455Y275313D01*
X268721Y276860D01*
X267462Y276860D01*
X267462Y267462D01*
G37*
G36*
X256540Y267462D02*
X265938Y267462D01*
X265938Y276860D01*
X264679Y276860D01*
X260945Y275313D01*
X258087Y272455D01*
X256540Y268721D01*
X256540Y267462D01*
G37*
G36*
X78260Y267462D02*
X87538Y267462D01*
X87538Y276740D01*
X79748Y276740D01*
X78260Y275252D01*
X78260Y267462D01*
G37*
G36*
X509660Y267462D02*
X518938Y267462D01*
X518938Y276740D01*
X511148Y276740D01*
X509660Y275252D01*
X509660Y267462D01*
G37*
G36*
X520462Y267462D02*
X529740Y267462D01*
X529740Y275252D01*
X528252Y276740D01*
X520462Y276740D01*
X520462Y267462D01*
G37*
G36*
X89062Y267462D02*
X98340Y267462D01*
X98340Y275252D01*
X96852Y276740D01*
X89062Y276740D01*
X89062Y267462D01*
G37*
G36*
X-50638Y267462D02*
X-41360Y267462D01*
X-41360Y275252D01*
X-42848Y276740D01*
X-50638Y276740D01*
X-50638Y267462D01*
G37*
G36*
X-61440Y267462D02*
X-52162Y267462D01*
X-52162Y276740D01*
X-59952Y276740D01*
X-61440Y275252D01*
X-61440Y267462D01*
G37*
G36*
X239532Y257810D02*
X243068Y257810D01*
X246336Y259163D01*
X248837Y261664D01*
X250190Y264932D01*
X250190Y268468D01*
X248837Y271736D01*
X246336Y274237D01*
X243068Y275590D01*
X239532Y275590D01*
X236264Y274237D01*
X233763Y271736D01*
X232410Y268468D01*
X232410Y264932D01*
X233763Y261664D01*
X236264Y259163D01*
X239532Y257810D01*
G37*
G36*
X-103144Y257930D02*
X-99656Y257930D01*
X-96432Y259265D01*
X-93965Y261732D01*
X-92630Y264956D01*
X-92630Y268444D01*
X-93965Y271668D01*
X-96432Y274135D01*
X-99656Y275470D01*
X-103144Y275470D01*
X-106368Y274135D01*
X-108835Y271668D01*
X-110170Y268444D01*
X-110170Y264956D01*
X-108835Y261732D01*
X-106368Y259265D01*
X-103144Y257930D01*
G37*
G36*
X442956Y257930D02*
X446444Y257930D01*
X449668Y259265D01*
X452135Y261732D01*
X453470Y264956D01*
X453470Y268444D01*
X452135Y271668D01*
X449668Y274135D01*
X446444Y275470D01*
X442956Y275470D01*
X439732Y274135D01*
X437265Y271668D01*
X435930Y268444D01*
X435930Y264956D01*
X437265Y261732D01*
X439732Y259265D01*
X442956Y257930D01*
G37*
G36*
X467956Y257930D02*
X471444Y257930D01*
X474668Y259265D01*
X477135Y261732D01*
X478470Y264956D01*
X478470Y268444D01*
X477135Y271668D01*
X474668Y274135D01*
X471444Y275470D01*
X467956Y275470D01*
X464732Y274135D01*
X462265Y271668D01*
X460930Y268444D01*
X460930Y264956D01*
X462265Y261732D01*
X464732Y259265D01*
X467956Y257930D01*
G37*
G36*
X11556Y257930D02*
X15044Y257930D01*
X18268Y259265D01*
X20735Y261732D01*
X22070Y264956D01*
X22070Y268444D01*
X20735Y271668D01*
X18268Y274135D01*
X15044Y275470D01*
X11556Y275470D01*
X8332Y274135D01*
X5865Y271668D01*
X4530Y268444D01*
X4530Y264956D01*
X5865Y261732D01*
X8332Y259265D01*
X11556Y257930D01*
G37*
G36*
X36556Y257930D02*
X40044Y257930D01*
X43268Y259265D01*
X45735Y261732D01*
X47070Y264956D01*
X47070Y268444D01*
X45735Y271668D01*
X43268Y274135D01*
X40044Y275470D01*
X36556Y275470D01*
X33332Y274135D01*
X30865Y271668D01*
X29530Y268444D01*
X29530Y264956D01*
X30865Y261732D01*
X33332Y259265D01*
X36556Y257930D01*
G37*
G36*
X-103144Y169030D02*
X-99656Y169030D01*
X-96432Y170365D01*
X-93965Y172832D01*
X-92630Y176056D01*
X-92630Y179544D01*
X-93965Y182768D01*
X-94138Y182940D01*
X-94301Y183182D01*
X-94361Y183479D01*
X-94361Y188849D01*
X-94310Y189124D01*
X-94146Y189379D01*
X-93896Y189551D01*
X-93599Y189611D01*
X20226Y189611D01*
X20512Y189555D01*
X20765Y189388D01*
X21012Y189141D01*
X21165Y188921D01*
X21235Y188626D01*
X21184Y188327D01*
X21020Y188072D01*
X20770Y187900D01*
X20473Y187840D01*
X14062Y187840D01*
X14062Y178562D01*
X23340Y178562D01*
X23340Y184973D01*
X23387Y185236D01*
X23546Y185494D01*
X23794Y185670D01*
X24090Y185735D01*
X24388Y185679D01*
X24641Y185512D01*
X29486Y180667D01*
X29646Y180431D01*
X29709Y180134D01*
X29651Y179836D01*
X29530Y179544D01*
X29530Y176056D01*
X30865Y172832D01*
X33332Y170365D01*
X36556Y169030D01*
X40044Y169030D01*
X43268Y170365D01*
X45735Y172832D01*
X47070Y176056D01*
X47070Y177532D01*
X47126Y177818D01*
X47293Y178071D01*
X64389Y195167D01*
X64389Y257168D01*
X64440Y257443D01*
X64604Y257698D01*
X64854Y257870D01*
X64942Y257888D01*
X68268Y259265D01*
X70735Y261732D01*
X72070Y264956D01*
X72070Y268444D01*
X70735Y271668D01*
X68268Y274135D01*
X65044Y275470D01*
X61556Y275470D01*
X58332Y274135D01*
X55865Y271668D01*
X54530Y268444D01*
X54530Y264956D01*
X55865Y261732D01*
X56038Y261560D01*
X56201Y261318D01*
X56261Y261021D01*
X56261Y198849D01*
X56205Y198563D01*
X56038Y198310D01*
X43412Y185684D01*
X43176Y185524D01*
X42879Y185461D01*
X42582Y185519D01*
X40044Y186570D01*
X36556Y186570D01*
X35981Y186332D01*
X35701Y186274D01*
X35403Y186330D01*
X35150Y186497D01*
X23908Y197739D01*
X-93599Y197739D01*
X-93874Y197790D01*
X-94129Y197954D01*
X-94301Y198204D01*
X-94361Y198501D01*
X-94361Y245651D01*
X-94305Y245937D01*
X-94138Y246190D01*
X-81512Y258816D01*
X-81276Y258976D01*
X-80979Y259039D01*
X-80682Y258981D01*
X-78144Y257930D01*
X-74656Y257930D01*
X-71432Y259265D01*
X-68965Y261732D01*
X-67630Y264956D01*
X-67630Y268444D01*
X-68965Y271668D01*
X-71432Y274135D01*
X-74656Y275470D01*
X-78144Y275470D01*
X-81368Y274135D01*
X-83835Y271668D01*
X-85170Y268444D01*
X-85170Y266968D01*
X-85226Y266682D01*
X-85393Y266429D01*
X-102489Y249333D01*
X-102489Y187332D01*
X-102540Y187057D01*
X-102704Y186802D01*
X-102954Y186630D01*
X-103042Y186612D01*
X-106368Y185235D01*
X-108835Y182768D01*
X-110170Y179544D01*
X-110170Y176056D01*
X-108835Y172832D01*
X-106368Y170365D01*
X-103144Y169030D01*
G37*
G36*
X-128144Y257930D02*
X-124656Y257930D01*
X-121432Y259265D01*
X-118965Y261732D01*
X-117630Y264956D01*
X-117630Y268444D01*
X-118965Y271668D01*
X-121432Y274135D01*
X-124656Y275470D01*
X-128144Y275470D01*
X-131368Y274135D01*
X-133835Y271668D01*
X-135170Y268444D01*
X-135170Y264956D01*
X-133835Y261732D01*
X-131368Y259265D01*
X-128144Y257930D01*
G37*
G36*
X473696Y105230D02*
X477304Y105230D01*
X480638Y106611D01*
X483189Y109162D01*
X484570Y112496D01*
X484570Y116104D01*
X483189Y119438D01*
X480638Y121989D01*
X477304Y123370D01*
X474726Y123370D01*
X474451Y123421D01*
X474196Y123585D01*
X474024Y123835D01*
X473964Y124132D01*
X473964Y150401D01*
X474020Y150687D01*
X474187Y150940D01*
X492292Y169044D01*
X492528Y169205D01*
X492824Y169268D01*
X493122Y169210D01*
X493556Y169030D01*
X497044Y169030D01*
X500268Y170365D01*
X502635Y172733D01*
X502855Y172886D01*
X503150Y172955D01*
X503449Y172905D01*
X503704Y172741D01*
X503876Y172491D01*
X503936Y172194D01*
X503936Y124000D01*
X503887Y123731D01*
X503726Y123474D01*
X503477Y123301D01*
X503180Y123238D01*
X502882Y123296D01*
X502704Y123370D01*
X499096Y123370D01*
X495762Y121989D01*
X493211Y119438D01*
X491830Y116104D01*
X491830Y112496D01*
X493211Y109162D01*
X495762Y106611D01*
X499096Y105230D01*
X502704Y105230D01*
X506038Y106611D01*
X508589Y109162D01*
X509970Y112496D01*
X509970Y116104D01*
X509940Y116177D01*
X509882Y116457D01*
X509937Y116755D01*
X510105Y117008D01*
X512064Y118967D01*
X512064Y166998D01*
X512115Y167273D01*
X512279Y167528D01*
X512529Y167700D01*
X512826Y167760D01*
X519538Y167760D01*
X519538Y187840D01*
X512826Y187840D01*
X512551Y187891D01*
X512296Y188055D01*
X512124Y188305D01*
X512064Y188602D01*
X512064Y192183D01*
X509683Y194564D01*
X500474Y194564D01*
X500188Y194620D01*
X499935Y194787D01*
X428693Y266029D01*
X428530Y266271D01*
X428470Y266568D01*
X428470Y268444D01*
X427135Y271668D01*
X424668Y274135D01*
X421444Y275470D01*
X417956Y275470D01*
X414732Y274135D01*
X412265Y271668D01*
X410930Y268444D01*
X410930Y264956D01*
X412265Y261732D01*
X414732Y259265D01*
X417956Y257930D01*
X421444Y257930D01*
X423699Y258864D01*
X423978Y258922D01*
X424276Y258866D01*
X424529Y258699D01*
X495357Y187871D01*
X495510Y187651D01*
X495580Y187356D01*
X495529Y187057D01*
X495365Y186802D01*
X495115Y186630D01*
X494818Y186570D01*
X493556Y186570D01*
X490332Y185235D01*
X487865Y182768D01*
X486530Y179544D01*
X486530Y176056D01*
X486710Y175622D01*
X486767Y175343D01*
X486712Y175045D01*
X486544Y174792D01*
X465836Y154083D01*
X465836Y118967D01*
X466734Y118068D01*
X466895Y117832D01*
X466958Y117535D01*
X466900Y117238D01*
X466430Y116104D01*
X466430Y112496D01*
X467811Y109162D01*
X470362Y106611D01*
X473696Y105230D01*
G37*
G36*
X-573244Y257330D02*
X-569756Y257330D01*
X-566532Y258665D01*
X-564065Y261132D01*
X-562730Y264356D01*
X-562730Y267844D01*
X-564065Y271068D01*
X-566532Y273535D01*
X-569756Y274870D01*
X-573244Y274870D01*
X-576468Y273535D01*
X-578935Y271068D01*
X-580270Y267844D01*
X-580270Y264356D01*
X-578935Y261132D01*
X-576468Y258665D01*
X-573244Y257330D01*
G37*
G36*
X520462Y256660D02*
X528252Y256660D01*
X529740Y258148D01*
X529740Y265938D01*
X520462Y265938D01*
X520462Y256660D01*
G37*
G36*
X-50638Y256660D02*
X-42848Y256660D01*
X-41360Y258148D01*
X-41360Y265938D01*
X-50638Y265938D01*
X-50638Y256660D01*
G37*
G36*
X267462Y256540D02*
X268721Y256540D01*
X272455Y258087D01*
X275313Y260945D01*
X276860Y264679D01*
X276860Y265938D01*
X267462Y265938D01*
X267462Y256540D01*
G37*
G36*
X79748Y256660D02*
X87538Y256660D01*
X87538Y265938D01*
X78260Y265938D01*
X78260Y258148D01*
X79748Y256660D01*
G37*
G36*
X264679Y256540D02*
X265938Y256540D01*
X265938Y265938D01*
X256540Y265938D01*
X256540Y264679D01*
X258087Y260945D01*
X260945Y258087D01*
X264679Y256540D01*
G37*
G36*
X89062Y256660D02*
X96852Y256660D01*
X98340Y258148D01*
X98340Y265938D01*
X89062Y265938D01*
X89062Y256660D01*
G37*
G36*
X-59952Y256660D02*
X-52162Y256660D01*
X-52162Y265938D01*
X-61440Y265938D01*
X-61440Y258148D01*
X-59952Y256660D01*
G37*
G36*
X-408876Y221180D02*
X-405924Y221180D01*
X-403197Y222310D01*
X-401110Y224397D01*
X-399980Y227124D01*
X-399980Y230076D01*
X-401110Y232803D01*
X-403197Y234890D01*
X-405924Y236020D01*
X-408876Y236020D01*
X-411603Y234890D01*
X-413690Y232803D01*
X-414820Y230076D01*
X-414820Y227124D01*
X-413690Y224397D01*
X-411603Y222310D01*
X-408876Y221180D01*
G37*
G36*
X-293783Y-121539D02*
X-290417Y-121539D01*
X-288036Y-119158D01*
X-288036Y144051D01*
X-287980Y144337D01*
X-287813Y144590D01*
X-211836Y220567D01*
X-211836Y223933D01*
X-214217Y226314D01*
X-217583Y226314D01*
X-296164Y147733D01*
X-296164Y-119158D01*
X-293783Y-121539D01*
G37*
G36*
X-573244Y207330D02*
X-569756Y207330D01*
X-566532Y208665D01*
X-564065Y211132D01*
X-562730Y214356D01*
X-562730Y217844D01*
X-564065Y221068D01*
X-566532Y223535D01*
X-569756Y224870D01*
X-573244Y224870D01*
X-576468Y223535D01*
X-578935Y221068D01*
X-580270Y217844D01*
X-580270Y214356D01*
X-578935Y211132D01*
X-576468Y208665D01*
X-573244Y207330D01*
G37*
G36*
X-573244Y182330D02*
X-569756Y182330D01*
X-566532Y183665D01*
X-564065Y186132D01*
X-562730Y189356D01*
X-562730Y192844D01*
X-564065Y196068D01*
X-566532Y198535D01*
X-569756Y199870D01*
X-573244Y199870D01*
X-576468Y198535D01*
X-578935Y196068D01*
X-580270Y192844D01*
X-580270Y189356D01*
X-578935Y186132D01*
X-576468Y183665D01*
X-573244Y182330D01*
G37*
G36*
X-125638Y178562D02*
X-116360Y178562D01*
X-116360Y186352D01*
X-117848Y187840D01*
X-125638Y187840D01*
X-125638Y178562D01*
G37*
G36*
X521062Y178562D02*
X530340Y178562D01*
X530340Y186352D01*
X528852Y187840D01*
X521062Y187840D01*
X521062Y178562D01*
G37*
G36*
X3260Y178562D02*
X12538Y178562D01*
X12538Y187840D01*
X4748Y187840D01*
X3260Y186352D01*
X3260Y178562D01*
G37*
G36*
X-136440Y178562D02*
X-127162Y178562D01*
X-127162Y187840D01*
X-134952Y187840D01*
X-136440Y186352D01*
X-136440Y178562D01*
G37*
G36*
X406762Y178562D02*
X416040Y178562D01*
X416040Y186352D01*
X414552Y187840D01*
X406762Y187840D01*
X406762Y178562D01*
G37*
G36*
X395960Y178562D02*
X405238Y178562D01*
X405238Y187840D01*
X397448Y187840D01*
X395960Y186352D01*
X395960Y178562D01*
G37*
G36*
X61556Y169030D02*
X65044Y169030D01*
X68268Y170365D01*
X70735Y172832D01*
X72070Y176056D01*
X72070Y179544D01*
X70735Y182768D01*
X68268Y185235D01*
X65044Y186570D01*
X61556Y186570D01*
X58332Y185235D01*
X55865Y182768D01*
X54530Y179544D01*
X54530Y176056D01*
X55865Y172832D01*
X58332Y170365D01*
X61556Y169030D01*
G37*
G36*
X379256Y169030D02*
X382744Y169030D01*
X385968Y170365D01*
X388435Y172832D01*
X389770Y176056D01*
X389770Y179544D01*
X388435Y182768D01*
X385968Y185235D01*
X382744Y186570D01*
X379256Y186570D01*
X376032Y185235D01*
X373565Y182768D01*
X372230Y179544D01*
X372230Y176056D01*
X373565Y172832D01*
X376032Y170365D01*
X379256Y169030D01*
G37*
G36*
X-78144Y169030D02*
X-74656Y169030D01*
X-71432Y170365D01*
X-68965Y172832D01*
X-67630Y176056D01*
X-67630Y179544D01*
X-68965Y182768D01*
X-71432Y185235D01*
X-74656Y186570D01*
X-78144Y186570D01*
X-81368Y185235D01*
X-83835Y182768D01*
X-85170Y179544D01*
X-85170Y176056D01*
X-83835Y172832D01*
X-81368Y170365D01*
X-78144Y169030D01*
G37*
G36*
X86556Y169030D02*
X90044Y169030D01*
X93268Y170365D01*
X95735Y172832D01*
X97070Y176056D01*
X97070Y179544D01*
X95735Y182768D01*
X93268Y185235D01*
X90044Y186570D01*
X86556Y186570D01*
X83332Y185235D01*
X80865Y182768D01*
X79530Y179544D01*
X79530Y176056D01*
X80865Y172832D01*
X83332Y170365D01*
X86556Y169030D01*
G37*
G36*
X397448Y167760D02*
X405238Y167760D01*
X405238Y177038D01*
X395960Y177038D01*
X395960Y169248D01*
X397448Y167760D01*
G37*
G36*
X521062Y167760D02*
X528852Y167760D01*
X530340Y169248D01*
X530340Y177038D01*
X521062Y177038D01*
X521062Y167760D01*
G37*
G36*
X4748Y167760D02*
X12538Y167760D01*
X12538Y177038D01*
X3260Y177038D01*
X3260Y169248D01*
X4748Y167760D01*
G37*
G36*
X-125638Y167760D02*
X-117848Y167760D01*
X-116360Y169248D01*
X-116360Y177038D01*
X-125638Y177038D01*
X-125638Y167760D01*
G37*
G36*
X14062Y167760D02*
X21852Y167760D01*
X23340Y169248D01*
X23340Y177038D01*
X14062Y177038D01*
X14062Y167760D01*
G37*
G36*
X406762Y167760D02*
X414552Y167760D01*
X416040Y169248D01*
X416040Y177038D01*
X406762Y177038D01*
X406762Y167760D01*
G37*
G36*
X-134952Y167760D02*
X-127162Y167760D01*
X-127162Y177038D01*
X-136440Y177038D01*
X-136440Y169248D01*
X-134952Y167760D01*
G37*
G36*
X-573244Y157330D02*
X-569756Y157330D01*
X-566532Y158665D01*
X-564065Y161132D01*
X-562730Y164356D01*
X-562730Y167844D01*
X-564065Y171068D01*
X-566532Y173535D01*
X-569756Y174870D01*
X-573244Y174870D01*
X-576468Y173535D01*
X-578935Y171068D01*
X-580270Y167844D01*
X-580270Y164356D01*
X-578935Y161132D01*
X-576468Y158665D01*
X-573244Y157330D01*
G37*
G36*
X-587176Y-146620D02*
X-584424Y-146620D01*
X-581880Y-145567D01*
X-579934Y-143620D01*
X-578880Y-141076D01*
X-578880Y-138324D01*
X-579934Y-135780D01*
X-581880Y-133834D01*
X-584424Y-132780D01*
X-587176Y-132780D01*
X-589720Y-133834D01*
X-591299Y-135413D01*
X-591541Y-135576D01*
X-591838Y-135636D01*
X-594901Y-135636D01*
X-595187Y-135580D01*
X-595440Y-135413D01*
X-605313Y-125540D01*
X-605476Y-125298D01*
X-605536Y-125001D01*
X-605536Y125001D01*
X-605480Y125287D01*
X-605313Y125540D01*
X-587820Y143033D01*
X-587578Y143196D01*
X-587281Y143256D01*
X-530447Y143256D01*
X-528066Y145637D01*
X-528066Y149003D01*
X-530447Y151384D01*
X-590963Y151384D01*
X-613664Y128683D01*
X-613664Y-128683D01*
X-598583Y-143764D01*
X-591838Y-143764D01*
X-591552Y-143820D01*
X-591299Y-143987D01*
X-589720Y-145567D01*
X-587176Y-146620D01*
G37*
G36*
X-560568Y59690D02*
X-557032Y59690D01*
X-553764Y61043D01*
X-551263Y63544D01*
X-549910Y66812D01*
X-549910Y85588D01*
X-551263Y88856D01*
X-553764Y91357D01*
X-557032Y92710D01*
X-557149Y92710D01*
X-557424Y92761D01*
X-557679Y92925D01*
X-557851Y93175D01*
X-557911Y93472D01*
X-557911Y96426D01*
X-557855Y96712D01*
X-557688Y96965D01*
X-556850Y97802D01*
X-556603Y97968D01*
X-553764Y99143D01*
X-551263Y101644D01*
X-549910Y104912D01*
X-549910Y123688D01*
X-551263Y126956D01*
X-553764Y129457D01*
X-557032Y130810D01*
X-560568Y130810D01*
X-563836Y129457D01*
X-566337Y126956D01*
X-567690Y123688D01*
X-567690Y104912D01*
X-566337Y101644D01*
X-565959Y101266D01*
X-565801Y101036D01*
X-565736Y100740D01*
X-565791Y100442D01*
X-565959Y100189D01*
X-566039Y100108D01*
X-566039Y89469D01*
X-566095Y89183D01*
X-566262Y88930D01*
X-566337Y88856D01*
X-567690Y85588D01*
X-567690Y66812D01*
X-566337Y63544D01*
X-563836Y61043D01*
X-560568Y59690D01*
G37*
G36*
X-585968Y97790D02*
X-582432Y97790D01*
X-579164Y99143D01*
X-576663Y101644D01*
X-575310Y104912D01*
X-575310Y123688D01*
X-576663Y126956D01*
X-579164Y129457D01*
X-582432Y130810D01*
X-585968Y130810D01*
X-589236Y129457D01*
X-591737Y126956D01*
X-593090Y123688D01*
X-593090Y104912D01*
X-591737Y101644D01*
X-589236Y99143D01*
X-585968Y97790D01*
G37*
G36*
X-535168Y59690D02*
X-531632Y59690D01*
X-528364Y61043D01*
X-525863Y63544D01*
X-524510Y66812D01*
X-524510Y85588D01*
X-525863Y88856D01*
X-528364Y91357D01*
X-531632Y92710D01*
X-531749Y92710D01*
X-532024Y92761D01*
X-532279Y92925D01*
X-532451Y93175D01*
X-532511Y93472D01*
X-532511Y96426D01*
X-532455Y96712D01*
X-532288Y96965D01*
X-531450Y97802D01*
X-531203Y97968D01*
X-528364Y99143D01*
X-525863Y101644D01*
X-524510Y104912D01*
X-524510Y123688D01*
X-525863Y126956D01*
X-528364Y129457D01*
X-531632Y130810D01*
X-535168Y130810D01*
X-538436Y129457D01*
X-540937Y126956D01*
X-542290Y123688D01*
X-542290Y104912D01*
X-540937Y101644D01*
X-540559Y101266D01*
X-540401Y101036D01*
X-540336Y100740D01*
X-540391Y100442D01*
X-540559Y100189D01*
X-540639Y100108D01*
X-540639Y89469D01*
X-540695Y89183D01*
X-540862Y88930D01*
X-540937Y88856D01*
X-542290Y85588D01*
X-542290Y66812D01*
X-540937Y63544D01*
X-538436Y61043D01*
X-535168Y59690D01*
G37*
G36*
X146062Y115062D02*
X155640Y115062D01*
X155640Y116357D01*
X154066Y120157D01*
X151157Y123066D01*
X147357Y124640D01*
X146062Y124640D01*
X146062Y115062D01*
G37*
G36*
X600696Y105230D02*
X604304Y105230D01*
X607638Y106611D01*
X610189Y109162D01*
X611570Y112496D01*
X611570Y116104D01*
X610189Y119438D01*
X607638Y121989D01*
X604304Y123370D01*
X600696Y123370D01*
X597362Y121989D01*
X594811Y119438D01*
X593430Y116104D01*
X593430Y112496D01*
X594811Y109162D01*
X597362Y106611D01*
X600696Y105230D01*
G37*
G36*
X448296Y105230D02*
X451904Y105230D01*
X455238Y106611D01*
X457789Y109162D01*
X459170Y112496D01*
X459170Y116104D01*
X457789Y119438D01*
X455238Y121989D01*
X451904Y123370D01*
X448296Y123370D01*
X444962Y121989D01*
X442411Y119438D01*
X441030Y116104D01*
X441030Y112496D01*
X442411Y109162D01*
X444962Y106611D01*
X448296Y105230D01*
G37*
G36*
X575296Y105230D02*
X578904Y105230D01*
X582238Y106611D01*
X584789Y109162D01*
X586170Y112496D01*
X586170Y116104D01*
X584789Y119438D01*
X582238Y121989D01*
X578904Y123370D01*
X575296Y123370D01*
X571962Y121989D01*
X569411Y119438D01*
X568030Y116104D01*
X568030Y112496D01*
X569411Y109162D01*
X571962Y106611D01*
X575296Y105230D01*
G37*
G36*
X422896Y105230D02*
X426504Y105230D01*
X429838Y106611D01*
X432389Y109162D01*
X433770Y112496D01*
X433770Y116104D01*
X432389Y119438D01*
X429838Y121989D01*
X426504Y123370D01*
X422896Y123370D01*
X419562Y121989D01*
X417011Y119438D01*
X415630Y116104D01*
X415630Y112496D01*
X417011Y109162D01*
X419562Y106611D01*
X422896Y105230D01*
G37*
G36*
X146062Y103960D02*
X147357Y103960D01*
X151157Y105534D01*
X154066Y108443D01*
X155640Y112243D01*
X155640Y113538D01*
X146062Y113538D01*
X146062Y103960D01*
G37*
G36*
X-52265Y78740D02*
X-49335Y78740D01*
X-46627Y79861D01*
X-44555Y81933D01*
X-43434Y84641D01*
X-43434Y99763D01*
X-44555Y102471D01*
X-46627Y104543D01*
X-49335Y105664D01*
X-52265Y105664D01*
X-54973Y104543D01*
X-57045Y102471D01*
X-58166Y99763D01*
X-58166Y84641D01*
X-57045Y81933D01*
X-54973Y79861D01*
X-52265Y78740D01*
G37*
G36*
X-103065Y78740D02*
X-100135Y78740D01*
X-97427Y79861D01*
X-95355Y81933D01*
X-94234Y84641D01*
X-94234Y99763D01*
X-95355Y102471D01*
X-97427Y104543D01*
X-100135Y105664D01*
X-103065Y105664D01*
X-105773Y104543D01*
X-107845Y102471D01*
X-108966Y99763D01*
X-108966Y84641D01*
X-107845Y81933D01*
X-105773Y79861D01*
X-103065Y78740D01*
G37*
G36*
X-77665Y78740D02*
X-74735Y78740D01*
X-72027Y79861D01*
X-69955Y81933D01*
X-68834Y84641D01*
X-68834Y99763D01*
X-69955Y102471D01*
X-72027Y104543D01*
X-74735Y105664D01*
X-77665Y105664D01*
X-80373Y104543D01*
X-82445Y102471D01*
X-83566Y99763D01*
X-83566Y84641D01*
X-82445Y81933D01*
X-80373Y79861D01*
X-77665Y78740D01*
G37*
G36*
X-26865Y78740D02*
X-23935Y78740D01*
X-21227Y79861D01*
X-19155Y81933D01*
X-18034Y84641D01*
X-18034Y99763D01*
X-19155Y102471D01*
X-21227Y104543D01*
X-23935Y105664D01*
X-26865Y105664D01*
X-29573Y104543D01*
X-31645Y102471D01*
X-32766Y99763D01*
X-32766Y84641D01*
X-31645Y81933D01*
X-29573Y79861D01*
X-26865Y78740D01*
G37*
G36*
X-153865Y78740D02*
X-150935Y78740D01*
X-148227Y79861D01*
X-146155Y81933D01*
X-145034Y84641D01*
X-145034Y99763D01*
X-146155Y102471D01*
X-148227Y104543D01*
X-150935Y105664D01*
X-153865Y105664D01*
X-156573Y104543D01*
X-158645Y102471D01*
X-159766Y99763D01*
X-159766Y84641D01*
X-158645Y81933D01*
X-156573Y79861D01*
X-153865Y78740D01*
G37*
G36*
X-179265Y78740D02*
X-176335Y78740D01*
X-173627Y79861D01*
X-171555Y81933D01*
X-170434Y84641D01*
X-170434Y99763D01*
X-171555Y102471D01*
X-173627Y104543D01*
X-176335Y105664D01*
X-179265Y105664D01*
X-181973Y104543D01*
X-184045Y102471D01*
X-185166Y99763D01*
X-185166Y84641D01*
X-184045Y81933D01*
X-181973Y79861D01*
X-179265Y78740D01*
G37*
G36*
X-128465Y78740D02*
X-125535Y78740D01*
X-122827Y79861D01*
X-120755Y81933D01*
X-119634Y84641D01*
X-119634Y99763D01*
X-120755Y102471D01*
X-122827Y104543D01*
X-125535Y105664D01*
X-128465Y105664D01*
X-131173Y104543D01*
X-133245Y102471D01*
X-134366Y99763D01*
X-134366Y84641D01*
X-133245Y81933D01*
X-131173Y79861D01*
X-128465Y78740D01*
G37*
G36*
X-585968Y59690D02*
X-582432Y59690D01*
X-579164Y61043D01*
X-576663Y63544D01*
X-575310Y66812D01*
X-575310Y85588D01*
X-576663Y88856D01*
X-579164Y91357D01*
X-582432Y92710D01*
X-585968Y92710D01*
X-589236Y91357D01*
X-591737Y88856D01*
X-593090Y85588D01*
X-593090Y66812D01*
X-591737Y63544D01*
X-589236Y61043D01*
X-585968Y59690D01*
G37*
G36*
X-560568Y-29210D02*
X-557032Y-29210D01*
X-553764Y-27857D01*
X-551263Y-25356D01*
X-549910Y-22088D01*
X-549910Y-3312D01*
X-551263Y-44D01*
X-553764Y2457D01*
X-557032Y3810D01*
X-557149Y3810D01*
X-557424Y3861D01*
X-557679Y4025D01*
X-557851Y4275D01*
X-557911Y4572D01*
X-557911Y7526D01*
X-557855Y7812D01*
X-557688Y8065D01*
X-556850Y8902D01*
X-556603Y9068D01*
X-553764Y10243D01*
X-551263Y12744D01*
X-549910Y16012D01*
X-549910Y34788D01*
X-551263Y38056D01*
X-553764Y40557D01*
X-557032Y41910D01*
X-560568Y41910D01*
X-563836Y40557D01*
X-566337Y38056D01*
X-567690Y34788D01*
X-567690Y16012D01*
X-566337Y12744D01*
X-565959Y12366D01*
X-565801Y12136D01*
X-565736Y11840D01*
X-565791Y11542D01*
X-565959Y11289D01*
X-566039Y11208D01*
X-566039Y569D01*
X-566095Y283D01*
X-566262Y30D01*
X-566337Y-44D01*
X-567690Y-3312D01*
X-567690Y-22088D01*
X-566337Y-25356D01*
X-563836Y-27857D01*
X-560568Y-29210D01*
G37*
G36*
X-585968Y8890D02*
X-582432Y8890D01*
X-579164Y10243D01*
X-576663Y12744D01*
X-575310Y16012D01*
X-575310Y34788D01*
X-576663Y38056D01*
X-579164Y40557D01*
X-582432Y41910D01*
X-585968Y41910D01*
X-589236Y40557D01*
X-591737Y38056D01*
X-593090Y34788D01*
X-593090Y16012D01*
X-591737Y12744D01*
X-589236Y10243D01*
X-585968Y8890D01*
G37*
G36*
X-535168Y-29210D02*
X-531632Y-29210D01*
X-528364Y-27857D01*
X-525863Y-25356D01*
X-524510Y-22088D01*
X-524510Y-3312D01*
X-525863Y-44D01*
X-528364Y2457D01*
X-531632Y3810D01*
X-531749Y3810D01*
X-532024Y3861D01*
X-532279Y4025D01*
X-532451Y4275D01*
X-532511Y4572D01*
X-532511Y7526D01*
X-532455Y7812D01*
X-532288Y8065D01*
X-531450Y8902D01*
X-531203Y9068D01*
X-528364Y10243D01*
X-525863Y12744D01*
X-524510Y16012D01*
X-524510Y34788D01*
X-525863Y38056D01*
X-528364Y40557D01*
X-531632Y41910D01*
X-535168Y41910D01*
X-538436Y40557D01*
X-540937Y38056D01*
X-542290Y34788D01*
X-542290Y16012D01*
X-540937Y12744D01*
X-540559Y12366D01*
X-540401Y12136D01*
X-540336Y11840D01*
X-540391Y11542D01*
X-540559Y11289D01*
X-540639Y11208D01*
X-540639Y569D01*
X-540695Y283D01*
X-540862Y30D01*
X-540937Y-44D01*
X-542290Y-3312D01*
X-542290Y-22088D01*
X-540937Y-25356D01*
X-538436Y-27857D01*
X-535168Y-29210D01*
G37*
G36*
X475039Y18034D02*
X490161Y18034D01*
X492869Y19155D01*
X494941Y21227D01*
X496062Y23935D01*
X496062Y26865D01*
X494941Y29573D01*
X492869Y31645D01*
X490161Y32766D01*
X475039Y32766D01*
X472331Y31645D01*
X470259Y29573D01*
X469138Y26865D01*
X469138Y23935D01*
X470259Y21227D01*
X472331Y19155D01*
X475039Y18034D01*
G37*
G36*
X-24638Y16764D02*
X-16764Y16764D01*
X-16764Y23816D01*
X-18079Y26990D01*
X-20508Y29419D01*
X-23682Y30734D01*
X-24638Y30734D01*
X-24638Y16764D01*
G37*
G36*
X-34036Y16764D02*
X-26162Y16764D01*
X-26162Y30734D01*
X-27118Y30734D01*
X-30292Y29419D01*
X-32721Y26990D01*
X-34036Y23816D01*
X-34036Y16764D01*
G37*
G36*
X-52265Y2540D02*
X-49335Y2540D01*
X-46627Y3661D01*
X-44555Y5733D01*
X-43434Y8441D01*
X-43434Y23563D01*
X-44555Y26271D01*
X-46627Y28343D01*
X-49335Y29464D01*
X-52265Y29464D01*
X-54973Y28343D01*
X-57045Y26271D01*
X-58166Y23563D01*
X-58166Y8441D01*
X-57045Y5733D01*
X-54973Y3661D01*
X-52265Y2540D01*
G37*
G36*
X-77665Y2540D02*
X-74735Y2540D01*
X-72027Y3661D01*
X-69955Y5733D01*
X-68834Y8441D01*
X-68834Y23563D01*
X-69955Y26271D01*
X-72027Y28343D01*
X-74735Y29464D01*
X-77665Y29464D01*
X-80373Y28343D01*
X-82445Y26271D01*
X-83566Y23563D01*
X-83566Y8441D01*
X-82445Y5733D01*
X-80373Y3661D01*
X-77665Y2540D01*
G37*
G36*
X-27118Y1270D02*
X-26162Y1270D01*
X-26162Y15240D01*
X-34036Y15240D01*
X-34036Y8188D01*
X-32721Y5014D01*
X-30292Y2585D01*
X-27118Y1270D01*
G37*
G36*
X-24638Y1270D02*
X-23682Y1270D01*
X-20508Y2585D01*
X-18079Y5014D01*
X-16764Y8188D01*
X-16764Y15240D01*
X-24638Y15240D01*
X-24638Y1270D01*
G37*
G36*
X-585968Y-29210D02*
X-582432Y-29210D01*
X-579164Y-27857D01*
X-576663Y-25356D01*
X-575310Y-22088D01*
X-575310Y-3312D01*
X-576663Y-44D01*
X-579164Y2457D01*
X-582432Y3810D01*
X-585968Y3810D01*
X-589236Y2457D01*
X-591737Y-44D01*
X-593090Y-3312D01*
X-593090Y-22088D01*
X-591737Y-25356D01*
X-589236Y-27857D01*
X-585968Y-29210D01*
G37*
G36*
X-423958Y-48514D02*
X-420592Y-48514D01*
X-376936Y-4858D01*
X-376936Y-1492D01*
X-379317Y889D01*
X-382683Y889D01*
X-426339Y-42767D01*
X-426339Y-46133D01*
X-423958Y-48514D01*
G37*
G36*
X15360Y-38338D02*
X24638Y-38338D01*
X24638Y-29060D01*
X23403Y-29060D01*
X19713Y-30589D01*
X16889Y-33413D01*
X15360Y-37103D01*
X15360Y-38338D01*
G37*
G36*
X26162Y-38338D02*
X35440Y-38338D01*
X35440Y-37103D01*
X33912Y-33413D01*
X31087Y-30589D01*
X27397Y-29060D01*
X26162Y-29060D01*
X26162Y-38338D01*
G37*
G36*
X23403Y-49140D02*
X24638Y-49140D01*
X24638Y-39862D01*
X15360Y-39862D01*
X15360Y-41097D01*
X16889Y-44787D01*
X19713Y-47612D01*
X23403Y-49140D01*
G37*
G36*
X26162Y-49140D02*
X27397Y-49140D01*
X31087Y-47612D01*
X33912Y-44787D01*
X35440Y-41097D01*
X35440Y-39862D01*
X26162Y-39862D01*
X26162Y-49140D01*
G37*
G36*
X-593990Y-62738D02*
X-586562Y-62738D01*
X-586562Y-55310D01*
X-592502Y-55310D01*
X-593990Y-56798D01*
X-593990Y-62738D01*
G37*
G36*
X-585038Y-62738D02*
X-577610Y-62738D01*
X-577610Y-56798D01*
X-579098Y-55310D01*
X-585038Y-55310D01*
X-585038Y-62738D01*
G37*
G36*
X-585038Y-71690D02*
X-579098Y-71690D01*
X-577610Y-70202D01*
X-577610Y-64262D01*
X-585038Y-64262D01*
X-585038Y-71690D01*
G37*
G36*
X-592502Y-71690D02*
X-586562Y-71690D01*
X-586562Y-64262D01*
X-593990Y-64262D01*
X-593990Y-70202D01*
X-592502Y-71690D01*
G37*
G36*
X-391338Y-88138D02*
X-383910Y-88138D01*
X-383910Y-87271D01*
X-385157Y-84261D01*
X-387461Y-81957D01*
X-390471Y-80710D01*
X-391338Y-80710D01*
X-391338Y-88138D01*
G37*
G36*
X-505638Y-88138D02*
X-498210Y-88138D01*
X-498210Y-87271D01*
X-499457Y-84261D01*
X-501761Y-81957D01*
X-504771Y-80710D01*
X-505638Y-80710D01*
X-505638Y-88138D01*
G37*
G36*
X-400290Y-88138D02*
X-392862Y-88138D01*
X-392862Y-80710D01*
X-393729Y-80710D01*
X-396739Y-81957D01*
X-399043Y-84261D01*
X-400290Y-87271D01*
X-400290Y-88138D01*
G37*
G36*
X-587176Y-95820D02*
X-584424Y-95820D01*
X-581880Y-94767D01*
X-579934Y-92820D01*
X-578880Y-90276D01*
X-578880Y-87524D01*
X-579934Y-84980D01*
X-581880Y-83034D01*
X-584424Y-81980D01*
X-587176Y-81980D01*
X-589720Y-83034D01*
X-591667Y-84980D01*
X-592720Y-87524D01*
X-592720Y-90276D01*
X-591667Y-92820D01*
X-589720Y-94767D01*
X-587176Y-95820D01*
G37*
G36*
X-505638Y-97090D02*
X-504771Y-97090D01*
X-501761Y-95843D01*
X-499457Y-93539D01*
X-498210Y-90529D01*
X-498210Y-89662D01*
X-505638Y-89662D01*
X-505638Y-97090D01*
G37*
G36*
X-508029Y-97090D02*
X-507162Y-97090D01*
X-507162Y-89662D01*
X-514590Y-89662D01*
X-514590Y-90529D01*
X-513343Y-93539D01*
X-511039Y-95843D01*
X-508029Y-97090D01*
G37*
G36*
X-391338Y-97090D02*
X-390471Y-97090D01*
X-387461Y-95843D01*
X-385157Y-93539D01*
X-383910Y-90529D01*
X-383910Y-89662D01*
X-391338Y-89662D01*
X-391338Y-97090D01*
G37*
G36*
X-393729Y-97090D02*
X-392862Y-97090D01*
X-392862Y-89662D01*
X-400290Y-89662D01*
X-400290Y-90529D01*
X-399043Y-93539D01*
X-396739Y-95843D01*
X-393729Y-97090D01*
G37*
G36*
X-585038Y-113538D02*
X-577610Y-113538D01*
X-577610Y-112671D01*
X-578857Y-109661D01*
X-581161Y-107357D01*
X-584171Y-106110D01*
X-585038Y-106110D01*
X-585038Y-113538D01*
G37*
G36*
X-593990Y-113538D02*
X-586562Y-113538D01*
X-586562Y-106110D01*
X-587429Y-106110D01*
X-590439Y-107357D01*
X-592743Y-109661D01*
X-593990Y-112671D01*
X-593990Y-113538D01*
G37*
G36*
X-393476Y-121220D02*
X-390724Y-121220D01*
X-388180Y-120167D01*
X-386234Y-118220D01*
X-385180Y-115676D01*
X-385180Y-112924D01*
X-386234Y-110380D01*
X-388180Y-108434D01*
X-390724Y-107380D01*
X-393476Y-107380D01*
X-396020Y-108434D01*
X-397967Y-110380D01*
X-399020Y-112924D01*
X-399020Y-115676D01*
X-397967Y-118220D01*
X-396020Y-120167D01*
X-393476Y-121220D01*
G37*
G36*
X-507776Y-121220D02*
X-505024Y-121220D01*
X-502480Y-120167D01*
X-500534Y-118220D01*
X-499480Y-115676D01*
X-499480Y-112924D01*
X-500534Y-110380D01*
X-502480Y-108434D01*
X-505024Y-107380D01*
X-507776Y-107380D01*
X-510320Y-108434D01*
X-512267Y-110380D01*
X-513320Y-112924D01*
X-513320Y-115676D01*
X-512267Y-118220D01*
X-510320Y-120167D01*
X-507776Y-121220D01*
G37*
G36*
X-585038Y-122490D02*
X-584171Y-122490D01*
X-581161Y-121243D01*
X-578857Y-118939D01*
X-577610Y-115929D01*
X-577610Y-115062D01*
X-585038Y-115062D01*
X-585038Y-122490D01*
G37*
G36*
X-587429Y-122490D02*
X-586562Y-122490D01*
X-586562Y-115062D01*
X-593990Y-115062D01*
X-593990Y-115929D01*
X-592743Y-118939D01*
X-590439Y-121243D01*
X-587429Y-122490D01*
G37*
G36*
X476262Y-138938D02*
X485840Y-138938D01*
X485840Y-137643D01*
X484266Y-133843D01*
X481357Y-130934D01*
X477557Y-129360D01*
X476262Y-129360D01*
X476262Y-138938D01*
G37*
G36*
X465160Y-138938D02*
X474738Y-138938D01*
X474738Y-129360D01*
X473443Y-129360D01*
X469643Y-130934D01*
X466734Y-133843D01*
X465160Y-137643D01*
X465160Y-138938D01*
G37*
G36*
X52292Y-248539D02*
X141383Y-248539D01*
X143764Y-246158D01*
X143764Y-234206D01*
X143811Y-233943D01*
X143970Y-233685D01*
X144218Y-233509D01*
X144514Y-233444D01*
X144812Y-233500D01*
X145065Y-233667D01*
X147432Y-236035D01*
X150656Y-237370D01*
X154144Y-237370D01*
X157368Y-236035D01*
X159835Y-233568D01*
X161170Y-230344D01*
X161170Y-226856D01*
X160990Y-226422D01*
X160933Y-226143D01*
X160988Y-225845D01*
X161156Y-225592D01*
X217360Y-169387D01*
X217602Y-169224D01*
X217899Y-169164D01*
X293783Y-169164D01*
X296164Y-166783D01*
X296164Y-149532D01*
X296215Y-149257D01*
X296379Y-149002D01*
X296629Y-148830D01*
X296926Y-148770D01*
X299504Y-148770D01*
X302838Y-147389D01*
X305389Y-144838D01*
X306770Y-141504D01*
X306770Y-137896D01*
X305389Y-134562D01*
X302838Y-132011D01*
X299504Y-130630D01*
X295896Y-130630D01*
X292562Y-132011D01*
X290011Y-134562D01*
X288630Y-137896D01*
X288630Y-141504D01*
X289100Y-142638D01*
X289158Y-142917D01*
X289102Y-143215D01*
X288934Y-143468D01*
X288036Y-144367D01*
X288036Y-160274D01*
X287985Y-160549D01*
X287821Y-160804D01*
X287571Y-160976D01*
X287274Y-161036D01*
X243426Y-161036D01*
X243163Y-160989D01*
X242905Y-160830D01*
X242729Y-160582D01*
X242664Y-160286D01*
X242720Y-159988D01*
X242887Y-159735D01*
X245364Y-157258D01*
X245364Y-149532D01*
X245415Y-149257D01*
X245579Y-149002D01*
X245829Y-148830D01*
X246126Y-148770D01*
X248704Y-148770D01*
X252038Y-147389D01*
X254589Y-144838D01*
X255970Y-141504D01*
X255970Y-137896D01*
X254589Y-134562D01*
X252038Y-132011D01*
X248704Y-130630D01*
X245096Y-130630D01*
X241762Y-132011D01*
X239211Y-134562D01*
X237830Y-137896D01*
X237830Y-141504D01*
X238300Y-142638D01*
X238358Y-142917D01*
X238302Y-143215D01*
X238134Y-143468D01*
X237236Y-144367D01*
X237236Y-150749D01*
X237185Y-151024D01*
X237021Y-151279D01*
X236771Y-151451D01*
X236474Y-151511D01*
X204692Y-151511D01*
X136438Y-219764D01*
X136208Y-219922D01*
X135912Y-219988D01*
X135613Y-219932D01*
X135459Y-219830D01*
X135001Y-219830D01*
X134726Y-219779D01*
X134471Y-219615D01*
X134299Y-219365D01*
X134239Y-219068D01*
X134239Y-163924D01*
X134295Y-163638D01*
X134462Y-163385D01*
X146939Y-150908D01*
X146939Y-149532D01*
X146990Y-149257D01*
X147154Y-149002D01*
X147404Y-148830D01*
X147701Y-148770D01*
X153626Y-148770D01*
X154370Y-148026D01*
X154370Y-131374D01*
X153626Y-130630D01*
X136974Y-130630D01*
X136230Y-131374D01*
X136230Y-148026D01*
X136739Y-148536D01*
X136897Y-148766D01*
X136963Y-149062D01*
X136907Y-149360D01*
X136739Y-149613D01*
X126111Y-160242D01*
X126111Y-207899D01*
X126060Y-208174D01*
X125896Y-208429D01*
X125646Y-208601D01*
X125349Y-208661D01*
X14192Y-208661D01*
X11811Y-211042D01*
X11811Y-219068D01*
X11760Y-219343D01*
X11596Y-219598D01*
X11346Y-219770D01*
X11049Y-219830D01*
X5074Y-219830D01*
X4330Y-220574D01*
X4330Y-236626D01*
X5074Y-237370D01*
X21126Y-237370D01*
X21870Y-236626D01*
X21870Y-220574D01*
X21126Y-219830D01*
X20701Y-219830D01*
X20426Y-219779D01*
X20171Y-219615D01*
X19999Y-219365D01*
X19939Y-219068D01*
X19939Y-217551D01*
X19990Y-217276D01*
X20154Y-217021D01*
X20404Y-216849D01*
X20701Y-216789D01*
X125349Y-216789D01*
X125624Y-216840D01*
X125879Y-217004D01*
X126051Y-217254D01*
X126111Y-217551D01*
X126111Y-219068D01*
X126060Y-219343D01*
X125896Y-219598D01*
X125646Y-219770D01*
X125349Y-219830D01*
X119374Y-219830D01*
X118630Y-220574D01*
X118630Y-236626D01*
X119374Y-237370D01*
X134874Y-237370D01*
X135149Y-237421D01*
X135404Y-237585D01*
X135576Y-237835D01*
X135636Y-238132D01*
X135636Y-239649D01*
X135585Y-239924D01*
X135421Y-240179D01*
X135171Y-240351D01*
X134874Y-240411D01*
X55974Y-240411D01*
X55688Y-240355D01*
X55435Y-240188D01*
X46856Y-231608D01*
X46695Y-231372D01*
X46633Y-231076D01*
X46690Y-230778D01*
X46870Y-230344D01*
X46870Y-226856D01*
X45535Y-223632D01*
X43068Y-221165D01*
X39844Y-219830D01*
X36356Y-219830D01*
X33132Y-221165D01*
X30665Y-223632D01*
X29330Y-226856D01*
X29330Y-230344D01*
X30665Y-233568D01*
X33132Y-236035D01*
X36356Y-237370D01*
X39844Y-237370D01*
X40278Y-237190D01*
X40557Y-237133D01*
X40855Y-237188D01*
X41108Y-237356D01*
X52292Y-248539D01*
G37*
G36*
X397496Y-148770D02*
X401104Y-148770D01*
X404438Y-147389D01*
X406989Y-144838D01*
X408370Y-141504D01*
X408370Y-137896D01*
X406989Y-134562D01*
X404438Y-132011D01*
X401104Y-130630D01*
X397496Y-130630D01*
X394162Y-132011D01*
X391611Y-134562D01*
X390230Y-137896D01*
X390230Y-141504D01*
X391611Y-144838D01*
X394162Y-147389D01*
X397496Y-148770D01*
G37*
G36*
X422896Y-148770D02*
X426504Y-148770D01*
X429838Y-147389D01*
X432389Y-144838D01*
X433770Y-141504D01*
X433770Y-137896D01*
X432389Y-134562D01*
X429838Y-132011D01*
X426504Y-130630D01*
X422896Y-130630D01*
X419562Y-132011D01*
X417011Y-134562D01*
X415630Y-137896D01*
X415630Y-141504D01*
X417011Y-144838D01*
X419562Y-147389D01*
X422896Y-148770D01*
G37*
G36*
X600696Y-148770D02*
X604304Y-148770D01*
X607638Y-147389D01*
X610189Y-144838D01*
X611570Y-141504D01*
X611570Y-137896D01*
X610189Y-134562D01*
X607638Y-132011D01*
X604304Y-130630D01*
X600696Y-130630D01*
X597362Y-132011D01*
X594811Y-134562D01*
X593430Y-137896D01*
X593430Y-141504D01*
X594811Y-144838D01*
X597362Y-147389D01*
X600696Y-148770D01*
G37*
G36*
X575296Y-148770D02*
X578904Y-148770D01*
X582238Y-147389D01*
X584789Y-144838D01*
X586170Y-141504D01*
X586170Y-137896D01*
X584789Y-134562D01*
X582238Y-132011D01*
X578904Y-130630D01*
X575296Y-130630D01*
X571962Y-132011D01*
X569411Y-134562D01*
X568030Y-137896D01*
X568030Y-141504D01*
X569411Y-144838D01*
X571962Y-147389D01*
X575296Y-148770D01*
G37*
G36*
X194296Y-148770D02*
X197904Y-148770D01*
X201238Y-147389D01*
X203789Y-144838D01*
X205170Y-141504D01*
X205170Y-137896D01*
X203789Y-134562D01*
X201238Y-132011D01*
X197904Y-130630D01*
X194296Y-130630D01*
X190962Y-132011D01*
X188411Y-134562D01*
X187030Y-137896D01*
X187030Y-141504D01*
X188411Y-144838D01*
X190962Y-147389D01*
X194296Y-148770D01*
G37*
G36*
X168896Y-148770D02*
X172504Y-148770D01*
X175838Y-147389D01*
X178389Y-144838D01*
X179770Y-141504D01*
X179770Y-137896D01*
X178389Y-134562D01*
X175838Y-132011D01*
X172504Y-130630D01*
X168896Y-130630D01*
X165562Y-132011D01*
X163011Y-134562D01*
X161630Y-137896D01*
X161630Y-141504D01*
X163011Y-144838D01*
X165562Y-147389D01*
X168896Y-148770D01*
G37*
G36*
X219696Y-148770D02*
X223304Y-148770D01*
X226638Y-147389D01*
X229189Y-144838D01*
X230570Y-141504D01*
X230570Y-137896D01*
X229189Y-134562D01*
X226638Y-132011D01*
X223304Y-130630D01*
X219696Y-130630D01*
X216362Y-132011D01*
X213811Y-134562D01*
X212430Y-137896D01*
X212430Y-141504D01*
X213811Y-144838D01*
X216362Y-147389D01*
X219696Y-148770D01*
G37*
G36*
X264956Y-237370D02*
X268444Y-237370D01*
X271668Y-236035D01*
X274135Y-233568D01*
X275470Y-230344D01*
X275470Y-226856D01*
X275290Y-226422D01*
X275233Y-226143D01*
X275288Y-225845D01*
X275456Y-225592D01*
X321564Y-179483D01*
X321564Y-149532D01*
X321615Y-149257D01*
X321779Y-149002D01*
X322029Y-148830D01*
X322326Y-148770D01*
X324904Y-148770D01*
X328238Y-147389D01*
X330789Y-144838D01*
X332170Y-141504D01*
X332170Y-137896D01*
X330789Y-134562D01*
X328238Y-132011D01*
X324904Y-130630D01*
X321296Y-130630D01*
X317962Y-132011D01*
X315411Y-134562D01*
X314030Y-137896D01*
X314030Y-141504D01*
X314500Y-142638D01*
X314558Y-142917D01*
X314502Y-143215D01*
X314334Y-143468D01*
X313436Y-144367D01*
X313436Y-175801D01*
X313380Y-176087D01*
X313213Y-176340D01*
X269708Y-219844D01*
X269472Y-220005D01*
X269176Y-220068D01*
X268878Y-220010D01*
X268444Y-219830D01*
X264956Y-219830D01*
X261732Y-221165D01*
X259265Y-223632D01*
X257930Y-226856D01*
X257930Y-230344D01*
X259265Y-233568D01*
X261732Y-236035D01*
X264956Y-237370D01*
G37*
G36*
X379256Y-237370D02*
X382744Y-237370D01*
X385968Y-236035D01*
X388435Y-233568D01*
X389770Y-230344D01*
X389770Y-226856D01*
X388435Y-223632D01*
X385968Y-221165D01*
X382744Y-219830D01*
X379256Y-219830D01*
X378822Y-220010D01*
X378543Y-220067D01*
X378245Y-220012D01*
X377992Y-219844D01*
X347187Y-189040D01*
X347024Y-188798D01*
X346964Y-188501D01*
X346964Y-149532D01*
X347015Y-149257D01*
X347179Y-149002D01*
X347429Y-148830D01*
X347726Y-148770D01*
X350304Y-148770D01*
X353638Y-147389D01*
X356189Y-144838D01*
X357570Y-141504D01*
X357570Y-137896D01*
X356189Y-134562D01*
X353638Y-132011D01*
X350304Y-130630D01*
X346696Y-130630D01*
X343362Y-132011D01*
X340811Y-134562D01*
X339430Y-137896D01*
X339430Y-141504D01*
X339900Y-142638D01*
X339958Y-142917D01*
X339902Y-143215D01*
X339734Y-143468D01*
X338836Y-144367D01*
X338836Y-192183D01*
X372244Y-225592D01*
X372405Y-225828D01*
X372468Y-226124D01*
X372410Y-226422D01*
X372230Y-226856D01*
X372230Y-230344D01*
X373565Y-233568D01*
X376032Y-236035D01*
X379256Y-237370D01*
G37*
G36*
X372096Y-148770D02*
X375704Y-148770D01*
X379038Y-147389D01*
X381589Y-144838D01*
X382970Y-141504D01*
X382970Y-137896D01*
X381589Y-134562D01*
X379038Y-132011D01*
X375704Y-130630D01*
X372096Y-130630D01*
X368762Y-132011D01*
X366211Y-134562D01*
X364830Y-137896D01*
X364830Y-141504D01*
X366211Y-144838D01*
X368762Y-147389D01*
X372096Y-148770D01*
G37*
G36*
X407892Y-181864D02*
X411258Y-181864D01*
X445147Y-147975D01*
X445383Y-147815D01*
X445680Y-147752D01*
X445978Y-147810D01*
X448296Y-148770D01*
X451904Y-148770D01*
X455238Y-147389D01*
X457789Y-144838D01*
X459170Y-141504D01*
X459170Y-137896D01*
X457789Y-134562D01*
X455238Y-132011D01*
X451904Y-130630D01*
X448296Y-130630D01*
X444962Y-132011D01*
X442411Y-134562D01*
X441030Y-137896D01*
X441030Y-140282D01*
X440974Y-140568D01*
X440807Y-140821D01*
X405511Y-176117D01*
X405511Y-179483D01*
X407892Y-181864D01*
G37*
G36*
X-505638Y-138938D02*
X-498210Y-138938D01*
X-498210Y-138071D01*
X-499457Y-135061D01*
X-501761Y-132757D01*
X-504771Y-131510D01*
X-505638Y-131510D01*
X-505638Y-138938D01*
G37*
G36*
X-400290Y-138938D02*
X-392862Y-138938D01*
X-392862Y-131510D01*
X-393729Y-131510D01*
X-396739Y-132757D01*
X-399043Y-135061D01*
X-400290Y-138071D01*
X-400290Y-138938D01*
G37*
G36*
X-514590Y-138938D02*
X-507162Y-138938D01*
X-507162Y-131510D01*
X-508029Y-131510D01*
X-511039Y-132757D01*
X-513343Y-135061D01*
X-514590Y-138071D01*
X-514590Y-138938D01*
G37*
G36*
X-391338Y-138938D02*
X-383910Y-138938D01*
X-383910Y-138071D01*
X-385157Y-135061D01*
X-387461Y-132757D01*
X-390471Y-131510D01*
X-391338Y-131510D01*
X-391338Y-138938D01*
G37*
G36*
X-391338Y-147890D02*
X-390471Y-147890D01*
X-387461Y-146643D01*
X-385157Y-144339D01*
X-383910Y-141329D01*
X-383910Y-140462D01*
X-391338Y-140462D01*
X-391338Y-147890D01*
G37*
G36*
X-393729Y-147890D02*
X-392862Y-147890D01*
X-392862Y-140462D01*
X-400290Y-140462D01*
X-400290Y-141329D01*
X-399043Y-144339D01*
X-396739Y-146643D01*
X-393729Y-147890D01*
G37*
G36*
X-505638Y-147890D02*
X-504771Y-147890D01*
X-501761Y-146643D01*
X-499457Y-144339D01*
X-498210Y-141329D01*
X-498210Y-140462D01*
X-505638Y-140462D01*
X-505638Y-147890D01*
G37*
G36*
X-508029Y-147890D02*
X-507162Y-147890D01*
X-507162Y-140462D01*
X-514590Y-140462D01*
X-514590Y-141329D01*
X-513343Y-144339D01*
X-511039Y-146643D01*
X-508029Y-147890D01*
G37*
G36*
X476262Y-150040D02*
X477557Y-150040D01*
X481357Y-148466D01*
X484266Y-145557D01*
X485840Y-141757D01*
X485840Y-140462D01*
X476262Y-140462D01*
X476262Y-150040D01*
G37*
G36*
X473443Y-150040D02*
X474738Y-150040D01*
X474738Y-140462D01*
X465160Y-140462D01*
X465160Y-141757D01*
X466734Y-145557D01*
X469643Y-148466D01*
X473443Y-150040D01*
G37*
G36*
X-593990Y-202438D02*
X-586562Y-202438D01*
X-586562Y-195010D01*
X-592502Y-195010D01*
X-593990Y-196498D01*
X-593990Y-202438D01*
G37*
G36*
X-585038Y-202438D02*
X-577610Y-202438D01*
X-577610Y-196498D01*
X-579098Y-195010D01*
X-585038Y-195010D01*
X-585038Y-202438D01*
G37*
G36*
X-592502Y-211390D02*
X-586562Y-211390D01*
X-586562Y-203962D01*
X-593990Y-203962D01*
X-593990Y-209902D01*
X-592502Y-211390D01*
G37*
G36*
X-585038Y-211390D02*
X-579098Y-211390D01*
X-577610Y-209902D01*
X-577610Y-203962D01*
X-585038Y-203962D01*
X-585038Y-211390D01*
G37*
G36*
X395960Y-227838D02*
X405238Y-227838D01*
X405238Y-218560D01*
X404003Y-218560D01*
X400313Y-220089D01*
X397489Y-222913D01*
X395960Y-226603D01*
X395960Y-227838D01*
G37*
G36*
X281660Y-227838D02*
X290938Y-227838D01*
X290938Y-218560D01*
X289703Y-218560D01*
X286013Y-220089D01*
X283189Y-222913D01*
X281660Y-226603D01*
X281660Y-227838D01*
G37*
G36*
X167360Y-227838D02*
X176638Y-227838D01*
X176638Y-218560D01*
X175403Y-218560D01*
X171713Y-220089D01*
X168889Y-222913D01*
X167360Y-226603D01*
X167360Y-227838D01*
G37*
G36*
X53060Y-227838D02*
X62338Y-227838D01*
X62338Y-218560D01*
X61103Y-218560D01*
X57413Y-220089D01*
X54589Y-222913D01*
X53060Y-226603D01*
X53060Y-227838D01*
G37*
G36*
X63862Y-227838D02*
X73140Y-227838D01*
X73140Y-226603D01*
X71612Y-222913D01*
X68787Y-220089D01*
X65097Y-218560D01*
X63862Y-218560D01*
X63862Y-227838D01*
G37*
G36*
X178162Y-227838D02*
X187440Y-227838D01*
X187440Y-226603D01*
X185912Y-222913D01*
X183087Y-220089D01*
X179397Y-218560D01*
X178162Y-218560D01*
X178162Y-227838D01*
G37*
G36*
X406762Y-227838D02*
X416040Y-227838D01*
X416040Y-226603D01*
X414512Y-222913D01*
X411687Y-220089D01*
X407997Y-218560D01*
X406762Y-218560D01*
X406762Y-227838D01*
G37*
G36*
X521062Y-227838D02*
X530340Y-227838D01*
X530340Y-226603D01*
X528812Y-222913D01*
X525987Y-220089D01*
X522297Y-218560D01*
X521062Y-218560D01*
X521062Y-227838D01*
G37*
G36*
X292462Y-227838D02*
X301740Y-227838D01*
X301740Y-226603D01*
X300212Y-222913D01*
X297387Y-220089D01*
X293697Y-218560D01*
X292462Y-218560D01*
X292462Y-227838D01*
G37*
G36*
X-50438Y-227838D02*
X-41160Y-227838D01*
X-41160Y-226603D01*
X-42689Y-222913D01*
X-45513Y-220089D01*
X-49203Y-218560D01*
X-50438Y-218560D01*
X-50438Y-227838D01*
G37*
G36*
X-61240Y-227838D02*
X-51962Y-227838D01*
X-51962Y-218560D01*
X-53197Y-218560D01*
X-56887Y-220089D01*
X-59712Y-222913D01*
X-61240Y-226603D01*
X-61240Y-227838D01*
G37*
G36*
X510260Y-227838D02*
X519538Y-227838D01*
X519538Y-218560D01*
X518303Y-218560D01*
X514613Y-220089D01*
X511789Y-222913D01*
X510260Y-226603D01*
X510260Y-227838D01*
G37*
G36*
X233674Y-237370D02*
X249726Y-237370D01*
X250470Y-236626D01*
X250470Y-220574D01*
X249726Y-219830D01*
X233674Y-219830D01*
X232930Y-220574D01*
X232930Y-236626D01*
X233674Y-237370D01*
G37*
G36*
X493556Y-237370D02*
X497044Y-237370D01*
X500268Y-236035D01*
X502735Y-233568D01*
X504070Y-230344D01*
X504070Y-226856D01*
X502735Y-223632D01*
X500268Y-221165D01*
X497044Y-219830D01*
X493556Y-219830D01*
X490332Y-221165D01*
X487865Y-223632D01*
X486530Y-226856D01*
X486530Y-230344D01*
X487865Y-233568D01*
X490332Y-236035D01*
X493556Y-237370D01*
G37*
G36*
X347974Y-237370D02*
X364026Y-237370D01*
X364770Y-236626D01*
X364770Y-220574D01*
X364026Y-219830D01*
X347974Y-219830D01*
X347230Y-220574D01*
X347230Y-236626D01*
X347974Y-237370D01*
G37*
G36*
X-514590Y-227838D02*
X-507162Y-227838D01*
X-507162Y-220410D01*
X-508029Y-220410D01*
X-511039Y-221657D01*
X-513343Y-223961D01*
X-514590Y-226971D01*
X-514590Y-227838D01*
G37*
G36*
X-505638Y-227838D02*
X-498210Y-227838D01*
X-498210Y-226971D01*
X-499457Y-223961D01*
X-501761Y-221657D01*
X-504771Y-220410D01*
X-505638Y-220410D01*
X-505638Y-227838D01*
G37*
G36*
X-587176Y-235520D02*
X-584424Y-235520D01*
X-581880Y-234467D01*
X-579934Y-232520D01*
X-578880Y-229976D01*
X-578880Y-227224D01*
X-579934Y-224680D01*
X-581880Y-222734D01*
X-584424Y-221680D01*
X-587176Y-221680D01*
X-589720Y-222734D01*
X-591667Y-224680D01*
X-592720Y-227224D01*
X-592720Y-229976D01*
X-591667Y-232520D01*
X-589720Y-234467D01*
X-587176Y-235520D01*
G37*
G36*
X-505638Y-236790D02*
X-504771Y-236790D01*
X-501761Y-235543D01*
X-499457Y-233239D01*
X-498210Y-230229D01*
X-498210Y-229362D01*
X-505638Y-229362D01*
X-505638Y-236790D01*
G37*
G36*
X-53197Y-238640D02*
X-51962Y-238640D01*
X-51962Y-229362D01*
X-61240Y-229362D01*
X-61240Y-230597D01*
X-59712Y-234287D01*
X-56887Y-237112D01*
X-53197Y-238640D01*
G37*
G36*
X63862Y-238640D02*
X65097Y-238640D01*
X68787Y-237112D01*
X71612Y-234287D01*
X73140Y-230597D01*
X73140Y-229362D01*
X63862Y-229362D01*
X63862Y-238640D01*
G37*
G36*
X-50438Y-238640D02*
X-49203Y-238640D01*
X-45513Y-237112D01*
X-42689Y-234287D01*
X-41160Y-230597D01*
X-41160Y-229362D01*
X-50438Y-229362D01*
X-50438Y-238640D01*
G37*
G36*
X61103Y-238640D02*
X62338Y-238640D01*
X62338Y-229362D01*
X53060Y-229362D01*
X53060Y-230597D01*
X54589Y-234287D01*
X57413Y-237112D01*
X61103Y-238640D01*
G37*
G36*
X521062Y-238640D02*
X522297Y-238640D01*
X525987Y-237112D01*
X528812Y-234287D01*
X530340Y-230597D01*
X530340Y-229362D01*
X521062Y-229362D01*
X521062Y-238640D01*
G37*
G36*
X518303Y-238640D02*
X519538Y-238640D01*
X519538Y-229362D01*
X510260Y-229362D01*
X510260Y-230597D01*
X511789Y-234287D01*
X514613Y-237112D01*
X518303Y-238640D01*
G37*
G36*
X406762Y-238640D02*
X407997Y-238640D01*
X411687Y-237112D01*
X414512Y-234287D01*
X416040Y-230597D01*
X416040Y-229362D01*
X406762Y-229362D01*
X406762Y-238640D01*
G37*
G36*
X404003Y-238640D02*
X405238Y-238640D01*
X405238Y-229362D01*
X395960Y-229362D01*
X395960Y-230597D01*
X397489Y-234287D01*
X400313Y-237112D01*
X404003Y-238640D01*
G37*
G36*
X292462Y-238640D02*
X293697Y-238640D01*
X297387Y-237112D01*
X300212Y-234287D01*
X301740Y-230597D01*
X301740Y-229362D01*
X292462Y-229362D01*
X292462Y-238640D01*
G37*
G36*
X289703Y-238640D02*
X290938Y-238640D01*
X290938Y-229362D01*
X281660Y-229362D01*
X281660Y-230597D01*
X283189Y-234287D01*
X286013Y-237112D01*
X289703Y-238640D01*
G37*
G36*
X178162Y-238640D02*
X179397Y-238640D01*
X183087Y-237112D01*
X185912Y-234287D01*
X187440Y-230597D01*
X187440Y-229362D01*
X178162Y-229362D01*
X178162Y-238640D01*
G37*
G36*
X175403Y-238640D02*
X176638Y-238640D01*
X176638Y-229362D01*
X167360Y-229362D01*
X167360Y-230597D01*
X168889Y-234287D01*
X171713Y-237112D01*
X175403Y-238640D01*
G37*
G36*
X-508029Y-236790D02*
X-507162Y-236790D01*
X-507162Y-229362D01*
X-514590Y-229362D01*
X-514590Y-230229D01*
X-513343Y-233239D01*
X-511039Y-235543D01*
X-508029Y-236790D01*
G37*
G36*
X-340840Y-253238D02*
X-331562Y-253238D01*
X-331562Y-243960D01*
X-332797Y-243960D01*
X-336487Y-245489D01*
X-339312Y-248313D01*
X-340840Y-252003D01*
X-340840Y-253238D01*
G37*
G36*
X-355038Y-253238D02*
X-345760Y-253238D01*
X-345760Y-252003D01*
X-347289Y-248313D01*
X-350113Y-245489D01*
X-353803Y-243960D01*
X-355038Y-243960D01*
X-355038Y-253238D01*
G37*
G36*
X-330038Y-253238D02*
X-320760Y-253238D01*
X-320760Y-252003D01*
X-322289Y-248313D01*
X-325113Y-245489D01*
X-328803Y-243960D01*
X-330038Y-243960D01*
X-330038Y-253238D01*
G37*
G36*
X-432544Y-262770D02*
X-429056Y-262770D01*
X-425832Y-261435D01*
X-423365Y-258968D01*
X-422030Y-255744D01*
X-422030Y-252256D01*
X-423365Y-249032D01*
X-425832Y-246565D01*
X-429056Y-245230D01*
X-432544Y-245230D01*
X-435768Y-246565D01*
X-438235Y-249032D01*
X-439570Y-252256D01*
X-439570Y-255744D01*
X-438235Y-258968D01*
X-435768Y-261435D01*
X-432544Y-262770D01*
G37*
G36*
X-593990Y-253238D02*
X-586562Y-253238D01*
X-586562Y-245810D01*
X-587429Y-245810D01*
X-590439Y-247057D01*
X-592743Y-249361D01*
X-593990Y-252371D01*
X-593990Y-253238D01*
G37*
G36*
X-585038Y-253238D02*
X-577610Y-253238D01*
X-577610Y-252371D01*
X-578857Y-249361D01*
X-581161Y-247057D01*
X-584171Y-245810D01*
X-585038Y-245810D01*
X-585038Y-253238D01*
G37*
G36*
X-330038Y-264040D02*
X-328803Y-264040D01*
X-325113Y-262512D01*
X-322289Y-259687D01*
X-320760Y-255997D01*
X-320760Y-254762D01*
X-330038Y-254762D01*
X-330038Y-264040D01*
G37*
G36*
X-332797Y-264040D02*
X-331562Y-264040D01*
X-331562Y-254762D01*
X-340840Y-254762D01*
X-340840Y-255997D01*
X-339312Y-259687D01*
X-336487Y-262512D01*
X-332797Y-264040D01*
G37*
G36*
X-355038Y-264040D02*
X-353803Y-264040D01*
X-350113Y-262512D01*
X-347289Y-259687D01*
X-345760Y-255997D01*
X-345760Y-254762D01*
X-355038Y-254762D01*
X-355038Y-264040D01*
G37*
G36*
X-585038Y-262190D02*
X-584171Y-262190D01*
X-581161Y-260943D01*
X-578857Y-258639D01*
X-577610Y-255629D01*
X-577610Y-254762D01*
X-585038Y-254762D01*
X-585038Y-262190D01*
G37*
G36*
X-587429Y-262190D02*
X-586562Y-262190D01*
X-586562Y-254762D01*
X-593990Y-254762D01*
X-593990Y-255629D01*
X-592743Y-258639D01*
X-590439Y-260943D01*
X-587429Y-262190D01*
G37*
G36*
X-587176Y-286320D02*
X-584424Y-286320D01*
X-581880Y-285267D01*
X-579934Y-283320D01*
X-578880Y-280776D01*
X-578880Y-278024D01*
X-579934Y-275480D01*
X-581880Y-273534D01*
X-584424Y-272480D01*
X-587176Y-272480D01*
X-589720Y-273534D01*
X-591667Y-275480D01*
X-592720Y-278024D01*
X-592720Y-280776D01*
X-591667Y-283320D01*
X-589720Y-285267D01*
X-587176Y-286320D01*
G37*
G36*
X-507776Y-286320D02*
X-505024Y-286320D01*
X-502480Y-285267D01*
X-500534Y-283320D01*
X-499480Y-280776D01*
X-499480Y-278024D01*
X-500534Y-275480D01*
X-502480Y-273534D01*
X-505024Y-272480D01*
X-507776Y-272480D01*
X-510320Y-273534D01*
X-512267Y-275480D01*
X-513320Y-278024D01*
X-513320Y-280776D01*
X-512267Y-283320D01*
X-510320Y-285267D01*
X-507776Y-286320D01*
G37*
G36*
X-250880Y-319278D02*
X-244602Y-319278D01*
X-244602Y-313000D01*
X-245240Y-313000D01*
X-247828Y-314072D01*
X-249808Y-316052D01*
X-250880Y-318640D01*
X-250880Y-319278D01*
G37*
G36*
X231720Y-319278D02*
X237998Y-319278D01*
X237998Y-313000D01*
X237360Y-313000D01*
X234772Y-314072D01*
X232792Y-316052D01*
X231720Y-318640D01*
X231720Y-319278D01*
G37*
G36*
X-47680Y-319278D02*
X-41402Y-319278D01*
X-41402Y-313000D01*
X-42040Y-313000D01*
X-44628Y-314072D01*
X-46608Y-316052D01*
X-47680Y-318640D01*
X-47680Y-319278D01*
G37*
G36*
X-39878Y-319278D02*
X-33600Y-319278D01*
X-33600Y-318640D01*
X-34672Y-316052D01*
X-36652Y-314072D01*
X-39240Y-313000D01*
X-39878Y-313000D01*
X-39878Y-319278D01*
G37*
G36*
X239522Y-319278D02*
X245800Y-319278D01*
X245800Y-318640D01*
X244728Y-316052D01*
X242748Y-314072D01*
X240160Y-313000D01*
X239522Y-313000D01*
X239522Y-319278D01*
G37*
G36*
X-243078Y-319278D02*
X-236800Y-319278D01*
X-236800Y-318640D01*
X-237872Y-316052D01*
X-239852Y-314072D01*
X-242440Y-313000D01*
X-243078Y-313000D01*
X-243078Y-319278D01*
G37*
G36*
X364612Y-325810D02*
X366908Y-325810D01*
X369028Y-324932D01*
X370652Y-323308D01*
X371530Y-321188D01*
X371530Y-318892D01*
X370652Y-316772D01*
X369028Y-315148D01*
X366908Y-314270D01*
X364612Y-314270D01*
X362492Y-315148D01*
X360868Y-316772D01*
X359990Y-318892D01*
X359990Y-321188D01*
X360868Y-323308D01*
X362492Y-324932D01*
X364612Y-325810D01*
G37*
G36*
X339212Y-325810D02*
X341508Y-325810D01*
X343628Y-324932D01*
X345252Y-323308D01*
X346130Y-321188D01*
X346130Y-318892D01*
X345252Y-316772D01*
X343628Y-315148D01*
X341508Y-314270D01*
X339212Y-314270D01*
X337092Y-315148D01*
X335468Y-316772D01*
X334590Y-318892D01*
X334590Y-321188D01*
X335468Y-323308D01*
X337092Y-324932D01*
X339212Y-325810D01*
G37*
G36*
X313812Y-325810D02*
X316108Y-325810D01*
X318228Y-324932D01*
X319852Y-323308D01*
X320730Y-321188D01*
X320730Y-318892D01*
X319852Y-316772D01*
X318228Y-315148D01*
X316108Y-314270D01*
X313812Y-314270D01*
X311692Y-315148D01*
X310068Y-316772D01*
X309190Y-318892D01*
X309190Y-321188D01*
X310068Y-323308D01*
X311692Y-324932D01*
X313812Y-325810D01*
G37*
G36*
X-143388Y-325810D02*
X-141092Y-325810D01*
X-138972Y-324932D01*
X-137348Y-323308D01*
X-136470Y-321188D01*
X-136470Y-318892D01*
X-137348Y-316772D01*
X-138972Y-315148D01*
X-141092Y-314270D01*
X-143388Y-314270D01*
X-145508Y-315148D01*
X-147132Y-316772D01*
X-148010Y-318892D01*
X-148010Y-321188D01*
X-147132Y-323308D01*
X-145508Y-324932D01*
X-143388Y-325810D01*
G37*
G36*
X288412Y-325810D02*
X290708Y-325810D01*
X292828Y-324932D01*
X294452Y-323308D01*
X295330Y-321188D01*
X295330Y-318892D01*
X294452Y-316772D01*
X292828Y-315148D01*
X290708Y-314270D01*
X288412Y-314270D01*
X286292Y-315148D01*
X284668Y-316772D01*
X283790Y-318892D01*
X283790Y-321188D01*
X284668Y-323308D01*
X286292Y-324932D01*
X288412Y-325810D01*
G37*
G36*
X263012Y-325810D02*
X265308Y-325810D01*
X267428Y-324932D01*
X269052Y-323308D01*
X269930Y-321188D01*
X269930Y-318892D01*
X269052Y-316772D01*
X267428Y-315148D01*
X265308Y-314270D01*
X263012Y-314270D01*
X260892Y-315148D01*
X259268Y-316772D01*
X258390Y-318892D01*
X258390Y-321188D01*
X259268Y-323308D01*
X260892Y-324932D01*
X263012Y-325810D01*
G37*
G36*
X-194188Y-325810D02*
X-191892Y-325810D01*
X-189772Y-324932D01*
X-188148Y-323308D01*
X-187270Y-321188D01*
X-187270Y-318892D01*
X-188148Y-316772D01*
X-189772Y-315148D01*
X-191892Y-314270D01*
X-194188Y-314270D01*
X-196308Y-315148D01*
X-197932Y-316772D01*
X-198810Y-318892D01*
X-198810Y-321188D01*
X-197932Y-323308D01*
X-196308Y-324932D01*
X-194188Y-325810D01*
G37*
G36*
X-219588Y-325810D02*
X-217292Y-325810D01*
X-215172Y-324932D01*
X-213548Y-323308D01*
X-212670Y-321188D01*
X-212670Y-318892D01*
X-213548Y-316772D01*
X-215172Y-315148D01*
X-217292Y-314270D01*
X-219588Y-314270D01*
X-221708Y-315148D01*
X-223332Y-316772D01*
X-224210Y-318892D01*
X-224210Y-321188D01*
X-223332Y-323308D01*
X-221708Y-324932D01*
X-219588Y-325810D01*
G37*
G36*
X-168788Y-325810D02*
X-166492Y-325810D01*
X-164372Y-324932D01*
X-162748Y-323308D01*
X-161870Y-321188D01*
X-161870Y-318892D01*
X-162748Y-316772D01*
X-164372Y-315148D01*
X-166492Y-314270D01*
X-168788Y-314270D01*
X-170908Y-315148D01*
X-172532Y-316772D01*
X-173410Y-318892D01*
X-173410Y-321188D01*
X-172532Y-323308D01*
X-170908Y-324932D01*
X-168788Y-325810D01*
G37*
G36*
X34412Y-325810D02*
X36708Y-325810D01*
X38828Y-324932D01*
X40452Y-323308D01*
X41330Y-321188D01*
X41330Y-318892D01*
X40452Y-316772D01*
X38828Y-315148D01*
X36708Y-314270D01*
X34412Y-314270D01*
X32292Y-315148D01*
X30668Y-316772D01*
X29790Y-318892D01*
X29790Y-321188D01*
X30668Y-323308D01*
X32292Y-324932D01*
X34412Y-325810D01*
G37*
G36*
X9012Y-325810D02*
X11308Y-325810D01*
X13428Y-324932D01*
X15052Y-323308D01*
X15930Y-321188D01*
X15930Y-318892D01*
X15052Y-316772D01*
X13428Y-315148D01*
X11308Y-314270D01*
X9012Y-314270D01*
X6892Y-315148D01*
X5268Y-316772D01*
X4390Y-318892D01*
X4390Y-321188D01*
X5268Y-323308D01*
X6892Y-324932D01*
X9012Y-325810D01*
G37*
G36*
X-16388Y-325810D02*
X-14092Y-325810D01*
X-11972Y-324932D01*
X-10348Y-323308D01*
X-9470Y-321188D01*
X-9470Y-318892D01*
X-10348Y-316772D01*
X-11972Y-315148D01*
X-14092Y-314270D01*
X-16388Y-314270D01*
X-18508Y-315148D01*
X-20132Y-316772D01*
X-21010Y-318892D01*
X-21010Y-321188D01*
X-20132Y-323308D01*
X-18508Y-324932D01*
X-16388Y-325810D01*
G37*
G36*
X186812Y-325810D02*
X189108Y-325810D01*
X191228Y-324932D01*
X192852Y-323308D01*
X193730Y-321188D01*
X193730Y-318892D01*
X192852Y-316772D01*
X191228Y-315148D01*
X189108Y-314270D01*
X186812Y-314270D01*
X184692Y-315148D01*
X183068Y-316772D01*
X182190Y-318892D01*
X182190Y-321188D01*
X183068Y-323308D01*
X184692Y-324932D01*
X186812Y-325810D01*
G37*
G36*
X-67188Y-325810D02*
X-64892Y-325810D01*
X-62772Y-324932D01*
X-61148Y-323308D01*
X-60270Y-321188D01*
X-60270Y-318892D01*
X-61148Y-316772D01*
X-62772Y-315148D01*
X-64892Y-314270D01*
X-67188Y-314270D01*
X-69308Y-315148D01*
X-70932Y-316772D01*
X-71810Y-318892D01*
X-71810Y-321188D01*
X-70932Y-323308D01*
X-69308Y-324932D01*
X-67188Y-325810D01*
G37*
G36*
X-92588Y-325810D02*
X-90292Y-325810D01*
X-88172Y-324932D01*
X-86548Y-323308D01*
X-85670Y-321188D01*
X-85670Y-318892D01*
X-86548Y-316772D01*
X-88172Y-315148D01*
X-90292Y-314270D01*
X-92588Y-314270D01*
X-94708Y-315148D01*
X-96332Y-316772D01*
X-97210Y-318892D01*
X-97210Y-321188D01*
X-96332Y-323308D01*
X-94708Y-324932D01*
X-92588Y-325810D01*
G37*
G36*
X161412Y-325810D02*
X163708Y-325810D01*
X165828Y-324932D01*
X167452Y-323308D01*
X168330Y-321188D01*
X168330Y-318892D01*
X167452Y-316772D01*
X165828Y-315148D01*
X163708Y-314270D01*
X161412Y-314270D01*
X159292Y-315148D01*
X157668Y-316772D01*
X156790Y-318892D01*
X156790Y-321188D01*
X157668Y-323308D01*
X159292Y-324932D01*
X161412Y-325810D01*
G37*
G36*
X136012Y-325810D02*
X138308Y-325810D01*
X140428Y-324932D01*
X142052Y-323308D01*
X142930Y-321188D01*
X142930Y-318892D01*
X142052Y-316772D01*
X140428Y-315148D01*
X138308Y-314270D01*
X136012Y-314270D01*
X133892Y-315148D01*
X132268Y-316772D01*
X131390Y-318892D01*
X131390Y-321188D01*
X132268Y-323308D01*
X133892Y-324932D01*
X136012Y-325810D01*
G37*
G36*
X110612Y-325810D02*
X112908Y-325810D01*
X115028Y-324932D01*
X116652Y-323308D01*
X117530Y-321188D01*
X117530Y-318892D01*
X116652Y-316772D01*
X115028Y-315148D01*
X112908Y-314270D01*
X110612Y-314270D01*
X108492Y-315148D01*
X106868Y-316772D01*
X105990Y-318892D01*
X105990Y-321188D01*
X106868Y-323308D01*
X108492Y-324932D01*
X110612Y-325810D01*
G37*
G36*
X-117988Y-325810D02*
X-115692Y-325810D01*
X-113572Y-324932D01*
X-111948Y-323308D01*
X-111070Y-321188D01*
X-111070Y-318892D01*
X-111948Y-316772D01*
X-113572Y-315148D01*
X-115692Y-314270D01*
X-117988Y-314270D01*
X-120108Y-315148D01*
X-121732Y-316772D01*
X-122610Y-318892D01*
X-122610Y-321188D01*
X-121732Y-323308D01*
X-120108Y-324932D01*
X-117988Y-325810D01*
G37*
G36*
X85212Y-325810D02*
X87508Y-325810D01*
X89628Y-324932D01*
X91252Y-323308D01*
X92130Y-321188D01*
X92130Y-318892D01*
X91252Y-316772D01*
X89628Y-315148D01*
X87508Y-314270D01*
X85212Y-314270D01*
X83092Y-315148D01*
X81468Y-316772D01*
X80590Y-318892D01*
X80590Y-321188D01*
X81468Y-323308D01*
X83092Y-324932D01*
X85212Y-325810D01*
G37*
G36*
X-365840Y-329438D02*
X-356562Y-329438D01*
X-356562Y-320160D01*
X-357797Y-320160D01*
X-361487Y-321689D01*
X-364312Y-324513D01*
X-365840Y-328203D01*
X-365840Y-329438D01*
G37*
G36*
X-340840Y-329438D02*
X-331562Y-329438D01*
X-331562Y-320160D01*
X-332797Y-320160D01*
X-336487Y-321689D01*
X-339312Y-324513D01*
X-340840Y-328203D01*
X-340840Y-329438D01*
G37*
G36*
X-330038Y-329438D02*
X-320760Y-329438D01*
X-320760Y-328203D01*
X-322289Y-324513D01*
X-325113Y-321689D01*
X-328803Y-320160D01*
X-330038Y-320160D01*
X-330038Y-329438D01*
G37*
G36*
X-355038Y-329438D02*
X-345760Y-329438D01*
X-345760Y-328203D01*
X-347289Y-324513D01*
X-350113Y-321689D01*
X-353803Y-320160D01*
X-355038Y-320160D01*
X-355038Y-329438D01*
G37*
G36*
X239522Y-327080D02*
X240160Y-327080D01*
X242748Y-326008D01*
X244728Y-324028D01*
X245800Y-321440D01*
X245800Y-320802D01*
X239522Y-320802D01*
X239522Y-327080D01*
G37*
G36*
X237360Y-327080D02*
X237998Y-327080D01*
X237998Y-320802D01*
X231720Y-320802D01*
X231720Y-321440D01*
X232792Y-324028D01*
X234772Y-326008D01*
X237360Y-327080D01*
G37*
G36*
X-39878Y-327080D02*
X-39240Y-327080D01*
X-36652Y-326008D01*
X-34672Y-324028D01*
X-33600Y-321440D01*
X-33600Y-320802D01*
X-39878Y-320802D01*
X-39878Y-327080D01*
G37*
G36*
X-42040Y-327080D02*
X-41402Y-327080D01*
X-41402Y-320802D01*
X-47680Y-320802D01*
X-47680Y-321440D01*
X-46608Y-324028D01*
X-44628Y-326008D01*
X-42040Y-327080D01*
G37*
G36*
X-243078Y-327080D02*
X-242440Y-327080D01*
X-239852Y-326008D01*
X-237872Y-324028D01*
X-236800Y-321440D01*
X-236800Y-320802D01*
X-243078Y-320802D01*
X-243078Y-327080D01*
G37*
G36*
X-245240Y-327080D02*
X-244602Y-327080D01*
X-244602Y-320802D01*
X-250880Y-320802D01*
X-250880Y-321440D01*
X-249808Y-324028D01*
X-247828Y-326008D01*
X-245240Y-327080D01*
G37*
G36*
X-407544Y-338970D02*
X-404056Y-338970D01*
X-400832Y-337635D01*
X-398365Y-335168D01*
X-397030Y-331944D01*
X-397030Y-328456D01*
X-398365Y-325232D01*
X-400832Y-322765D01*
X-404056Y-321430D01*
X-407544Y-321430D01*
X-410768Y-322765D01*
X-413235Y-325232D01*
X-414570Y-328456D01*
X-414570Y-331944D01*
X-413235Y-335168D01*
X-410768Y-337635D01*
X-407544Y-338970D01*
G37*
G36*
X-330038Y-340240D02*
X-328803Y-340240D01*
X-325113Y-338712D01*
X-322289Y-335887D01*
X-320760Y-332197D01*
X-320760Y-330962D01*
X-330038Y-330962D01*
X-330038Y-340240D01*
G37*
G36*
X-332797Y-340240D02*
X-331562Y-340240D01*
X-331562Y-330962D01*
X-340840Y-330962D01*
X-340840Y-332197D01*
X-339312Y-335887D01*
X-336487Y-338712D01*
X-332797Y-340240D01*
G37*
G36*
X-355038Y-340240D02*
X-353803Y-340240D01*
X-350113Y-338712D01*
X-347289Y-335887D01*
X-345760Y-332197D01*
X-345760Y-330962D01*
X-355038Y-330962D01*
X-355038Y-340240D01*
G37*
G36*
X-357797Y-340240D02*
X-356562Y-340240D01*
X-356562Y-330962D01*
X-365840Y-330962D01*
X-365840Y-332197D01*
X-364312Y-335887D01*
X-361487Y-338712D01*
X-357797Y-340240D01*
G37*
G36*
X585963Y-375294D02*
X594037Y-375294D01*
X601496Y-372204D01*
X607204Y-366496D01*
X610294Y-359037D01*
X610294Y-350963D01*
X607204Y-343504D01*
X601496Y-337796D01*
X594037Y-334706D01*
X585963Y-334706D01*
X578504Y-337796D01*
X572796Y-343504D01*
X569706Y-350963D01*
X569706Y-359037D01*
X572796Y-366496D01*
X578504Y-372204D01*
X585963Y-375294D01*
G37*
G36*
X-594037Y-375294D02*
X-585963Y-375294D01*
X-578504Y-372204D01*
X-572796Y-366496D01*
X-569706Y-359037D01*
X-569706Y-350963D01*
X-572796Y-343504D01*
X-578504Y-337796D01*
X-585963Y-334706D01*
X-594037Y-334706D01*
X-601496Y-337796D01*
X-607204Y-343504D01*
X-610294Y-350963D01*
X-610294Y-359037D01*
X-607204Y-366496D01*
X-601496Y-372204D01*
X-594037Y-375294D01*
G37*
G36*
X3120Y-344678D02*
X9398Y-344678D01*
X9398Y-338400D01*
X8760Y-338400D01*
X6172Y-339472D01*
X4192Y-341452D01*
X3120Y-344040D01*
X3120Y-344678D01*
G37*
G36*
X28520Y-344678D02*
X34798Y-344678D01*
X34798Y-338400D01*
X34160Y-338400D01*
X31572Y-339472D01*
X29592Y-341452D01*
X28520Y-344040D01*
X28520Y-344678D01*
G37*
G36*
X79320Y-344678D02*
X85598Y-344678D01*
X85598Y-338400D01*
X84960Y-338400D01*
X82372Y-339472D01*
X80392Y-341452D01*
X79320Y-344040D01*
X79320Y-344678D01*
G37*
G36*
X231720Y-344678D02*
X237998Y-344678D01*
X237998Y-338400D01*
X237360Y-338400D01*
X234772Y-339472D01*
X232792Y-341452D01*
X231720Y-344040D01*
X231720Y-344678D01*
G37*
G36*
X257120Y-344678D02*
X263398Y-344678D01*
X263398Y-338400D01*
X262760Y-338400D01*
X260172Y-339472D01*
X258192Y-341452D01*
X257120Y-344040D01*
X257120Y-344678D01*
G37*
G36*
X282520Y-344678D02*
X288798Y-344678D01*
X288798Y-338400D01*
X288160Y-338400D01*
X285572Y-339472D01*
X283592Y-341452D01*
X282520Y-344040D01*
X282520Y-344678D01*
G37*
G36*
X307920Y-344678D02*
X314198Y-344678D01*
X314198Y-338400D01*
X313560Y-338400D01*
X310972Y-339472D01*
X308992Y-341452D01*
X307920Y-344040D01*
X307920Y-344678D01*
G37*
G36*
X333320Y-344678D02*
X339598Y-344678D01*
X339598Y-338400D01*
X338960Y-338400D01*
X336372Y-339472D01*
X334392Y-341452D01*
X333320Y-344040D01*
X333320Y-344678D01*
G37*
G36*
X358720Y-344678D02*
X364998Y-344678D01*
X364998Y-338400D01*
X364360Y-338400D01*
X361772Y-339472D01*
X359792Y-341452D01*
X358720Y-344040D01*
X358720Y-344678D01*
G37*
G36*
X-250880Y-344678D02*
X-244602Y-344678D01*
X-244602Y-338400D01*
X-245240Y-338400D01*
X-247828Y-339472D01*
X-249808Y-341452D01*
X-250880Y-344040D01*
X-250880Y-344678D01*
G37*
G36*
X-47680Y-344678D02*
X-41402Y-344678D01*
X-41402Y-338400D01*
X-42040Y-338400D01*
X-44628Y-339472D01*
X-46608Y-341452D01*
X-47680Y-344040D01*
X-47680Y-344678D01*
G37*
G36*
X-22280Y-344678D02*
X-16002Y-344678D01*
X-16002Y-338400D01*
X-16640Y-338400D01*
X-19228Y-339472D01*
X-21208Y-341452D01*
X-22280Y-344040D01*
X-22280Y-344678D01*
G37*
G36*
X-14478Y-344678D02*
X-8200Y-344678D01*
X-8200Y-344040D01*
X-9272Y-341452D01*
X-11252Y-339472D01*
X-13840Y-338400D01*
X-14478Y-338400D01*
X-14478Y-344678D01*
G37*
G36*
X-39878Y-344678D02*
X-33600Y-344678D01*
X-33600Y-344040D01*
X-34672Y-341452D01*
X-36652Y-339472D01*
X-39240Y-338400D01*
X-39878Y-338400D01*
X-39878Y-344678D01*
G37*
G36*
X-243078Y-344678D02*
X-236800Y-344678D01*
X-236800Y-344040D01*
X-237872Y-341452D01*
X-239852Y-339472D01*
X-242440Y-338400D01*
X-243078Y-338400D01*
X-243078Y-344678D01*
G37*
G36*
X366522Y-344678D02*
X372800Y-344678D01*
X372800Y-344040D01*
X371728Y-341452D01*
X369748Y-339472D01*
X367160Y-338400D01*
X366522Y-338400D01*
X366522Y-344678D01*
G37*
G36*
X341122Y-344678D02*
X347400Y-344678D01*
X347400Y-344040D01*
X346328Y-341452D01*
X344348Y-339472D01*
X341760Y-338400D01*
X341122Y-338400D01*
X341122Y-344678D01*
G37*
G36*
X315722Y-344678D02*
X322000Y-344678D01*
X322000Y-344040D01*
X320928Y-341452D01*
X318948Y-339472D01*
X316360Y-338400D01*
X315722Y-338400D01*
X315722Y-344678D01*
G37*
G36*
X290322Y-344678D02*
X296600Y-344678D01*
X296600Y-344040D01*
X295528Y-341452D01*
X293548Y-339472D01*
X290960Y-338400D01*
X290322Y-338400D01*
X290322Y-344678D01*
G37*
G36*
X264922Y-344678D02*
X271200Y-344678D01*
X271200Y-344040D01*
X270128Y-341452D01*
X268148Y-339472D01*
X265560Y-338400D01*
X264922Y-338400D01*
X264922Y-344678D01*
G37*
G36*
X239522Y-344678D02*
X245800Y-344678D01*
X245800Y-344040D01*
X244728Y-341452D01*
X242748Y-339472D01*
X240160Y-338400D01*
X239522Y-338400D01*
X239522Y-344678D01*
G37*
G36*
X87122Y-344678D02*
X93400Y-344678D01*
X93400Y-344040D01*
X92328Y-341452D01*
X90348Y-339472D01*
X87760Y-338400D01*
X87122Y-338400D01*
X87122Y-344678D01*
G37*
G36*
X36322Y-344678D02*
X42600Y-344678D01*
X42600Y-344040D01*
X41528Y-341452D01*
X39548Y-339472D01*
X36960Y-338400D01*
X36322Y-338400D01*
X36322Y-344678D01*
G37*
G36*
X10922Y-344678D02*
X17200Y-344678D01*
X17200Y-344040D01*
X16128Y-341452D01*
X14148Y-339472D01*
X11560Y-338400D01*
X10922Y-338400D01*
X10922Y-344678D01*
G37*
G36*
X-194188Y-351210D02*
X-191892Y-351210D01*
X-189772Y-350332D01*
X-188148Y-348708D01*
X-187270Y-346588D01*
X-187270Y-344292D01*
X-188148Y-342172D01*
X-189772Y-340548D01*
X-191892Y-339670D01*
X-194188Y-339670D01*
X-196308Y-340548D01*
X-197932Y-342172D01*
X-198810Y-344292D01*
X-198810Y-346588D01*
X-197932Y-348708D01*
X-196308Y-350332D01*
X-194188Y-351210D01*
G37*
G36*
X110612Y-351210D02*
X112908Y-351210D01*
X115028Y-350332D01*
X116652Y-348708D01*
X117530Y-346588D01*
X117530Y-344292D01*
X116652Y-342172D01*
X115028Y-340548D01*
X112908Y-339670D01*
X110612Y-339670D01*
X108492Y-340548D01*
X106868Y-342172D01*
X105990Y-344292D01*
X105990Y-346588D01*
X106868Y-348708D01*
X108492Y-350332D01*
X110612Y-351210D01*
G37*
G36*
X-67188Y-351210D02*
X-64892Y-351210D01*
X-62772Y-350332D01*
X-61148Y-348708D01*
X-60270Y-346588D01*
X-60270Y-344292D01*
X-61148Y-342172D01*
X-62772Y-340548D01*
X-64892Y-339670D01*
X-67188Y-339670D01*
X-69308Y-340548D01*
X-70932Y-342172D01*
X-71810Y-344292D01*
X-71810Y-346588D01*
X-70932Y-348708D01*
X-69308Y-350332D01*
X-67188Y-351210D01*
G37*
G36*
X-92588Y-351210D02*
X-90292Y-351210D01*
X-88172Y-350332D01*
X-86548Y-348708D01*
X-85670Y-346588D01*
X-85670Y-344292D01*
X-86548Y-342172D01*
X-88172Y-340548D01*
X-90292Y-339670D01*
X-92588Y-339670D01*
X-94708Y-340548D01*
X-96332Y-342172D01*
X-97210Y-344292D01*
X-97210Y-346588D01*
X-96332Y-348708D01*
X-94708Y-350332D01*
X-92588Y-351210D01*
G37*
G36*
X-117988Y-351210D02*
X-115692Y-351210D01*
X-113572Y-350332D01*
X-111948Y-348708D01*
X-111070Y-346588D01*
X-111070Y-344292D01*
X-111948Y-342172D01*
X-113572Y-340548D01*
X-115692Y-339670D01*
X-117988Y-339670D01*
X-120108Y-340548D01*
X-121732Y-342172D01*
X-122610Y-344292D01*
X-122610Y-346588D01*
X-121732Y-348708D01*
X-120108Y-350332D01*
X-117988Y-351210D01*
G37*
G36*
X-143388Y-351210D02*
X-141092Y-351210D01*
X-138972Y-350332D01*
X-137348Y-348708D01*
X-136470Y-346588D01*
X-136470Y-344292D01*
X-137348Y-342172D01*
X-138972Y-340548D01*
X-141092Y-339670D01*
X-143388Y-339670D01*
X-145508Y-340548D01*
X-147132Y-342172D01*
X-148010Y-344292D01*
X-148010Y-346588D01*
X-147132Y-348708D01*
X-145508Y-350332D01*
X-143388Y-351210D01*
G37*
G36*
X-168788Y-351210D02*
X-166492Y-351210D01*
X-164372Y-350332D01*
X-162748Y-348708D01*
X-161870Y-346588D01*
X-161870Y-344292D01*
X-162748Y-342172D01*
X-164372Y-340548D01*
X-166492Y-339670D01*
X-168788Y-339670D01*
X-170908Y-340548D01*
X-172532Y-342172D01*
X-173410Y-344292D01*
X-173410Y-346588D01*
X-172532Y-348708D01*
X-170908Y-350332D01*
X-168788Y-351210D01*
G37*
G36*
X186812Y-351210D02*
X189108Y-351210D01*
X191228Y-350332D01*
X192852Y-348708D01*
X193730Y-346588D01*
X193730Y-344292D01*
X192852Y-342172D01*
X191228Y-340548D01*
X189108Y-339670D01*
X186812Y-339670D01*
X184692Y-340548D01*
X183068Y-342172D01*
X182190Y-344292D01*
X182190Y-346588D01*
X183068Y-348708D01*
X184692Y-350332D01*
X186812Y-351210D01*
G37*
G36*
X161412Y-351210D02*
X163708Y-351210D01*
X165828Y-350332D01*
X167452Y-348708D01*
X168330Y-346588D01*
X168330Y-344292D01*
X167452Y-342172D01*
X165828Y-340548D01*
X163708Y-339670D01*
X161412Y-339670D01*
X159292Y-340548D01*
X157668Y-342172D01*
X156790Y-344292D01*
X156790Y-346588D01*
X157668Y-348708D01*
X159292Y-350332D01*
X161412Y-351210D01*
G37*
G36*
X136012Y-351210D02*
X138308Y-351210D01*
X140428Y-350332D01*
X142052Y-348708D01*
X142930Y-346588D01*
X142930Y-344292D01*
X142052Y-342172D01*
X140428Y-340548D01*
X138308Y-339670D01*
X136012Y-339670D01*
X133892Y-340548D01*
X132268Y-342172D01*
X131390Y-344292D01*
X131390Y-346588D01*
X132268Y-348708D01*
X133892Y-350332D01*
X136012Y-351210D01*
G37*
G36*
X-219588Y-351210D02*
X-217292Y-351210D01*
X-215172Y-350332D01*
X-213548Y-348708D01*
X-212670Y-346588D01*
X-212670Y-344292D01*
X-213548Y-342172D01*
X-215172Y-340548D01*
X-217292Y-339670D01*
X-219588Y-339670D01*
X-221708Y-340548D01*
X-223332Y-342172D01*
X-224210Y-344292D01*
X-224210Y-346588D01*
X-223332Y-348708D01*
X-221708Y-350332D01*
X-219588Y-351210D01*
G37*
G36*
X366522Y-352480D02*
X367160Y-352480D01*
X369748Y-351408D01*
X371728Y-349428D01*
X372800Y-346840D01*
X372800Y-346202D01*
X366522Y-346202D01*
X366522Y-352480D01*
G37*
G36*
X364360Y-352480D02*
X364998Y-352480D01*
X364998Y-346202D01*
X358720Y-346202D01*
X358720Y-346840D01*
X359792Y-349428D01*
X361772Y-351408D01*
X364360Y-352480D01*
G37*
G36*
X341122Y-352480D02*
X341760Y-352480D01*
X344348Y-351408D01*
X346328Y-349428D01*
X347400Y-346840D01*
X347400Y-346202D01*
X341122Y-346202D01*
X341122Y-352480D01*
G37*
G36*
X338960Y-352480D02*
X339598Y-352480D01*
X339598Y-346202D01*
X333320Y-346202D01*
X333320Y-346840D01*
X334392Y-349428D01*
X336372Y-351408D01*
X338960Y-352480D01*
G37*
G36*
X315722Y-352480D02*
X316360Y-352480D01*
X318948Y-351408D01*
X320928Y-349428D01*
X322000Y-346840D01*
X322000Y-346202D01*
X315722Y-346202D01*
X315722Y-352480D01*
G37*
G36*
X313560Y-352480D02*
X314198Y-352480D01*
X314198Y-346202D01*
X307920Y-346202D01*
X307920Y-346840D01*
X308992Y-349428D01*
X310972Y-351408D01*
X313560Y-352480D01*
G37*
G36*
X290322Y-352480D02*
X290960Y-352480D01*
X293548Y-351408D01*
X295528Y-349428D01*
X296600Y-346840D01*
X296600Y-346202D01*
X290322Y-346202D01*
X290322Y-352480D01*
G37*
G36*
X288160Y-352480D02*
X288798Y-352480D01*
X288798Y-346202D01*
X282520Y-346202D01*
X282520Y-346840D01*
X283592Y-349428D01*
X285572Y-351408D01*
X288160Y-352480D01*
G37*
G36*
X264922Y-352480D02*
X265560Y-352480D01*
X268148Y-351408D01*
X270128Y-349428D01*
X271200Y-346840D01*
X271200Y-346202D01*
X264922Y-346202D01*
X264922Y-352480D01*
G37*
G36*
X262760Y-352480D02*
X263398Y-352480D01*
X263398Y-346202D01*
X257120Y-346202D01*
X257120Y-346840D01*
X258192Y-349428D01*
X260172Y-351408D01*
X262760Y-352480D01*
G37*
G36*
X239522Y-352480D02*
X240160Y-352480D01*
X242748Y-351408D01*
X244728Y-349428D01*
X245800Y-346840D01*
X245800Y-346202D01*
X239522Y-346202D01*
X239522Y-352480D01*
G37*
G36*
X237360Y-352480D02*
X237998Y-352480D01*
X237998Y-346202D01*
X231720Y-346202D01*
X231720Y-346840D01*
X232792Y-349428D01*
X234772Y-351408D01*
X237360Y-352480D01*
G37*
G36*
X87122Y-352480D02*
X87760Y-352480D01*
X90348Y-351408D01*
X92328Y-349428D01*
X93400Y-346840D01*
X93400Y-346202D01*
X87122Y-346202D01*
X87122Y-352480D01*
G37*
G36*
X84960Y-352480D02*
X85598Y-352480D01*
X85598Y-346202D01*
X79320Y-346202D01*
X79320Y-346840D01*
X80392Y-349428D01*
X82372Y-351408D01*
X84960Y-352480D01*
G37*
G36*
X36322Y-352480D02*
X36960Y-352480D01*
X39548Y-351408D01*
X41528Y-349428D01*
X42600Y-346840D01*
X42600Y-346202D01*
X36322Y-346202D01*
X36322Y-352480D01*
G37*
G36*
X34160Y-352480D02*
X34798Y-352480D01*
X34798Y-346202D01*
X28520Y-346202D01*
X28520Y-346840D01*
X29592Y-349428D01*
X31572Y-351408D01*
X34160Y-352480D01*
G37*
G36*
X10922Y-352480D02*
X11560Y-352480D01*
X14148Y-351408D01*
X16128Y-349428D01*
X17200Y-346840D01*
X17200Y-346202D01*
X10922Y-346202D01*
X10922Y-352480D01*
G37*
G36*
X8760Y-352480D02*
X9398Y-352480D01*
X9398Y-346202D01*
X3120Y-346202D01*
X3120Y-346840D01*
X4192Y-349428D01*
X6172Y-351408D01*
X8760Y-352480D01*
G37*
G36*
X-14478Y-352480D02*
X-13840Y-352480D01*
X-11252Y-351408D01*
X-9272Y-349428D01*
X-8200Y-346840D01*
X-8200Y-346202D01*
X-14478Y-346202D01*
X-14478Y-352480D01*
G37*
G36*
X-16640Y-352480D02*
X-16002Y-352480D01*
X-16002Y-346202D01*
X-22280Y-346202D01*
X-22280Y-346840D01*
X-21208Y-349428D01*
X-19228Y-351408D01*
X-16640Y-352480D01*
G37*
G36*
X-39878Y-352480D02*
X-39240Y-352480D01*
X-36652Y-351408D01*
X-34672Y-349428D01*
X-33600Y-346840D01*
X-33600Y-346202D01*
X-39878Y-346202D01*
X-39878Y-352480D01*
G37*
G36*
X-42040Y-352480D02*
X-41402Y-352480D01*
X-41402Y-346202D01*
X-47680Y-346202D01*
X-47680Y-346840D01*
X-46608Y-349428D01*
X-44628Y-351408D01*
X-42040Y-352480D01*
G37*
G36*
X-243078Y-352480D02*
X-242440Y-352480D01*
X-239852Y-351408D01*
X-237872Y-349428D01*
X-236800Y-346840D01*
X-236800Y-346202D01*
X-243078Y-346202D01*
X-243078Y-352480D01*
G37*
G36*
X-245240Y-352480D02*
X-244602Y-352480D01*
X-244602Y-346202D01*
X-250880Y-346202D01*
X-250880Y-346840D01*
X-249808Y-349428D01*
X-247828Y-351408D01*
X-245240Y-352480D01*
G37*
%LPD*%
G36*
X382589Y23278D02*
X382294Y23208D01*
X381995Y23259D01*
X381740Y23423D01*
X381568Y23673D01*
X381508Y23970D01*
X381508Y26865D01*
X380387Y29573D01*
X378315Y31645D01*
X375607Y32766D01*
X367378Y32766D01*
X367115Y32813D01*
X366857Y32972D01*
X366681Y33220D01*
X366616Y33516D01*
X366672Y33814D01*
X366839Y34067D01*
X369189Y36417D01*
X369189Y42672D01*
X369240Y42947D01*
X369404Y43202D01*
X369654Y43374D01*
X369951Y43434D01*
X375607Y43434D01*
X378315Y44555D01*
X380387Y46627D01*
X381508Y49335D01*
X381508Y52265D01*
X380387Y54973D01*
X378315Y57045D01*
X375607Y58166D01*
X360485Y58166D01*
X357777Y57045D01*
X355705Y54973D01*
X354584Y52265D01*
X354584Y49335D01*
X355705Y46627D01*
X357777Y44555D01*
X360012Y43630D01*
X360232Y43490D01*
X360412Y43245D01*
X360482Y42950D01*
X360431Y42651D01*
X360267Y42396D01*
X360017Y42224D01*
X359720Y42164D01*
X338526Y42164D01*
X338268Y42209D01*
X338009Y42366D01*
X337832Y42612D01*
X337764Y42908D01*
X337817Y43206D01*
X337983Y43461D01*
X338234Y43630D01*
X340469Y44555D01*
X342541Y46627D01*
X343662Y49335D01*
X343662Y52265D01*
X342541Y54973D01*
X340469Y57045D01*
X337761Y58166D01*
X322639Y58166D01*
X319931Y57045D01*
X317859Y54973D01*
X316738Y52265D01*
X316738Y49335D01*
X317859Y46627D01*
X319931Y44555D01*
X322166Y43630D01*
X322386Y43490D01*
X322566Y43245D01*
X322636Y42950D01*
X322585Y42651D01*
X322421Y42396D01*
X322171Y42224D01*
X321874Y42164D01*
X262326Y42164D01*
X262068Y42209D01*
X261809Y42366D01*
X261632Y42612D01*
X261564Y42908D01*
X261617Y43206D01*
X261783Y43461D01*
X262034Y43630D01*
X264269Y44555D01*
X266341Y46627D01*
X267462Y49335D01*
X267462Y52265D01*
X266341Y54973D01*
X264269Y57045D01*
X261561Y58166D01*
X246439Y58166D01*
X243731Y57045D01*
X241659Y54973D01*
X240538Y52265D01*
X240538Y49335D01*
X241659Y46627D01*
X243731Y44555D01*
X245966Y43630D01*
X246186Y43490D01*
X246366Y43245D01*
X246436Y42950D01*
X246385Y42651D01*
X246221Y42396D01*
X245971Y42224D01*
X245674Y42164D01*
X224226Y42164D01*
X223968Y42209D01*
X223709Y42366D01*
X223532Y42612D01*
X223464Y42908D01*
X223517Y43206D01*
X223683Y43461D01*
X223934Y43630D01*
X226169Y44555D01*
X228241Y46627D01*
X229362Y49335D01*
X229362Y52265D01*
X228241Y54973D01*
X226169Y57045D01*
X223951Y57963D01*
X223721Y58112D01*
X223545Y58359D01*
X223480Y58655D01*
X223536Y58953D01*
X223703Y59206D01*
X239014Y74517D01*
X239014Y107519D01*
X239061Y107783D01*
X239220Y108041D01*
X239468Y108216D01*
X239764Y108281D01*
X240062Y108226D01*
X240315Y108058D01*
X241762Y106611D01*
X245096Y105230D01*
X248704Y105230D01*
X252038Y106611D01*
X254589Y109162D01*
X255970Y112496D01*
X255970Y116104D01*
X254589Y119438D01*
X252038Y121989D01*
X248704Y123370D01*
X245096Y123370D01*
X241762Y121989D01*
X240315Y120542D01*
X240095Y120389D01*
X239800Y120319D01*
X239501Y120370D01*
X239246Y120533D01*
X239074Y120783D01*
X239014Y121081D01*
X239014Y121826D01*
X239070Y122112D01*
X239237Y122365D01*
X308960Y192088D01*
X309180Y192241D01*
X309475Y192311D01*
X309774Y192260D01*
X310029Y192096D01*
X310201Y191846D01*
X310261Y191549D01*
X310261Y157574D01*
X310205Y157288D01*
X310038Y157035D01*
X276068Y123066D01*
X275832Y122905D01*
X275535Y122842D01*
X275238Y122900D01*
X274104Y123370D01*
X270496Y123370D01*
X267162Y121989D01*
X264611Y119438D01*
X263230Y116104D01*
X263230Y112496D01*
X264611Y109162D01*
X267162Y106611D01*
X270496Y105230D01*
X274104Y105230D01*
X277438Y106611D01*
X279989Y109162D01*
X281370Y112496D01*
X281370Y116104D01*
X281340Y116177D01*
X281282Y116457D01*
X281337Y116755D01*
X281505Y117008D01*
X318485Y153988D01*
X318705Y154141D01*
X319000Y154211D01*
X319299Y154160D01*
X319554Y153996D01*
X319726Y153746D01*
X319786Y153449D01*
X319786Y123254D01*
X319733Y122973D01*
X319567Y122719D01*
X319316Y122550D01*
X317962Y121989D01*
X315411Y119438D01*
X314030Y116104D01*
X314030Y112496D01*
X315411Y109162D01*
X317962Y106611D01*
X321296Y105230D01*
X324904Y105230D01*
X328238Y106611D01*
X330789Y109162D01*
X332170Y112496D01*
X332170Y116104D01*
X330789Y119438D01*
X328137Y122090D01*
X327974Y122331D01*
X327914Y122629D01*
X327914Y173133D01*
X325533Y175514D01*
X322167Y175514D01*
X319690Y173037D01*
X319470Y172884D01*
X319175Y172814D01*
X318876Y172865D01*
X318621Y173029D01*
X318449Y173279D01*
X318389Y173576D01*
X318389Y257048D01*
X318440Y257323D01*
X318604Y257578D01*
X318854Y257750D01*
X319151Y257810D01*
X319268Y257810D01*
X322536Y259163D01*
X325037Y261664D01*
X326390Y264932D01*
X326390Y268468D01*
X325986Y269443D01*
X325929Y269698D01*
X325975Y269998D01*
X326134Y270256D01*
X326382Y270432D01*
X326678Y270497D01*
X326976Y270441D01*
X327229Y270274D01*
X338613Y258890D01*
X338776Y258648D01*
X338836Y258351D01*
X338836Y163417D01*
X378421Y123831D01*
X378572Y123617D01*
X378644Y123323D01*
X378596Y123023D01*
X378434Y122767D01*
X378185Y122593D01*
X377889Y122530D01*
X377591Y122588D01*
X375704Y123370D01*
X372096Y123370D01*
X372023Y123340D01*
X371743Y123282D01*
X371445Y123337D01*
X371192Y123505D01*
X350933Y143764D01*
X347567Y143764D01*
X345186Y141383D01*
X345186Y138017D01*
X365134Y118068D01*
X365295Y117832D01*
X365358Y117535D01*
X365300Y117238D01*
X364830Y116104D01*
X364830Y112496D01*
X366211Y109162D01*
X368762Y106611D01*
X372096Y105230D01*
X375704Y105230D01*
X379038Y106611D01*
X381589Y109162D01*
X381820Y109720D01*
X381960Y109940D01*
X382205Y110120D01*
X382500Y110190D01*
X382799Y110139D01*
X383054Y109975D01*
X383226Y109725D01*
X383286Y109428D01*
X383286Y106267D01*
X432704Y56849D01*
X432862Y56618D01*
X432927Y56322D01*
X432871Y56024D01*
X432704Y55771D01*
X431905Y54973D01*
X430784Y52265D01*
X430784Y49335D01*
X431905Y46627D01*
X433977Y44555D01*
X436212Y43630D01*
X436432Y43490D01*
X436612Y43245D01*
X436682Y42950D01*
X436631Y42651D01*
X436467Y42396D01*
X436217Y42224D01*
X435920Y42164D01*
X385667Y42164D01*
X383286Y39783D01*
X383286Y24224D01*
X383230Y23938D01*
X383063Y23685D01*
X382809Y23431D01*
X382589Y23278D01*
G37*
%LPC*%
G36*
X287360Y115062D02*
X296938Y115062D01*
X296938Y124640D01*
X295643Y124640D01*
X291843Y123066D01*
X288934Y120157D01*
X287360Y116357D01*
X287360Y115062D01*
G37*
G36*
X298462Y115062D02*
X308040Y115062D01*
X308040Y116357D01*
X306466Y120157D01*
X303557Y123066D01*
X299757Y124640D01*
X298462Y124640D01*
X298462Y115062D01*
G37*
G36*
X346696Y105230D02*
X350304Y105230D01*
X353638Y106611D01*
X356189Y109162D01*
X357570Y112496D01*
X357570Y116104D01*
X356189Y119438D01*
X353638Y121989D01*
X350304Y123370D01*
X346696Y123370D01*
X343362Y121989D01*
X340811Y119438D01*
X339430Y116104D01*
X339430Y112496D01*
X340811Y109162D01*
X343362Y106611D01*
X346696Y105230D01*
G37*
G36*
X298462Y103960D02*
X299757Y103960D01*
X303557Y105534D01*
X306466Y108443D01*
X308040Y112243D01*
X308040Y113538D01*
X298462Y113538D01*
X298462Y103960D01*
G37*
G36*
X295643Y103960D02*
X296938Y103960D01*
X296938Y113538D01*
X287360Y113538D01*
X287360Y112243D01*
X288934Y108443D01*
X291843Y105534D01*
X295643Y103960D01*
G37*
%LPD*%
D10*
X406000Y177800D03*
D11*
X381000Y177800D03*
X356000Y177800D03*
D10*
X520300Y177800D03*
D11*
X495300Y177800D03*
X470300Y177800D03*
D10*
X13100Y-228600D03*
D11*
X38100Y-228600D03*
X63100Y-228600D03*
D10*
X-101200Y-228600D03*
D11*
X-76200Y-228600D03*
X-51200Y-228600D03*
D10*
X127400Y-228600D03*
D11*
X152400Y-228600D03*
X177400Y-228600D03*
D10*
X241700Y-228600D03*
D11*
X266700Y-228600D03*
X291700Y-228600D03*
D10*
X356000Y-228600D03*
D11*
X381000Y-228600D03*
X406000Y-228600D03*
D10*
X470300Y-228600D03*
D11*
X495300Y-228600D03*
X520300Y-228600D03*
D10*
X519700Y266700D03*
D11*
X494700Y266700D03*
X469700Y266700D03*
X444700Y266700D03*
X419700Y266700D03*
X394700Y266700D03*
D10*
X88300Y266700D03*
D11*
X63300Y266700D03*
X38300Y266700D03*
X13300Y266700D03*
D10*
X-51400Y266700D03*
D11*
X-76400Y266700D03*
X-101400Y266700D03*
X-126400Y266700D03*
D10*
X13300Y177800D03*
D11*
X38300Y177800D03*
X63300Y177800D03*
X88300Y177800D03*
D10*
X-126400Y177800D03*
D11*
X-101400Y177800D03*
X-76400Y177800D03*
X-51400Y177800D03*
D12*
X-243840Y-345440D03*
X-218440Y-345440D03*
X-193040Y-345440D03*
X-167640Y-345440D03*
X-142240Y-345440D03*
X-116840Y-345440D03*
X-91440Y-345440D03*
X-66040Y-345440D03*
X-40640Y-345440D03*
X-15240Y-345440D03*
X10160Y-345440D03*
X35560Y-345440D03*
X86360Y-345440D03*
X111760Y-345440D03*
X137160Y-345440D03*
X162560Y-345440D03*
X187960Y-345440D03*
X238760Y-345440D03*
X264160Y-345440D03*
X289560Y-345440D03*
X314960Y-345440D03*
X340360Y-345440D03*
X365760Y-345440D03*
X-243840Y-320040D03*
X-218440Y-320040D03*
X-193040Y-320040D03*
X-167640Y-320040D03*
X-142240Y-320040D03*
X-116840Y-320040D03*
X-91440Y-320040D03*
X-66040Y-320040D03*
X-40640Y-320040D03*
X-15240Y-320040D03*
X10160Y-320040D03*
X35560Y-320040D03*
X86360Y-320040D03*
X111760Y-320040D03*
X137160Y-320040D03*
X162560Y-320040D03*
X187960Y-320040D03*
X238760Y-320040D03*
X264160Y-320040D03*
X289560Y-320040D03*
X314960Y-320040D03*
X340360Y-320040D03*
X365760Y-320040D03*
X-243840Y327660D03*
X-218440Y327660D03*
X-193040Y327660D03*
X-167640Y327660D03*
X-142240Y327660D03*
X-116840Y327660D03*
X-91440Y327660D03*
X-66040Y327660D03*
X-40640Y327660D03*
X10160Y327660D03*
X35560Y327660D03*
X60960Y327660D03*
X86360Y327660D03*
X111760Y327660D03*
X137160Y327660D03*
X162560Y327660D03*
X187960Y327660D03*
X213360Y327660D03*
X238760Y327660D03*
X264160Y327660D03*
X289560Y327660D03*
X314960Y327660D03*
X340360Y327660D03*
X365760Y327660D03*
X-243840Y353060D03*
X-218440Y353060D03*
X-193040Y353060D03*
X-167640Y353060D03*
X-142240Y353060D03*
X-116840Y353060D03*
X-91440Y353060D03*
X-66040Y353060D03*
X-40640Y353060D03*
X10160Y353060D03*
X35560Y353060D03*
X60960Y353060D03*
X86360Y353060D03*
X111760Y353060D03*
X137160Y353060D03*
X162560Y353060D03*
X187960Y353060D03*
X213360Y353060D03*
X238760Y353060D03*
X264160Y353060D03*
X289560Y353060D03*
X314960Y353060D03*
X340360Y353060D03*
X365760Y353060D03*
D13*
X-408940Y331470D03*
X-373380Y347980D03*
X-337820Y347980D03*
X-303530Y331470D03*
X-337820Y314960D03*
X-373380Y314960D03*
D10*
X-305800Y-254000D03*
D11*
X-330800Y-254000D03*
X-355800Y-254000D03*
X-380800Y-254000D03*
X-405800Y-254000D03*
X-430800Y-254000D03*
D10*
X-305800Y-330200D03*
D11*
X-330800Y-330200D03*
X-355800Y-330200D03*
X-380800Y-330200D03*
X-405800Y-330200D03*
X-430800Y-330200D03*
D10*
X-571500Y291100D03*
D11*
X-571500Y266100D03*
X-571500Y241100D03*
X-571500Y216100D03*
X-571500Y191100D03*
X-571500Y166100D03*
D14*
X-584200Y121920D02*
X-584200Y106680D01*
X-558800Y106680D02*
X-558800Y121920D01*
X-533400Y121920D02*
X-533400Y106680D01*
X-584200Y83820D02*
X-584200Y68580D01*
X-558800Y68580D02*
X-558800Y83820D01*
X-533400Y83820D02*
X-533400Y68580D01*
X-584200Y33020D02*
X-584200Y17780D01*
X-558800Y17780D02*
X-558800Y33020D01*
X-533400Y33020D02*
X-533400Y17780D01*
X-584200Y-5080D02*
X-584200Y-20320D01*
X-558800Y-20320D02*
X-558800Y-5080D01*
X-533400Y-5080D02*
X-533400Y-20320D01*
D15*
X-177800Y9906D02*
X-177800Y22098D01*
X-152400Y22098D02*
X-152400Y9906D01*
X-25400Y9906D02*
X-25400Y22098D01*
X-25400Y86106D02*
X-25400Y98298D01*
X-127000Y22098D02*
X-127000Y9906D01*
X-101600Y9906D02*
X-101600Y22098D01*
X-50800Y22098D02*
X-50800Y9906D01*
X-76200Y9906D02*
X-76200Y22098D01*
X-50800Y86106D02*
X-50800Y98298D01*
X-76200Y98298D02*
X-76200Y86106D01*
X-101600Y86106D02*
X-101600Y98298D01*
X-127000Y98298D02*
X-127000Y86106D01*
X-152400Y86106D02*
X-152400Y98298D01*
X-177800Y98298D02*
X-177800Y86106D01*
D16*
X-585800Y-63500D03*
D17*
X-585800Y-88900D03*
X-585800Y-114300D03*
X-585800Y-139700D03*
X-506400Y-139700D03*
X-506400Y-114300D03*
X-506400Y-88900D03*
X-506400Y-63500D03*
D16*
X-471500Y-63500D03*
D17*
X-471500Y-88900D03*
X-471500Y-114300D03*
X-471500Y-139700D03*
X-392100Y-139700D03*
X-392100Y-114300D03*
X-392100Y-88900D03*
X-392100Y-63500D03*
D16*
X-585800Y-203200D03*
D17*
X-585800Y-228600D03*
X-585800Y-254000D03*
X-585800Y-279400D03*
X-506400Y-279400D03*
X-506400Y-254000D03*
X-506400Y-228600D03*
X-506400Y-203200D03*
D18*
X-456200Y228600D03*
X-407400Y228600D03*
D19*
X-508000Y355600D03*
X-482600Y355600D03*
X-457200Y355600D03*
X-508000Y317500D03*
X-482600Y317500D03*
X-457200Y317500D03*
D20*
X292100Y266700D03*
X266700Y266700D03*
X241300Y266700D03*
X317500Y266700D03*
D21*
X145300Y-139700D03*
D22*
X170700Y-139700D03*
X602500Y-139700D03*
X196100Y-139700D03*
X221500Y-139700D03*
X246900Y-139700D03*
X272300Y-139700D03*
X297700Y-139700D03*
X323100Y-139700D03*
X348500Y-139700D03*
X373900Y-139700D03*
X399300Y-139700D03*
X424700Y-139700D03*
X450100Y-139700D03*
X475500Y-139700D03*
X500900Y-139700D03*
X526300Y-139700D03*
X551700Y-139700D03*
X577100Y-139700D03*
X145300Y114300D03*
X170700Y114300D03*
X196100Y114300D03*
X221500Y114300D03*
X246900Y114300D03*
X272300Y114300D03*
X297700Y114300D03*
X323100Y114300D03*
X348500Y114300D03*
X373900Y114300D03*
X399300Y114300D03*
X424700Y114300D03*
X450100Y114300D03*
X475500Y114300D03*
X500900Y114300D03*
X526300Y114300D03*
X551700Y114300D03*
X577100Y114300D03*
X602500Y114300D03*
D10*
X25400Y-164100D03*
D11*
X25400Y-139100D03*
X25400Y-114100D03*
X25400Y-89100D03*
X25400Y-64100D03*
X25400Y-39100D03*
D15*
X247904Y50800D02*
X260096Y50800D01*
X260096Y25400D02*
X247904Y25400D01*
X324104Y25400D02*
X336296Y25400D01*
X336296Y50800D02*
X324104Y50800D01*
X145796Y50800D02*
X133604Y50800D01*
X133604Y25400D02*
X145796Y25400D01*
X209804Y25400D02*
X221996Y25400D01*
X221996Y50800D02*
X209804Y50800D01*
X476504Y50800D02*
X488696Y50800D01*
X488696Y25400D02*
X476504Y25400D01*
X552704Y25400D02*
X564896Y25400D01*
X564896Y50800D02*
X552704Y50800D01*
X374142Y50800D02*
X361950Y50800D01*
X361950Y25400D02*
X374142Y25400D01*
X438150Y25400D02*
X450342Y25400D01*
X450342Y50800D02*
X438150Y50800D01*
D23*
X498475Y190500D02*
X422275Y266700D01*
X498475Y190500D02*
X508000Y190500D01*
X508000Y120650D01*
X501650Y114300D01*
X422275Y266700D02*
X419700Y266700D01*
X500900Y114300D02*
X501650Y114300D01*
X292100Y209550D02*
X196850Y114300D01*
X292100Y209550D02*
X292100Y266700D01*
X196850Y114300D02*
X196100Y114300D01*
X273050Y114300D02*
X314325Y155575D01*
X314325Y263525D01*
X317500Y266700D01*
X273050Y114300D02*
X272300Y114300D01*
X469900Y152400D02*
X495300Y177800D01*
X469900Y152400D02*
X469900Y120650D01*
X473075Y117475D01*
X473075Y114300D01*
X475500Y114300D01*
X-34925Y161925D02*
X-50800Y177800D01*
X-34925Y161925D02*
X158750Y161925D01*
X361950Y158750D02*
X396875Y123825D01*
X396875Y114300D01*
X-50800Y177800D02*
X-51400Y177800D01*
X396875Y114300D02*
X399300Y114300D01*
D24*
X158750Y161925D03*
X361950Y158750D03*
D23*
X349250Y139700D02*
X371475Y117475D01*
X371475Y114300D01*
X373900Y114300D01*
D24*
X349250Y139700D03*
D23*
X323850Y114300D02*
X323850Y171450D01*
X323850Y114300D02*
X323100Y114300D01*
D24*
X323850Y171450D03*
D23*
X342900Y-190500D02*
X381000Y-228600D01*
X342900Y-190500D02*
X342900Y-146050D01*
X346075Y-142875D01*
X346075Y-139700D01*
X348500Y-139700D01*
X317500Y-177800D02*
X266700Y-228600D01*
X317500Y-177800D02*
X317500Y-146050D01*
X320675Y-142875D01*
X320675Y-139700D01*
X323100Y-139700D01*
X215900Y-165100D02*
X152400Y-228600D01*
X215900Y-165100D02*
X292100Y-165100D01*
X292100Y-146050D01*
X295275Y-142875D01*
X295275Y-139700D01*
X297700Y-139700D01*
X0Y-152400D02*
X-76200Y-228600D01*
X0Y-152400D02*
X31750Y-152400D01*
X60325Y-123825D01*
X266700Y-123825D01*
X266700Y-133350D01*
X269875Y-136525D01*
X269875Y-139700D01*
X272300Y-139700D01*
X53975Y-244475D02*
X38100Y-228600D01*
X53975Y-244475D02*
X139700Y-244475D01*
X139700Y-222250D01*
X206375Y-155575D01*
X241300Y-155575D01*
X241300Y-146050D01*
X244475Y-142875D01*
X244475Y-139700D01*
X246900Y-139700D01*
D25*
X-337820Y314960D02*
X-337820Y347980D01*
X-337820Y314960D02*
X-337820Y-157480D01*
X-304800Y-190500D01*
X-304800Y-253000D01*
X-305800Y-254000D01*
X-305800Y-330200D01*
D23*
X41275Y177800D02*
X60325Y196850D01*
X60325Y266700D01*
X41275Y177800D02*
X38300Y177800D01*
X60325Y266700D02*
X63300Y266700D01*
X-79375Y266700D02*
X-98425Y247650D01*
X-98425Y193675D02*
X-98425Y177800D01*
X-98425Y193675D02*
X-98425Y247650D01*
X-79375Y266700D02*
X-76400Y266700D01*
X-98425Y177800D02*
X-101400Y177800D01*
X22225Y193675D02*
X38100Y177800D01*
X22225Y193675D02*
X-98425Y193675D01*
X38100Y177800D02*
X38300Y177800D01*
X495300Y266700D02*
X539750Y222250D01*
X539750Y-152400D01*
X473075Y-219075D01*
X473075Y-228600D01*
X494700Y266700D02*
X495300Y266700D01*
X473075Y-228600D02*
X470300Y-228600D01*
X130175Y-212725D02*
X130175Y-161925D01*
X130175Y-212725D02*
X130175Y-228600D01*
X130175Y-161925D02*
X142875Y-149225D01*
X142875Y-139700D01*
X130175Y-228600D02*
X127400Y-228600D01*
X142875Y-139700D02*
X145300Y-139700D01*
X-190500Y53975D02*
X-263525Y127000D01*
X-190500Y53975D02*
X-190500Y-130175D01*
X-101600Y-219075D01*
X-101600Y-228600D01*
X-101200Y-228600D01*
X15875Y-212725D02*
X130175Y-212725D01*
X15875Y-212725D02*
X15875Y-228600D01*
X13100Y-228600D01*
D24*
X-263525Y127000D03*
D23*
X327025Y-12700D02*
X330200Y-9525D01*
X330200Y25400D01*
D24*
X327025Y-12700D03*
D23*
X215900Y-25400D02*
X206375Y-34925D01*
X215900Y-25400D02*
X215900Y25400D01*
D24*
X206375Y-34925D03*
D23*
X425450Y-12700D02*
X441325Y3175D01*
X441325Y25400D01*
X444246Y25400D01*
D24*
X425450Y-12700D03*
D23*
X254000Y339725D02*
X241300Y352425D01*
X254000Y339725D02*
X254000Y323850D01*
X304800Y273050D01*
X304800Y193675D01*
X234950Y123825D01*
X234950Y76200D01*
X215900Y57150D01*
X215900Y50800D01*
X241300Y352425D02*
X238760Y353060D01*
X266700Y352425D02*
X279400Y339725D01*
X279400Y323850D01*
X342900Y260350D01*
X342900Y165100D01*
X387350Y120650D01*
X387350Y107950D01*
X441325Y53975D01*
X441325Y50800D01*
X266700Y352425D02*
X264160Y353060D01*
X441325Y50800D02*
X444246Y50800D01*
X-558800Y76200D02*
X-561975Y79375D01*
X-561975Y98425D01*
X-558800Y101600D01*
X-558800Y114300D01*
X-561975Y-9525D02*
X-558800Y-12700D01*
X-561975Y-9525D02*
X-561975Y9525D01*
X-558800Y12700D01*
X-558800Y25400D01*
X-422275Y-44450D02*
X-381000Y-3175D01*
D24*
X-381000Y-3175D03*
X-422275Y-44450D03*
D23*
X-533400Y76200D02*
X-536575Y79375D01*
X-536575Y98425D01*
X-533400Y101600D01*
X-533400Y114300D01*
X-536575Y-9525D02*
X-533400Y-12700D01*
X-536575Y-9525D02*
X-536575Y9525D01*
X-533400Y12700D01*
X-533400Y25400D01*
X200025Y339725D02*
X213360Y353060D01*
X200025Y339725D02*
X200025Y139700D01*
X184150Y123825D01*
X184150Y60325D01*
X185738Y58738D02*
X206375Y38100D01*
X185738Y58738D02*
X184150Y60325D01*
X206375Y38100D02*
X365125Y38100D01*
X365125Y50800D01*
X368046Y50800D01*
X-114300Y19050D02*
X-127000Y19050D01*
X-114300Y19050D02*
X-114300Y25400D01*
X-101600Y38100D01*
X184150Y38100D01*
X184150Y57150D01*
X-127000Y19050D02*
X-127000Y16002D01*
X184150Y57150D02*
X185738Y58738D01*
X174625Y339725D02*
X187960Y353060D01*
X174625Y339725D02*
X174625Y165100D01*
X130175Y120650D01*
X130175Y66675D01*
X131763Y65088D02*
X139700Y57150D01*
X131763Y65088D02*
X130175Y66675D01*
X139700Y57150D02*
X139700Y50800D01*
X-165100Y19050D02*
X-177800Y19050D01*
X-165100Y19050D02*
X-165100Y25400D01*
X-127000Y63500D01*
X130175Y63500D01*
X-177800Y19050D02*
X-177800Y16002D01*
X130175Y63500D02*
X131763Y65088D01*
X-269875Y234950D02*
X-304800Y269875D01*
X-304800Y330200D01*
X-303530Y331470D01*
X358775Y177800D02*
X400050Y219075D01*
X400050Y247650D02*
X400050Y260350D01*
X400050Y247650D02*
X400050Y219075D01*
X400050Y260350D02*
X396875Y263525D01*
X396875Y266700D01*
X358775Y177800D02*
X356000Y177800D01*
X394700Y266700D02*
X396875Y266700D01*
X400050Y247650D02*
X469900Y177800D01*
X470300Y177800D01*
D24*
X-269875Y234950D03*
D23*
X-585800Y-139700D02*
X-596900Y-139700D01*
X-609600Y-127000D01*
X-609600Y127000D01*
X-589280Y147320D01*
X-532130Y147320D01*
D26*
X-532130Y147320D03*
D23*
X-390525Y-63500D02*
X-368300Y-85725D01*
X-368300Y-314325D01*
X-377825Y-323850D01*
X-377825Y-330200D01*
X-390525Y-63500D02*
X-392100Y-63500D01*
X-380800Y-330200D02*
X-377825Y-330200D01*
X-384175Y-174625D02*
X-469900Y-88900D01*
X-384175Y-174625D02*
X-384175Y-250825D01*
X-381000Y-254000D01*
X-469900Y-88900D02*
X-471500Y-88900D01*
X-381000Y-254000D02*
X-380800Y-254000D01*
X-400050Y-209550D02*
X-469900Y-139700D01*
X-400050Y-209550D02*
X-400050Y-247650D01*
X-403225Y-250825D01*
X-403225Y-254000D01*
X-469900Y-139700D02*
X-471500Y-139700D01*
X-405800Y-254000D02*
X-403225Y-254000D01*
X-482600Y66675D02*
X-349250Y200025D01*
X-482600Y66675D02*
X-482600Y-269875D01*
X-428625Y-323850D01*
X-428625Y-330200D01*
X-430800Y-330200D01*
D24*
X-349250Y200025D03*
D23*
X-292100Y146050D02*
X-215900Y222250D01*
X-292100Y146050D02*
X-292100Y-117475D01*
D24*
X-215900Y222250D03*
X-292100Y-117475D03*
D23*
X-495300Y342900D02*
X-482600Y355600D01*
X-495300Y342900D02*
X-495300Y311150D01*
X-565150Y241300D01*
X-571500Y241300D01*
X-571500Y241100D01*
X-457200Y244475D02*
X-457200Y317500D01*
X-457200Y244475D02*
X-492125Y209550D01*
X-492125Y-184150D01*
X-504825Y-196850D01*
X-504825Y-203200D01*
X-506400Y-203200D01*
X-469900Y342900D02*
X-457200Y355600D01*
X-469900Y342900D02*
X-469900Y244475D01*
X-517525Y196850D01*
X-517525Y-82550D01*
X-520700Y-85725D01*
X-520700Y-234950D01*
X-508000Y-247650D01*
X-508000Y-254000D01*
X-506400Y-254000D01*
X-44450Y-101600D02*
X-19050Y-127000D01*
X-44450Y-101600D02*
X-44450Y-76200D01*
D24*
X-19050Y-127000D03*
X-44450Y-76200D03*
D23*
X-15875Y-136525D02*
X19050Y-101600D01*
X-15875Y-136525D02*
X-50800Y-136525D01*
X-50800Y-130175D01*
X-57150Y-123825D01*
D24*
X19050Y-101600D03*
X-57150Y-123825D03*
D23*
X409575Y-177800D02*
X447675Y-139700D01*
X450100Y-139700D01*
D24*
X409575Y-177800D03*
D23*
X473075Y-114300D02*
X498475Y-139700D01*
X473075Y-114300D02*
X38100Y-114300D01*
X38100Y-120650D01*
X31750Y-127000D01*
X6350Y-127000D01*
X-12700Y-146050D01*
X-57150Y-146050D01*
X-57150Y-139700D01*
X498475Y-139700D02*
X500900Y-139700D01*
D24*
X-57150Y-139700D03*
D23*
X463550Y53975D02*
X523875Y114300D01*
X463550Y53975D02*
X463550Y47625D01*
X454025Y38100D01*
X387350Y38100D01*
X387350Y22225D01*
X288925Y-76200D01*
X-34925Y-76200D01*
X-34925Y-73025D01*
X-41275Y-66675D01*
X-57150Y-66675D01*
X-57150Y-101600D01*
X523875Y114300D02*
X526300Y114300D01*
D24*
X-57150Y-101600D03*
M02*
