G04 EAGLE Gerber RS-274X export*
G75*
%MOMM*%
%FSLAX34Y34*%
%LPD*%
%INSoldermask Top*%
%IPPOS*%
%AMOC8*
5,1,8,0,0,1.08239X$1,22.5*%
G01*
G04 Define Apertures*
%ADD10R,1.088800X1.838800*%
%ADD11R,1.291600X1.942300*%
%ADD12R,1.627000X1.627000*%
%ADD13C,1.627000*%
%ADD14C,1.027000*%
%ADD15P,2.88673X8X22.5*%
%ADD16R,1.158200X1.547200*%
%ADD17C,1.651000*%
%ADD18R,2.519000X1.692300*%
%ADD19C,1.346200*%
%ADD20R,1.047900X1.097200*%
%ADD21R,1.602000X0.727000*%
%ADD22R,0.727000X1.602000*%
%ADD23R,1.652000X0.777000*%
%ADD24R,1.257000X1.257000*%
%ADD25C,1.257000*%
%ADD26C,1.357000*%
%ADD27C,1.498600*%
%ADD28R,1.097200X1.047900*%
%ADD29R,2.477000X2.577000*%
%ADD30R,0.925700X1.100900*%
%ADD31R,1.100900X0.925700*%
%ADD32C,1.651000*%
%ADD33R,1.687000X1.687000*%
%ADD34C,1.687000*%
%ADD35C,0.584200*%
%ADD36C,0.652000*%
D10*
X73650Y88900D03*
X104150Y88900D03*
D11*
X23346Y88900D03*
X52854Y88900D03*
D12*
X406000Y177800D03*
D13*
X381000Y177800D03*
X356000Y177800D03*
D12*
X520300Y177800D03*
D13*
X495300Y177800D03*
X470300Y177800D03*
D12*
X13100Y-228600D03*
D13*
X38100Y-228600D03*
X63100Y-228600D03*
D12*
X-101200Y-228600D03*
D13*
X-76200Y-228600D03*
X-51200Y-228600D03*
D12*
X127400Y-228600D03*
D13*
X152400Y-228600D03*
X177400Y-228600D03*
D12*
X241700Y-228600D03*
D13*
X266700Y-228600D03*
X291700Y-228600D03*
D12*
X356000Y-228600D03*
D13*
X381000Y-228600D03*
X406000Y-228600D03*
D12*
X470300Y-228600D03*
D13*
X495300Y-228600D03*
X520300Y-228600D03*
D12*
X519700Y266700D03*
D13*
X494700Y266700D03*
X469700Y266700D03*
X444700Y266700D03*
X419700Y266700D03*
X394700Y266700D03*
D12*
X88300Y266700D03*
D13*
X63300Y266700D03*
X38300Y266700D03*
X13300Y266700D03*
D12*
X-51400Y266700D03*
D13*
X-76400Y266700D03*
X-101400Y266700D03*
X-126400Y266700D03*
D12*
X13300Y177800D03*
D13*
X38300Y177800D03*
X63300Y177800D03*
X88300Y177800D03*
D12*
X-126400Y177800D03*
D13*
X-101400Y177800D03*
X-76400Y177800D03*
X-51400Y177800D03*
D14*
X-243840Y-345440D03*
X-218440Y-345440D03*
X-193040Y-345440D03*
X-167640Y-345440D03*
X-142240Y-345440D03*
X-116840Y-345440D03*
X-91440Y-345440D03*
X-66040Y-345440D03*
X-40640Y-345440D03*
X-15240Y-345440D03*
X10160Y-345440D03*
X35560Y-345440D03*
X86360Y-345440D03*
X111760Y-345440D03*
X137160Y-345440D03*
X162560Y-345440D03*
X187960Y-345440D03*
X238760Y-345440D03*
X264160Y-345440D03*
X289560Y-345440D03*
X314960Y-345440D03*
X340360Y-345440D03*
X365760Y-345440D03*
X-243840Y-320040D03*
X-218440Y-320040D03*
X-193040Y-320040D03*
X-167640Y-320040D03*
X-142240Y-320040D03*
X-116840Y-320040D03*
X-91440Y-320040D03*
X-66040Y-320040D03*
X-40640Y-320040D03*
X-15240Y-320040D03*
X10160Y-320040D03*
X35560Y-320040D03*
X86360Y-320040D03*
X111760Y-320040D03*
X137160Y-320040D03*
X162560Y-320040D03*
X187960Y-320040D03*
X238760Y-320040D03*
X264160Y-320040D03*
X289560Y-320040D03*
X314960Y-320040D03*
X340360Y-320040D03*
X365760Y-320040D03*
X-243840Y327660D03*
X-218440Y327660D03*
X-193040Y327660D03*
X-167640Y327660D03*
X-142240Y327660D03*
X-116840Y327660D03*
X-91440Y327660D03*
X-66040Y327660D03*
X-40640Y327660D03*
X10160Y327660D03*
X35560Y327660D03*
X60960Y327660D03*
X86360Y327660D03*
X111760Y327660D03*
X137160Y327660D03*
X162560Y327660D03*
X187960Y327660D03*
X213360Y327660D03*
X238760Y327660D03*
X264160Y327660D03*
X289560Y327660D03*
X314960Y327660D03*
X340360Y327660D03*
X365760Y327660D03*
X-243840Y353060D03*
X-218440Y353060D03*
X-193040Y353060D03*
X-167640Y353060D03*
X-142240Y353060D03*
X-116840Y353060D03*
X-91440Y353060D03*
X-66040Y353060D03*
X-40640Y353060D03*
X10160Y353060D03*
X35560Y353060D03*
X60960Y353060D03*
X86360Y353060D03*
X111760Y353060D03*
X137160Y353060D03*
X162560Y353060D03*
X187960Y353060D03*
X213360Y353060D03*
X238760Y353060D03*
X264160Y353060D03*
X289560Y353060D03*
X314960Y353060D03*
X340360Y353060D03*
X365760Y353060D03*
D15*
X-408940Y331470D03*
X-373380Y347980D03*
X-337820Y347980D03*
X-303530Y331470D03*
X-337820Y314960D03*
X-373380Y314960D03*
D12*
X-305800Y-254000D03*
D13*
X-330800Y-254000D03*
X-355800Y-254000D03*
X-380800Y-254000D03*
X-405800Y-254000D03*
X-430800Y-254000D03*
D12*
X-305800Y-330200D03*
D13*
X-330800Y-330200D03*
X-355800Y-330200D03*
X-380800Y-330200D03*
X-405800Y-330200D03*
X-430800Y-330200D03*
D12*
X-571500Y291100D03*
D13*
X-571500Y266100D03*
X-571500Y241100D03*
X-571500Y216100D03*
X-571500Y191100D03*
X-571500Y166100D03*
D16*
X301295Y38100D03*
X282905Y38100D03*
X186995Y38100D03*
X168605Y38100D03*
X529895Y38100D03*
X511505Y38100D03*
X415595Y38100D03*
X397205Y38100D03*
D17*
X-584200Y106680D02*
X-584200Y121920D01*
X-558800Y121920D02*
X-558800Y106680D01*
X-533400Y106680D02*
X-533400Y121920D01*
X-584200Y83820D02*
X-584200Y68580D01*
X-558800Y68580D02*
X-558800Y83820D01*
X-533400Y83820D02*
X-533400Y68580D01*
X-584200Y33020D02*
X-584200Y17780D01*
X-558800Y17780D02*
X-558800Y33020D01*
X-533400Y33020D02*
X-533400Y17780D01*
X-584200Y-5080D02*
X-584200Y-20320D01*
X-558800Y-20320D02*
X-558800Y-5080D01*
X-533400Y-5080D02*
X-533400Y-20320D01*
D18*
X182121Y-38100D03*
X224279Y-38100D03*
X512321Y-38100D03*
X554479Y-38100D03*
X283721Y-38100D03*
X325879Y-38100D03*
X465579Y-38100D03*
X423421Y-38100D03*
D19*
X-177800Y9906D02*
X-177800Y22098D01*
X-152400Y22098D02*
X-152400Y9906D01*
X-25400Y9906D02*
X-25400Y22098D01*
X-25400Y86106D02*
X-25400Y98298D01*
X-127000Y22098D02*
X-127000Y9906D01*
X-101600Y9906D02*
X-101600Y22098D01*
X-50800Y22098D02*
X-50800Y9906D01*
X-76200Y9906D02*
X-76200Y22098D01*
X-50800Y86106D02*
X-50800Y98298D01*
X-76200Y98298D02*
X-76200Y86106D01*
X-101600Y86106D02*
X-101600Y98298D01*
X-127000Y98298D02*
X-127000Y86106D01*
X-152400Y86106D02*
X-152400Y98298D01*
X-177800Y98298D02*
X-177800Y86106D01*
D20*
X-347854Y279400D03*
X-363346Y279400D03*
X398654Y-317500D03*
X414146Y-317500D03*
X-261746Y292100D03*
X-246254Y292100D03*
X452246Y139700D03*
X436754Y139700D03*
D21*
X-397980Y155000D03*
X-397980Y147000D03*
X-397980Y139000D03*
X-397980Y131000D03*
X-397980Y123000D03*
X-397980Y115000D03*
X-397980Y107000D03*
X-397980Y99000D03*
D22*
X-383600Y84620D03*
X-375600Y84620D03*
X-367600Y84620D03*
X-359600Y84620D03*
X-351600Y84620D03*
X-343600Y84620D03*
X-335600Y84620D03*
X-327600Y84620D03*
D21*
X-313220Y99000D03*
X-313220Y107000D03*
X-313220Y115000D03*
X-313220Y123000D03*
X-313220Y131000D03*
X-313220Y139000D03*
X-313220Y147000D03*
X-313220Y155000D03*
D22*
X-327600Y169380D03*
X-335600Y169380D03*
X-343600Y169380D03*
X-351600Y169380D03*
X-359600Y169380D03*
X-367600Y169380D03*
X-375600Y169380D03*
X-383600Y169380D03*
D23*
X-255720Y247650D03*
X-255720Y234950D03*
X-255720Y222250D03*
X-255720Y209550D03*
X-255720Y196850D03*
X-255720Y184150D03*
X-255720Y171450D03*
X-255720Y158750D03*
X-201480Y158750D03*
X-201480Y171450D03*
X-201480Y184150D03*
X-201480Y196850D03*
X-201480Y209550D03*
X-201480Y222250D03*
X-201480Y234950D03*
X-201480Y247650D03*
D24*
X-585800Y-63500D03*
D25*
X-585800Y-88900D03*
X-585800Y-114300D03*
X-585800Y-139700D03*
X-506400Y-139700D03*
X-506400Y-114300D03*
X-506400Y-88900D03*
X-506400Y-63500D03*
D24*
X-471500Y-63500D03*
D25*
X-471500Y-88900D03*
X-471500Y-114300D03*
X-471500Y-139700D03*
X-392100Y-139700D03*
X-392100Y-114300D03*
X-392100Y-88900D03*
X-392100Y-63500D03*
D24*
X-585800Y-203200D03*
D25*
X-585800Y-228600D03*
X-585800Y-254000D03*
X-585800Y-279400D03*
X-506400Y-279400D03*
X-506400Y-254000D03*
X-506400Y-228600D03*
X-506400Y-203200D03*
D26*
X-456200Y228600D03*
X-407400Y228600D03*
D27*
X-508000Y355600D03*
X-482600Y355600D03*
X-457200Y355600D03*
X-508000Y317500D03*
X-482600Y317500D03*
X-457200Y317500D03*
D28*
X-279400Y233554D03*
X-279400Y249046D03*
D29*
X-477000Y-355600D03*
X-539000Y-355600D03*
X-310400Y-127000D03*
X-248400Y-127000D03*
D20*
X-274446Y76200D03*
X-258954Y76200D03*
X-274446Y114300D03*
X-258954Y114300D03*
D28*
X-381000Y30354D03*
X-381000Y45846D03*
X-342900Y30354D03*
X-342900Y45846D03*
X-292100Y45846D03*
X-292100Y30354D03*
X-317500Y45846D03*
X-317500Y30354D03*
D30*
X-245848Y88900D03*
X-262152Y88900D03*
X-245848Y101600D03*
X-262152Y101600D03*
D31*
X-368300Y17248D03*
X-368300Y33552D03*
X-355600Y17248D03*
X-355600Y33552D03*
X-330200Y17248D03*
X-330200Y33552D03*
X-304800Y17248D03*
X-304800Y33552D03*
D32*
X292100Y266700D03*
X266700Y266700D03*
X241300Y266700D03*
X317500Y266700D03*
D33*
X145300Y-139700D03*
D34*
X170700Y-139700D03*
X602500Y-139700D03*
X196100Y-139700D03*
X221500Y-139700D03*
X246900Y-139700D03*
X272300Y-139700D03*
X297700Y-139700D03*
X323100Y-139700D03*
X348500Y-139700D03*
X373900Y-139700D03*
X399300Y-139700D03*
X424700Y-139700D03*
X450100Y-139700D03*
X475500Y-139700D03*
X500900Y-139700D03*
X526300Y-139700D03*
X551700Y-139700D03*
X577100Y-139700D03*
X145300Y114300D03*
X170700Y114300D03*
X196100Y114300D03*
X221500Y114300D03*
X246900Y114300D03*
X272300Y114300D03*
X297700Y114300D03*
X323100Y114300D03*
X348500Y114300D03*
X373900Y114300D03*
X399300Y114300D03*
X424700Y114300D03*
X450100Y114300D03*
X475500Y114300D03*
X500900Y114300D03*
X526300Y114300D03*
X551700Y114300D03*
X577100Y114300D03*
X602500Y114300D03*
D16*
X-47295Y-152400D03*
X-28905Y-152400D03*
X-47295Y-136928D03*
X-28905Y-136928D03*
X-47295Y-121456D03*
X-28905Y-121456D03*
X-47295Y-105984D03*
X-28905Y-105984D03*
X-47295Y-88900D03*
X-28905Y-88900D03*
X-148895Y-88900D03*
X-130505Y-88900D03*
X-148895Y-104372D03*
X-130505Y-104372D03*
X-148895Y-119844D03*
X-130505Y-119844D03*
X-148895Y-135316D03*
X-130505Y-135316D03*
X-148895Y-152400D03*
X-130505Y-152400D03*
D12*
X25400Y-164100D03*
D13*
X25400Y-139100D03*
X25400Y-114100D03*
X25400Y-89100D03*
X25400Y-64100D03*
X25400Y-39100D03*
D19*
X247904Y50800D02*
X260096Y50800D01*
X260096Y25400D02*
X247904Y25400D01*
X324104Y25400D02*
X336296Y25400D01*
X336296Y50800D02*
X324104Y50800D01*
X145796Y50800D02*
X133604Y50800D01*
X133604Y25400D02*
X145796Y25400D01*
X209804Y25400D02*
X221996Y25400D01*
X221996Y50800D02*
X209804Y50800D01*
X476504Y50800D02*
X488696Y50800D01*
X488696Y25400D02*
X476504Y25400D01*
X552704Y25400D02*
X564896Y25400D01*
X564896Y50800D02*
X552704Y50800D01*
X374142Y50800D02*
X361950Y50800D01*
X361950Y25400D02*
X374142Y25400D01*
X438150Y25400D02*
X450342Y25400D01*
X450342Y50800D02*
X438150Y50800D01*
D35*
X158750Y161925D03*
X361950Y158750D03*
X349250Y139700D03*
X323850Y171450D03*
X-263525Y127000D03*
X327025Y-12700D03*
X206375Y-34925D03*
X425450Y-12700D03*
X-381000Y-3175D03*
X-422275Y-44450D03*
X-269875Y234950D03*
D36*
X-532130Y147320D03*
D35*
X-349250Y200025D03*
X-215900Y222250D03*
X-292100Y-117475D03*
X-19050Y-127000D03*
X-44450Y-76200D03*
X19050Y-101600D03*
X-57150Y-123825D03*
X409575Y-177800D03*
X-57150Y-139700D03*
X-57150Y-101600D03*
M02*
